<svg width="367" height="367" viewBox="0 0 367 367" fill="none" xmlns="http://www.w3.org/2000/svg">
<g clip-path="url(#clip0)">
<path opacity="0.52" d="M213.782 295.649C290.5 295.649 352.692 233.457 352.692 156.739C352.692 80.0211 290.5 17.829 213.782 17.829C137.064 17.829 74.8716 80.0211 74.8716 156.739C74.8716 233.457 137.064 295.649 213.782 295.649Z" fill="#D4F0F5"/>
<g opacity="0.79">
<g opacity="0.79">
<g opacity="0.79">
<path opacity="0.79" d="M228.997 54.3264C230.652 55.9824 230.652 58.6677 228.997 60.3237C227.342 61.9797 224.659 61.9797 223.004 60.3237C221.349 58.667 221.349 55.9824 223.004 54.3264C224.659 52.6704 227.342 52.6704 228.997 54.3264Z" fill="white"/>
</g>
<g opacity="0.79">
<path opacity="0.79" d="M228.997 67.8565C230.652 69.5125 230.652 72.1977 228.997 73.8538C227.342 75.5098 224.659 75.5098 223.004 73.8538C221.349 72.1977 221.349 69.5125 223.004 67.8565C224.659 66.2005 227.342 66.2005 228.997 67.8565Z" fill="white"/>
</g>
<g opacity="0.79">
<path opacity="0.79" d="M228.997 81.3861C230.652 83.0427 230.652 85.7273 228.997 87.3833C227.342 89.0393 224.659 89.0393 223.004 87.3833C221.349 85.7273 221.349 83.0421 223.004 81.3861C224.659 79.73 227.342 79.73 228.997 81.3861Z" fill="white"/>
</g>
<g opacity="0.79">
<path opacity="0.79" d="M228.997 94.9162C230.652 96.5722 230.652 99.2574 228.997 100.913C227.342 102.569 224.659 102.569 223.004 100.913C221.349 99.2568 221.349 96.5722 223.004 94.9162C224.659 93.2602 227.342 93.2602 228.997 94.9162Z" fill="white"/>
</g>
<g opacity="0.79">
<path opacity="0.79" d="M228.997 108.446C230.652 110.103 230.652 112.788 228.997 114.444C227.342 116.1 224.659 116.1 223.004 114.444C221.349 112.788 221.349 110.102 223.004 108.446C224.659 106.79 227.342 106.79 228.997 108.446Z" fill="white"/>
</g>
</g>
<g opacity="0.79">
<g opacity="0.79">
<path opacity="0.79" d="M242.382 54.3264C244.037 55.9824 244.037 58.6676 242.382 60.3236C240.727 61.9796 238.044 61.9796 236.389 60.3236C234.734 58.667 234.734 55.9824 236.389 54.3264C238.044 52.6703 240.728 52.6703 242.382 54.3264Z" fill="white"/>
</g>
<g opacity="0.79">
<path opacity="0.79" d="M242.382 67.8564C244.037 69.5125 244.037 72.1977 242.382 73.8537C240.727 75.5097 238.044 75.5097 236.389 73.8537C234.734 72.1977 234.734 69.5125 236.389 67.8564C238.044 66.2004 240.728 66.2004 242.382 67.8564Z" fill="white"/>
</g>
<g opacity="0.79">
<path opacity="0.79" d="M242.382 81.386C244.037 83.0426 244.037 85.7272 242.382 87.3832C240.727 89.0393 238.044 89.0393 236.389 87.3832C234.734 85.7272 234.734 83.042 236.389 81.386C238.044 79.73 240.728 79.73 242.382 81.386Z" fill="white"/>
</g>
<g opacity="0.79">
<path opacity="0.79" d="M242.382 94.9161C244.037 96.5722 244.037 99.2574 242.382 100.913C240.727 102.569 238.044 102.569 236.389 100.913C234.734 99.2568 234.734 96.5722 236.389 94.9161C238.044 93.2601 240.728 93.2601 242.382 94.9161Z" fill="white"/>
</g>
<g opacity="0.79">
<path opacity="0.79" d="M242.382 108.446C244.037 110.103 244.037 112.788 242.382 114.444C240.727 116.1 238.044 116.1 236.389 114.444C234.734 112.788 234.734 110.102 236.389 108.446C238.044 106.79 240.728 106.79 242.382 108.446Z" fill="white"/>
</g>
</g>
<g opacity="0.79">
<g opacity="0.79">
<path opacity="0.79" d="M256.011 54.3264C257.667 55.9824 257.667 58.6676 256.011 60.3236C254.356 61.9796 251.673 61.9796 250.018 60.3236C248.363 58.667 248.363 55.9824 250.018 54.3264C251.673 52.6703 254.356 52.6703 256.011 54.3264Z" fill="white"/>
</g>
<g opacity="0.79">
<path opacity="0.79" d="M256.011 67.8564C257.666 69.5125 257.666 72.1977 256.011 73.8537C254.356 75.5097 251.673 75.5097 250.018 73.8537C248.363 72.1977 248.363 69.5125 250.018 67.8564C251.673 66.2004 254.356 66.2004 256.011 67.8564Z" fill="white"/>
</g>
<g opacity="0.79">
<path opacity="0.79" d="M256.011 81.386C257.666 83.0426 257.666 85.7272 256.011 87.3832C254.356 89.0393 251.673 89.0393 250.018 87.3832C248.363 85.7272 248.363 83.042 250.018 81.386C251.673 79.73 254.356 79.73 256.011 81.386Z" fill="white"/>
</g>
<g opacity="0.79">
<path opacity="0.79" d="M256.011 94.9161C257.666 96.5722 257.666 99.2574 256.011 100.913C254.356 102.569 251.673 102.569 250.018 100.913C248.363 99.2568 248.363 96.5722 250.018 94.9161C251.673 93.2601 254.356 93.2601 256.011 94.9161Z" fill="white"/>
</g>
<g opacity="0.79">
<path opacity="0.79" d="M256.011 108.446C257.666 110.103 257.666 112.788 256.011 114.444C254.356 116.1 251.673 116.1 250.018 114.444C248.363 112.788 248.363 110.102 250.018 108.446C251.673 106.79 254.356 106.79 256.011 108.446Z" fill="white"/>
</g>
</g>
<g opacity="0.79">
<g opacity="0.79">
<path opacity="0.79" d="M269.397 54.3264C271.052 55.9824 271.052 58.6676 269.397 60.3236C267.742 61.9796 265.06 61.9796 263.404 60.3236C261.749 58.667 261.749 55.9824 263.404 54.3264C265.06 52.6703 267.742 52.6703 269.397 54.3264Z" fill="white"/>
</g>
<g opacity="0.79">
<path opacity="0.79" d="M269.397 67.8564C271.052 69.5125 271.052 72.1977 269.397 73.8537C267.742 75.5097 265.059 75.5097 263.404 73.8537C261.748 72.1977 261.748 69.5125 263.404 67.8564C265.059 66.2004 267.742 66.2004 269.397 67.8564Z" fill="white"/>
</g>
<g opacity="0.79">
<path opacity="0.79" d="M269.397 81.386C271.052 83.0426 271.052 85.7272 269.397 87.3832C267.742 89.0393 265.059 89.0393 263.404 87.3832C261.748 85.7272 261.748 83.042 263.404 81.386C265.059 79.73 267.742 79.73 269.397 81.386Z" fill="white"/>
</g>
<g opacity="0.79">
<path opacity="0.79" d="M269.397 94.9161C271.052 96.5722 271.052 99.2574 269.397 100.913C267.742 102.569 265.059 102.569 263.404 100.913C261.748 99.2568 261.748 96.5722 263.404 94.9161C265.059 93.2601 267.742 93.2601 269.397 94.9161Z" fill="white"/>
</g>
<g opacity="0.79">
<path opacity="0.79" d="M269.397 108.446C271.052 110.103 271.052 112.788 269.397 114.444C267.742 116.1 265.059 116.1 263.404 114.444C261.748 112.788 261.748 110.102 263.404 108.446C265.059 106.79 267.742 106.79 269.397 108.446Z" fill="white"/>
</g>
</g>
<g opacity="0.79">
<g opacity="0.79">
<path opacity="0.79" d="M282.352 54.3264C284.007 55.9824 284.007 58.6676 282.352 60.3236C280.697 61.9796 278.013 61.9796 276.359 60.3236C274.703 58.667 274.703 55.9824 276.359 54.3264C278.013 52.6703 280.697 52.6703 282.352 54.3264Z" fill="white"/>
</g>
<g opacity="0.79">
<path opacity="0.79" d="M282.352 67.8564C284.007 69.5125 284.007 72.1977 282.352 73.8537C280.697 75.5097 278.013 75.5097 276.359 73.8537C274.703 72.1977 274.703 69.5125 276.359 67.8564C278.013 66.2004 280.697 66.2004 282.352 67.8564Z" fill="white"/>
</g>
<g opacity="0.79">
<path opacity="0.79" d="M282.352 81.386C284.007 83.0426 284.007 85.7272 282.352 87.3832C280.697 89.0393 278.013 89.0393 276.359 87.3832C274.703 85.7272 274.703 83.042 276.359 81.386C278.013 79.73 280.697 79.73 282.352 81.386Z" fill="white"/>
</g>
<g opacity="0.79">
<path opacity="0.79" d="M282.352 94.9161C284.007 96.5722 284.007 99.2574 282.352 100.913C280.697 102.569 278.013 102.569 276.359 100.913C274.703 99.2568 274.703 96.5722 276.359 94.9161C278.013 93.2601 280.697 93.2601 282.352 94.9161Z" fill="white"/>
</g>
<g opacity="0.79">
<path opacity="0.79" d="M282.352 108.446C284.007 110.103 284.007 112.788 282.352 114.444C280.697 116.1 278.013 116.1 276.359 114.444C274.703 112.788 274.703 110.102 276.359 108.446C278.013 106.79 280.697 106.79 282.352 108.446Z" fill="white"/>
</g>
</g>
</g>
<path d="M319.817 170.379L267.963 251.773L271.193 253.83L323.046 172.436L319.817 170.379Z" fill="white"/>
<path d="M329.501 173.432L277.648 254.825L280.878 256.882L332.731 175.489L329.501 173.432Z" fill="white"/>
<path d="M339.187 176.486L287.333 257.88L290.564 259.937L342.417 178.544L339.187 176.486Z" fill="white"/>
<path d="M348.872 179.541L297.019 260.934L300.249 262.992L352.102 181.599L348.872 179.541Z" fill="white"/>
<path d="M358.556 182.595L306.704 263.988L309.934 266.046L361.786 184.652L358.556 182.595Z" fill="white"/>
<path d="M368.242 185.648L316.389 267.042L319.619 269.099L371.472 187.706L368.242 185.648Z" fill="white"/>
<path d="M377.926 188.7L326.074 270.094L329.304 272.152L381.156 190.758L377.926 188.7Z" fill="white"/>
<path d="M387.612 191.756L335.759 273.149L338.989 275.207L390.842 193.813L387.612 191.756Z" fill="white"/>
<path d="M176.01 40.9016H182.126C182.674 40.9016 183.119 41.3466 183.119 41.8957V48.0114C183.119 48.5598 183.564 49.0049 184.113 49.0049H184.266C184.815 49.0049 185.26 48.5598 185.26 48.0114V41.8957C185.26 41.3472 185.705 40.9016 186.253 40.9016H192.369C192.918 40.9016 193.362 40.4572 193.362 39.9081V39.7552C193.362 39.2061 192.918 38.7617 192.369 38.7617H186.253C185.705 38.7617 185.26 38.3166 185.26 37.7676V31.6519C185.26 31.1034 184.815 30.6584 184.266 30.6584H184.113C183.564 30.6584 183.119 31.1034 183.119 31.6519V37.7676C183.119 38.3166 182.675 38.7617 182.126 38.7617H176.01C175.462 38.7617 175.017 39.2061 175.017 39.7552V39.9081C175.017 40.4566 175.462 40.9016 176.01 40.9016Z" fill="white"/>
<path d="M193.241 51.8738H196.971C197.305 51.8738 197.577 52.1452 197.577 52.4799V56.2088C197.577 56.5435 197.848 56.8149 198.183 56.8149H198.276C198.61 56.8149 198.882 56.5435 198.882 56.2088V52.4799C198.882 52.1452 199.153 51.8738 199.488 51.8738H203.217C203.551 51.8738 203.823 51.6024 203.823 51.2677V51.1749C203.823 50.8402 203.551 50.5688 203.217 50.5688H199.488C199.153 50.5688 198.882 50.2974 198.882 49.9627V46.2338C198.882 45.8991 198.61 45.6284 198.276 45.6284H198.183C197.848 45.6284 197.577 45.8998 197.577 46.2338V49.9627C197.577 50.2974 197.305 50.5688 196.971 50.5688H193.241C192.907 50.5688 192.636 50.8402 192.636 51.1749V51.2677C192.636 51.603 192.907 51.8738 193.241 51.8738Z" fill="white"/>
<path d="M326.914 141.296C332.104 141.296 336.311 137.088 336.311 131.898C336.311 126.708 332.104 122.501 326.914 122.501C321.724 122.501 317.516 126.708 317.516 131.898C317.516 137.088 321.724 141.296 326.914 141.296Z" fill="#D4F0F5"/>
<path d="M334.927 136.265C338.425 139.728 340.468 144.597 340.509 149.539C340.533 152.007 340.094 154.488 339.177 156.797C338.266 159.107 336.888 161.238 335.152 163.036C331.686 166.639 326.728 168.811 321.663 168.858C319.137 168.879 316.599 168.407 314.25 167.447C311.903 166.486 309.752 165.05 307.949 163.263C306.162 161.461 304.73 159.307 303.769 156.96C302.805 154.612 302.338 152.073 302.356 149.546C302.398 144.481 304.565 139.519 308.165 136.048C309.96 134.311 312.089 132.929 314.398 132.015C316.706 131.096 319.188 130.654 321.656 130.678C326.599 130.717 331.466 132.765 334.927 136.265ZM334.927 136.265C333.181 134.535 331.1 133.147 328.829 132.217C326.557 131.287 324.101 130.833 321.656 130.853C316.754 130.902 311.962 133.004 308.611 136.493C306.932 138.233 305.602 140.294 304.723 142.527C303.838 144.76 303.415 147.16 303.438 149.546C303.481 154.326 305.455 159.027 308.836 162.377C312.182 165.761 316.883 167.741 321.663 167.781C324.05 167.806 326.45 167.379 328.681 166.491C330.914 165.609 332.973 164.274 334.711 162.593C338.195 159.236 340.291 154.441 340.335 149.538C340.354 147.094 339.901 144.637 338.971 142.365C338.042 140.094 336.656 138.012 334.927 136.265Z" fill="white"/>
<path d="M103.737 0.263165L72.2949 91.5001L75.9156 92.7479L107.357 1.5109L103.737 0.263165Z" fill="white"/>
<path d="M113.867 0.974325L82.4248 92.2113L86.0455 93.459L117.487 2.22206L113.867 0.974325Z" fill="white"/>
<path d="M123.997 1.68551L92.5552 92.9225L96.1758 94.1702L127.618 2.93325L123.997 1.68551Z" fill="white"/>
<path d="M134.127 2.39633L102.686 93.6333L106.306 94.881L137.748 3.64406L134.127 2.39633Z" fill="white"/>
<path d="M144.257 3.10728L112.815 94.3442L116.436 95.592L147.878 4.35501L144.257 3.10728Z" fill="white"/>
<path d="M154.388 3.81863L122.946 95.0556L126.566 96.3033L158.008 5.06637L154.388 3.81863Z" fill="white"/>
<path d="M164.518 4.52934L133.076 95.7663L136.697 97.014L168.139 5.77707L164.518 4.52934Z" fill="white"/>
<path d="M174.648 5.24046L143.206 96.4774L146.827 97.7252L178.268 6.4882L174.648 5.24046Z" fill="white"/>
<path d="M106.557 102.774C119.107 102.774 129.281 92.6002 129.281 80.0497C129.281 67.4992 119.107 57.325 106.557 57.325C94.0062 57.325 83.832 67.4992 83.832 80.0497C83.832 92.6002 94.0062 102.774 106.557 102.774Z" fill="#B9E5EE"/>
<path d="M106.557 100.895C118.07 100.895 127.403 91.5624 127.403 80.0497C127.403 68.537 118.07 59.2042 106.557 59.2042C95.0443 59.2042 85.7114 68.537 85.7114 80.0497C85.7114 91.5624 95.0443 100.895 106.557 100.895Z" fill="white"/>
<path d="M108.716 66.6788C108.863 69.1703 108.918 71.6618 108.981 74.1534C109.017 76.6449 109.042 79.1365 109.021 81.628L109.019 81.9345L108.716 81.9333C106.848 81.9257 104.979 81.9 103.111 81.8443C102.176 81.8154 101.242 81.8041 100.307 81.7615C99.3735 81.7183 98.439 81.6882 97.5044 81.628C98.439 81.5672 99.3729 81.5371 100.307 81.4945C101.242 81.4519 102.176 81.44 103.111 81.4118C104.979 81.3566 106.848 81.3303 108.716 81.3228L108.411 81.628C108.391 79.1365 108.416 76.6449 108.452 74.1534C108.514 71.6618 108.569 69.1703 108.716 66.6788Z" fill="#92D5E4"/>
<path d="M334.864 228.79C338.356 234.56 336.512 242.072 330.744 245.569C324.976 249.066 317.471 247.222 313.979 241.453C310.487 235.682 312.331 228.171 318.099 224.673C323.866 221.177 331.372 223.02 334.864 228.79Z" fill="#92D5E4"/>
<path d="M339.849 216.86C340.764 218.372 340.28 220.34 338.769 221.256C337.259 222.172 335.292 221.689 334.377 220.178C333.462 218.666 333.945 216.698 335.456 215.781C336.968 214.866 338.934 215.349 339.849 216.86Z" fill="#92D5E4"/>
<path d="M83.8383 116.886C88.2284 116.886 91.7874 113.327 91.7874 108.937C91.7874 104.546 88.2284 100.987 83.8383 100.987C79.4481 100.987 75.8892 104.546 75.8892 108.937C75.8892 113.327 79.4481 116.886 83.8383 116.886Z" fill="#92D5E4"/>
<path d="M329.005 117.736C330.904 117.736 332.443 116.196 332.443 114.298C332.443 112.399 330.904 110.86 329.005 110.86C327.106 110.86 325.567 112.399 325.567 114.298C325.567 116.196 327.106 117.736 329.005 117.736Z" fill="#D4F0F5"/>
<path d="M301.189 138.834L299.341 141.858C299.305 141.916 299.257 141.965 299.2 142.001L295.891 144.091C295.614 144.266 295.618 144.672 295.9 144.84L299.402 146.941C299.465 146.979 299.518 147.032 299.555 147.096L301.241 149.964C301.407 150.246 301.812 150.255 301.99 149.98L303.874 147.068C303.904 147.022 303.941 146.982 303.986 146.95L307.145 144.669C307.407 144.479 307.383 144.082 307.099 143.926L303.618 142.011C303.54 141.968 303.476 141.902 303.436 141.822L301.958 138.866C301.803 138.557 301.369 138.539 301.189 138.834Z" fill="#92D5E4"/>
<path d="M284.988 146.046L282.336 150.387C282.285 150.47 282.216 150.54 282.134 150.592L277.385 153.591C276.987 153.843 276.994 154.425 277.398 154.667L282.423 157.683C282.514 157.737 282.59 157.813 282.643 157.904L285.064 162.02C285.303 162.425 285.884 162.438 286.139 162.043L288.843 157.865C288.885 157.799 288.939 157.742 289.003 157.696L293.536 154.421C293.913 154.15 293.877 153.579 293.471 153.356L288.475 150.608C288.362 150.546 288.272 150.451 288.215 150.337L286.093 146.093C285.87 145.65 285.247 145.623 284.988 146.046Z" fill="white"/>
<path d="M102.492 115.754C104.377 115.754 105.906 114.226 105.906 112.34C105.906 110.454 104.377 108.926 102.492 108.926C100.606 108.926 99.0776 110.454 99.0776 112.34C99.0776 114.226 100.606 115.754 102.492 115.754Z" fill="#92D5E4"/>
<path d="M124.564 44.087L122.716 47.1113C122.681 47.169 122.633 47.2179 122.575 47.2542L119.267 49.344C118.99 49.5188 118.994 49.925 119.275 50.0936L122.777 52.1947C122.841 52.2323 122.893 52.2855 122.93 52.3489L124.617 55.2171C124.783 55.4992 125.188 55.5079 125.366 55.2328L127.25 52.3213C127.279 52.2755 127.317 52.2354 127.361 52.2034L130.52 49.9219C130.782 49.7326 130.758 49.3352 130.474 49.1791L126.993 47.2642C126.915 47.221 126.852 47.1552 126.811 47.0756L125.333 44.1189C125.179 43.8099 124.745 43.7917 124.564 44.087Z" fill="#92D5E4"/>
<path d="M144.165 240.621C144.585 238.953 145.004 237.292 145.366 235.621C145.721 233.948 146.058 232.274 146.328 230.588C146.612 228.903 146.83 227.21 147.028 225.511C147.125 224.662 147.204 223.81 147.273 222.956C147.357 222.103 147.403 221.247 147.476 220.389C147.546 221.247 147.561 222.107 147.58 222.968C147.574 223.829 147.548 224.69 147.509 225.551C147.423 227.272 147.22 228.987 146.946 230.688C146.659 232.388 146.302 234.078 145.832 235.736C145.369 237.396 144.831 239.034 144.165 240.621Z" fill="#92D5E4"/>
<path d="M163.195 252.829C147.955 195.022 118.91 168.301 86.201 143.667C85.185 165.733 89.6729 191.022 99.3256 208.489C108.979 225.954 128.273 258.515 150.706 271.834" fill="#B9E5EE"/>
<path d="M153.876 266.854L150.65 258.849L147.289 250.901L143.819 243.001C142.639 240.379 141.414 237.777 140.214 235.164C135.32 224.756 130.107 214.497 124.49 204.462C118.917 194.402 112.944 184.566 106.634 174.951C105.06 172.544 103.432 170.174 101.834 167.783C100.207 165.412 98.5349 163.072 96.8908 160.713L91.8294 153.725L86.6226 146.842L91.9516 153.633L97.1397 160.533C98.8132 162.874 100.507 165.201 102.16 167.558C103.783 169.934 105.437 172.292 107.036 174.684C113.437 184.256 119.414 194.108 125.037 204.157C130.616 214.23 135.845 224.499 140.65 234.962C141.825 237.589 143.025 240.206 144.181 242.842L147.57 250.782L150.792 258.791L153.876 266.854Z" fill="#92D5E4"/>
<path d="M137.123 226.987C137.265 225.507 137.475 224.039 137.695 222.574C137.908 221.107 138.17 219.649 138.432 218.191C138.708 216.736 138.986 215.282 139.311 213.836L139.801 211.667C139.987 210.949 140.152 210.226 140.357 209.511C140.292 210.252 140.187 210.986 140.104 211.723L139.785 213.924C139.571 215.391 139.311 216.848 139.048 218.306C138.771 219.761 138.493 221.216 138.167 222.662C137.848 224.108 137.519 225.554 137.123 226.987Z" fill="#92D5E4"/>
<path d="M125.245 203.858C125.514 202.245 125.788 200.641 126.011 199.032C126.227 197.422 126.43 195.811 126.573 194.195C126.729 192.579 126.825 190.96 126.904 189.337C126.942 188.525 126.964 187.712 126.975 186.899C127.003 186.084 126.994 185.27 127.012 184.452C127.136 185.261 127.206 186.075 127.283 186.891C127.334 187.707 127.366 188.525 127.386 189.344C127.421 190.981 127.341 192.621 127.197 194.252C127.038 195.883 126.817 197.508 126.485 199.113C126.16 200.717 125.765 202.307 125.245 203.858Z" fill="#92D5E4"/>
<path d="M113.659 185.336C113.837 182.81 114.021 180.312 114.068 177.805C114.132 175.297 114.06 172.796 113.969 170.266C114.552 172.734 114.742 175.284 114.694 177.819C114.628 180.354 114.324 182.89 113.659 185.336Z" fill="#92D5E4"/>
<path d="M102.365 168.181C102.398 166.683 102.477 165.23 102.46 163.768C102.46 162.306 102.368 160.856 102.291 159.36C102.856 160.754 103.07 162.267 103.086 163.765C103.083 165.264 102.885 166.772 102.365 168.181Z" fill="#92D5E4"/>
<path d="M102.2 168.473C100.893 168.572 99.6063 168.481 98.3258 168.344C97.0471 168.188 95.774 167.986 94.5229 167.593C95.8305 167.492 97.1167 167.584 98.3972 167.722C99.6759 167.878 100.949 168.081 102.2 168.473Z" fill="#92D5E4"/>
<path d="M113.402 185.708C111.933 185.986 110.42 186.039 108.919 185.914C107.416 185.797 105.931 185.463 104.503 184.97C103.08 184.464 101.712 183.796 100.463 182.953L99.5454 182.297L98.6666 181.593L97.8449 180.826C97.5829 180.558 97.3265 180.286 97.0752 180.01C97.3736 180.236 97.6663 180.466 97.9533 180.7L98.8547 181.351L99.7711 181.972L100.716 182.543C101.995 183.27 103.324 183.899 104.71 184.378C106.09 184.872 107.521 185.211 108.974 185.437C110.43 185.658 111.909 185.729 113.402 185.708Z" fill="#92D5E4"/>
<path d="M124.754 204.058C122.818 204.628 120.805 204.949 118.778 205.056C116.75 205.171 114.708 205.032 112.703 204.684C110.701 204.321 108.734 203.747 106.874 202.93L105.497 202.28L104.159 201.56L102.877 200.748C102.463 200.457 102.054 200.161 101.649 199.861C102.092 200.105 102.53 200.352 102.963 200.606L104.304 201.289L105.665 201.923L107.055 202.484C108.925 203.182 110.85 203.727 112.813 204.067C114.773 204.424 116.767 204.576 118.764 204.577C120.763 204.57 122.763 204.375 124.754 204.058Z" fill="#92D5E4"/>
<path d="M136.872 226.934C136.045 227.34 135.188 227.718 134.247 227.869C133.779 227.947 133.296 227.93 132.837 227.903C132.374 227.877 131.911 227.856 131.449 227.813C129.599 227.668 127.762 227.354 125.959 226.908C124.158 226.451 122.384 225.88 120.681 225.141C119.832 224.766 118.989 224.38 118.169 223.949C117.354 223.509 116.551 223.048 115.777 222.542C116.621 222.921 117.448 223.326 118.303 223.668C119.143 224.042 120.001 224.372 120.861 224.688C122.584 225.316 124.335 225.858 126.11 226.302C127.883 226.76 129.687 227.084 131.501 227.354C131.954 227.425 132.411 227.475 132.867 227.529C133.325 227.591 133.768 227.613 134.218 227.589C135.117 227.537 135.997 227.222 136.872 226.934Z" fill="#92D5E4"/>
<path d="M208.208 294.996C222.431 294.204 237.133 296.559 250.846 301.825C240.082 296.332 228.737 292.017 217.132 289.002C236.457 286.573 256.389 286.785 276.151 289.63C260.204 285.342 243.95 282.531 227.706 281.248C248.425 276.508 269.523 272.881 290.872 270.39C271.208 268.184 253.382 266.501 234.424 269.852C255.933 259.639 277.338 254.756 301.552 250.952C276.752 248.742 249.307 250.648 222.422 259.77C216.576 261.753 199.857 270.812 199.857 270.812L191.923 283.003L208.208 294.996Z" fill="#92D5E4"/>
<path d="M209.644 253.978C209.329 252.466 209.157 250.926 209.073 249.381C208.982 247.835 209.018 246.283 209.131 244.739C209.259 243.195 209.466 241.657 209.795 240.144C209.965 239.388 210.147 238.637 210.35 237.892C210.578 237.152 210.802 236.414 211.08 235.693C211.011 236.073 210.937 236.451 210.855 236.827L210.649 237.962C210.508 238.716 210.38 239.472 210.27 240.23C210.054 241.746 209.868 243.263 209.755 244.788C209.628 246.311 209.577 247.839 209.552 249.371C209.536 250.902 209.585 252.435 209.644 253.978Z" fill="#92D5E4"/>
<path d="M185.881 261.562C216.877 213.367 258.126 192.63 299.879 176.39C293.125 195.737 281.336 219.417 266.474 233.15C251.612 246.884 222.492 272.275 194.747 280.276" fill="#B9E5EE"/>
<path d="M192.536 275.39L198.084 268.609L203.755 261.928L209.571 255.37L215.506 248.92C223.502 240.394 231.846 232.198 240.457 224.293C249.1 216.424 258.013 208.849 267.222 201.652L274.181 196.322L281.237 191.123L288.406 186.081L295.664 181.174L288.494 186.206L281.419 191.37L274.421 196.637L267.522 202.03C258.384 209.298 249.48 216.859 240.88 224.754C232.245 232.612 223.917 240.804 215.855 249.25L209.863 255.636L203.985 262.129L198.201 268.707L192.536 275.39Z" fill="#92D5E4"/>
<path d="M220.709 243.175C220.649 241.847 220.658 240.522 220.677 239.198C220.689 237.874 220.751 236.551 220.812 235.23C220.888 233.909 220.966 232.588 221.092 231.27L221.283 229.293C221.37 228.635 221.435 227.976 221.541 227.319C221.577 227.984 221.573 228.646 221.59 229.309L221.574 231.296C221.561 232.62 221.5 233.943 221.437 235.264C221.36 236.585 221.283 237.906 221.157 239.224C221.037 240.542 220.907 241.861 220.709 243.175Z" fill="#92D5E4"/>
<path d="M239.403 224.84C239.238 223.371 239.211 221.89 239.267 220.411C239.316 218.931 239.483 217.457 239.721 215.995C239.973 214.535 240.296 213.086 240.735 211.672C240.956 210.966 241.192 210.265 241.443 209.57C241.721 208.883 241.992 208.197 242.314 207.532C242.125 208.247 241.913 208.95 241.736 209.664C241.544 210.372 241.364 211.083 241.201 211.796C240.876 213.224 240.575 214.655 240.339 216.098C240.09 217.538 239.908 218.988 239.747 220.445C239.592 221.902 239.497 223.367 239.403 224.84Z" fill="#92D5E4"/>
<path d="M256.634 210.497C256.55 208.187 256.869 205.872 257.436 203.63C258.02 201.393 258.858 199.21 260.05 197.23C259.31 199.415 258.603 201.577 258.043 203.786C257.466 205.99 257.042 208.226 256.634 210.497Z" fill="#92D5E4"/>
<path d="M273.205 197.305C273.02 195.937 273.197 194.541 273.577 193.217C273.974 191.898 274.583 190.627 275.484 189.581C275.015 190.874 274.547 192.112 274.179 193.394C273.792 194.67 273.515 195.965 273.205 197.305Z" fill="#92D5E4"/>
<path d="M273.312 197.588C274.756 197.421 276.189 197.447 277.619 197.518C279.048 197.609 280.476 197.745 281.891 198.074C280.447 198.241 279.014 198.216 277.584 198.144C276.155 198.051 274.728 197.915 273.312 197.588Z" fill="#92D5E4"/>
<path d="M256.822 210.865C258.452 211.12 260.082 211.291 261.713 211.33C263.344 211.361 264.974 211.297 266.588 211.095C268.204 210.906 269.803 210.579 271.379 210.16L272.556 209.82L273.718 209.428L274.874 209.008C275.252 208.848 275.633 208.695 276.019 208.547C275.665 208.756 275.305 208.961 274.943 209.16L273.832 209.714L272.687 210.194L271.519 210.623C269.947 211.159 268.313 211.511 266.664 211.718C265.012 211.909 263.342 211.957 261.687 211.81C260.033 211.669 258.394 211.372 256.822 210.865Z" fill="#92D5E4"/>
<path d="M239.889 225.096C242.03 225.711 244.194 226.206 246.382 226.53C248.57 226.846 250.776 227.028 252.984 227.03C255.191 227.047 257.398 226.884 259.589 226.585L261.228 226.328L262.858 226.002L264.48 225.631C265.015 225.483 265.553 225.341 266.093 225.203C265.574 225.404 265.053 225.601 264.527 225.791L262.932 226.299L261.308 226.715L259.666 227.062C257.465 227.477 255.222 227.66 252.981 227.657C250.74 227.64 248.498 227.437 246.301 227.003C244.104 226.576 241.946 225.956 239.889 225.096Z" fill="#92D5E4"/>
<path d="M220.994 243.171C221.924 243.587 222.857 244.028 223.846 244.191C224.338 244.279 224.836 244.315 225.348 244.336C225.856 244.365 226.364 244.387 226.872 244.398C228.905 244.453 230.937 244.454 232.964 244.341C234.991 244.242 237.015 244.055 239.031 243.793C240.039 243.661 241.047 243.516 242.048 243.33C243.056 243.177 244.052 242.962 245.059 242.777C244.089 243.102 243.103 243.376 242.112 243.633C241.118 243.88 240.114 244.082 239.106 244.272C237.09 244.649 235.045 244.857 232.996 244.966C230.946 245.062 228.89 245.045 226.847 244.868C226.337 244.828 225.826 244.776 225.317 244.719C224.812 244.665 224.289 244.613 223.785 244.477C222.769 244.207 221.862 243.705 220.994 243.171Z" fill="#92D5E4"/>
<path d="M207.414 258.315C209.037 258.446 210.653 258.56 212.269 258.602C213.886 258.638 215.501 258.639 217.112 258.559C218.725 258.493 220.333 258.347 221.939 258.167C222.743 258.074 223.544 257.962 224.344 257.836L225.548 257.651C225.946 257.576 226.347 257.508 226.75 257.446C225.979 257.712 225.193 257.923 224.405 258.138C223.611 258.325 222.813 258.492 222.011 258.644C220.403 258.94 218.773 259.105 217.14 259.185C215.507 259.25 213.869 259.232 212.242 259.082C210.615 258.938 208.997 258.701 207.414 258.315Z" fill="#92D5E4"/>
<path d="M145.006 276.807C140.284 277.294 135.562 277.782 130.839 278.269C127.771 278.585 124.53 278.876 121.728 277.584C118.926 276.294 116.887 272.812 118.267 270.053C119.96 266.671 125.412 266.4 126.727 262.853C123.202 259.463 117.812 259.101 112.922 259.205C108.032 259.309 102.804 259.603 98.6216 257.067C94.4396 254.531 92.4921 247.839 96.305 244.776C97.8475 243.537 99.9078 243.194 101.684 242.323C103.461 241.452 105.099 239.542 104.471 237.666C104.059 236.434 102.822 235.696 101.65 235.135C96.8064 232.818 91.4955 231.675 86.456 229.82C81.4166 227.967 76.4247 225.194 73.5878 220.635C70.7509 216.076 70.7979 209.403 74.8684 205.902C79.5111 201.908 86.9475 203.71 91.6704 207.61C96.3927 211.508 99.4735 217.027 103.747 221.414C105.211 222.916 107.357 224.377 109.251 223.475C111.702 222.307 111.126 218.738 110.479 216.102C109.833 213.465 110.503 209.556 113.215 209.684C114.103 209.726 114.89 210.263 115.547 210.863C122.54 217.249 118.558 229.089 122.08 237.88C122.859 239.822 124.586 241.871 126.625 241.402C130.668 240.474 128.401 232.371 132.399 231.266C134.163 230.779 135.909 232.238 136.743 233.866C139.615 239.466 135.807 246.223 136.548 252.474C137.527 260.742 145.861 265.824 153.36 269.444" fill="#92D5E4"/>
<path d="M200.331 238.43C201.628 232.852 202.954 227.272 204.693 221.812C206.403 216.449 208.518 211.181 211.446 206.36C212.901 203.965 214.554 201.691 216.43 199.608C218.462 197.351 220.733 195.326 223.056 193.376C225.357 191.444 227.714 189.577 229.97 187.592C232.16 185.664 234.227 183.607 236.119 181.384C239.901 176.94 243.022 171.941 245.379 166.603C245.661 165.964 245.932 165.32 246.193 164.673C246.344 164.299 245.738 164.136 245.589 164.506C243.39 169.952 240.405 175.093 236.724 179.672C234.9 181.943 232.903 184.071 230.758 186.042C228.543 188.077 226.198 189.961 223.88 191.877C221.546 193.806 219.235 195.774 217.123 197.949C215.156 199.976 213.395 202.193 211.845 204.553C208.79 209.205 206.553 214.352 204.76 219.607C202.903 225.053 201.513 230.643 200.199 236.241C200.04 236.915 199.883 237.589 199.726 238.264C199.636 238.655 200.24 238.823 200.331 238.43Z" fill="#92D5E4"/>
<path d="M242.004 172.124C242.525 165.987 243.382 159.131 247.797 155.157C248.667 154.373 249.698 153.721 250.805 153.658C251.912 153.595 253.081 154.262 253.38 155.416C253.572 156.16 253.39 156.969 253.158 157.715C251.28 163.768 246.412 168.111 241.788 172.089" fill="#92D5E4"/>
<path d="M236.669 179.443C239.309 177.58 242.293 176.324 245.36 175.784C247.008 175.494 248.786 175.435 250.195 176.34C251.604 177.245 252.409 179.405 251.502 180.961C250.637 182.445 248.785 182.699 247.202 182.704C243.367 182.713 239.548 182.194 235.864 181.163" fill="#92D5E4"/>
<path d="M230.535 186.341C233.091 181.168 233.76 177.658 233.289 171.91C233.16 170.339 232.87 168.684 231.874 167.576C230.879 166.467 228.967 166.234 228.038 167.484C227.398 168.344 227.422 169.549 227.491 170.632C227.829 175.937 228.702 182.524 229.611 187.725" fill="#92D5E4"/>
<path d="M221.837 193.842C225.979 190.874 231.364 190.179 235.868 192.03C237.056 192.517 238.242 193.233 238.85 194.445C239.458 195.659 239.247 197.465 238.121 198.187C237.377 198.663 236.465 198.566 235.631 198.432C230.892 197.668 226.276 196.18 221.955 194.024" fill="#92D5E4"/>
<path d="M218.665 196.325C220.558 191.058 220.961 185.214 219.806 179.816C219.689 179.276 219.52 178.684 219.077 178.424C218.123 177.863 217.146 179.26 216.8 180.416C215.224 185.693 216.035 192.958 217.696 198.074" fill="#92D5E4"/>
<path d="M213.593 203.356C216.586 201.769 220.311 202.137 222.874 204.274C223.714 204.973 224.478 206.201 223.937 207.237C223.529 208.018 222.599 208.229 221.79 208.289C218.722 208.514 214.819 206.44 212.17 204.849" fill="#92D5E4"/>
<path d="M246.321 72.2466L247.101 70.6389L247.362 70.8031L246.321 72.2466Z" fill="#2EA8BC"/>
<path d="M249.041 67.4603C249.746 66.433 250.534 65.4621 251.363 64.525L252.208 65.3486C251.321 66.171 250.486 67.0517 249.671 67.9555L249.041 67.4603Z" fill="#2EA8BC"/>
<path d="M254.034 61.8773C254.972 61.0412 255.964 60.2646 257.003 59.5532L257.92 60.9384C256.908 61.584 255.921 62.2716 254.963 63.0018L254.034 61.8773Z" fill="#2EA8BC"/>
<path d="M260.221 57.575L263.644 55.9742L264.335 57.6947L261.055 59.1746L260.221 57.575Z" fill="#2EA8BC"/>
<path d="M267.212 54.7356L270.876 53.8575L271.231 55.6282L267.737 56.5158L267.212 54.7356Z" fill="#2EA8BC"/>
<path d="M274.604 53.346L276.475 53.22C277.099 53.173 277.724 53.1849 278.348 53.1699L278.399 54.6341C277.796 54.6892 277.191 54.7212 276.592 54.8046L274.792 55.0008L274.604 53.346Z" fill="#2EA8BC"/>
<path d="M282.082 53.319C283.319 53.472 284.553 53.6099 285.78 53.7829L285.692 54.5839C284.468 54.5758 283.25 54.5319 282.036 54.5031L282.082 53.319Z" fill="#2EA8BC"/>
<path d="M289.424 54.5494L291.143 55.034L289.37 54.8553L289.424 54.5494Z" fill="#2EA8BC"/>
<path d="M295.676 64.359C277.217 57.0599 256.339 66.0325 249.043 84.401C244.471 95.9103 246.319 108.377 252.876 117.878C252.934 118.251 253.137 118.561 253.533 118.787C253.544 118.8 253.553 118.816 253.564 118.829L242.499 134.959C241.901 135.831 242.938 136.949 243.933 136.505L263.322 127.865C265.173 129.026 267.15 130.042 269.256 130.875C287.715 138.174 308.594 129.202 315.889 110.833C323.185 92.466 314.135 71.6581 295.676 64.359Z" fill="white" stroke="#2EA8BC" stroke-miterlimit="10"/>
<path d="M292.168 118.315H273.217C267.913 118.315 263.615 114.017 263.615 108.713V84.8511C263.615 79.5483 267.913 75.2491 273.217 75.2491H292.168C297.471 75.2491 301.77 79.5477 301.77 84.8511V108.713C301.77 114.017 297.471 118.315 292.168 118.315Z" fill="white" stroke="#2EA8BC" stroke-miterlimit="10"/>
<g opacity="0.46">
<path opacity="0.46" d="M268.618 89.2518H270.765V96.7866H269.341V90.5994H267.789L268.618 89.2518Z" fill="#2EA8BC"/>
<path opacity="0.46" d="M275.81 89.0626L277.031 89.6737L275.712 92.2329C276.351 92.2329 276.894 92.4617 277.341 92.9193C277.788 93.3768 278.012 93.9453 278.012 94.6248C278.012 95.2804 277.783 95.8364 277.323 96.2921C276.863 96.7484 276.31 96.9759 275.661 96.9759C274.981 96.9759 274.415 96.7396 273.963 96.2664C273.51 95.7932 273.284 95.2516 273.284 94.6398C273.284 94.4073 273.319 94.1735 273.389 93.9378C273.46 93.7028 273.621 93.3405 273.873 92.8522L275.81 89.0626ZM275.63 93.59C275.363 93.59 275.139 93.6865 274.959 93.8795C274.778 94.0726 274.688 94.3139 274.688 94.6041C274.688 94.8937 274.782 95.1388 274.971 95.3362C275.161 95.5343 275.383 95.6333 275.635 95.6333C275.902 95.6333 276.13 95.5362 276.322 95.3412C276.513 95.1463 276.609 94.9006 276.609 94.6035C276.609 94.3133 276.515 94.0713 276.33 93.8789C276.144 93.6871 275.911 93.59 275.63 93.59Z" fill="#2EA8BC"/>
</g>
<path d="M293.749 75.2491H271.635C267.205 75.2491 263.614 79.1165 263.614 83.8877V85.4716H301.77V83.8877C301.77 79.1171 298.179 75.2491 293.749 75.2491Z" fill="#2EA8BC"/>
<g opacity="0.61">
<path opacity="0.61" d="M284.491 81.9446C285.326 81.9446 286.003 81.2677 286.003 80.4327C286.003 79.5978 285.326 78.9209 284.491 78.9209C283.656 78.9209 282.979 79.5978 282.979 80.4327C282.979 81.2677 283.656 81.9446 284.491 81.9446Z" fill="white"/>
<path opacity="0.61" d="M289.531 81.9446C290.366 81.9446 291.043 81.2677 291.043 80.4327C291.043 79.5978 290.366 78.9209 289.531 78.9209C288.696 78.9209 288.019 79.5978 288.019 80.4327C288.019 81.2677 288.696 81.9446 289.531 81.9446Z" fill="white"/>
<path opacity="0.61" d="M294.715 81.9446C295.549 81.9446 296.226 81.2677 296.226 80.4327C296.226 79.5978 295.549 78.9209 294.715 78.9209C293.88 78.9209 293.203 79.5978 293.203 80.4327C293.203 81.2677 293.88 81.9446 294.715 81.9446Z" fill="white"/>
</g>
<path d="M307.817 87.2242C305.877 89.5484 303.873 91.8086 301.832 94.0325C299.795 96.2602 297.728 98.4571 295.632 100.626C294.594 101.72 293.534 102.793 292.473 103.865C291.411 104.934 290.366 106.021 289.285 107.072L286.065 110.249L282.802 113.383L282.171 113.989L281.621 113.346C280.782 112.361 279.972 111.352 279.146 110.356C278.318 109.362 277.513 108.346 276.704 107.336C275.888 106.331 275.101 105.301 274.302 104.282C273.512 103.254 272.73 102.219 271.964 101.17C272.91 102.06 273.839 102.965 274.761 103.877C275.671 104.798 276.595 105.707 277.49 106.643C278.391 107.573 279.297 108.497 280.18 109.443C281.065 110.387 281.966 111.317 282.837 112.273L281.657 112.236L284.791 108.974L287.968 105.754C289.02 104.674 290.107 103.629 291.176 102.566C292.248 101.506 293.321 100.447 294.415 99.408C296.583 97.3126 298.781 95.2454 301.008 93.2083C303.232 91.1674 305.492 89.1635 307.817 87.2242Z" fill="#2EA8BC"/>
<path d="M201.11 84.2631C196.602 74.3979 183.478 69.3891 172.923 71.8894C162.369 74.3897 154.149 83.3098 150.264 93.4364C146.908 102.182 146.365 111.754 143.608 120.706C141.259 128.332 137.292 135.455 132.047 141.468C127.254 146.964 121.364 151.606 117.686 157.904C112.91 166.083 112.541 176.669 116.733 185.161C120.926 193.653 129.556 199.796 138.954 200.976C148.808 202.215 159.002 198.343 168.616 200.833C173.502 202.098 177.946 204.956 182.952 205.598C191.597 206.707 200.044 200.58 203.645 192.644C207.245 184.706 206.759 175.455 204.562 167.02C202.18 157.88 197.875 149.133 197.306 139.704C196.676 129.257 199.069 122.311 199.785 111.869C200.412 102.707 207.46 98.1612 201.11 84.2631Z" fill="#38303B"/>
<path d="M167.529 278.72C179.764 329.28 190.838 382.4 207.327 431.555C208.638 435.462 210.536 442.188 212.406 442.414C215.021 442.728 217.26 442.376 219.719 441.881C221.752 441.473 223.142 439.61 222.909 437.566C214.382 362.819 214.872 287.385 196.775 214.609C196.135 212.036 162.928 216.361 162.928 216.361" fill="#38303B"/>
<path d="M91.4732 429.798C91.9401 431.084 93.4369 431.687 94.6466 431.047C112.313 421.7 127.744 406.119 140.539 386.815C159.326 358.473 170.802 336.053 180.887 302.597C188.642 276.871 195.112 249.906 192.292 223.033C180.045 224.011 167.843 225.65 155.747 227.939C153.276 228.408 152.705 228.598 150.967 230.548C149.302 232.415 148.458 237.214 148.046 239.765C143.378 268.7 142.971 296.931 137.322 325.663C130.492 360.401 115.019 396.812 89.0086 418.606C88.2746 419.22 87.9957 420.218 88.3222 421.119L91.4732 429.798Z" fill="#38303B"/>
<path d="M141.799 254.19L143.152 258.969C143.693 261.32 146.325 264.553 149.286 264.55C167.333 264.532 185.381 264.318 203.425 263.906C204.87 263.873 206.463 263.791 207.504 262.973C208.391 262.276 208.641 261.221 208.846 260.238C209.43 257.447 210.014 254.656 210.598 251.864" fill="#2EA8BC"/>
<path d="M243.574 235.334C246.232 238.078 256.268 250.151 257.969 253.5C259.808 257.123 261.124 261.144 263.892 264.137C264.43 264.72 265.705 264.163 265.798 263.325C265.968 261.787 265.896 260.277 265.581 258.849C265.401 258.032 266.635 257.282 267.37 257.749C267.917 258.098 268.372 258.613 268.729 259.105C270.964 262.179 273.209 264.303 275.445 267.378C276.389 268.676 277.823 270.657 279.109 271.681C279.714 272.163 280.111 271.49 279.955 270.747C279.82 270.106 278.76 267.806 278.975 268.05C279.46 268.596 280.688 268.107 280.4 266.961C279.184 262.108 276.049 256.266 273.866 253.391C268.375 246.163 256.147 237.858 250.676 230.134" fill="#F7B094"/>
<path d="M189.3 176.593C202.324 198.683 220.706 219.692 242.594 237.504C244.958 239.429 246.7 241.026 249.076 240.331C252.404 239.357 257.588 236.248 255.199 233.017C243.914 217.761 229.067 200.539 223.116 184.417C220.432 177.148 218.319 169.844 214.715 162.633C211.111 155.423 205.812 147.336 198.298 142.892" fill="#2EA8BC"/>
<path d="M148.32 260.383C144.421 260.512 141.334 256.71 140.695 252.862C140.055 249.013 144.306 240.62 143.649 236.589C142.719 230.887 136.442 180.313 147.322 152.529C149.801 146.2 154.017 139.829 160.566 138.009C164.027 137.047 167.697 137.489 171.288 137.583C178.772 137.779 186.68 136.505 193.437 139.728C204.954 145.223 207.228 160.338 207.987 173.077C208.621 183.703 209.254 194.331 209.889 204.958C210.678 218.201 215.426 230.272 211.551 240.97C210.41 244.12 214.789 253.071 212.657 255.655C210.281 258.537 203.846 257.588 200.114 257.759C184.717 258.468 169.319 259.176 153.921 259.884" fill="#92D5E4"/>
<path d="M213.448 166.955L211.215 164.807C211.087 164.684 211.083 164.481 211.206 164.354L233.759 140.893C233.881 140.766 234.084 140.762 234.211 140.885L236.445 143.032C236.573 143.155 236.577 143.357 236.454 143.485L213.901 166.945C213.778 167.072 213.575 167.077 213.448 166.955Z" fill="#38303B"/>
<path d="M176.333 224.692C172.968 227.577 164.1 232.336 160.485 234.901C157.784 236.817 153.027 234.938 149.084 230.727C146.364 227.822 144.203 221.948 143.025 218.147C140.798 210.968 139.892 200.995 139.514 192.212C139.015 180.623 140.263 170.126 141.32 161.644C142.377 153.162 148.387 141.71 154.515 139.315C163.329 135.868 167.228 139.531 168.545 152.626C169.487 162.002 167.388 169.981 166.015 185.873C165.393 193.065 164.707 205.948 164.707 205.948L176.333 224.692Z" fill="#2EA8BC"/>
<path d="M191.415 185.211C194.114 182.519 204.376 170.662 206.167 167.36C208.104 163.789 209.547 159.818 212.364 156.881C212.912 156.309 214.13 156.875 214.188 157.706C214.293 159.234 214.162 160.73 213.798 162.141C213.59 162.949 216.551 163.801 217.285 163.347C217.832 163.007 226.996 153.406 227.217 153.167C227.711 152.631 228.888 153.129 228.562 154.262C227.182 159.059 223.894 164.817 221.652 167.643C216.013 174.748 203.766 182.847 198.126 190.443" fill="#F7B094"/>
<path d="M160.137 234.688C164.492 233.865 173.773 227.813 177.759 223.028C184.045 215.48 204.047 191.001 204.536 186.943C204.743 185.22 199.116 180.302 196.911 178.075C195.596 176.748 184.939 189.353 179.27 194.325C177.512 195.866 167.221 204.004 162.32 207.443" fill="#2EA8BC"/>
<path d="M157.011 207.942C162.063 206.884 166.579 204.256 170.69 201.255C174.799 198.213 178.637 194.809 182.323 191.252C186.04 187.726 189.606 184.039 193.161 180.344L194.495 178.959L194.829 178.613C194.94 178.495 195.083 178.364 195.233 178.27C195.535 178.074 195.892 177.97 196.249 177.963C196.606 177.959 196.965 178.053 197.268 178.242C197.585 178.438 197.781 178.7 198.011 178.916L199.362 180.286L204.725 185.809L199.146 180.504L197.762 179.167C197.523 178.949 197.313 178.695 197.074 178.563C196.829 178.418 196.542 178.35 196.258 178.358C195.974 178.372 195.694 178.459 195.462 178.619C195.235 178.764 195.042 179.026 194.815 179.259L193.51 180.675C190.023 184.444 186.448 188.132 182.754 191.705C179.022 195.233 175.17 198.663 170.968 201.646C168.852 203.112 166.663 204.483 164.339 205.603C162.01 206.695 159.549 207.538 157.011 207.942Z" fill="white"/>
<path d="M163.788 205.544C162.477 204.988 161.193 204.484 159.883 204.011C158.573 203.539 157.27 203.097 155.896 202.729C156.609 202.654 157.332 202.726 158.033 202.856C158.737 202.983 159.424 203.185 160.096 203.422C160.764 203.671 161.42 203.957 162.043 204.305C162.666 204.651 163.27 205.047 163.788 205.544Z" fill="white"/>
<path d="M169.231 136.531C170.487 131.299 172.318 123.596 173.18 120.064C173.534 118.612 173.889 117.159 174.293 115.72C174.384 115.394 174.493 115.043 174.718 114.838C174.906 114.665 175.137 114.632 175.353 114.624C177.485 114.549 179.147 116.337 181.023 117.326C183.317 118.533 186.006 118.555 188.343 119.655C188.623 119.788 188.925 119.973 189.003 120.347C189.048 120.565 189.009 120.81 188.969 121.044C188.249 125.292 187.594 136.927 187.169 142.328C186.931 145.345 181.552 147.075 176.11 145.559C169.56 143.734 168.731 138.612 169.231 136.531Z" fill="#F7B094"/>
<path d="M174.719 114.837C174.907 114.664 175.138 114.63 175.354 114.623C177.486 114.548 179.148 116.336 181.024 117.324C183.318 118.533 186.008 118.554 188.344 119.654C188.625 119.787 188.926 119.971 189.005 120.346C189.05 120.564 189.01 120.809 188.97 121.043C188.568 123.418 188.165 125.791 187.763 128.166C185.262 129.269 182.679 129.754 180.236 129.294C176.882 128.663 173.894 126.016 172.676 122.131C172.844 121.441 173.012 120.752 173.18 120.062C173.535 118.61 173.89 117.157 174.294 115.718C174.384 115.393 174.494 115.043 174.719 114.837Z" fill="#E89C82"/>
<path d="M169.407 111.203C166.299 110.811 163.432 109.097 162.885 106.765C162.337 104.432 164.706 101.726 167.876 101.562" fill="#F7B094"/>
<path d="M169.116 111.424C172.599 123.037 180.879 124.37 189.574 126.977C191.11 127.437 193.664 127.596 195.281 127.387C199.25 126.872 200.973 123.04 201.692 119.806C202.943 114.177 203.509 108.446 203.377 102.727C203.287 98.7906 202.838 94.7659 200.824 91.1919C198.811 87.6172 194.977 84.5327 190.236 83.8533C184.332 83.0071 178.52 86.0051 174.656 89.7559C168.955 95.2912 166.146 103.075 168.69 110.002" fill="#F7B094"/>
<path d="M203.363 102.54C203.435 106.166 203.569 105.563 203.962 107.627C204.004 107.85 204.488 109.61 205.73 110.418C206.709 111.055 206.975 112.532 206.142 113.363C205.678 113.824 205.217 114.034 204.558 114.162C203.628 114.345 202.709 114.112 202.162 113.349" fill="#F7B094"/>
<path d="M160.471 102.736C169.212 101.747 177.233 98.474 184.484 94.5709C187.87 92.7488 191.187 90.7305 193.484 88.0415C194.735 86.5767 195.645 84.5904 194.458 83.0428C193.167 81.3579 190.215 81.1837 187.779 81.3705C186.015 81.5059 184.263 81.7246 182.538 82.0267C179.624 82.5363 176.747 83.2948 174.275 84.5947C171.434 86.0884 169.249 88.2258 167.137 90.3482C164.972 92.5238 162.75 94.895 162.521 97.693" fill="#38303B"/>
<path d="M190.648 96.4256C190.527 96.5227 190.68 96.675 190.862 96.6869C191.044 96.6982 191.216 96.6236 191.374 96.5566C193.307 95.7355 195.766 95.5418 197.837 96.0476C198.155 96.1253 198.478 96.22 198.821 96.1999C199.164 96.1799 199.528 95.9956 199.517 95.7643C199.513 95.6653 199.441 95.575 199.358 95.4954C199.008 95.1582 198.445 94.9507 197.866 94.8122C195.998 94.3653 193.777 94.5634 192.062 95.3299C191.421 95.617 190.826 96.0012 190.589 96.4914" fill="#38303B"/>
<g opacity="0.54">
<path opacity="0.54" d="M181.467 111.144C181.425 114.007 183.877 116.347 186.944 116.369C190.011 116.392 192.532 114.089 192.574 111.225C192.616 108.361 190.164 106.022 187.097 105.999C184.03 105.977 181.509 108.28 181.467 111.144Z" fill="#ED825D"/>
</g>
<path d="M194.812 102.216C194.921 103.616 195.684 104.715 196.516 104.672C197.349 104.629 197.935 103.459 197.826 102.059C197.716 100.66 196.953 99.5609 196.121 99.6041C195.29 99.6474 194.703 100.816 194.812 102.216Z" fill="#38303B"/>
<path d="M167.042 137.825C168.988 142.575 173.285 146.045 178.436 146.621C183.861 147.229 189.238 143.9 189.902 138.263C190.001 137.421 189.111 136.696 188.335 136.696C187.405 136.696 186.867 137.418 186.768 138.263C186.301 142.228 181.837 144.011 178.33 143.47C174.736 142.914 171.448 140.371 170.063 136.992C169.743 136.209 169.022 135.654 168.136 135.898C167.396 136.1 166.719 137.037 167.042 137.825Z" fill="#F4F6F9"/>
</g>
<defs>
<clipPath id="clip0">
<rect width="367" height="367" fill="white"/>
</clipPath>
</defs>
</svg>
