<svg width="388" height="388" viewBox="0 0 388 388" fill="none" xmlns="http://www.w3.org/2000/svg">
<g clip-path="url(#clip0)">
<path opacity="0.52" d="M194 365.975C288.979 365.975 365.975 288.979 365.975 194C365.975 99.0209 288.979 22.0251 194 22.0251C99.0209 22.0251 22.0252 99.0209 22.0252 194C22.0252 288.979 99.0209 365.975 194 365.975Z" fill="#D4F0F5"/>
<g opacity="0.79">
<g opacity="0.79">
<g opacity="0.79">
<path opacity="0.79" d="M212.837 67.2101C214.886 69.2603 214.886 72.5847 212.837 74.6349C210.788 76.6851 207.467 76.6851 205.417 74.6349C203.369 72.5839 203.369 69.2603 205.417 67.2101C207.467 65.1599 210.788 65.1599 212.837 67.2101Z" fill="white"/>
</g>
<g opacity="0.79">
<path opacity="0.79" d="M212.837 83.9609C214.886 86.0111 214.886 89.3354 212.837 91.3856C210.788 93.4358 207.467 93.4358 205.417 91.3856C203.369 89.3354 203.369 86.0111 205.417 83.9609C207.467 81.9107 210.788 81.9107 212.837 83.9609Z" fill="white"/>
</g>
<g opacity="0.79">
<path opacity="0.79" d="M212.837 100.711C214.886 102.762 214.886 106.085 212.837 108.136C210.788 110.186 207.467 110.186 205.417 108.136C203.369 106.085 203.369 102.761 205.417 100.711C207.467 98.6607 210.788 98.6607 212.837 100.711Z" fill="white"/>
</g>
<g opacity="0.79">
<path opacity="0.79" d="M212.837 117.462C214.886 119.512 214.886 122.836 212.837 124.886C210.788 126.937 207.467 126.937 205.417 124.886C203.369 122.835 203.369 119.512 205.417 117.462C207.467 115.411 210.788 115.411 212.837 117.462Z" fill="white"/>
</g>
<g opacity="0.79">
<path opacity="0.79" d="M212.837 134.212C214.886 136.263 214.886 139.587 212.837 141.637C210.788 143.687 207.467 143.687 205.417 141.637C203.369 139.587 203.369 136.263 205.417 134.212C207.467 132.162 210.788 132.162 212.837 134.212Z" fill="white"/>
</g>
</g>
<g opacity="0.79">
<g opacity="0.79">
<path opacity="0.79" d="M229.408 67.2101C231.458 69.2603 231.458 72.5847 229.408 74.6349C227.36 76.6851 224.038 76.6851 221.989 74.6349C219.94 72.5839 219.94 69.2603 221.989 67.2101C224.038 65.1599 227.36 65.1599 229.408 67.2101Z" fill="white"/>
</g>
<g opacity="0.79">
<path opacity="0.79" d="M229.408 83.9609C231.458 86.0111 231.458 89.3354 229.408 91.3856C227.36 93.4358 224.038 93.4358 221.989 91.3856C219.94 89.3354 219.94 86.0111 221.989 83.9609C224.038 81.9107 227.36 81.9107 229.408 83.9609Z" fill="white"/>
</g>
<g opacity="0.79">
<path opacity="0.79" d="M229.408 100.711C231.458 102.762 231.458 106.085 229.408 108.136C227.36 110.186 224.038 110.186 221.989 108.136C219.94 106.085 219.94 102.761 221.989 100.711C224.038 98.6607 227.36 98.6607 229.408 100.711Z" fill="white"/>
</g>
<g opacity="0.79">
<path opacity="0.79" d="M229.408 117.462C231.458 119.512 231.458 122.836 229.408 124.886C227.36 126.937 224.038 126.937 221.989 124.886C219.94 122.835 219.94 119.512 221.989 117.462C224.038 115.411 227.36 115.411 229.408 117.462Z" fill="white"/>
</g>
<g opacity="0.79">
<path opacity="0.79" d="M229.408 134.212C231.458 136.263 231.458 139.587 229.408 141.637C227.36 143.687 224.038 143.687 221.989 141.637C219.94 139.587 219.94 136.263 221.989 134.212C224.038 132.162 227.36 132.162 229.408 134.212Z" fill="white"/>
</g>
</g>
<g opacity="0.79">
<g opacity="0.79">
<path opacity="0.79" d="M246.281 67.2101C248.331 69.2603 248.331 72.5847 246.281 74.6349C244.233 76.6851 240.911 76.6851 238.862 74.6349C236.813 72.5839 236.813 69.2603 238.862 67.2101C240.911 65.1599 244.233 65.1599 246.281 67.2101Z" fill="white"/>
</g>
<g opacity="0.79">
<path opacity="0.79" d="M246.281 83.9609C248.331 86.0111 248.331 89.3354 246.281 91.3856C244.233 93.4358 240.911 93.4358 238.862 91.3856C236.813 89.3354 236.813 86.0111 238.862 83.9609C240.911 81.9107 244.233 81.9107 246.281 83.9609Z" fill="white"/>
</g>
<g opacity="0.79">
<path opacity="0.79" d="M246.281 100.711C248.331 102.762 248.331 106.085 246.281 108.136C244.233 110.186 240.911 110.186 238.862 108.136C236.813 106.085 236.813 102.761 238.862 100.711C240.911 98.6607 244.233 98.6607 246.281 100.711Z" fill="white"/>
</g>
<g opacity="0.79">
<path opacity="0.79" d="M246.281 117.462C248.331 119.512 248.331 122.836 246.281 124.886C244.233 126.937 240.911 126.937 238.862 124.886C236.813 122.835 236.813 119.512 238.862 117.462C240.911 115.411 244.233 115.411 246.281 117.462Z" fill="white"/>
</g>
<g opacity="0.79">
<path opacity="0.79" d="M246.281 134.212C248.331 136.263 248.331 139.587 246.281 141.637C244.233 143.687 240.911 143.687 238.862 141.637C236.813 139.587 236.813 136.263 238.862 134.212C240.911 132.162 244.233 132.162 246.281 134.212Z" fill="white"/>
</g>
</g>
<g opacity="0.79">
<g opacity="0.79">
<path opacity="0.79" d="M262.853 67.2101C264.902 69.2603 264.902 72.5847 262.853 74.6349C260.804 76.6851 257.483 76.6851 255.434 74.6349C253.384 72.5839 253.384 69.2603 255.434 67.2101C257.483 65.1599 260.804 65.1599 262.853 67.2101Z" fill="white"/>
</g>
<g opacity="0.79">
<path opacity="0.79" d="M262.853 83.9609C264.902 86.0111 264.902 89.3354 262.853 91.3856C260.804 93.4358 257.483 93.4358 255.434 91.3856C253.384 89.3354 253.384 86.0111 255.434 83.9609C257.483 81.9107 260.804 81.9107 262.853 83.9609Z" fill="white"/>
</g>
<g opacity="0.79">
<path opacity="0.79" d="M262.853 100.711C264.902 102.762 264.902 106.085 262.853 108.136C260.804 110.186 257.483 110.186 255.434 108.136C253.384 106.085 253.384 102.761 255.434 100.711C257.483 98.6607 260.804 98.6607 262.853 100.711Z" fill="white"/>
</g>
<g opacity="0.79">
<path opacity="0.79" d="M262.853 117.462C264.902 119.512 264.902 122.836 262.853 124.886C260.804 126.937 257.483 126.937 255.434 124.886C253.384 122.835 253.384 119.512 255.434 117.462C257.483 115.411 260.804 115.411 262.853 117.462Z" fill="white"/>
</g>
<g opacity="0.79">
<path opacity="0.79" d="M262.853 134.212C264.902 136.263 264.902 139.587 262.853 141.637C260.804 143.687 257.483 143.687 255.434 141.637C253.384 139.587 253.384 136.263 255.434 134.212C257.483 132.162 260.804 132.162 262.853 134.212Z" fill="white"/>
</g>
</g>
<g opacity="0.79">
<g opacity="0.79">
<path opacity="0.79" d="M278.892 67.2101C280.942 69.2603 280.942 72.5847 278.892 74.6349C276.843 76.6851 273.521 76.6851 271.473 74.6349C269.423 72.5839 269.423 69.2603 271.473 67.2101C273.521 65.1599 276.843 65.1599 278.892 67.2101Z" fill="white"/>
</g>
<g opacity="0.79">
<path opacity="0.79" d="M278.892 83.9609C280.942 86.0111 280.942 89.3354 278.892 91.3856C276.843 93.4358 273.521 93.4358 271.473 91.3856C269.423 89.3354 269.423 86.0111 271.473 83.9609C273.521 81.9107 276.843 81.9107 278.892 83.9609Z" fill="white"/>
</g>
<g opacity="0.79">
<path opacity="0.79" d="M278.892 100.711C280.942 102.762 280.942 106.085 278.892 108.136C276.843 110.186 273.521 110.186 271.473 108.136C269.423 106.085 269.423 102.761 271.473 100.711C273.521 98.6607 276.843 98.6607 278.892 100.711Z" fill="white"/>
</g>
<g opacity="0.79">
<path opacity="0.79" d="M278.892 117.462C280.942 119.512 280.942 122.836 278.892 124.886C276.843 126.937 273.521 126.937 271.473 124.886C269.423 122.835 269.423 119.512 271.473 117.462C273.521 115.411 276.843 115.411 278.892 117.462Z" fill="white"/>
</g>
<g opacity="0.79">
<path opacity="0.79" d="M278.892 134.212C280.942 136.263 280.942 139.587 278.892 141.637C276.843 143.687 273.521 143.687 271.473 141.637C269.423 139.587 269.423 136.263 271.473 134.212C273.521 132.162 276.843 132.162 278.892 134.212Z" fill="white"/>
</g>
</g>
</g>
<path d="M325.275 210.887L261.079 311.655L265.077 314.202L329.273 213.434L325.275 210.887Z" fill="white"/>
<path d="M337.265 214.666L273.069 315.433L277.068 317.98L341.263 217.213L337.265 214.666Z" fill="white"/>
<path d="M349.255 218.447L285.059 319.215L289.058 321.763L353.254 220.995L349.255 218.447Z" fill="white"/>
<path d="M361.246 222.23L297.05 322.997L301.049 325.545L365.245 224.777L361.246 222.23Z" fill="white"/>
<path d="M373.236 226.01L309.04 326.777L313.039 329.325L377.234 228.557L373.236 226.01Z" fill="white"/>
<path d="M385.226 229.791L321.031 330.558L325.03 333.106L389.225 232.338L385.226 229.791Z" fill="white"/>
<path d="M397.216 233.569L333.021 334.337L337.02 336.884L401.215 236.117L397.216 233.569Z" fill="white"/>
<path d="M409.207 237.351L345.011 338.119L349.01 340.666L413.205 239.899L409.207 237.351Z" fill="white"/>
<path d="M147.238 50.5898H154.81C155.489 50.5898 156.04 51.1408 156.04 51.8206V59.392C156.04 60.071 156.591 60.622 157.27 60.622H157.46C158.139 60.622 158.69 60.071 158.69 59.392V51.8206C158.69 51.1416 159.241 50.5898 159.92 50.5898H167.491C168.171 50.5898 168.721 50.0397 168.721 49.3599V49.1705C168.721 48.4908 168.171 47.9406 167.491 47.9406H159.92C159.241 47.9406 158.69 47.3896 158.69 46.7098V39.1384C158.69 38.4594 158.139 37.9084 157.46 37.9084H157.27C156.591 37.9084 156.04 38.4594 156.04 39.1384V46.7098C156.04 47.3896 155.489 47.9406 154.81 47.9406H147.238C146.559 47.9406 146.008 48.4908 146.008 49.1705V49.3599C146.008 50.0389 146.559 50.5898 147.238 50.5898Z" fill="white"/>
<path d="M168.571 64.1737H173.188C173.602 64.1737 173.938 64.5097 173.938 64.9241V69.5405C173.938 69.9549 174.274 70.2909 174.689 70.2909H174.803C175.218 70.2909 175.554 69.9549 175.554 69.5405V64.9241C175.554 64.5097 175.89 64.1737 176.304 64.1737H180.921C181.335 64.1737 181.671 63.8377 181.671 63.4233V63.3085C181.671 62.8941 181.335 62.5581 180.921 62.5581H176.304C175.89 62.5581 175.554 62.2221 175.554 61.8077V57.1913C175.554 56.7769 175.218 56.4417 174.803 56.4417H174.689C174.274 56.4417 173.938 56.7777 173.938 57.1913V61.8077C173.938 62.2221 173.602 62.5581 173.188 62.5581H168.571C168.156 62.5581 167.821 62.8941 167.821 63.3085V63.4233C167.821 63.8385 168.157 64.1737 168.571 64.1737Z" fill="white"/>
<path d="M334.062 174.881C340.487 174.881 345.696 169.672 345.696 163.246C345.696 156.821 340.487 151.612 334.062 151.612C327.636 151.612 322.427 156.821 322.427 163.246C322.427 169.672 327.636 174.881 334.062 174.881Z" fill="#D4F0F5"/>
<path d="M343.982 168.653C348.312 172.94 350.842 178.967 350.893 185.086C350.923 188.141 350.379 191.213 349.243 194.072C348.116 196.932 346.41 199.57 344.261 201.796C339.97 206.257 333.832 208.945 327.561 209.004C324.433 209.03 321.291 208.445 318.383 207.257C315.478 206.067 312.814 204.289 310.582 202.077C308.37 199.846 306.597 197.179 305.407 194.273C304.214 191.367 303.636 188.223 303.658 185.095C303.71 178.825 306.393 172.682 310.849 168.384C313.072 166.234 315.708 164.523 318.567 163.391C321.424 162.253 324.497 161.706 327.552 161.736C333.671 161.784 339.698 164.32 343.982 168.653ZM343.982 168.653C341.821 166.511 339.245 164.793 336.432 163.641C333.62 162.49 330.579 161.928 327.553 161.953C321.483 162.013 315.551 164.616 311.402 168.934C309.324 171.089 307.677 173.64 306.589 176.406C305.493 179.17 304.97 182.141 304.998 185.095C305.051 191.012 307.495 196.832 311.68 200.98C315.823 205.169 321.643 207.621 327.561 207.671C330.516 207.701 333.488 207.173 336.249 206.073C339.014 204.981 341.563 203.329 343.714 201.248C348.028 197.092 350.622 191.155 350.677 185.085C350.701 182.059 350.14 179.017 348.988 176.205C347.838 173.393 346.122 170.815 343.982 168.653Z" fill="white"/>
<path d="M57.7614 0.278162L18.8356 113.232L23.3181 114.777L62.2439 1.8229L57.7614 0.278162Z" fill="white"/>
<path d="M70.303 1.15864L31.3772 114.113L35.8597 115.658L74.7855 2.70338L70.303 1.15864Z" fill="white"/>
<path d="M82.8442 2.03915L43.9184 114.993L48.4009 116.538L87.3267 3.58388L82.8442 2.03915Z" fill="white"/>
<path d="M95.3861 2.91902L56.4603 115.873L60.9428 117.418L99.8686 4.46376L95.3861 2.91902Z" fill="white"/>
<path d="M107.927 3.79928L69.0013 116.753L73.4838 118.298L112.41 5.34402L107.927 3.79928Z" fill="white"/>
<path d="M120.469 4.67989L81.5431 117.634L86.0256 119.179L124.951 6.22462L120.469 4.67989Z" fill="white"/>
<path d="M133.011 5.55992L94.0848 118.514L98.5673 120.059L137.493 7.10466L133.011 5.55992Z" fill="white"/>
<path d="M145.552 6.44028L106.626 119.394L111.108 120.939L150.034 7.98501L145.552 6.44028Z" fill="white"/>
<path d="M61.2528 127.19C76.7907 127.19 89.3867 114.594 89.3867 99.0564C89.3867 83.5185 76.7907 70.9225 61.2528 70.9225C45.7149 70.9225 33.1189 83.5185 33.1189 99.0564C33.1189 114.594 45.7149 127.19 61.2528 127.19Z" fill="#B9E5EE"/>
<path d="M61.2527 124.864C75.5058 124.864 87.0602 113.309 87.0602 99.0563C87.0602 84.8033 75.5058 73.2489 61.2527 73.2489C46.9997 73.2489 35.4453 84.8033 35.4453 99.0563C35.4453 113.309 46.9997 124.864 61.2527 124.864Z" fill="white"/>
<path d="M63.9261 82.5028C64.1085 85.5874 64.176 88.672 64.2536 91.7566C64.2986 94.8412 64.3296 97.9258 64.304 101.01L64.3009 101.39L63.9261 101.388C61.6128 101.379 59.2996 101.347 56.9863 101.278C55.8293 101.242 54.6731 101.228 53.516 101.176C52.3598 101.122 51.2028 101.085 50.0458 101.01C51.2028 100.935 52.359 100.898 53.516 100.845C54.6731 100.792 55.8293 100.778 56.9863 100.743C59.2996 100.674 61.6128 100.642 63.9261 100.633L63.5482 101.01C63.5234 97.9258 63.5544 94.8412 63.5986 91.7566C63.6762 88.672 63.7445 85.5874 63.9261 82.5028Z" fill="#92D5E4"/>
<path d="M343.905 283.201C348.228 290.345 345.944 299.646 338.804 303.974C331.663 308.303 322.371 306.021 318.047 298.878C313.724 291.734 316.008 282.435 323.148 278.105C330.288 273.776 339.581 276.058 343.905 283.201Z" fill="#92D5E4"/>
<path d="M350.075 268.432C351.208 270.303 350.609 272.74 348.738 273.874C346.868 275.008 344.433 274.41 343.301 272.539C342.168 270.667 342.766 268.231 344.637 267.096C346.509 265.962 348.942 266.561 350.075 268.432Z" fill="#92D5E4"/>
<path d="M33.1267 144.66C38.5619 144.66 42.9679 140.254 42.9679 134.819C42.9679 129.384 38.5619 124.978 33.1267 124.978C27.6915 124.978 23.2855 129.384 23.2855 134.819C23.2855 140.254 27.6915 144.66 33.1267 144.66Z" fill="#92D5E4"/>
<path d="M336.651 145.713C339.001 145.713 340.907 143.807 340.907 141.456C340.907 139.106 339.001 137.2 336.651 137.2C334.3 137.2 332.394 139.106 332.394 141.456C332.394 143.807 334.3 145.713 336.651 145.713Z" fill="#D4F0F5"/>
<path d="M302.212 171.833L299.925 175.577C299.881 175.648 299.821 175.709 299.75 175.754L295.654 178.341C295.311 178.558 295.315 179.06 295.665 179.269L300 181.87C300.078 181.917 300.144 181.983 300.189 182.061L302.278 185.612C302.483 185.961 302.985 185.972 303.205 185.632L305.537 182.027C305.574 181.97 305.621 181.921 305.676 181.881L309.587 179.057C309.911 178.822 309.881 178.33 309.53 178.137L305.22 175.766C305.123 175.713 305.045 175.631 304.995 175.533L303.165 171.872C302.973 171.49 302.436 171.467 302.212 171.833Z" fill="#92D5E4"/>
<path d="M282.156 180.762L278.873 186.136C278.81 186.238 278.724 186.325 278.623 186.39L272.744 190.103C272.251 190.414 272.26 191.135 272.759 191.435L278.981 195.169C279.094 195.235 279.187 195.33 279.254 195.443L282.251 200.539C282.546 201.04 283.266 201.055 283.581 200.567L286.928 195.394C286.981 195.312 287.048 195.242 287.127 195.184L292.739 191.13C293.205 190.794 293.161 190.087 292.658 189.811L286.474 186.409C286.334 186.332 286.222 186.215 286.151 186.074L283.524 180.82C283.248 180.271 282.476 180.238 282.156 180.762Z" fill="white"/>
<path d="M56.2205 143.26C58.5549 143.26 60.4473 141.367 60.4473 139.033C60.4473 136.698 58.5549 134.806 56.2205 134.806C53.886 134.806 51.9936 136.698 51.9936 139.033C51.9936 141.367 53.886 143.26 56.2205 143.26Z" fill="#92D5E4"/>
<path d="M83.5465 54.5334L81.2581 58.2776C81.2146 58.349 81.1549 58.4096 81.0843 58.4546L76.9878 61.0417C76.6448 61.2582 76.6502 61.7611 76.9986 61.9698L81.3341 64.571C81.4125 64.6175 81.4777 64.6835 81.5235 64.7619L83.6117 68.3129C83.8174 68.6621 84.3187 68.6729 84.539 68.3323L86.8709 64.7277C86.9074 64.6711 86.9547 64.6214 87.009 64.5819L90.9201 61.7572C91.2445 61.5229 91.2142 61.0309 90.8634 60.8377L86.5535 58.467C86.4565 58.4134 86.3782 58.332 86.3285 58.2334L84.4979 54.573C84.3078 54.1904 83.77 54.1679 83.5465 54.5334Z" fill="#92D5E4"/>
<path d="M107.812 297.849C108.333 295.784 108.851 293.728 109.3 291.659C109.739 289.588 110.156 287.514 110.49 285.427C110.842 283.342 111.112 281.245 111.357 279.142C111.477 278.09 111.575 277.036 111.66 275.979C111.765 274.923 111.822 273.863 111.912 272.801C111.998 273.863 112.016 274.927 112.04 275.994C112.033 277.059 112.001 278.125 111.952 279.191C111.846 281.323 111.594 283.445 111.256 285.552C110.9 287.656 110.458 289.748 109.877 291.801C109.303 293.856 108.638 295.884 107.812 297.849Z" fill="#92D5E4"/>
<path d="M131.372 312.962C112.505 241.396 76.5462 208.314 36.0514 177.817C34.7935 205.136 40.3497 236.444 52.3001 258.068C64.2513 279.691 88.1373 320.002 115.911 336.491" fill="#B9E5EE"/>
<path d="M119.835 330.325L115.842 320.415L111.68 310.575L107.385 300.796C105.924 297.549 104.408 294.328 102.922 291.092C96.8627 278.207 90.4087 265.506 83.4542 253.082C76.5547 240.628 69.161 228.451 61.3482 216.547C59.3997 213.568 57.3844 210.633 55.4056 207.673C53.3919 204.738 51.3215 201.84 49.2861 198.92L43.0199 190.268L36.5737 181.748L43.1712 190.154L49.5942 198.697C51.6661 201.596 53.7628 204.477 55.8092 207.395C57.819 210.336 59.8661 213.255 61.8464 216.217C69.7709 228.066 77.1709 240.264 84.1324 252.705C91.0388 265.176 97.5122 277.889 103.461 290.843C104.916 294.095 106.402 297.335 107.832 300.598L112.029 310.428L116.017 320.344L119.835 330.325Z" fill="#92D5E4"/>
<path d="M99.0945 280.969C99.2706 279.137 99.5306 277.32 99.803 275.506C100.067 273.69 100.39 271.885 100.715 270.08C101.057 268.279 101.401 266.478 101.804 264.687L102.41 262.002C102.64 261.113 102.845 260.218 103.098 259.333C103.017 260.251 102.888 261.16 102.784 262.072L102.39 264.797C102.126 266.613 101.803 268.417 101.478 270.222C101.135 272.023 100.791 273.825 100.387 275.614C99.9923 277.405 99.5849 279.195 99.0945 280.969Z" fill="#92D5E4"/>
<path d="M84.3893 252.335C84.7222 250.338 85.0613 248.353 85.3376 246.36C85.6053 244.366 85.8567 242.372 86.0328 240.371C86.2268 238.372 86.3448 236.367 86.4426 234.357C86.4907 233.353 86.5171 232.346 86.531 231.339C86.566 230.33 86.5543 229.322 86.5768 228.309C86.7305 229.311 86.8174 230.319 86.9121 231.329C86.9749 232.34 87.0153 233.352 87.0401 234.366C87.0828 236.393 86.9842 238.423 86.8057 240.443C86.6094 242.462 86.3347 244.473 85.9242 246.46C85.5222 248.446 85.0334 250.414 84.3893 252.335Z" fill="#92D5E4"/>
<path d="M70.0457 229.403C70.266 226.276 70.4942 223.184 70.5516 220.08C70.6315 216.976 70.5423 213.88 70.429 210.747C71.1514 213.802 71.3866 216.959 71.3268 220.098C71.2446 223.236 70.869 226.375 70.0457 229.403Z" fill="#92D5E4"/>
<path d="M56.0629 208.166C56.1032 206.31 56.201 204.512 56.1801 202.702C56.1808 200.892 56.0668 199.098 55.9713 197.245C56.6705 198.971 56.9359 200.844 56.9561 202.698C56.9522 204.554 56.7062 206.421 56.0629 208.166Z" fill="#92D5E4"/>
<path d="M55.8588 208.528C54.2401 208.649 52.6477 208.537 51.0624 208.368C49.4793 208.174 47.9033 207.925 46.3544 207.437C47.9731 207.313 49.5655 207.426 51.1508 207.597C52.7339 207.791 54.3099 208.042 55.8588 208.528Z" fill="#92D5E4"/>
<path d="M69.7268 229.864C67.9086 230.209 66.0353 230.275 64.1776 230.12C62.3167 229.975 60.4776 229.562 58.7107 228.951C56.9484 228.324 55.2551 227.498 53.7086 226.454L52.5725 225.641L51.4845 224.771L50.4672 223.82C50.1428 223.489 49.8255 223.152 49.5143 222.811C49.8837 223.091 50.2461 223.375 50.6015 223.665L51.7173 224.47L52.8519 225.239L54.0221 225.946C55.6051 226.847 57.251 227.626 58.966 228.219C60.6747 228.829 62.4463 229.249 64.2451 229.529C66.0477 229.802 67.8791 229.89 69.7268 229.864Z" fill="#92D5E4"/>
<path d="M83.7817 252.583C81.3846 253.288 78.8921 253.685 76.3833 253.818C73.8729 253.96 71.3439 253.788 68.8623 253.357C66.3838 252.909 63.9487 252.198 61.6455 251.186L59.9406 250.382L58.2846 249.489L56.6969 248.485C56.184 248.124 55.6781 247.757 55.1768 247.386C55.7254 247.688 56.267 247.994 56.8033 248.308L58.4639 249.155L60.1486 249.94L61.8698 250.634C64.1853 251.499 66.5677 252.172 68.9981 252.594C71.4247 253.035 73.8939 253.224 76.3662 253.225C78.8401 253.217 81.3163 252.975 83.7817 252.583Z" fill="#92D5E4"/>
<path d="M98.7841 280.904C97.7606 281.406 96.6998 281.874 95.535 282.061C94.9553 282.158 94.357 282.137 93.789 282.103C93.2163 282.071 92.6428 282.045 92.0709 281.991C89.7802 281.813 87.5057 281.423 85.2732 280.871C83.0437 280.306 80.8476 279.598 78.7392 278.684C77.6885 278.22 76.6448 277.741 75.629 277.208C74.6202 276.663 73.6262 276.092 72.6686 275.466C73.7131 275.936 74.7366 276.437 75.7959 276.86C76.8349 277.323 77.8973 277.731 78.9627 278.123C81.0959 278.901 83.2633 279.572 85.4609 280.121C87.6562 280.688 89.8888 281.09 92.1353 281.423C92.6964 281.512 93.2613 281.573 93.8262 281.641C94.3927 281.718 94.9421 281.745 95.4985 281.714C96.6121 281.65 97.7016 281.26 98.7841 280.904Z" fill="#92D5E4"/>
<path d="M187.1 365.167C204.709 364.186 222.91 367.102 239.887 373.621C226.561 366.821 212.515 361.479 198.149 357.745C222.073 354.738 246.75 355.001 271.216 358.523C251.473 353.215 231.35 349.734 211.24 348.146C236.89 342.277 263.01 337.787 289.44 334.704C265.096 331.973 243.027 329.889 219.556 334.037C246.185 321.393 272.685 315.349 302.663 310.638C271.959 307.903 237.982 310.263 204.697 321.555C197.46 324.01 176.761 335.226 176.761 335.226L166.939 350.318L187.1 365.167Z" fill="#92D5E4"/>
<path d="M188.878 314.385C188.487 312.513 188.275 310.606 188.171 308.694C188.058 306.78 188.103 304.859 188.243 302.947C188.401 301.035 188.657 299.131 189.065 297.258C189.275 296.323 189.501 295.393 189.751 294.47C190.035 293.554 190.312 292.64 190.655 291.747C190.57 292.218 190.479 292.686 190.378 293.151L190.122 294.556C189.948 295.49 189.789 296.426 189.653 297.364C189.386 299.241 189.155 301.12 189.016 303.007C188.858 304.893 188.795 306.785 188.764 308.681C188.744 310.577 188.805 312.475 188.878 314.385Z" fill="#92D5E4"/>
<path d="M159.459 323.774C197.832 264.107 248.9 238.434 300.591 218.329C292.229 242.281 277.635 271.597 259.235 288.6C240.836 305.603 204.784 337.037 170.434 346.943" fill="#B9E5EE"/>
<path d="M167.697 340.894L174.566 332.498L181.587 324.227L188.787 316.108L196.135 308.123C206.034 297.568 216.364 287.421 227.024 277.633C237.725 267.892 248.76 258.514 260.161 249.604L268.776 243.005L277.512 236.568L286.387 230.326L295.373 224.251L286.496 230.481L277.737 236.874L269.073 243.395L260.532 250.071C249.219 259.07 238.196 268.431 227.548 278.205C216.858 287.933 206.548 298.076 196.567 308.531L189.149 316.437L181.872 324.476L174.711 332.62L167.697 340.894Z" fill="#92D5E4"/>
<path d="M202.576 301.01C202.503 299.366 202.514 297.726 202.538 296.087C202.552 294.448 202.628 292.81 202.704 291.175C202.799 289.539 202.895 287.904 203.051 286.272L203.288 283.824C203.396 283.009 203.476 282.193 203.607 281.381C203.652 282.203 203.646 283.023 203.668 283.844L203.647 286.304C203.632 287.943 203.556 289.581 203.479 291.216C203.383 292.851 203.287 294.487 203.131 296.119C202.983 297.751 202.822 299.384 202.576 301.01Z" fill="#92D5E4"/>
<path d="M225.721 278.311C225.516 276.493 225.484 274.659 225.553 272.828C225.613 270.996 225.821 269.17 226.115 267.361C226.427 265.553 226.827 263.759 227.37 262.009C227.644 261.135 227.935 260.266 228.247 259.406C228.59 258.556 228.926 257.707 229.325 256.883C229.091 257.768 228.828 258.639 228.61 259.522C228.372 260.399 228.149 261.279 227.947 262.162C227.545 263.931 227.172 265.702 226.88 267.488C226.571 269.271 226.346 271.067 226.147 272.87C225.955 274.674 225.837 276.487 225.721 278.311Z" fill="#92D5E4"/>
<path d="M247.053 260.554C246.95 257.694 247.345 254.828 248.046 252.053C248.769 249.283 249.807 246.58 251.283 244.129C250.366 246.835 249.49 249.511 248.797 252.246C248.083 254.975 247.559 257.742 247.053 260.554Z" fill="#92D5E4"/>
<path d="M267.569 244.222C267.34 242.528 267.559 240.8 268.03 239.161C268.521 237.528 269.274 235.954 270.389 234.659C269.809 236.26 269.23 237.794 268.774 239.38C268.296 240.96 267.952 242.563 267.569 244.222Z" fill="#92D5E4"/>
<path d="M267.701 244.572C269.488 244.366 271.262 244.398 273.033 244.486C274.802 244.598 276.569 244.767 278.322 245.174C276.534 245.381 274.76 245.349 272.989 245.26C271.22 245.146 269.454 244.977 267.701 244.572Z" fill="#92D5E4"/>
<path d="M247.286 261.01C249.303 261.325 251.321 261.537 253.341 261.585C255.36 261.624 257.378 261.544 259.376 261.294C261.377 261.06 263.356 260.656 265.307 260.137L266.764 259.715L268.203 259.23L269.634 258.711C270.102 258.513 270.574 258.323 271.051 258.139C270.613 258.399 270.168 258.652 269.72 258.898L268.345 259.584L266.927 260.179L265.481 260.71C263.535 261.373 261.512 261.809 259.47 262.065C257.425 262.303 255.357 262.362 253.309 262.179C251.261 262.005 249.231 261.637 247.286 261.01Z" fill="#92D5E4"/>
<path d="M226.322 278.628C228.972 279.389 231.652 280.002 234.361 280.403C237.07 280.795 239.8 281.021 242.533 281.023C245.266 281.044 247.999 280.842 250.711 280.472L252.74 280.153L254.758 279.749L256.767 279.291C257.429 279.107 258.095 278.931 258.763 278.761C258.121 279.01 257.475 279.254 256.825 279.488L254.849 280.118L252.839 280.633L250.806 281.062C248.082 281.575 245.305 281.803 242.53 281.799C239.755 281.777 236.98 281.526 234.26 280.989C231.541 280.46 228.868 279.693 226.322 278.628Z" fill="#92D5E4"/>
<path d="M202.929 301.005C204.081 301.521 205.237 302.066 206.461 302.268C207.07 302.378 207.686 302.422 208.32 302.447C208.95 302.483 209.578 302.511 210.208 302.525C212.724 302.593 215.239 302.593 217.749 302.454C220.259 302.332 222.765 302.1 225.26 301.775C226.508 301.612 227.756 301.432 228.995 301.203C230.243 301.013 231.477 300.747 232.723 300.518C231.522 300.92 230.302 301.259 229.074 301.578C227.844 301.883 226.601 302.133 225.354 302.369C222.857 302.835 220.325 303.093 217.788 303.227C215.251 303.346 212.705 303.326 210.176 303.106C209.544 303.057 208.912 302.993 208.282 302.922C207.657 302.855 207.01 302.79 206.386 302.622C205.128 302.288 204.004 301.666 202.929 301.005Z" fill="#92D5E4"/>
<path d="M186.117 319.755C188.127 319.916 190.127 320.058 192.128 320.11C194.13 320.154 196.129 320.155 198.124 320.056C200.12 319.975 202.112 319.794 204.1 319.571C205.095 319.456 206.087 319.317 207.077 319.162L208.567 318.932C209.061 318.839 209.557 318.755 210.056 318.678C209.102 319.008 208.128 319.269 207.153 319.535C206.17 319.767 205.181 319.974 204.188 320.162C202.199 320.528 200.18 320.732 198.159 320.831C196.137 320.912 194.109 320.89 192.094 320.704C190.081 320.526 188.077 320.233 186.117 319.755Z" fill="#92D5E4"/>
<path d="M108.854 342.648C103.008 343.251 97.1614 343.855 91.315 344.458C87.5165 344.85 83.5038 345.209 80.0351 343.61C76.5664 342.013 74.0421 337.702 75.7508 334.287C77.8468 330.1 84.5957 329.764 86.2245 325.373C81.8603 321.176 75.1867 320.728 69.1331 320.857C63.0795 320.985 56.6069 321.349 51.4286 318.209C46.2512 315.07 43.8401 306.785 48.5605 302.993C50.4703 301.459 53.021 301.034 55.2202 299.956C57.4194 298.877 59.4478 296.513 58.6703 294.19C58.1597 292.665 56.6294 291.751 55.1783 291.057C49.1813 288.188 42.6063 286.773 36.3673 284.477C30.1282 282.182 23.9482 278.749 20.436 273.105C16.9238 267.462 16.982 259.2 22.0213 254.865C27.7692 249.92 36.9756 252.152 42.8228 256.979C48.6692 261.806 52.4832 268.639 57.774 274.069C59.5859 275.929 62.2438 277.737 64.5881 276.621C67.623 275.175 66.9098 270.757 66.109 267.493C65.3082 264.229 66.1385 259.389 69.4955 259.547C70.5951 259.599 71.5689 260.265 72.3822 261.007C81.04 268.913 76.1109 283.571 80.4712 294.455C81.435 296.86 83.5729 299.396 86.098 298.816C91.1032 297.667 88.2964 287.635 93.2465 286.267C95.4294 285.664 97.5913 287.471 98.6242 289.485C102.18 296.419 97.4656 304.784 98.3821 312.522C99.595 322.759 109.913 329.05 119.197 333.533" fill="#92D5E4"/>
<path d="M177.348 295.136C178.953 288.231 180.595 281.322 182.748 274.563C184.864 267.923 187.483 261.401 191.108 255.432C192.909 252.467 194.955 249.652 197.279 247.073C199.794 244.279 202.606 241.772 205.482 239.358C208.33 236.966 211.248 234.655 214.041 232.197C216.753 229.811 219.312 227.264 221.654 224.512C226.336 219.01 230.2 212.821 233.118 206.213C233.467 205.421 233.803 204.624 234.126 203.823C234.313 203.359 233.563 203.158 233.378 203.616C230.655 210.358 226.96 216.724 222.403 222.392C220.144 225.204 217.672 227.838 215.016 230.279C212.275 232.798 209.371 235.13 206.502 237.502C203.612 239.89 200.75 242.326 198.137 245.02C195.701 247.529 193.521 250.274 191.602 253.196C187.819 258.955 185.05 265.327 182.831 271.833C180.531 278.575 178.811 285.496 177.183 292.426C176.987 293.261 176.793 294.095 176.598 294.931C176.487 295.415 177.235 295.623 177.348 295.136Z" fill="#92D5E4"/>
<path d="M228.939 213.048C229.585 205.45 230.645 196.962 236.111 192.041C237.188 191.071 238.465 190.264 239.835 190.186C241.206 190.108 242.654 190.934 243.023 192.363C243.261 193.283 243.035 194.285 242.748 195.209C240.423 202.702 234.396 208.079 228.672 213.004" fill="#92D5E4"/>
<path d="M222.335 222.108C225.603 219.802 229.297 218.247 233.095 217.579C235.135 217.22 237.336 217.146 239.08 218.266C240.825 219.387 241.821 222.061 240.698 223.988C239.627 225.825 237.334 226.14 235.375 226.145C230.627 226.157 225.899 225.514 221.339 224.238" fill="#92D5E4"/>
<path d="M214.741 230.649C217.905 224.245 218.733 219.899 218.15 212.782C217.991 210.838 217.632 208.789 216.398 207.417C215.166 206.044 212.799 205.756 211.649 207.303C210.857 208.368 210.887 209.859 210.972 211.201C211.391 217.768 212.471 225.922 213.596 232.362" fill="#92D5E4"/>
<path d="M203.972 239.935C209.101 236.26 215.767 235.4 221.343 237.691C222.814 238.295 224.282 239.18 225.035 240.682C225.788 242.184 225.527 244.421 224.132 245.314C223.211 245.904 222.083 245.783 221.05 245.617C215.183 244.672 209.468 242.83 204.118 240.16" fill="#92D5E4"/>
<path d="M200.046 243.008C202.389 236.488 202.888 229.254 201.457 222.571C201.313 221.902 201.104 221.169 200.555 220.847C199.374 220.153 198.164 221.883 197.736 223.313C195.786 229.846 196.789 238.84 198.846 245.174" fill="#92D5E4"/>
<path d="M193.766 251.714C197.471 249.749 202.084 250.205 205.257 252.85C206.296 253.716 207.242 255.236 206.572 256.519C206.068 257.485 204.916 257.747 203.914 257.821C200.116 258.099 195.284 255.531 192.005 253.562" fill="#92D5E4"/>
<path d="M234.285 89.396L235.251 87.4055L235.574 87.6088L234.285 89.396Z" fill="#2EA8BC"/>
<path d="M237.653 83.4704C238.526 82.1986 239.502 80.9965 240.528 79.8364L241.573 80.8561C240.475 81.8742 239.442 82.9645 238.433 84.0835L237.653 83.4704Z" fill="#2EA8BC"/>
<path d="M243.834 76.5587C244.996 75.5235 246.224 74.562 247.511 73.6813L248.645 75.3962C247.393 76.1955 246.171 77.0468 244.985 77.9508L243.834 76.5587Z" fill="#2EA8BC"/>
<path d="M251.495 71.2321L255.732 69.2502L256.588 71.3804L252.527 73.2125L251.495 71.2321Z" fill="#2EA8BC"/>
<path d="M260.149 67.7169L264.686 66.6298L265.125 68.822L260.8 69.9208L260.149 67.7169Z" fill="#2EA8BC"/>
<path d="M269.3 65.9965L271.617 65.8405C272.389 65.7823 273.164 65.7971 273.936 65.7784L273.999 67.5912C273.252 67.6595 272.503 67.699 271.762 67.8023L269.534 68.0451L269.3 65.9965Z" fill="#2EA8BC"/>
<path d="M278.558 65.9631C280.089 66.1525 281.618 66.3232 283.136 66.5374L283.028 67.5291C281.512 67.519 280.005 67.4647 278.501 67.429L278.558 65.9631Z" fill="#2EA8BC"/>
<path d="M287.648 67.4865L289.776 68.0863L287.581 67.8651L287.648 67.4865Z" fill="#2EA8BC"/>
<path d="M295.388 79.6308C272.536 70.5943 246.687 81.7028 237.655 104.443C231.995 118.692 234.283 134.126 242.401 145.89C242.472 146.351 242.723 146.735 243.214 147.014C243.227 147.031 243.239 147.05 243.253 147.067L229.554 167.036C228.814 168.116 230.097 169.499 231.329 168.95L255.333 158.254C257.625 159.691 260.072 160.949 262.68 161.98C285.532 171.016 311.381 159.908 320.413 137.167C329.445 114.428 318.241 88.6674 295.388 79.6308Z" fill="white" stroke="#2EA8BC" stroke-miterlimit="10"/>
<path d="M291.045 146.43H267.583C261.017 146.43 255.695 141.109 255.695 134.543V105.001C255.695 98.4356 261.017 93.113 267.583 93.113H291.045C297.61 93.113 302.933 98.4348 302.933 105.001V134.543C302.933 141.109 297.61 146.43 291.045 146.43Z" fill="white" stroke="#2EA8BC" stroke-miterlimit="10"/>
<g opacity="0.46">
<path opacity="0.46" d="M261.891 110.449H264.548V119.777H262.785V112.117H260.863L261.891 110.449Z" fill="#2EA8BC"/>
<path opacity="0.46" d="M270.794 110.214L272.305 110.971L270.673 114.139C271.464 114.139 272.136 114.423 272.689 114.989C273.244 115.556 273.521 116.26 273.521 117.101C273.521 117.912 273.237 118.601 272.667 119.165C272.098 119.73 271.413 120.011 270.61 120.011C269.768 120.011 269.067 119.719 268.508 119.133C267.947 118.547 267.667 117.877 267.667 117.119C267.667 116.831 267.711 116.542 267.798 116.25C267.885 115.959 268.084 115.511 268.396 114.906L270.794 110.214ZM270.572 115.82C270.241 115.82 269.964 115.939 269.741 116.178C269.517 116.417 269.405 116.716 269.405 117.075C269.405 117.434 269.522 117.737 269.756 117.981C269.991 118.227 270.265 118.349 270.578 118.349C270.908 118.349 271.191 118.229 271.428 117.988C271.664 117.746 271.783 117.442 271.783 117.074C271.783 116.715 271.667 116.415 271.438 116.177C271.207 115.94 270.919 115.82 270.572 115.82Z" fill="#2EA8BC"/>
</g>
<path d="M293.003 93.113H265.625C260.141 93.113 255.694 97.901 255.694 103.808V105.769H302.933V103.808C302.933 97.9017 298.487 93.113 293.003 93.113Z" fill="#2EA8BC"/>
<g opacity="0.61">
<path opacity="0.61" d="M281.542 101.402C282.576 101.402 283.414 100.564 283.414 99.5305C283.414 98.4968 282.576 97.6588 281.542 97.6588C280.508 97.6588 279.67 98.4968 279.67 99.5305C279.67 100.564 280.508 101.402 281.542 101.402Z" fill="white"/>
<path opacity="0.61" d="M287.781 101.402C288.815 101.402 289.653 100.564 289.653 99.5305C289.653 98.4968 288.815 97.6588 287.781 97.6588C286.747 97.6588 285.909 98.4968 285.909 99.5305C285.909 100.564 286.747 101.402 287.781 101.402Z" fill="white"/>
<path opacity="0.61" d="M294.199 101.402C295.232 101.402 296.07 100.564 296.07 99.5305C296.07 98.4968 295.232 97.6588 294.199 97.6588C293.165 97.6588 292.327 98.4968 292.327 99.5305C292.327 100.564 293.165 101.402 294.199 101.402Z" fill="white"/>
</g>
<path d="M310.419 107.938C308.018 110.816 305.537 113.614 303.01 116.367C300.488 119.125 297.929 121.845 295.334 124.53C294.049 125.884 292.737 127.213 291.424 128.54C290.108 129.864 288.815 131.209 287.477 132.511L283.49 136.443L279.451 140.323L278.669 141.074L277.989 140.278C276.949 139.059 275.946 137.809 274.924 136.576C273.899 135.345 272.903 134.088 271.9 132.838C270.891 131.593 269.916 130.318 268.927 129.057C267.949 127.784 266.98 126.503 266.033 125.204C267.204 126.306 268.354 127.426 269.495 128.555C270.622 129.695 271.766 130.821 272.874 131.979C273.989 133.131 275.111 134.275 276.205 135.446C277.3 136.615 278.415 137.766 279.493 138.95L278.032 138.904L281.913 134.866L285.846 130.879C287.148 129.542 288.494 128.248 289.817 126.933C291.144 125.62 292.473 124.309 293.827 123.022C296.512 120.428 299.233 117.869 301.99 115.347C304.743 112.82 307.541 110.339 310.419 107.938Z" fill="#2EA8BC"/>
<path d="M178.312 104.273C172.732 92.0592 156.484 85.8582 143.417 88.9537C130.35 92.0492 120.174 103.092 115.364 115.629C111.209 126.456 110.537 138.307 107.123 149.39C104.215 158.831 99.3048 167.65 92.8112 175.094C86.8764 181.898 79.5843 187.645 75.0315 195.442C69.1184 205.568 68.6613 218.674 73.852 229.187C79.0427 239.701 89.7274 247.306 101.362 248.767C113.561 250.3 126.182 245.507 138.084 248.589C144.134 250.156 149.635 253.695 155.833 254.489C166.536 255.862 176.993 248.277 181.451 238.451C185.908 228.624 185.307 217.171 182.586 206.729C179.638 195.412 174.308 184.584 173.604 172.911C172.823 159.976 175.786 151.377 176.672 138.449C177.449 127.107 186.175 121.479 178.312 104.273Z" fill="#38303B"/>
<path d="M136.737 345.016C151.884 407.611 165.595 473.376 186.009 534.231C187.631 539.067 189.981 547.394 192.297 547.674C195.534 548.063 198.306 547.627 201.35 547.015C203.867 546.509 205.588 544.203 205.299 541.672C194.743 449.133 195.35 355.744 172.945 265.645C172.153 262.459 131.042 267.814 131.042 267.814" fill="#38303B"/>
<path d="M42.5783 532.055C43.1565 533.647 45.0096 534.394 46.5072 533.602C68.3788 522.029 87.4831 502.739 103.324 478.841C126.582 443.753 140.79 415.996 153.276 374.577C162.876 342.727 170.886 309.344 167.395 276.074C152.233 277.285 137.127 279.313 122.152 282.148C119.093 282.728 118.386 282.963 116.233 285.378C114.172 287.69 113.127 293.631 112.617 296.789C106.838 332.611 106.334 367.562 99.3404 403.133C90.8851 446.14 71.7288 491.217 39.5271 518.199C38.6184 518.959 38.2731 520.195 38.6774 521.311L42.5783 532.055Z" fill="#38303B"/>
<path d="M104.884 314.647L106.559 320.564C107.229 323.474 110.487 327.477 114.153 327.473C136.495 327.451 158.84 327.186 181.178 326.677C182.968 326.636 184.94 326.533 186.229 325.52C187.327 324.657 187.636 323.352 187.891 322.135C188.613 318.68 189.336 315.224 190.06 311.767" fill="#2EA8BC"/>
<path d="M230.885 291.303C234.176 294.701 246.6 309.646 248.706 313.793C250.983 318.279 252.612 323.256 256.039 326.962C256.705 327.684 258.283 326.994 258.398 325.957C258.609 324.052 258.52 322.183 258.13 320.416C257.908 319.404 259.435 318.475 260.344 319.053C261.022 319.485 261.585 320.123 262.027 320.732C264.795 324.538 267.573 327.168 270.342 330.975C271.511 332.582 273.286 335.033 274.878 336.302C275.627 336.899 276.119 336.065 275.925 335.146C275.759 334.351 274.446 331.505 274.713 331.807C275.312 332.483 276.833 331.877 276.476 330.458C274.971 324.45 271.09 317.217 268.387 313.658C261.589 304.71 246.45 294.428 239.677 284.866" fill="#F7B094"/>
<path d="M163.692 218.58C179.816 245.928 202.572 271.938 229.67 293.99C232.598 296.373 234.755 298.35 237.696 297.49C241.816 296.284 248.234 292.434 245.276 288.435C231.305 269.548 212.924 248.225 205.556 228.267C202.234 219.267 199.617 210.224 195.156 201.298C190.694 192.371 184.133 182.359 174.831 176.857" fill="#2EA8BC"/>
<path d="M112.957 322.315C108.129 322.475 104.308 317.767 103.516 313.003C102.725 308.238 107.987 297.847 107.173 292.856C106.023 285.798 98.2509 223.185 111.721 188.788C114.79 180.952 120.01 173.065 128.118 170.812C132.403 169.62 136.945 170.167 141.391 170.284C150.657 170.527 160.447 168.949 168.813 172.94C183.072 179.743 185.886 198.455 186.827 214.226C187.611 227.383 188.395 240.54 189.18 253.696C190.158 270.091 196.035 285.036 191.238 298.28C189.826 302.18 195.247 313.262 192.608 316.461C189.666 320.029 181.699 318.854 177.079 319.066C158.017 319.943 138.954 320.82 119.89 321.697" fill="#92D5E4"/>
<path d="M193.587 206.647L190.822 203.988C190.664 203.837 190.659 203.585 190.811 203.428L218.733 174.383C218.884 174.225 219.135 174.221 219.293 174.372L222.059 177.031C222.216 177.183 222.222 177.433 222.069 177.591L194.148 206.635C193.996 206.793 193.745 206.799 193.587 206.647Z" fill="#38303B"/>
<path d="M147.637 278.128C143.472 281.7 132.493 287.591 128.017 290.766C124.673 293.139 118.784 290.812 113.903 285.6C110.535 282.003 107.86 274.73 106.401 270.025C103.644 261.137 102.523 248.79 102.055 237.917C101.437 223.569 102.982 210.574 104.291 200.073C105.599 189.572 113.039 175.394 120.626 172.428C131.538 168.162 136.366 172.696 137.995 188.908C139.162 200.515 136.564 210.394 134.863 230.068C134.094 238.973 133.244 254.922 133.244 254.922L147.637 278.128Z" fill="#2EA8BC"/>
<path d="M166.309 229.249C169.652 225.917 182.356 211.237 184.573 207.149C186.971 202.728 188.758 197.812 192.245 194.175C192.924 193.468 194.432 194.168 194.504 195.197C194.633 197.089 194.471 198.941 194.021 200.688C193.763 201.688 197.428 202.743 198.337 202.181C199.015 201.76 210.36 189.874 210.634 189.578C211.246 188.914 212.702 189.53 212.299 190.934C210.591 196.873 206.52 204.001 203.744 207.499C196.763 216.296 181.6 226.323 174.619 235.727" fill="#F7B094"/>
<path d="M127.586 290.503C132.978 289.485 144.468 281.992 149.403 276.068C157.186 266.724 181.949 236.417 182.553 231.394C182.81 229.261 175.844 223.171 173.113 220.415C171.485 218.772 158.292 234.377 151.273 240.532C149.098 242.44 136.357 252.516 130.289 256.773" fill="#2EA8BC"/>
<path d="M123.717 257.391C129.971 256.082 135.562 252.828 140.652 249.112C145.739 245.346 150.49 241.131 155.053 236.728C159.656 232.362 164.07 227.798 168.471 223.223L170.123 221.509L170.536 221.081C170.674 220.934 170.85 220.772 171.037 220.656C171.41 220.413 171.852 220.285 172.295 220.275C172.737 220.271 173.181 220.387 173.556 220.621C173.949 220.864 174.191 221.188 174.476 221.456L176.149 223.152L182.788 229.989L175.881 223.422L174.168 221.767C173.872 221.497 173.612 221.183 173.316 221.019C173.012 220.839 172.657 220.755 172.305 220.765C171.954 220.782 171.608 220.89 171.32 221.089C171.039 221.267 170.801 221.592 170.519 221.881L168.903 223.634C164.587 228.299 160.161 232.865 155.587 237.289C150.967 241.657 146.198 245.904 140.995 249.596C138.376 251.411 135.666 253.109 132.789 254.495C129.906 255.847 126.858 256.89 123.717 257.391Z" fill="white"/>
<path d="M132.106 254.422C130.484 253.733 128.894 253.11 127.273 252.524C125.65 251.939 124.037 251.393 122.336 250.938C123.22 250.844 124.114 250.934 124.982 251.094C125.854 251.252 126.704 251.502 127.536 251.795C128.363 252.103 129.175 252.457 129.947 252.888C130.718 253.316 131.465 253.807 132.106 254.422Z" fill="white"/>
<path d="M138.846 168.981C140.401 162.504 142.667 152.968 143.735 148.595C144.173 146.797 144.612 144.998 145.112 143.216C145.224 142.814 145.359 142.379 145.638 142.125C145.871 141.911 146.157 141.869 146.425 141.86C149.064 141.767 151.121 143.981 153.444 145.204C156.284 146.7 159.614 146.726 162.506 148.089C162.854 148.253 163.227 148.482 163.324 148.946C163.38 149.215 163.331 149.518 163.281 149.808C162.39 155.067 161.579 169.472 161.053 176.158C160.758 179.894 154.1 182.036 147.362 180.158C139.253 177.899 138.227 171.558 138.846 168.981Z" fill="#F7B094"/>
<path d="M145.639 142.124C145.872 141.91 146.158 141.868 146.426 141.859C149.065 141.766 151.122 143.98 153.445 145.203C156.286 146.7 159.615 146.725 162.508 148.088C162.855 148.252 163.228 148.481 163.325 148.945C163.381 149.214 163.332 149.517 163.283 149.807C162.785 152.747 162.286 155.686 161.788 158.625C158.692 159.991 155.494 160.592 152.469 160.022C148.318 159.241 144.618 155.964 143.11 151.154C143.318 150.3 143.527 149.447 143.735 148.593C144.174 146.795 144.613 144.996 145.113 143.215C145.225 142.813 145.36 142.379 145.639 142.124Z" fill="#E89C82"/>
<path d="M139.063 137.625C135.215 137.139 131.665 135.018 130.988 132.13C130.311 129.243 133.243 125.893 137.168 125.689" fill="#F7B094"/>
<path d="M138.703 137.899C143.015 152.276 153.266 153.926 164.03 157.154C165.932 157.723 169.094 157.92 171.096 157.661C176.01 157.024 178.143 152.279 179.033 148.276C180.582 141.307 181.282 134.212 181.119 127.131C181.007 122.258 180.452 117.275 177.959 112.85C175.466 108.425 170.719 104.606 164.85 103.765C157.541 102.717 150.345 106.429 145.562 111.073C138.504 117.926 135.026 127.562 138.175 136.138" fill="#F7B094"/>
<path d="M181.102 126.9C181.191 131.388 181.357 130.642 181.843 133.197C181.896 133.474 182.495 135.653 184.032 136.654C185.244 137.442 185.574 139.27 184.542 140.298C183.968 140.87 183.397 141.13 182.582 141.289C181.43 141.514 180.293 141.226 179.615 140.282" fill="#F7B094"/>
<path d="M128 127.143C138.822 125.918 148.752 121.866 157.729 117.034C161.921 114.778 166.028 112.279 168.871 108.95C170.42 107.137 171.546 104.678 170.077 102.762C168.479 100.676 164.824 100.46 161.808 100.691C159.624 100.859 157.456 101.13 155.319 101.504C151.712 102.135 148.151 103.074 145.089 104.683C141.573 106.532 138.868 109.179 136.253 111.806C133.573 114.5 130.821 117.435 130.538 120.899" fill="#38303B"/>
<path d="M165.359 119.33C165.21 119.45 165.399 119.639 165.624 119.654C165.85 119.668 166.063 119.575 166.259 119.492C168.651 118.476 171.696 118.236 174.259 118.862C174.654 118.958 175.054 119.076 175.478 119.051C175.903 119.026 176.354 118.798 176.34 118.511C176.334 118.389 176.246 118.277 176.144 118.179C175.71 117.761 175.012 117.504 174.296 117.333C171.983 116.779 169.233 117.025 167.111 117.974C166.317 118.329 165.581 118.805 165.286 119.412" fill="#38303B"/>
<g opacity="0.54">
<path opacity="0.54" d="M153.993 137.551C153.941 141.096 156.977 143.993 160.775 144.021C164.572 144.049 167.693 141.198 167.745 137.652C167.797 134.107 164.76 131.211 160.963 131.183C157.166 131.155 154.045 134.006 153.993 137.551Z" fill="#ED825D"/>
</g>
<path d="M170.515 126.499C170.65 128.232 171.595 129.593 172.625 129.539C173.656 129.486 174.381 128.038 174.246 126.305C174.111 124.573 173.166 123.212 172.135 123.265C171.106 123.319 170.38 124.766 170.515 126.499Z" fill="#38303B"/>
<path d="M136.135 170.583C138.545 176.465 143.863 180.76 150.241 181.474C156.958 182.227 163.614 178.105 164.436 171.126C164.559 170.084 163.457 169.186 162.496 169.186C161.345 169.186 160.679 170.081 160.556 171.126C159.978 176.035 154.451 178.243 150.11 177.572C145.66 176.885 141.59 173.736 139.876 169.553C139.479 168.584 138.587 167.896 137.489 168.198C136.573 168.449 135.735 169.608 136.135 170.583Z" fill="#F4F6F9"/>
</g>
<defs>
<clipPath id="clip0">
<rect width="388" height="388" fill="white"/>
</clipPath>
</defs>
</svg>
