<svg width="291" height="245" viewBox="0 0 291 245" fill="none" xmlns="http://www.w3.org/2000/svg">
<path d="M68.5551 47.1357C11.9857 80.0935 8.60188 191.37 89.0643 189.241C125.044 188.286 135.556 150.621 168.026 137.402C198.51 124.985 224.794 149.887 255.565 121.687C291.824 88.4945 297.032 7.31164 243.14 1.88477C219.674 -0.479855 210.626 22.9093 190.124 28.0865C148.561 38.5878 110.589 22.6596 68.5551 47.1357Z" fill="#407BFF"/>
<path opacity="0.9" d="M68.5551 47.1357C11.9857 80.0935 8.60188 191.37 89.0643 189.241C125.044 188.286 135.556 150.621 168.026 137.402C198.51 124.985 224.794 149.887 255.565 121.687C291.824 88.4945 297.032 7.31164 243.14 1.88477C219.674 -0.479855 210.626 22.9093 190.124 28.0865C148.561 38.5878 110.589 22.6596 68.5551 47.1357Z" fill="white"/>
<path d="M148.37 245C227.142 245 291 241.278 291 236.687C291 232.096 227.142 228.374 148.37 228.374C69.5978 228.374 5.74023 232.096 5.74023 236.687C5.74023 241.278 69.5978 245 148.37 245Z" fill="#F5F5F5"/>
<path d="M0.407227 41.5839L168.107 65.6854L190.61 88.3549L0.407227 41.5839Z" fill="#407BFF"/>
<path opacity="0.6" d="M0.407227 41.5839L168.107 65.6854L190.61 88.3549L0.407227 41.5839Z" fill="white"/>
<path d="M0.407227 41.5839L168.107 65.6854L160.324 98.467L0.407227 41.5839Z" fill="#407BFF"/>
<path opacity="0.2" d="M0.407227 41.5839L168.107 65.6854L160.324 98.467L0.407227 41.5839Z" fill="black"/>
<path d="M156.881 3.63246L166.613 49.1624C166.867 50.3513 166.637 51.5919 165.975 52.6121C165.313 53.6322 164.273 54.3486 163.082 54.604L76.2201 73.1097C75.0293 73.3604 73.7875 73.1304 72.7661 72.4699C71.7447 71.8094 71.0268 70.7722 70.7691 69.5848L61.0295 24.0549C60.7785 22.8651 61.01 21.6245 61.6731 20.6047C62.3362 19.5849 63.3771 18.8688 64.5678 18.6133L151.43 0.107567C152.622 -0.142949 153.865 0.0880693 154.886 0.750065C155.908 1.41206 156.625 2.45111 156.881 3.63981V3.63246Z" fill="#407BFF"/>
<path opacity="0.4" d="M156.881 3.63246L166.613 49.1624C166.867 50.3513 166.637 51.5919 165.975 52.6121C165.313 53.6322 164.273 54.3486 163.082 54.604L76.2201 73.1097C75.0293 73.3604 73.7875 73.1304 72.7661 72.4699C71.7447 71.8094 71.0268 70.7722 70.7691 69.5848L61.0295 24.0549C60.7785 22.8651 61.01 21.6245 61.6731 20.6047C62.3362 19.5849 63.3771 18.8688 64.5678 18.6133L151.43 0.107567C152.622 -0.142949 153.865 0.0880693 154.886 0.750065C155.908 1.41206 156.625 2.45111 156.881 3.63981V3.63246Z" fill="black"/>
<path d="M154.741 0.651007L125.721 36.2158C123.029 39.5131 119.291 41.7945 115.124 42.6825C110.957 43.5705 106.612 43.012 102.806 41.0992L61.7656 20.4639C62.4296 19.5117 63.4317 18.8475 64.5683 18.606L151.431 0.100242C152.564 -0.140591 153.747 0.0562038 154.741 0.651007Z" fill="#407BFF"/>
<path d="M0.407227 41.5839L138.726 74.4022L160.324 98.467L0.407227 41.5839Z" fill="#407BFF"/>
<path opacity="0.6" d="M0.407227 41.5839L138.726 74.4022L160.324 98.467L0.407227 41.5839Z" fill="white"/>
<path d="M50.863 73.2163L50.4912 73.8499L65.8837 82.8507L66.2555 82.2171L50.863 73.2163Z" fill="#407BFF"/>
<path d="M73.051 86.1853L72.6792 86.819L78.2139 90.0553L78.5857 89.4217L73.051 86.1853Z" fill="#407BFF"/>
<path d="M0.407227 41.5839L138.726 74.4022L111.839 106.75L0.407227 41.5839Z" fill="#407BFF"/>
<path d="M185.416 118.471C185.23 118.471 185.045 118.436 184.872 118.368L162.347 109.468C161.987 109.323 161.698 109.041 161.545 108.685C161.392 108.329 161.386 107.926 161.528 107.566C161.671 107.205 161.951 106.915 162.307 106.76C162.663 106.604 163.066 106.596 163.428 106.736L185.961 115.636C186.279 115.762 186.544 115.995 186.709 116.295C186.874 116.595 186.929 116.943 186.865 117.279C186.8 117.615 186.62 117.918 186.356 118.135C186.091 118.353 185.759 118.472 185.416 118.471Z" fill="#407BFF"/>
<path opacity="0.3" d="M185.416 118.471C185.23 118.471 185.045 118.436 184.872 118.368L162.347 109.468C161.987 109.323 161.698 109.041 161.545 108.685C161.392 108.329 161.386 107.926 161.528 107.566C161.671 107.205 161.951 106.915 162.307 106.76C162.663 106.604 163.066 106.596 163.428 106.736L185.961 115.636C186.279 115.762 186.544 115.995 186.709 116.295C186.874 116.595 186.929 116.943 186.865 117.279C186.8 117.615 186.62 117.918 186.356 118.135C186.091 118.353 185.759 118.472 185.416 118.471Z" fill="black"/>
<path d="M184.085 105.575C183.9 105.574 183.718 105.537 183.548 105.465L171.447 100.655C171.266 100.585 171.101 100.48 170.961 100.346C170.821 100.212 170.708 100.052 170.631 99.8745C170.553 99.697 170.511 99.506 170.508 99.3123C170.504 99.1187 170.539 98.9262 170.61 98.7461C170.682 98.5659 170.788 98.4017 170.923 98.2627C171.058 98.1238 171.22 98.0128 171.398 97.9364C171.576 97.8599 171.768 97.8194 171.962 97.8172C172.156 97.815 172.348 97.8511 172.528 97.9235L184.629 102.712C184.992 102.854 185.283 103.134 185.439 103.491C185.595 103.847 185.603 104.251 185.461 104.613C185.357 104.895 185.17 105.138 184.924 105.31C184.678 105.482 184.385 105.574 184.085 105.575Z" fill="#407BFF"/>
<path opacity="0.5" d="M184.085 105.575C183.9 105.574 183.718 105.537 183.548 105.465L171.447 100.655C171.266 100.585 171.101 100.48 170.961 100.346C170.821 100.212 170.708 100.052 170.631 99.8745C170.553 99.697 170.511 99.506 170.508 99.3123C170.504 99.1187 170.539 98.9262 170.61 98.7461C170.682 98.5659 170.788 98.4017 170.923 98.2627C171.058 98.1238 171.22 98.0128 171.398 97.9364C171.576 97.8599 171.768 97.8194 171.962 97.8172C172.156 97.815 172.348 97.8511 172.528 97.9235L184.629 102.712C184.992 102.854 185.283 103.134 185.439 103.491C185.595 103.847 185.603 104.251 185.461 104.613C185.357 104.895 185.17 105.138 184.924 105.31C184.678 105.482 184.385 105.574 184.085 105.575Z" fill="white"/>
<path d="M158.787 118.28C158.603 118.278 158.421 118.243 158.25 118.177L136.277 109.468C136.096 109.398 135.93 109.293 135.79 109.159C135.65 109.025 135.538 108.864 135.46 108.687C135.382 108.509 135.341 108.318 135.337 108.125C135.334 107.931 135.369 107.738 135.44 107.558C135.511 107.378 135.617 107.214 135.753 107.075C135.888 106.936 136.049 106.825 136.227 106.749C136.406 106.672 136.597 106.632 136.791 106.629C136.985 106.627 137.178 106.663 137.358 106.736L159.331 115.416C159.65 115.542 159.914 115.775 160.08 116.074C160.245 116.374 160.3 116.722 160.235 117.058C160.171 117.394 159.991 117.697 159.726 117.915C159.462 118.133 159.129 118.251 158.787 118.25V118.28Z" fill="#407BFF"/>
<path opacity="0.3" d="M158.787 118.28C158.603 118.278 158.421 118.243 158.25 118.177L136.277 109.468C136.096 109.398 135.93 109.293 135.79 109.159C135.65 109.025 135.538 108.864 135.46 108.687C135.382 108.509 135.341 108.318 135.337 108.125C135.334 107.931 135.369 107.738 135.44 107.558C135.511 107.378 135.617 107.214 135.753 107.075C135.888 106.936 136.049 106.825 136.227 106.749C136.406 106.672 136.597 106.632 136.791 106.629C136.985 106.627 137.178 106.663 137.358 106.736L159.331 115.416C159.65 115.542 159.914 115.775 160.08 116.074C160.245 116.374 160.3 116.722 160.235 117.058C160.171 117.394 159.991 117.697 159.726 117.915C159.462 118.133 159.129 118.251 158.787 118.25V118.28Z" fill="black"/>
<path d="M238.337 52.0559C240.286 55.8525 242.074 59.6565 243.773 63.5486C245.472 67.4406 247.054 71.3841 248.437 75.5185L248.937 77.0827C249.025 77.3618 249.15 77.8171 249.224 78.1402C249.297 78.4633 249.364 78.8305 249.4 79.1389C249.569 80.3236 249.655 81.5186 249.658 82.7152C249.669 84.9221 249.566 87.1281 249.349 89.3244C248.938 93.576 248.27 97.7989 247.348 101.97L243.309 101.522C243.258 97.3876 243.221 93.2091 243.074 89.1335C243.008 87.1067 242.89 85.0725 242.684 83.1632C242.591 82.2665 242.443 81.3764 242.243 80.4975C242.206 80.2918 242.147 80.1376 242.103 79.9687C242.059 79.7998 242.015 79.7411 241.941 79.5208L241.382 78.1328C239.845 74.417 238.116 70.6718 236.35 66.9413L231.01 55.7497L238.337 52.0559Z" fill="#E4897B"/>
<path d="M243.368 100.229L241.485 103.747L247.502 105.421C247.502 105.421 248.65 102.594 247.282 100.362L243.368 100.229Z" fill="#E4897B"/>
<path d="M239.183 108.814L244.714 109.255L247.502 105.421L241.485 103.747L239.183 108.814Z" fill="#E4897B"/>
<path d="M213.009 26.6766C212.928 27.1098 212.627 27.4109 212.347 27.3522C212.068 27.2934 211.913 26.9042 212.001 26.4783C212.09 26.0524 212.384 25.744 212.663 25.8027C212.943 25.8615 213.105 26.2507 213.009 26.6766Z" fill="#263238"/>
<path d="M212.67 27.411C211.893 28.6124 210.955 29.7021 209.882 30.6495C210.133 30.9156 210.438 31.1242 210.777 31.2612C211.116 31.3981 211.481 31.46 211.846 31.4426L212.67 27.411Z" fill="#DE5753"/>
<path d="M215.054 24.6278C214.984 24.626 214.918 24.597 214.87 24.547C214.659 24.3057 214.393 24.1174 214.096 23.9975C213.798 23.8776 213.476 23.8293 213.156 23.8567C213.095 23.8573 213.036 23.8363 212.989 23.7974C212.942 23.7585 212.911 23.7043 212.9 23.6443C212.889 23.5844 212.9 23.5227 212.931 23.4701C212.962 23.4176 213.01 23.3776 213.068 23.3573C213.477 23.3056 213.892 23.3556 214.277 23.503C214.662 23.6503 215.005 23.8904 215.274 24.2018C215.322 24.2499 215.348 24.3145 215.348 24.3818C215.348 24.449 215.322 24.5136 215.274 24.5617C215.245 24.5886 215.21 24.6085 215.172 24.6199C215.134 24.6314 215.093 24.634 215.054 24.6278Z" fill="#263238"/>
<path d="M225.176 32.6763C224.404 36.6271 223.632 43.8532 226.398 46.4895C226.398 46.4895 225.316 50.4917 217.967 50.4917C209.876 50.4917 214.113 46.4895 214.113 46.4895C218.526 45.4394 218.401 42.1715 217.636 39.1092L225.176 32.6763Z" fill="#E4897B"/>
<path d="M227.508 48.979C228.089 47.0476 228.729 44.8372 227.405 44.1396C225.934 43.4052 217.938 42.5974 215.179 44.0294C212.421 45.4614 213.208 49.3902 213.208 49.3902L227.508 48.979Z" fill="#263238"/>
<path d="M244.472 232.105C244.243 232.135 244.011 232.12 243.789 232.059C243.566 231.999 243.358 231.894 243.177 231.752C243.113 231.664 243.079 231.557 243.079 231.448C243.079 231.338 243.113 231.232 243.177 231.143C243.219 231.067 243.277 231.001 243.347 230.949C243.417 230.897 243.497 230.86 243.582 230.842C244.376 230.666 245.862 231.679 245.928 231.723C245.947 231.739 245.962 231.759 245.971 231.782C245.98 231.806 245.983 231.831 245.98 231.855C245.975 231.879 245.964 231.901 245.947 231.918C245.93 231.935 245.908 231.946 245.884 231.951C245.42 232.051 244.947 232.102 244.472 232.105ZM243.795 231.077H243.641C243.591 231.087 243.544 231.108 243.503 231.139C243.462 231.169 243.429 231.208 243.405 231.253C243.287 231.459 243.361 231.547 243.405 231.576C243.633 231.885 244.737 231.885 245.546 231.752C245.019 231.405 244.42 231.179 243.795 231.091V231.077Z" fill="#407BFF"/>
<path d="M245.855 231.973H245.796C245.237 231.664 244.156 230.504 244.266 229.887C244.285 229.792 244.336 229.706 244.411 229.644C244.487 229.583 244.581 229.549 244.678 229.549C244.775 229.539 244.873 229.548 244.966 229.576C245.06 229.603 245.147 229.649 245.222 229.711C245.848 230.225 245.958 231.782 245.958 231.848C245.961 231.871 245.957 231.895 245.946 231.916C245.936 231.937 245.919 231.954 245.899 231.965C245.885 231.971 245.87 231.974 245.855 231.973ZM244.766 229.77H244.737C244.568 229.77 244.553 229.872 244.546 229.902C244.479 230.262 245.171 231.15 245.723 231.569C245.685 230.955 245.465 230.367 245.09 229.88C245.04 229.841 244.984 229.813 244.923 229.796C244.862 229.78 244.799 229.776 244.737 229.784L244.766 229.77Z" fill="#407BFF"/>
<path d="M212.024 232.105C211.332 232.105 210.663 232.009 210.435 231.701C210.377 231.619 210.346 231.522 210.346 231.422C210.346 231.322 210.377 231.225 210.435 231.143C210.479 231.067 210.539 231.002 210.61 230.95C210.681 230.898 210.761 230.861 210.847 230.842C211.737 230.599 213.634 231.672 213.715 231.716C213.737 231.73 213.754 231.75 213.764 231.773C213.775 231.796 213.778 231.822 213.774 231.848C213.77 231.874 213.758 231.897 213.739 231.916C213.721 231.934 213.697 231.946 213.671 231.951C213.128 232.053 212.576 232.104 212.024 232.105ZM211.163 231.062C211.082 231.05 211.001 231.05 210.92 231.062C210.868 231.072 210.819 231.093 210.776 231.124C210.733 231.154 210.697 231.193 210.67 231.238C210.574 231.4 210.611 231.473 210.67 231.517C210.913 231.855 212.281 231.877 213.296 231.738C212.635 231.381 211.91 231.157 211.163 231.077V231.062Z" fill="#407BFF"/>
<path d="M213.656 231.973H213.605C212.95 231.686 211.663 230.504 211.758 229.909C211.758 229.762 211.884 229.586 212.237 229.549C212.368 229.529 212.502 229.539 212.629 229.577C212.756 229.615 212.873 229.681 212.972 229.77C213.664 230.328 213.803 231.782 213.811 231.848C213.814 231.87 213.81 231.893 213.801 231.914C213.792 231.934 213.778 231.952 213.759 231.965C213.744 231.974 213.726 231.979 213.708 231.98C213.691 231.981 213.673 231.979 213.656 231.973ZM212.34 229.77H212.259C212.031 229.77 212.016 229.887 212.009 229.916C211.95 230.284 212.832 231.202 213.48 231.598C213.416 230.981 213.159 230.4 212.744 229.938C212.639 229.848 212.507 229.794 212.369 229.784L212.34 229.77Z" fill="#407BFF"/>
<path d="M219.6 231.84H214.193L213.656 219.349H219.063L219.6 231.84Z" fill="#E4897B"/>
<path d="M252.048 231.84H246.641L243.927 219.349H249.326L252.048 231.84Z" fill="#E4897B"/>
<path d="M246.259 231.216H252.328C252.436 231.217 252.541 231.255 252.625 231.323C252.71 231.391 252.768 231.485 252.792 231.591L253.858 236.386C253.883 236.503 253.88 236.624 253.851 236.739C253.823 236.855 253.768 236.963 253.692 237.055C253.615 237.146 253.519 237.22 253.41 237.269C253.302 237.319 253.183 237.343 253.064 237.341C250.945 237.304 249.915 237.179 247.245 237.179C245.605 237.179 242.221 237.355 239.948 237.355C237.675 237.355 237.388 235.152 238.315 234.91C242.478 233.999 244.045 232.744 245.376 231.554C245.618 231.336 245.933 231.215 246.259 231.216Z" fill="#263238"/>
<path d="M214.23 231.216H220.115C220.223 231.217 220.328 231.255 220.412 231.323C220.497 231.391 220.555 231.485 220.579 231.591L221.645 236.386C221.671 236.502 221.67 236.622 221.642 236.737C221.615 236.852 221.562 236.96 221.487 237.052C221.412 237.143 221.317 237.217 221.209 237.267C221.102 237.317 220.984 237.342 220.865 237.341C218.739 237.304 215.665 237.179 212.987 237.179C209.861 237.179 207.153 237.355 203.483 237.355C201.276 237.355 200.651 235.152 201.577 234.91C205.807 233.985 209.257 233.889 212.913 231.642C213.303 231.378 213.76 231.23 214.23 231.216Z" fill="#263238"/>
<path d="M211.633 55.9627C207.114 55.6131 202.618 55.0174 198.164 54.1782C195.957 53.7523 193.706 53.2749 191.469 52.6728C189.177 52.0871 186.926 51.3512 184.731 50.4697C184.165 50.2347 183.591 49.9777 183.025 49.7353C182.387 49.4217 181.772 49.0634 181.185 48.6632C180.126 47.9655 179.214 47.2385 178.309 46.5189C176.507 45.0501 174.837 43.5814 173.16 42.076C169.872 39.0358 166.753 35.8927 163.744 32.5881L166.451 29.5699L177.125 37.2293C178.883 38.4924 180.663 39.7334 182.414 40.901C183.282 41.4812 184.172 42.0246 184.989 42.4872C185.33 42.6816 185.684 42.8534 186.048 43.0013C186.482 43.1702 186.923 43.3391 187.387 43.5007C191.363 44.7228 195.428 45.6313 199.547 46.2178C203.747 46.8787 208.087 47.4221 212.28 47.8627L211.633 55.9627Z" fill="#E4897B"/>
<path d="M236.071 47.7085C241.14 48.8688 246.259 63.6513 246.259 63.6513L235.836 71.1197C235.836 71.1197 232.893 64.2315 230.054 58.2098C227.082 51.9017 230.892 46.5262 236.071 47.7085Z" fill="#407BFF"/>
<path opacity="0.4" d="M236.071 47.7085C241.14 48.8688 246.259 63.6513 246.259 63.6513L235.836 71.1197C235.836 71.1197 232.893 64.2315 230.054 58.2098C227.082 51.9017 230.892 46.5262 236.071 47.7085Z" fill="black"/>
<path d="M233.15 55.7864L231.083 60.4055C233.224 65.0172 235.181 69.5849 235.703 70.804C235.629 65.3477 234.592 58.5769 233.15 55.7864Z" fill="#407BFF"/>
<path opacity="0.6" d="M233.15 55.7864L231.083 60.4055C233.224 65.0172 235.181 69.5849 235.703 70.804C235.629 65.3477 234.592 58.5769 233.15 55.7864Z" fill="black"/>
<path d="M205.8 47.9874C205.8 47.9874 200.047 54.4718 205.476 94.619H234.379C234.585 90.2128 231.797 68.5787 236.071 47.7084C232.876 47.0942 229.645 46.6871 226.397 46.4894C222.306 46.2542 218.204 46.2542 214.112 46.4894C211.307 46.7716 208.527 47.2724 205.8 47.9874Z" fill="#407BFF"/>
<path opacity="0.4" d="M205.8 47.9874C205.8 47.9874 200.047 54.4718 205.476 94.619H234.379C234.585 90.2128 231.797 68.5787 236.071 47.7084C232.876 47.0942 229.645 46.6871 226.397 46.4894C222.306 46.2542 218.204 46.2542 214.112 46.4894C211.307 46.7716 208.527 47.2724 205.8 47.9874Z" fill="black"/>
<path d="M203.66 55.7864C203.468 57.3065 203.321 59.1057 203.226 61.228C206.08 60.3728 208.791 59.1008 211.273 57.4534L203.66 55.7864Z" fill="#407BFF"/>
<path opacity="0.6" d="M203.66 55.7864C203.468 57.3065 203.321 59.1057 203.226 61.228C206.08 60.3728 208.791 59.1008 211.273 57.4534L203.66 55.7864Z" fill="black"/>
<path d="M216.047 56.5942C212.178 60.0163 197.407 59.6711 197.407 59.6711L196.921 45.3953C201.909 46.1046 206.941 46.4677 211.979 46.4821C220.211 46.3132 220.27 52.8196 216.047 56.5942Z" fill="#407BFF"/>
<path opacity="0.4" d="M216.047 56.5942C212.178 60.0163 197.407 59.6711 197.407 59.6711L196.921 45.3953C201.909 46.1046 206.941 46.4677 211.979 46.4821C220.211 46.3132 220.27 52.8196 216.047 56.5942Z" fill="black"/>
<path d="M166.591 29.5993L162.913 25.274L158.948 29.6801C158.948 29.6801 161.39 33.7778 165.267 33.1316L166.591 29.5993Z" fill="#E4897B"/>
<path d="M157.646 20.2289L156.219 25.8761L158.919 29.6507L162.883 25.274L157.646 20.2289Z" fill="#E4897B"/>
<path d="M213.656 219.356L213.936 225.789H219.342L219.063 219.356H213.656Z" fill="#CE6F64"/>
<path d="M249.334 219.356H243.927L245.325 225.789H250.731L249.334 219.356Z" fill="#CE6F64"/>
<path d="M216.908 21.3452C212.06 19.1421 210.53 9.35316 224.477 11.7986C224.477 11.7986 222.373 14.1191 226.64 15.5878C230.907 17.0565 227.339 26.1258 216.908 21.3452Z" fill="#263238"/>
<path d="M227.442 28.6886C226.052 33.8291 225.507 36.9575 222.293 39.1091C217.482 42.3403 211.501 38.6318 211.31 33.1462C211.141 28.2187 213.443 20.5887 218.997 19.5459C220.223 19.306 221.49 19.3836 222.677 19.7713C223.865 20.159 224.933 20.844 225.78 21.7608C226.626 22.6776 227.224 23.7957 227.515 25.0085C227.806 26.2213 227.781 27.4883 227.442 28.6886Z" fill="#E4897B"/>
<path d="M224.286 14.3689C227.589 16.2047 232.062 17.3063 231.643 19.9206C231.091 23.115 234.342 21.1176 233.585 25.8689C233.092 28.9752 227.354 38.3896 223.286 37.9343C217.21 37.1999 217.982 27.9764 217.96 23.115C217.945 20.2437 217.813 10.7485 224.286 14.3689Z" fill="#263238"/>
<path d="M217.231 18.4885C215.76 18.8337 213.811 27.3008 219.512 28.0792C226.066 28.9678 217.231 18.4885 217.231 18.4885Z" fill="#263238"/>
<path d="M217.378 21.4921C215.576 21.6536 211.494 19.4873 211.994 16.2268C211.994 16.2047 214.576 20.0381 217.378 21.4921Z" fill="#263238"/>
<path d="M220.056 28.7548C219.503 29.9656 218.564 30.9596 217.386 31.582C215.834 32.3898 214.959 31.2149 215.312 29.658C215.628 28.2628 216.82 26.1552 218.416 25.9863C220.012 25.8174 220.696 27.2861 220.056 28.7548Z" fill="#E4897B"/>
<path d="M228.148 22.8138C229.247 22.3376 230.211 21.5966 230.953 20.6572C231.695 19.7178 232.192 18.6093 232.4 17.431C232.4 17.431 234.827 24.1651 228.148 22.8138Z" fill="#263238"/>
<path d="M234.283 22.7038C233.771 22.3606 233.182 22.1494 232.569 22.0892C231.955 22.029 231.336 22.1216 230.767 22.3587C230.767 22.3587 233.033 19.4286 234.283 22.7038Z" fill="#263238"/>
<path d="M215.731 94.619C215.731 94.619 221.866 135.846 225.228 151.289C228.906 168.179 242.809 224.548 242.809 224.548H252.703C252.703 224.548 243.545 169.567 241.441 152.794C239.161 134.619 234.379 94.5896 234.379 94.5896L215.731 94.619Z" fill="#407BFF"/>
<path opacity="0.5" d="M215.731 94.619C215.731 94.619 221.866 135.846 225.228 151.289C228.906 168.179 242.809 224.548 242.809 224.548H252.703C252.703 224.548 243.545 169.567 241.441 152.794C239.161 134.619 234.379 94.5896 234.379 94.5896L215.731 94.619Z" fill="white"/>
<path d="M241.228 220.906C241.184 220.906 242.25 224.703 242.25 224.703H253.387L253.181 221.317L241.228 220.906Z" fill="#407BFF"/>
<path opacity="0.1" d="M241.228 220.906C241.184 220.906 242.25 224.703 242.25 224.703H253.387L253.181 221.317L241.228 220.906Z" fill="black"/>
<path d="M219.607 109.306C226.698 110.694 225.948 137.094 225.095 150.672C223.05 141.074 220.056 122.605 218.011 109.497C218.506 109.254 219.069 109.186 219.607 109.306Z" fill="#407BFF"/>
<path opacity="0.4" d="M219.607 109.306C226.698 110.694 225.948 137.094 225.095 150.672C223.05 141.074 220.056 122.605 218.011 109.497C218.506 109.254 219.069 109.186 219.607 109.306Z" fill="white"/>
<path d="M205.476 94.619C205.476 94.619 204.741 134.95 205.322 151.407C205.932 168.517 211.942 224.548 211.942 224.548H221.093C221.093 224.548 221.432 169.516 221.829 152.714C222.278 134.392 224.492 94.619 224.492 94.619H205.476Z" fill="#407BFF"/>
<path opacity="0.5" d="M205.476 94.619C205.476 94.619 204.741 134.95 205.322 151.407C205.932 168.517 211.942 224.548 211.942 224.548H221.093C221.093 224.548 221.432 169.516 221.829 152.714C222.278 134.392 224.492 94.619 224.492 94.619H205.476Z" fill="white"/>
<path d="M213.84 217.983C213.818 217.983 213.796 217.975 213.78 217.96C213.764 217.945 213.754 217.924 213.752 217.902C212.133 202.393 208.331 164.867 207.867 151.407C207.374 137.667 207.823 106.839 207.97 97.7179C207.97 97.6946 207.979 97.6722 207.996 97.6556C208.013 97.6391 208.035 97.6298 208.058 97.6298C208.083 97.6298 208.106 97.6388 208.124 97.6551C208.141 97.6715 208.152 97.6939 208.154 97.7179C208.007 106.839 207.558 137.667 208.051 151.399C208.529 164.86 212.332 202.371 213.936 217.88C213.936 217.905 213.927 217.929 213.911 217.948C213.895 217.967 213.872 217.98 213.847 217.983H213.84Z" fill="#407BFF"/>
<path opacity="0.4" d="M213.84 217.983C213.818 217.983 213.796 217.975 213.78 217.96C213.764 217.945 213.754 217.924 213.752 217.902C212.133 202.393 208.331 164.867 207.867 151.407C207.374 137.667 207.823 106.839 207.97 97.7179C207.97 97.6946 207.979 97.6722 207.996 97.6556C208.013 97.6391 208.035 97.6298 208.058 97.6298C208.083 97.6298 208.106 97.6388 208.124 97.6551C208.141 97.6715 208.152 97.6939 208.154 97.7179C208.007 106.839 207.558 137.667 208.051 151.399C208.529 164.86 212.332 202.371 213.936 217.88C213.936 217.905 213.927 217.929 213.911 217.948C213.895 217.967 213.872 217.98 213.847 217.983H213.84Z" fill="white"/>
<path d="M210.162 220.906C210.125 220.906 210.684 224.703 210.684 224.703H221.814L222.115 221.317L210.162 220.906Z" fill="#407BFF"/>
<path opacity="0.1" d="M210.162 220.906C210.125 220.906 210.684 224.703 210.684 224.703H221.814L222.115 221.317L210.162 220.906Z" fill="black"/>
</svg>
