<svg width="332" height="332" viewBox="0 0 332 332" fill="none" xmlns="http://www.w3.org/2000/svg">
<path d="M308.096 317.93C308.096 318.03 244.472 318.103 166 318.103C87.5285 318.103 23.904 318.056 23.904 317.93C23.904 317.804 87.5152 317.757 166 317.757C244.485 317.757 308.096 317.837 308.096 317.93Z" fill="#263238"/>
<path d="M248.655 158.895H55.9552V165.064H248.655V158.895Z" fill="#E0E0E0"/>
<path d="M73.4384 318.248L67.1835 318.222V164.253H73.4384V318.248Z" fill="#E0E0E0"/>
<path d="M239.491 318.235H233.177L233.237 164.253H239.491V318.235Z" fill="#E0E0E0"/>
<path d="M130.629 102.163C130.629 102.163 165.024 138.198 164.42 146.2C163.815 154.201 156.113 155.927 153.603 155.615C151.093 155.303 132.176 134.248 132.176 134.248L130.629 102.163Z" fill="#28BAD2"/>
<g opacity="0.4">
<path opacity="0.4" d="M130.629 102.163C130.629 102.163 165.024 138.198 164.42 146.2C163.815 154.201 156.113 155.927 153.603 155.615C151.093 155.303 132.176 134.248 132.176 134.248L130.629 102.163Z" fill="black"/>
</g>
<path d="M148.955 280.195L158.284 311.396L168.762 305.705L162.806 277.14L148.955 280.195Z" fill="#FFBE9D"/>
<path d="M167.481 291.974L170.688 306.768C170.688 306.768 186.783 308.467 187.64 311.137L159.227 318.368L153.251 295.559L167.481 291.974Z" fill="#28BAD2"/>
<path d="M161.591 307.757C161.339 307.91 161.152 308.15 161.066 308.432C160.98 308.714 161.002 309.017 161.126 309.284C161.268 309.542 161.504 309.735 161.785 309.822C162.066 309.91 162.37 309.886 162.633 309.756C162.9 309.594 163.098 309.338 163.187 309.039C163.277 308.74 163.252 308.418 163.118 308.136C162.941 307.882 162.672 307.708 162.369 307.648C162.066 307.589 161.751 307.649 161.491 307.817" fill="#E0E0E0"/>
<g opacity="0.4">
<path opacity="0.4" d="M159.227 318.368L158.696 316.064L186.132 309.975C186.132 309.975 187.533 310.208 187.62 311.13L159.227 318.368Z" fill="black"/>
</g>
<path d="M171.113 306.482C171.146 306.622 170.449 306.861 169.898 307.485C169.346 308.109 169.114 308.78 168.975 308.753C168.835 308.727 168.835 307.877 169.532 307.14C170.23 306.403 171.113 306.35 171.113 306.482Z" fill="#263238"/>
<path d="M174.406 306.954C174.473 307.08 173.935 307.472 173.609 308.176C173.284 308.879 173.311 309.537 173.171 309.57C173.032 309.603 172.746 308.833 173.171 307.963C173.596 307.093 174.373 306.821 174.406 306.954Z" fill="#263238"/>
<path d="M177.009 310.088C176.889 310.148 176.524 309.504 176.684 308.654C176.843 307.804 177.421 307.326 177.507 307.439C177.593 307.552 177.295 308.05 177.175 308.767C177.055 309.484 177.148 310.042 177.009 310.088Z" fill="#263238"/>
<path d="M169.984 303.196C169.984 303.342 169.267 303.309 168.497 303.561C167.726 303.813 167.169 304.225 167.076 304.119C166.983 304.012 167.434 303.375 168.35 303.089C169.267 302.804 170.05 303.069 169.984 303.196Z" fill="#263238"/>
<path d="M169.32 300.228C168.886 300.476 168.392 300.6 167.892 300.586C167.355 300.626 166.816 300.599 166.285 300.506C165.972 300.458 165.663 300.382 165.362 300.281C165.179 300.236 165.004 300.162 164.845 300.062C164.728 299.986 164.64 299.874 164.594 299.743C164.549 299.612 164.548 299.469 164.592 299.338C164.636 299.223 164.707 299.121 164.798 299.039C164.889 298.957 164.998 298.898 165.117 298.866C165.299 298.817 165.486 298.795 165.675 298.8C165.995 298.799 166.315 298.825 166.631 298.88C167.167 298.971 167.685 299.148 168.165 299.404C168.981 299.849 169.34 300.307 169.3 300.347C169.26 300.387 168.815 300.055 168.018 299.723C167.552 299.532 167.063 299.401 166.564 299.331C166.272 299.294 165.976 299.281 165.681 299.291C165.363 299.291 165.104 299.351 165.064 299.504C165.024 299.657 165.064 299.583 165.137 299.657C165.254 299.731 165.381 299.787 165.515 299.823C165.796 299.917 166.082 299.994 166.372 300.055C166.87 300.16 167.377 300.22 167.886 300.234C168.363 300.201 168.842 300.199 169.32 300.228Z" fill="#263238"/>
<path d="M169.174 300.473C169.134 300.506 168.729 300.081 168.45 299.198C168.289 298.678 168.22 298.135 168.244 297.591C168.26 297.266 168.306 296.944 168.384 296.628C168.415 296.421 168.498 296.225 168.626 296.059C168.754 295.893 168.922 295.762 169.114 295.679C169.237 295.653 169.364 295.662 169.482 295.706C169.599 295.749 169.702 295.825 169.778 295.925C169.894 296.072 169.988 296.235 170.057 296.409C170.191 296.714 170.274 297.04 170.303 297.372C170.362 297.923 170.282 298.48 170.07 298.992C169.705 299.875 169.167 300.187 169.147 300.141C169.369 299.732 169.566 299.311 169.738 298.879C169.88 298.408 169.919 297.912 169.851 297.425C169.809 297.143 169.729 296.868 169.612 296.608C169.493 296.316 169.313 296.104 169.214 296.164C169.114 296.223 168.888 296.489 168.835 296.755C168.755 297.037 168.701 297.326 168.676 297.618C168.634 298.115 168.663 298.616 168.762 299.105C168.961 299.955 169.247 300.433 169.174 300.473Z" fill="#263238"/>
<path d="M123.637 191.232C123.982 192.613 148.338 291.994 148.338 291.994L170.455 285.314L149.573 184.651L123.637 191.232Z" fill="#263238"/>
<path d="M120.376 64.2417L116.512 93.9357C116.357 95.1322 116.447 96.3476 116.775 97.5084C117.104 98.6691 117.665 99.751 118.425 100.689C119.184 101.626 120.126 102.4 121.193 102.962C122.26 103.525 123.43 103.865 124.633 103.962C126.914 104.145 129.178 103.442 130.956 102.001C132.733 100.56 133.888 98.4896 134.181 96.2199C134.467 93.9822 134.712 92.123 134.759 91.8906C134.759 91.8906 142.415 92.1695 143.929 84.7593C144.666 81.1737 145.575 73.6771 146.326 66.8844C146.711 63.3642 145.757 59.8279 143.653 56.9795C141.549 54.131 138.449 52.1793 134.971 51.5128L134.254 51.3733C126.439 50.3375 121.2 56.3998 120.376 64.2417Z" fill="#FFBE9D"/>
<path d="M134.792 91.7911C131.346 91.1843 128.159 89.5664 125.635 87.1431C125.635 87.1431 126.897 92.9265 134.44 93.6835L134.792 91.7911Z" fill="#EB996E"/>
<path d="M144.201 71.0811C144.149 71.3571 143.992 71.6022 143.763 71.7645C143.533 71.9268 143.25 71.9937 142.972 71.9509C142.702 71.9115 142.457 71.7664 142.293 71.5474C142.129 71.3285 142.058 71.0534 142.096 70.7823C142.146 70.5055 142.303 70.2593 142.533 70.0967C142.762 69.9341 143.047 69.868 143.324 69.9125C143.595 69.9519 143.839 70.097 144.004 70.316C144.168 70.5349 144.239 70.81 144.201 71.0811Z" fill="#263238"/>
<path d="M144.261 69.7994C144.108 69.9122 143.417 69.1354 142.269 68.9494C141.12 68.7635 140.177 69.142 140.084 68.9494C139.991 68.7569 140.217 68.6506 140.628 68.4581C141.19 68.2134 141.814 68.1463 142.415 68.2655C143.009 68.3743 143.551 68.6725 143.962 69.1154C144.267 69.4806 144.34 69.7529 144.261 69.7994Z" fill="#263238"/>
<path d="M132.72 69.4476C132.668 69.7254 132.51 69.9721 132.28 70.1357C132.05 70.2992 131.765 70.3668 131.485 70.3241C131.348 70.3085 131.215 70.2657 131.095 70.1983C130.975 70.1308 130.869 70.0399 130.784 69.9311C130.7 69.8222 130.638 69.6975 130.602 69.5643C130.566 69.4311 130.557 69.2921 130.575 69.1554C130.627 68.8794 130.784 68.6343 131.014 68.472C131.243 68.3097 131.526 68.2428 131.804 68.2856C131.941 68.3003 132.074 68.3423 132.194 68.409C132.315 68.4757 132.421 68.5658 132.506 68.674C132.592 68.7822 132.654 68.9064 132.691 69.0392C132.728 69.1721 132.738 69.3109 132.72 69.4476Z" fill="#263238"/>
<path d="M132.846 68.0066C132.687 68.1195 131.996 67.3426 130.854 67.1567C129.712 66.9708 128.763 67.3492 128.663 67.1567C128.564 66.9641 128.796 66.8645 129.214 66.6653C129.774 66.4204 130.395 66.3532 130.994 66.4728C131.589 66.5847 132.133 66.8822 132.548 67.3227C132.853 67.6879 132.926 67.9601 132.846 68.0066Z" fill="#263238"/>
<path d="M135.283 77.542C135.92 77.4614 136.565 77.4614 137.202 77.542C137.494 77.542 137.787 77.542 137.866 77.3693C137.955 77.0771 137.955 76.7651 137.866 76.4729L137.428 74.0825C136.837 70.6961 136.472 67.9273 136.605 67.9073C136.737 67.8874 137.335 70.6165 137.933 74.0029C138.066 74.8395 138.198 75.6363 138.324 76.3999C138.441 76.7851 138.417 77.199 138.258 77.5685C138.196 77.6638 138.112 77.7438 138.015 77.8024C137.917 77.8611 137.807 77.8969 137.694 77.9072C137.526 77.925 137.357 77.925 137.189 77.9072C136.542 77.8601 135.902 77.7376 135.283 77.542Z" fill="#263238"/>
<path d="M133.63 65.6826C133.457 65.9748 132.348 65.6096 130.974 65.51C129.599 65.4104 128.451 65.5698 128.318 65.2577C128.258 65.1116 128.504 64.8526 128.982 64.6402C129.634 64.3743 130.34 64.2695 131.04 64.3347C131.745 64.3811 132.428 64.5951 133.032 64.9589C133.504 65.2577 133.71 65.5432 133.63 65.6826Z" fill="#263238"/>
<path d="M144.792 65.6499C144.539 65.869 143.802 65.444 142.86 65.2514C141.917 65.0589 141.08 65.0921 140.947 64.7866C140.894 64.6406 141.067 64.4015 141.465 64.2222C141.989 64.0163 142.562 63.9695 143.112 64.0876C143.663 64.2057 144.166 64.4835 144.559 64.8862C144.845 65.2515 144.905 65.537 144.792 65.6499Z" fill="#263238"/>
<path d="M119.932 69.8596C119.812 69.7799 115.118 67.3696 114.301 72.4757C113.484 77.5819 118.783 77.3495 118.816 77.2034C118.849 77.0573 119.932 69.8596 119.932 69.8596Z" fill="#FFBE9D"/>
<path d="M117.561 75.0322C117.561 75.0322 117.468 75.0787 117.302 75.1252C117.191 75.1548 117.075 75.1618 116.961 75.1458C116.847 75.1298 116.737 75.0912 116.638 75.0322C116.127 74.7533 115.808 73.8237 115.934 72.8941C115.99 72.4538 116.145 72.0317 116.386 71.6591C116.458 71.5074 116.567 71.3759 116.703 71.2763C116.838 71.1767 116.996 71.112 117.163 71.0881C117.269 71.0775 117.375 71.1042 117.464 71.1635C117.552 71.2229 117.617 71.3113 117.647 71.4134C117.694 71.5661 117.647 71.6657 117.647 71.679C117.647 71.6923 117.767 71.606 117.76 71.3935C117.751 71.2603 117.697 71.134 117.608 71.0349C117.481 70.9109 117.313 70.8377 117.136 70.8291C116.918 70.8401 116.706 70.9069 116.522 71.0232C116.337 71.1395 116.185 71.3013 116.08 71.4931C115.794 71.9009 115.611 72.3729 115.549 72.8676C115.416 73.9034 115.788 74.9525 116.492 75.2845C116.623 75.3452 116.766 75.3766 116.91 75.3766C117.055 75.3766 117.198 75.3452 117.329 75.2845C117.528 75.1451 117.581 75.0322 117.561 75.0322Z" fill="#EB996E"/>
<path d="M117.136 69.1422C117.626 69.2033 118.089 69.3962 118.477 69.7003C118.866 70.0043 119.164 70.4081 119.341 70.8686C119.533 71.6521 119.447 72.4888 119.633 73.2789C119.819 74.0691 120.443 74.8659 121.253 74.8327C121.532 74.7997 121.797 74.6939 122.022 74.5261C122.247 74.3583 122.423 74.1343 122.534 73.8765C122.748 73.3581 122.861 72.8037 122.866 72.2431C123.019 69.8128 122.973 67.3627 123.338 64.9391C123.604 62.4949 124.588 60.1844 126.167 58.2991C127.813 56.5063 130.403 55.4571 132.747 56.1079C134.301 56.5328 135.589 57.6351 137.116 58.1596C138.026 58.4622 138.992 58.5537 139.943 58.4271C140.893 58.3006 141.802 57.9593 142.601 57.4292C142.689 57.372 142.782 57.3231 142.879 57.2831C143.157 57.1559 143.385 56.9404 143.528 56.6703C143.671 56.4002 143.721 56.0904 143.67 55.7891C143.644 55.5942 143.573 55.4079 143.464 55.2447C140.907 51.7919 135.456 49.9327 131.153 50.1783C126.85 50.424 122.435 52.582 119.925 56.0946C117.415 59.6072 116.91 65.0586 117.136 69.1422Z" fill="#263238"/>
<path d="M137.581 81.0081C136.472 80.8463 135.409 80.455 134.46 79.8594C135.023 79.8823 135.575 80.0225 136.08 80.2711C136.626 80.4108 137.137 80.6617 137.581 81.0081Z" fill="#263238"/>
<path d="M143.132 86.7314C143.034 87.2352 142.817 87.7085 142.501 88.1125C141.78 89.1197 140.828 89.9394 139.725 90.5029C138.633 91.0569 137.469 91.4547 136.266 91.6848C135.778 91.8209 135.272 91.8858 134.765 91.8774C135.233 91.6936 135.715 91.5493 136.206 91.4458C137.367 91.1496 138.493 90.7312 139.566 90.1975C140.624 89.6535 141.556 88.8934 142.302 87.9664C142.866 87.2427 143.079 86.7049 143.132 86.7314Z" fill="#EB996E"/>
<path d="M139.533 90.5229C137.733 91.4194 136.412 93.843 135.27 95.4498C134.882 95.9097 134.605 96.4527 134.46 97.0368C134.406 97.6721 134.518 98.3104 134.785 98.8894C135.111 99.7725 135.449 100.642 135.848 101.506C135.954 101.758 136.093 102.03 136.359 102.09C136.625 102.15 136.97 101.838 137.109 101.525C137.363 100.717 137.504 99.8763 137.528 99.0288C137.55 98.6058 137.675 98.1947 137.893 97.8312C138.11 97.4678 138.414 97.1632 138.776 96.9438" fill="#EB996E"/>
<path d="M142.375 97.1494L140.628 95.8214C140.523 95.7341 140.388 95.6915 140.251 95.7026C140.115 95.7138 139.988 95.7779 139.898 95.8812L138.968 96.9569L139.46 99.6726C140.031 103.159 137.468 102.614 137.468 102.614L137.262 101.95L136.127 97.7006C135.901 95.6687 136.06 95.4297 137.05 93.9622L139.214 90.868C139.432 90.5427 139.752 90.3002 140.125 90.1797C140.497 90.0592 140.899 90.0678 141.266 90.204C144.373 91.3527 151.073 93.4244 151.83 96.0605C153.205 100.855 154.314 113.092 154.333 113.324L144.845 114.208L144.891 106.047C144.057 105.527 143.428 104.734 143.112 103.803C142.713 102.362 142.375 97.1627 142.375 97.1627" fill="#FFBE9D"/>
<path d="M148.928 98.75C148.928 98.75 148.829 98.916 148.57 99.1351C148.2 99.4572 147.758 99.6851 147.282 99.7991C146.943 99.8753 146.591 99.8753 146.253 99.7991C145.851 99.6977 145.495 99.4638 145.243 99.1351C144.686 98.4711 144.579 97.5282 144.114 96.8443C143.829 96.5313 143.5 96.2608 143.138 96.0409C142.797 95.8213 142.442 95.6239 142.076 95.4499C141.783 95.2742 141.448 95.1802 141.107 95.1777C140.818 95.2699 140.555 95.4266 140.336 95.6358C139.48 96.426 139.008 97.0236 138.962 96.9638C138.915 96.9041 139.048 96.7978 139.247 96.5256C139.528 96.1424 139.836 95.7806 140.17 95.4433C140.413 95.1912 140.714 95.002 141.047 94.8921C141.152 94.8719 141.26 94.8719 141.365 94.8921C141.465 94.9094 141.562 94.9339 141.658 94.9652C141.847 95.0203 142.031 95.0914 142.209 95.1777C142.594 95.3445 142.965 95.5421 143.318 95.7686C143.721 96.0041 144.084 96.3022 144.393 96.6517C144.951 97.4618 145.018 98.3848 145.489 98.9492C145.7 99.1961 145.973 99.3818 146.28 99.4869C146.588 99.592 146.917 99.6127 147.235 99.5468C147.685 99.4624 148.112 99.2861 148.49 99.0289C148.736 98.8429 148.909 98.7301 148.928 98.75Z" fill="#EB996E"/>
<path d="M147.879 101.632C146.065 101.525 144.298 101.015 142.707 100.138C143.593 100.299 144.463 100.534 145.31 100.842C146.186 101.034 147.046 101.298 147.879 101.632Z" fill="#EB996E"/>
<path d="M144.513 97.1896C142.03 97.1896 141.737 97.0767 138.929 97.2294C138.509 97.2319 138.093 97.2991 137.694 97.4286C137.494 97.4948 137.312 97.6076 137.165 97.7577C137.017 97.9078 136.907 98.0908 136.844 98.2918C136.651 99.0621 137.428 99.7593 138.172 99.9385C138.915 100.118 139.765 99.9784 140.536 100.158C141.759 100.374 142.863 101.022 143.65 101.984C145.27 104.274 146.97 103.172 148.072 103.976L150.967 102.143L149.944 97.8669L144.486 97.2029" fill="#FFBE9D"/>
<path d="M148.351 103.996C148.099 103.879 147.834 103.797 147.561 103.75C146.778 103.74 146.002 103.603 145.263 103.345C144.77 103.096 144.339 102.74 144.002 102.302C143.663 101.811 143.227 101.396 142.72 101.081C142.154 100.747 141.54 100.501 140.901 100.35C140.191 100.24 139.474 100.178 138.756 100.164C138.358 100.141 137.975 100.003 137.654 99.7675C137.332 99.5319 137.086 99.2086 136.943 98.8364C136.89 98.6421 136.887 98.4374 136.936 98.2419C136.985 98.0465 137.083 97.867 137.222 97.7208C137.47 97.4539 137.791 97.2666 138.145 97.183C138.76 97.0834 139.382 97.0323 140.004 97.0303C140.575 97.0303 141.113 97.0303 141.605 97.0303C142.587 97.0303 143.371 97.0967 143.915 97.1232C144.2 97.1179 144.485 97.1402 144.765 97.1896C144.486 97.2475 144.2 97.2699 143.915 97.256C143.371 97.256 142.587 97.256 141.605 97.256C141.12 97.256 140.589 97.256 140.018 97.3158C139.416 97.3248 138.817 97.3826 138.225 97.4884C137.66 97.608 137.083 98.1524 137.269 98.7367C137.398 99.0407 137.61 99.3019 137.882 99.49C138.153 99.678 138.473 99.7852 138.802 99.7992C139.532 99.8134 140.26 99.88 140.98 99.9984C141.656 100.162 142.301 100.431 142.893 100.795C143.425 101.139 143.877 101.591 144.221 102.123C144.525 102.538 144.918 102.88 145.369 103.126C146.08 103.391 146.824 103.556 147.581 103.617C147.795 103.656 148 103.735 148.185 103.85C148.304 103.936 148.357 103.982 148.351 103.996Z" fill="#EB996E"/>
<path d="M144.234 95.2508C144.234 95.2109 144.413 95.1777 144.672 95.2906C144.84 95.3717 144.985 95.4927 145.095 95.643C145.205 95.7934 145.276 95.9684 145.302 96.1528C145.328 96.3371 145.309 96.5251 145.245 96.7001C145.182 96.8751 145.076 97.0318 144.938 97.1564C144.725 97.3423 144.546 97.3556 144.526 97.3158C144.506 97.2759 144.632 97.183 144.759 96.9971C144.919 96.7642 144.992 96.4819 144.964 96.2003C144.909 95.936 144.76 95.7005 144.546 95.5363C144.373 95.357 144.227 95.3039 144.234 95.2508Z" fill="#EB996E"/>
<path d="M149.792 206.557L137.68 236.789L149.433 238.854L162.54 212.779L149.792 206.557Z" fill="#FFBE9D"/>
<path d="M156.963 227.3L150.323 240.866C150.323 240.866 161.863 252.2 160.874 254.81L134.115 242.811L143.643 221.258L156.963 227.3Z" fill="#28BAD2"/>
<path d="M142.541 235.999C142.247 235.956 141.947 236.025 141.701 236.192C141.455 236.359 141.281 236.612 141.213 236.902C141.159 237.194 141.222 237.496 141.386 237.744C141.551 237.992 141.805 238.166 142.096 238.23C142.406 238.269 142.72 238.191 142.976 238.012C143.233 237.833 143.414 237.565 143.484 237.26C143.504 236.951 143.403 236.647 143.202 236.411C143.001 236.175 142.716 236.027 142.408 235.999" fill="#E0E0E0"/>
<g opacity="0.4">
<path opacity="0.4" d="M134.088 242.831L135.051 240.66L160.402 252.984C160.402 252.984 161.359 254.033 160.847 254.817L134.088 242.831Z" fill="black"/>
</g>
<path d="M150.788 240.919C150.728 241.052 150.044 240.819 149.214 240.952C148.384 241.085 147.793 241.477 147.7 241.37C147.607 241.264 148.132 240.6 149.141 240.454C150.15 240.308 150.867 240.813 150.788 240.919Z" fill="#263238"/>
<path d="M153.072 243.343C153.072 243.482 152.408 243.449 151.691 243.801C150.974 244.153 150.608 244.684 150.482 244.618C150.356 244.551 150.602 243.781 151.472 243.356C152.341 242.931 153.125 243.217 153.072 243.343Z" fill="#263238"/>
<path d="M153.165 247.413C153.032 247.413 153.165 246.656 153.829 246.085C154.493 245.514 155.23 245.507 155.236 245.64C155.243 245.773 154.692 245.985 154.161 246.457C153.63 246.928 153.298 247.459 153.165 247.413Z" fill="#263238"/>
<path d="M151.963 237.666C151.857 237.759 151.339 237.307 150.575 237.002C149.812 236.696 149.134 236.696 149.121 236.55C149.108 236.404 149.865 236.191 150.754 236.55C151.644 236.909 152.056 237.586 151.963 237.666Z" fill="#263238"/>
<path d="M153.264 234.903C152.775 234.821 152.317 234.61 151.936 234.292C151.491 233.992 151.085 233.637 150.728 233.236C150.514 232.999 150.319 232.746 150.144 232.48C150.027 232.33 149.937 232.161 149.878 231.982C149.833 231.851 149.833 231.709 149.879 231.579C149.925 231.449 150.013 231.338 150.13 231.264C150.236 231.202 150.354 231.166 150.477 231.157C150.599 231.149 150.721 231.17 150.834 231.218C151.004 231.296 151.163 231.396 151.306 231.517C151.561 231.717 151.799 231.939 152.016 232.181C152.376 232.588 152.669 233.05 152.886 233.549C153.135 233.985 153.24 234.49 153.185 234.989C153.105 234.989 152.986 234.458 152.567 233.701C152.326 233.26 152.027 232.854 151.677 232.493C151.47 232.283 151.248 232.088 151.013 231.908C150.761 231.709 150.522 231.596 150.396 231.696C150.27 231.796 150.336 231.749 150.356 231.855C150.402 231.986 150.467 232.109 150.549 232.221C150.711 232.471 150.886 232.712 151.073 232.944C151.399 233.334 151.759 233.694 152.149 234.02C152.806 234.571 153.298 234.83 153.264 234.903Z" fill="#263238"/>
<path d="M153.005 235.01C152.923 234.515 153.002 234.008 153.231 233.562C153.43 233.054 153.715 232.585 154.074 232.174C154.286 231.93 154.522 231.707 154.778 231.51C154.931 231.366 155.118 231.264 155.321 231.213C155.525 231.162 155.738 231.164 155.94 231.218C156.056 231.276 156.154 231.365 156.223 231.475C156.292 231.585 156.33 231.712 156.332 231.842C156.33 232.031 156.301 232.219 156.246 232.4C156.159 232.719 156.025 233.024 155.847 233.303C155.544 233.768 155.134 234.155 154.652 234.432C154.445 234.578 154.211 234.682 153.964 234.736C153.716 234.791 153.461 234.796 153.211 234.751C153.64 234.568 154.059 234.361 154.466 234.133C154.868 233.849 155.206 233.482 155.456 233.057C155.596 232.812 155.703 232.548 155.774 232.274C155.861 231.975 155.854 231.696 155.734 231.676C155.614 231.666 155.493 231.68 155.379 231.719C155.264 231.758 155.159 231.82 155.07 231.902C154.833 232.075 154.611 232.268 154.406 232.48C154.065 232.845 153.777 233.256 153.55 233.701C153.165 234.472 153.085 235.056 153.005 235.01Z" fill="#263238"/>
<path d="M126.611 170.303L163.902 152.056C167.098 150.49 170.713 149.998 174.212 150.652C177.71 151.307 180.903 153.073 183.317 155.688C185.571 158.132 187.036 161.199 187.521 164.489C188.005 167.778 187.487 171.137 186.033 174.127L161.292 225.003L140.595 218.456L158.795 179.678L138.318 195.282C132.788 199.492 126.044 201.798 119.095 201.856L113.73 201.902C109.312 201.719 105.017 200.4 101.257 198.074C97.4969 195.748 94.3994 192.493 92.2627 188.622L126.611 170.303Z" fill="#263238"/>
<path d="M161.292 224.99C161.292 224.99 161.159 224.99 160.907 224.89L159.811 224.565L155.635 223.29L140.549 218.595L140.403 218.549L140.469 218.403C144.121 210.594 148.676 200.867 153.596 190.342C155.343 186.637 157.036 183.038 158.643 179.612L158.895 179.818C149.506 186.816 141.1 192.626 134.898 196.451C132.49 197.982 129.983 199.353 127.395 200.555C126.695 200.871 125.965 201.118 125.217 201.292C125.023 201.337 124.825 201.363 124.626 201.371H124.427C124.427 201.371 124.699 201.371 125.204 201.225C125.94 201.027 126.658 200.765 127.348 200.442C129.911 199.201 132.394 197.804 134.785 196.259C140.947 192.387 149.32 186.544 158.689 179.546L159.234 179.141L158.948 179.751C157.341 183.171 155.628 186.777 153.915 190.482C148.968 200.999 144.393 210.714 140.721 218.516L140.635 218.323L155.681 223.131L159.838 224.459L160.92 224.824L161.292 224.99Z" fill="#455A64"/>
<path d="M165.807 171.259C164.221 172.3 162.777 173.543 161.511 174.957C160.337 176.449 159.366 178.09 158.623 179.838C158.703 179.278 158.869 178.734 159.114 178.224C160.188 175.689 161.993 173.532 164.3 172.029C164.759 171.695 165.268 171.435 165.807 171.259Z" fill="#455A64"/>
<path d="M86.7515 243.25H140.389C140.747 243.248 141.092 243.385 141.35 243.633C141.607 243.881 141.758 244.22 141.771 244.578C141.775 244.762 141.743 244.945 141.675 245.117C141.608 245.289 141.507 245.446 141.378 245.578C141.25 245.71 141.096 245.816 140.926 245.888C140.756 245.96 140.574 245.998 140.389 245.998H86.7515C86.3864 245.997 86.0368 245.85 85.7792 245.592C85.5217 245.333 85.3771 244.982 85.3771 244.617C85.3788 244.254 85.5244 243.906 85.782 243.65C86.0396 243.393 86.3882 243.25 86.7515 243.25Z" fill="#E0E0E0"/>
<path d="M133.338 209.1H91.3796C91.3796 208.033 91.5899 206.976 91.9983 205.99C92.4067 205.004 93.0054 204.108 93.7601 203.353C94.5148 202.598 95.4107 202 96.3968 201.591C97.3828 201.183 98.4397 200.973 99.507 200.973H125.204C126.272 200.972 127.329 201.181 128.316 201.589C129.303 201.997 130.2 202.596 130.955 203.351C131.71 204.106 132.31 205.002 132.719 205.988C133.127 206.975 133.338 208.032 133.338 209.1Z" fill="#455A64"/>
<path d="M134.652 209.1H90.3903V211.564H134.652V209.1Z" fill="#E0E0E0"/>
<path d="M94.3277 211.57L83.5045 318.249H86.0543L99.2612 211.57H94.3277Z" fill="#E0E0E0"/>
<path d="M130.383 211.57L141.2 318.195L138.656 318.209L125.456 211.61L130.383 211.57Z" fill="#E0E0E0"/>
<path d="M115.31 210.628L113.484 318.242H110.875L109.733 210.335L115.31 210.628Z" fill="#E0E0E0"/>
<path d="M114.46 93.6703L117.09 85.689L134.44 93.7167L133.643 102.163L124.998 104.62L116.512 99.4205L114.46 93.6703Z" fill="#28BAD2"/>
<path d="M92.2959 188.642C91.5252 188.096 90.9005 187.369 90.4767 186.525C90.053 185.681 89.8431 184.746 89.8657 183.802C89.8657 180.601 92.7209 180.336 92.8138 178.563C93.7633 160.27 95.835 122.375 97.2029 110.416C98.9226 95.3436 116.585 92.1631 116.585 92.1631L131.16 95.742V96.8443C136.206 103.332 138.391 113.112 138.397 121.333L137.733 164.878L92.2959 188.642Z" fill="#28BAD2"/>
<path d="M108.65 164.253C108.492 164.518 108.31 164.767 108.106 164.997C107.747 165.462 107.196 166.119 106.505 166.916C105.124 168.516 103.139 170.661 100.802 172.892C98.4644 175.123 96.2334 177.009 94.5734 178.31C93.7367 178.974 93.0595 179.479 92.5814 179.824C92.3434 180.02 92.0852 180.189 91.8112 180.329C92.0115 180.104 92.2339 179.899 92.4752 179.718L94.3941 178.124C96.0143 176.796 98.2188 174.864 100.543 172.64C102.867 170.415 104.879 168.31 106.306 166.757L107.986 164.904C108.184 164.665 108.407 164.446 108.65 164.253Z" fill="#263238"/>
<g opacity="0.2">
<path opacity="0.2" d="M94.288 178.503C94.3411 175.747 96.4061 173.476 98.4512 171.624C100.841 169.452 103.384 167.455 106.061 165.648C106.193 166.976 105.277 168.191 104.387 169.214C101.396 172.629 98.0882 175.753 94.5071 178.543" fill="black"/>
</g>
<path d="M119.805 92.3488C119.87 91.5541 120.051 90.7732 120.343 90.0314C120.523 89.2565 120.813 88.5117 121.206 87.8203C121.142 88.615 120.961 89.3959 120.669 90.1377C120.486 90.9115 120.195 91.6558 119.805 92.3488Z" fill="#263238"/>
<path d="M126.572 90.085C126.571 90.8663 126.452 91.6431 126.22 92.389C126.107 93.1588 125.884 93.9081 125.556 94.6134C125.557 93.8321 125.675 93.0554 125.908 92.3094C126.02 91.5396 126.244 90.7903 126.572 90.085Z" fill="#263238"/>
<path d="M131.611 92.6016C131.633 93.3033 131.573 94.0052 131.432 94.6931C131.41 95.3975 131.307 96.0969 131.127 96.7781C130.976 96.0778 130.976 95.3536 131.127 94.6533C131.145 93.9433 131.31 93.2447 131.611 92.6016Z" fill="#263238"/>
<path d="M114.095 135.217C113.855 135.265 113.609 135.283 113.365 135.27C112.886 135.27 112.203 135.27 111.373 135.27C109.679 135.27 107.342 135.27 104.733 135.197C102.123 135.124 99.8057 135.084 98.0926 135.018C97.2426 135.018 96.5587 134.958 96.1006 134.925C95.8524 134.931 95.6046 134.904 95.3635 134.845C95.6067 134.802 95.8537 134.784 96.1006 134.792C96.5786 134.792 97.2626 134.792 98.0926 134.792C99.7858 134.792 102.123 134.792 104.733 134.865C107.342 134.938 109.659 134.971 111.373 135.038L113.365 135.131C113.611 135.126 113.857 135.155 114.095 135.217Z" fill="#FAFAFA"/>
<path d="M110.397 129.646C110.397 129.746 107.077 129.746 102.96 129.646C98.843 129.546 95.5363 129.414 95.5363 129.314C95.5363 129.214 98.8563 129.214 102.966 129.314C107.077 129.414 110.397 129.553 110.397 129.646Z" fill="#FAFAFA"/>
<g opacity="0.2">
<path opacity="0.2" d="M104.082 121.06C109.394 132.627 115.888 143.012 123.438 153.251C125.383 155.907 127.468 158.563 130.277 160.216C133.085 161.869 134.925 161.431 137.76 159.738C134.619 158.735 133.776 158.41 131.12 156.491C128.53 154.468 126.27 152.056 124.42 149.34C117.78 140.203 111.3 130.794 104.646 121.658" fill="black"/>
</g>
<path d="M159.307 137.508C159.379 136.74 159.588 135.991 159.924 135.297C160.095 134.949 160.354 134.653 160.676 134.439C160.998 134.224 161.371 134.099 161.757 134.075C161.947 134.073 162.136 134.112 162.31 134.19C162.484 134.268 162.64 134.382 162.766 134.525C162.891 134.668 162.985 134.836 163.04 135.019C163.095 135.201 163.111 135.393 163.085 135.582C162.919 136.005 162.668 136.389 162.348 136.711C161.505 137.866 161.584 139.427 161.591 140.854C161.598 142.282 161.418 143.915 160.263 144.772" fill="#FFBE9D"/>
<path d="M106.625 104.175C105.294 105.105 104.164 106.294 103.304 107.671C102.444 109.049 101.871 110.585 101.619 112.189C101.367 113.794 101.442 115.432 101.839 117.007C102.236 118.581 102.947 120.059 103.929 121.352L128.192 153.304C130.748 156.63 134.376 158.969 138.46 159.926C142.544 160.884 146.834 160.4 150.602 158.556C153.806 156.985 156.478 154.507 158.284 151.429C160.091 148.351 160.952 144.81 160.761 141.246L155.416 107.647L142.361 108.457L143.596 135.821L123.398 107.116C121.559 104.507 118.762 102.733 115.619 102.181C112.475 101.63 109.241 102.347 106.625 104.175Z" fill="#28BAD2"/>
<path d="M158.922 150.775C155.708 150.024 155.163 149.447 151.956 148.723C151 148.497 149.772 147.88 150.197 146.864C150.315 146.606 150.51 146.391 150.754 146.249C150.999 146.106 151.282 146.042 151.565 146.067C152.813 146.173 154.825 146.917 156.033 147.03C156.332 147.03 156.325 146.757 156.193 146.552C154.239 145.962 152.24 145.531 150.217 145.263C149.932 145.225 149.664 145.105 149.447 144.916C149.229 144.728 149.072 144.481 148.994 144.204C148.915 143.927 148.92 143.634 149.006 143.36C149.092 143.085 149.257 142.842 149.48 142.661C149.746 142.524 150.037 142.44 150.336 142.415C151.624 142.601 151.624 142.601 152.992 142.84C156.837 143.504 156.312 142.747 156.312 142.747C156.312 142.455 151.936 142.03 149.672 141.757C149.182 141.762 148.708 141.582 148.344 141.253C148.182 141.009 148.109 140.717 148.137 140.426C148.164 140.134 148.292 139.861 148.497 139.653C148.69 139.427 148.927 139.242 149.193 139.109C149.458 138.976 149.748 138.896 150.044 138.876C152.547 138.829 160.768 139.746 160.768 139.746C160.768 139.746 161.843 141.206 161.511 144.201C161.173 147.481 158.922 150.775 158.922 150.775Z" fill="#FFBE9D"/>
<path d="M147.295 159.738C147.295 159.738 147.176 159.738 146.95 159.791L145.927 159.898C145.024 159.977 143.696 160.103 141.943 160.123C139.847 160.177 137.757 159.888 135.755 159.267C133.138 158.287 130.795 156.693 128.922 154.619C126.645 152.163 124.506 149.582 122.515 146.89C120.33 144.015 118.046 140.914 115.669 137.627C113.292 134.34 110.835 130.867 108.305 127.249L104.474 121.718C104.148 121.246 103.81 120.775 103.504 120.297L103.039 119.56C102.883 119.312 102.743 119.055 102.621 118.789C102.092 117.733 101.724 116.602 101.532 115.436C101.328 114.271 101.305 113.082 101.466 111.91C101.54 111.331 101.651 110.756 101.798 110.191C101.961 109.634 102.158 109.089 102.389 108.557C102.62 108.031 102.886 107.521 103.186 107.03C103.492 106.546 103.831 106.085 104.201 105.649C104.924 104.781 105.767 104.021 106.705 103.391C107.628 102.775 108.628 102.282 109.679 101.924C110.716 101.591 111.792 101.397 112.88 101.346C114.995 101.25 117.098 101.708 118.982 102.674C120.764 103.604 122.293 104.953 123.438 106.605C124.535 108.181 125.596 109.712 126.618 111.2L132.328 119.447L140.575 131.399L142.806 134.659C143.052 135.024 143.238 135.323 143.377 135.509L143.563 135.808C143.485 135.719 143.412 135.626 143.344 135.529L142.747 134.699L140.502 131.472L132.136 119.593L126.392 111.366L123.192 106.784C122.072 105.179 120.579 103.869 118.843 102.966C116.033 101.556 112.778 101.317 109.792 102.302C108.772 102.653 107.801 103.135 106.904 103.736C105.989 104.344 105.168 105.082 104.467 105.928C104.11 106.348 103.781 106.791 103.484 107.256C103.192 107.732 102.935 108.229 102.714 108.743C102.485 109.258 102.292 109.788 102.136 110.33C101.991 110.88 101.882 111.439 101.811 112.003C101.531 114.279 101.923 116.588 102.94 118.643C103.478 119.648 104.086 120.613 104.759 121.532L108.59 127.069C111.114 130.688 113.57 134.161 115.934 137.448C118.298 140.735 120.582 143.849 122.747 146.744C124.726 149.435 126.85 152.018 129.108 154.479C130.945 156.539 133.246 158.133 135.821 159.127C137.802 159.756 139.872 160.061 141.95 160.03C143.663 160.03 144.991 159.924 145.894 159.864L146.917 159.798C147.176 159.738 147.295 159.738 147.295 159.738Z" fill="#263238"/>
<path d="M144.984 145.847C145.819 142.262 145.218 138.492 143.311 135.343C143.697 135.729 144.013 136.178 144.247 136.671C144.883 137.825 145.312 139.081 145.516 140.383C145.723 141.682 145.705 143.007 145.462 144.3C145.392 144.839 145.23 145.362 144.984 145.847Z" fill="#263238"/>
<path d="M145.31 112.024C144.999 111.477 144.839 110.859 144.845 110.231C144.736 109.612 144.791 108.976 145.004 108.385C145.134 108.982 145.196 109.593 145.19 110.204C145.298 110.804 145.339 111.414 145.31 112.024Z" fill="#263238"/>
<path d="M148.909 111.691C148.35 110.591 148.186 109.332 148.444 108.125C148.601 108.706 148.69 109.304 148.709 109.905C148.843 110.491 148.909 111.09 148.909 111.691Z" fill="#263238"/>
<path d="M152.474 110.888C152.275 110.428 152.189 109.927 152.222 109.427C152.139 108.933 152.171 108.426 152.315 107.946C152.51 108.407 152.596 108.907 152.567 109.407C152.646 109.901 152.614 110.407 152.474 110.888Z" fill="#263238"/>
<path d="M130.489 118.318C130.542 118.391 126.426 121.339 121.293 124.898C116.16 128.457 111.957 131.279 111.897 131.2C111.837 131.12 115.961 128.172 121.094 124.613C126.226 121.054 130.436 118.238 130.489 118.318Z" fill="#FAFAFA"/>
<path d="M127.275 113.498C127.054 113.707 126.811 113.894 126.552 114.055L124.526 115.476C122.807 116.671 120.449 118.345 117.886 120.237C115.323 122.13 113.039 123.909 111.392 125.197C110.609 125.815 109.958 126.326 109.44 126.724C109.212 126.927 108.962 127.105 108.697 127.256C108.893 127.011 109.116 126.789 109.361 126.592C109.799 126.2 110.443 125.649 111.246 124.978C112.853 123.65 115.118 121.831 117.687 119.932C120.257 118.033 122.641 116.386 124.394 115.237C125.27 114.666 125.981 114.208 126.485 113.909C126.734 113.746 126.999 113.608 127.275 113.498Z" fill="#FAFAFA"/>
<path d="M286.722 279.975H241.543V286.184H286.722V279.975Z" fill="#263238"/>
<path d="M286.795 286.257H241.464V279.896H286.795V286.257ZM241.643 286.104H286.669V280.048H241.616L241.643 286.104Z" fill="#263238"/>
<path d="M245.726 284.112L252.234 316.196H276.297L282.578 286.183L245.726 284.112Z" fill="#263238"/>
<path d="M245.726 313.162L249.199 317.93H278.448L282.578 313.162H245.726Z" fill="#455A64"/>
<path d="M262.433 285.055C262.346 285.055 262.233 270.188 262.18 251.855C262.127 233.522 262.18 218.655 262.247 218.655C262.313 218.655 262.453 233.515 262.499 251.855C262.546 270.194 262.526 285.048 262.433 285.055Z" fill="#263238"/>
<path d="M272.499 247.858C272.469 247.976 272.429 248.092 272.379 248.203L271.974 249.166C271.881 249.378 271.782 249.604 271.676 249.83L271.377 250.673C271.271 250.979 271.151 251.304 271.031 251.643C270.912 251.981 270.812 252.36 270.693 252.745C270.158 254.561 269.737 256.408 269.431 258.276C269.091 260.569 268.869 262.879 268.767 265.195C268.603 269.403 268.721 273.618 269.119 277.811C269.265 279.424 269.411 280.726 269.524 281.629C269.571 282.047 269.604 282.392 269.637 282.665C269.653 282.786 269.653 282.909 269.637 283.03C269.603 282.915 269.576 282.797 269.557 282.678C269.511 282.406 269.458 282.06 269.385 281.642C269.239 280.746 269.059 279.444 268.88 277.831C268.41 273.625 268.259 269.39 268.429 265.162C268.545 262.833 268.789 260.512 269.159 258.21C269.476 256.331 269.92 254.477 270.487 252.659C270.613 252.274 270.713 251.902 270.846 251.556C270.978 251.211 271.098 250.892 271.217 250.594L271.543 249.75C271.656 249.498 271.769 249.272 271.868 249.086L272.326 248.15C272.371 248.046 272.429 247.948 272.499 247.858Z" fill="#263238"/>
<path d="M271.343 235.833C271.307 236 271.258 236.164 271.197 236.324L270.726 237.705C270.626 238.01 270.507 238.369 270.381 238.701C270.254 239.033 270.148 239.471 270.022 239.903C269.756 240.766 269.451 241.742 269.179 242.838L268.721 244.557C268.588 245.162 268.448 245.786 268.302 246.437C267.984 247.731 267.758 249.139 267.466 250.607C266.968 253.555 266.529 256.822 266.224 260.261C265.919 263.701 265.819 267.001 265.772 269.995C265.726 272.99 265.772 275.686 265.925 277.963C265.965 279.099 266.038 280.121 266.098 281.018C266.158 281.914 266.204 282.691 266.264 283.322C266.324 283.953 266.344 284.411 266.37 284.776C266.388 284.946 266.388 285.117 266.37 285.287C266.327 285.122 266.3 284.953 266.29 284.783C266.244 284.424 266.191 283.939 266.118 283.335C266.045 282.731 265.965 281.927 265.899 281.031C265.832 280.135 265.733 279.112 265.68 277.977C265.527 275.712 265.467 273.01 265.454 270.009C265.44 267.007 265.6 263.701 265.885 260.248C266.171 256.795 266.636 253.521 267.154 250.567C267.452 249.093 267.691 247.685 268.017 246.39C268.17 245.726 268.322 245.115 268.462 244.511L268.94 242.791C269.225 241.696 269.544 240.72 269.83 239.863C269.969 239.438 270.095 239.04 270.215 238.668L270.593 237.678L271.118 236.317C271.179 236.15 271.255 235.987 271.343 235.833Z" fill="#263238"/>
<path d="M259.577 287.685C259.57 287.625 259.57 287.565 259.577 287.505C259.577 287.373 259.577 287.207 259.531 286.994C259.531 286.523 259.458 285.865 259.398 285.002C259.292 283.269 259.139 280.799 258.947 277.765C258.555 271.649 257.99 263.203 256.955 253.92C256.43 249.272 255.819 244.87 255.188 240.873C254.85 238.881 254.524 236.975 254.199 235.209C253.874 233.443 253.535 231.796 253.223 230.302C252.911 228.808 252.592 227.453 252.327 226.265C252.061 225.076 251.809 224.06 251.603 223.23L251.131 221.318C251.085 221.112 251.045 220.946 251.018 220.82C251.003 220.761 250.992 220.701 250.985 220.641C251.012 220.694 251.035 220.749 251.052 220.807C251.085 220.939 251.131 221.099 251.191 221.298L251.722 223.204C251.955 224.027 252.22 225.043 252.499 226.225C252.778 227.407 253.13 228.748 253.442 230.249C253.754 231.749 254.106 233.389 254.458 235.162C254.81 236.935 255.122 238.828 255.481 240.826C256.145 244.81 256.749 249.239 257.273 253.887C258.303 263.183 258.834 271.629 259.166 277.751C259.332 280.806 259.451 283.282 259.518 284.995C259.551 285.832 259.577 286.489 259.591 286.987V287.499C259.594 287.561 259.589 287.623 259.577 287.685Z" fill="#263238"/>
<path d="M262.067 225.806C261.868 223.701 259.743 222.108 257.625 222.088C256.566 222.136 255.532 222.423 254.6 222.93C253.668 223.436 252.864 224.147 252.247 225.009C251.029 226.746 250.15 228.697 249.657 230.76C248.23 235.72 247.453 240.932 248.064 246.032C248.675 251.131 250.753 256.198 254.431 259.823C255.029 260.407 255.799 260.998 256.623 260.826C257.063 260.691 257.462 260.444 257.778 260.109C261.383 256.819 264.242 252.796 266.163 248.31C268.085 243.824 269.025 238.979 268.92 234.1C268.867 232.154 268.608 230.116 267.532 228.502C266.456 226.889 263.933 225.182 262.101 225.806" fill="#28BAD2"/>
<path d="M246.271 208.941L243.296 214.333C243.223 214.459 243.137 214.598 242.991 214.612C242.845 214.625 242.718 214.479 242.632 214.346L234.757 202.261L236.57 201.232L246.271 208.941Z" fill="#28BAD2"/>
<g opacity="0.2">
<path opacity="0.2" d="M246.271 208.941L243.296 214.333C243.223 214.459 243.137 214.598 242.991 214.612C242.845 214.625 242.718 214.479 242.632 214.346L234.757 202.261L236.57 201.232L246.271 208.941Z" fill="black"/>
</g>
<path d="M262.28 218.662L235.388 202.812C235.091 202.683 234.853 202.445 234.724 202.148C234.618 201.75 234.917 201.371 235.202 201.072C237.049 199.155 239.287 197.66 241.765 196.687C244.242 195.714 246.9 195.287 249.558 195.435C252.213 195.625 254.782 196.459 257.042 197.865C259.303 199.27 261.187 201.205 262.532 203.502C265.129 208.15 265.188 214.259 262.24 218.662" fill="#28BAD2"/>
<path d="M239.259 197.752C239.374 197.721 239.492 197.706 239.611 197.706C239.843 197.706 240.182 197.653 240.627 197.659C241.875 197.639 243.122 197.737 244.352 197.952C248.448 198.642 252.261 200.49 255.342 203.277C258.422 206.064 260.64 209.675 261.735 213.682C262.072 214.886 262.295 216.12 262.399 217.367C262.429 217.625 262.445 217.884 262.446 218.144C262.422 218.355 262.349 218.557 262.233 218.735C262.317 218.297 262.333 217.849 262.28 217.407C262.124 216.177 261.868 214.963 261.516 213.775C260.394 209.829 258.186 206.278 255.144 203.525C252.103 200.772 248.35 198.929 244.312 198.204C243.094 197.973 241.859 197.84 240.62 197.805C239.744 197.766 239.259 197.779 239.259 197.752Z" fill="#263238"/>
<path d="M258.608 207.719C258.191 207.975 257.745 208.182 257.28 208.336C256.423 208.675 255.228 209.107 253.887 209.531C252.546 209.956 251.324 210.295 250.434 210.514C249.956 210.659 249.464 210.752 248.967 210.793C249.417 210.577 249.889 210.408 250.374 210.288L253.794 209.226L257.2 208.124C257.655 207.943 258.127 207.807 258.608 207.719Z" fill="#263238"/>
<path d="M254.378 196.358C254.749 198.329 254.801 200.347 254.531 202.334C254.401 201.339 254.35 200.335 254.378 199.333C254.304 198.342 254.304 197.348 254.378 196.358Z" fill="#263238"/>
<path d="M235.149 202.52C235.78 202.246 236.433 202.024 237.101 201.856C238.323 201.477 240.023 201.006 241.915 200.528C243.807 200.05 245.54 199.718 246.802 199.499C247.475 199.35 248.159 199.257 248.847 199.22C248.197 199.438 247.531 199.607 246.855 199.724C245.613 199.997 243.894 200.388 242.008 200.84C240.122 201.291 238.409 201.736 237.181 202.055C236.516 202.261 235.837 202.416 235.149 202.52Z" fill="#263238"/>
<path d="M250.919 221.238C248.608 219.485 246.165 219.14 243.263 219.246C240.364 219.441 237.526 220.175 234.897 221.411C230.361 223.403 226.105 226.318 223.403 230.454C220.7 234.591 219.784 240.076 221.776 244.591C221.934 245.063 222.263 245.458 222.699 245.7C223.201 245.844 223.738 245.804 224.213 245.587C229.365 243.907 234.551 242.207 239.286 239.578C244.02 236.948 248.336 233.29 250.879 228.502C251.535 227.373 251.951 226.121 252.101 224.824C252.171 224.176 252.102 223.521 251.898 222.903C251.694 222.284 251.36 221.717 250.919 221.238Z" fill="#28BAD2"/>
<path d="M250.992 220.693C250.877 220.759 250.754 220.81 250.627 220.846L249.544 221.211L248.761 221.477C248.482 221.576 248.177 221.703 247.851 221.829C247.187 222.094 246.444 222.36 245.647 222.745L244.379 223.323C243.947 223.522 243.509 223.768 243.051 223.987C242.114 224.445 241.171 225.029 240.169 225.627C235.847 228.301 232.004 231.681 228.801 235.627C228.084 236.55 227.38 237.406 226.809 238.283C226.517 238.714 226.211 239.113 225.959 239.524C225.707 239.936 225.461 240.328 225.222 240.7C224.737 241.443 224.379 242.16 224.04 242.771C223.868 243.083 223.708 243.369 223.569 243.635L223.21 244.378L222.706 245.401C222.655 245.524 222.588 245.64 222.506 245.746C222.543 245.619 222.59 245.494 222.646 245.374L223.097 244.325L223.429 243.568C223.562 243.296 223.715 243.004 223.881 242.692C224.206 242.067 224.545 241.364 225.03 240.587C225.255 240.202 225.501 239.803 225.747 239.392C225.992 238.98 226.298 238.568 226.59 238.13C227.154 237.253 227.852 236.377 228.582 235.474C230.204 233.495 231.98 231.648 233.894 229.949C235.82 228.275 237.879 226.758 240.049 225.414C241.065 224.823 242.041 224.239 242.964 223.788C243.436 223.555 243.881 223.316 244.292 223.124L245.574 222.566C246.384 222.187 247.147 221.935 247.805 221.689C248.137 221.57 248.469 221.45 248.734 221.357L249.525 221.125L250.627 220.806C250.744 220.755 250.866 220.717 250.992 220.693Z" fill="#263238"/>
<path d="M232.911 230.467C231.074 231.173 229.198 231.776 227.294 232.273C225.418 232.875 223.512 233.379 221.583 233.781C223.421 233.074 225.297 232.469 227.201 231.968C229.075 231.364 230.982 230.863 232.911 230.467Z" fill="#263238"/>
<path d="M232.685 242.864C232.582 242.288 232.539 241.703 232.559 241.118C232.526 240.036 232.526 238.535 232.559 236.882C232.593 235.228 232.692 233.741 232.785 232.659C232.798 232.073 232.871 231.49 233.004 230.919C233.057 231.502 233.057 232.089 233.004 232.672C232.964 233.86 232.924 235.328 232.871 236.895C232.818 238.462 232.798 239.929 232.765 241.118C232.786 241.701 232.759 242.285 232.685 242.864Z" fill="#263238"/>
<path d="M243.303 237.453C243.217 237.453 242.931 234.419 242.672 230.667C242.413 226.915 242.274 223.854 242.367 223.848C242.46 223.841 242.738 226.882 242.997 230.64C243.256 234.399 243.396 237.446 243.303 237.453Z" fill="#263238"/>
<path d="M230.083 223.556C230.68 223.484 231.282 223.466 231.882 223.502C232.991 223.502 234.538 223.542 236.218 223.595C237.898 223.648 239.445 223.722 240.554 223.788C241.156 223.791 241.756 223.849 242.347 223.961C241.75 224.033 241.147 224.051 240.547 224.014C239.438 224.014 237.891 223.974 236.211 223.921C234.531 223.868 232.984 223.795 231.875 223.728C231.274 223.725 230.674 223.668 230.083 223.556Z" fill="#263238"/>
<path d="M255.58 260.553C255.554 260.436 255.541 260.315 255.54 260.195C255.54 259.923 255.54 259.584 255.494 259.159C255.454 258.263 255.447 256.961 255.494 255.354C255.54 253.747 255.633 251.842 255.826 249.724C256.018 247.605 256.337 245.288 256.769 242.871C257.2 240.454 257.751 238.177 258.296 236.125C258.84 234.073 259.438 232.241 259.976 230.72C260.514 229.199 260.978 227.984 261.304 227.161L261.715 226.205C261.757 226.091 261.811 225.982 261.875 225.879C261.856 226 261.823 226.119 261.775 226.231C261.682 226.484 261.563 226.802 261.423 227.201C261.105 228.044 260.673 229.272 260.162 230.793C259.65 232.314 259.106 234.146 258.562 236.198C258.017 238.25 257.506 240.521 257.061 242.931C256.616 245.341 256.304 247.672 256.105 249.75C255.906 251.828 255.766 253.734 255.706 255.368C255.647 257.001 255.64 258.296 255.64 259.159C255.64 259.577 255.64 259.923 255.64 260.195C255.636 260.316 255.616 260.437 255.58 260.553Z" fill="#263238"/>
<path d="M257.001 242.964C256.685 243.395 256.324 243.791 255.925 244.146C255.228 244.81 254.246 245.766 253.117 246.756C251.988 247.745 250.939 248.595 250.162 249.199C249.756 249.551 249.31 249.854 248.834 250.102C249.189 249.708 249.578 249.346 249.996 249.02L252.884 246.51L255.753 243.98C256.137 243.604 256.554 243.264 257.001 242.964Z" fill="#263238"/>
<path d="M265.5 249.816C265.078 249.321 264.696 248.793 264.358 248.236C263.628 247.16 262.711 245.832 261.702 244.358L258.993 240.527C258.59 240.017 258.228 239.475 257.911 238.907C258.377 239.362 258.801 239.857 259.179 240.387C259.923 241.337 260.919 242.672 261.968 244.179C263.017 245.686 263.92 247.087 264.551 248.11C264.921 248.647 265.239 249.218 265.5 249.816Z" fill="#263238"/>
<path d="M261.045 228.276C261.091 228.349 258.269 230.268 254.737 232.526C251.204 234.783 248.303 236.576 248.256 236.51C248.21 236.443 251.032 234.518 254.564 232.267C258.097 230.016 260.998 228.203 261.045 228.276Z" fill="#263238"/>
<path d="M269.013 236.875C266.091 234.323 263.313 231.61 260.693 228.748C263.615 231.301 266.393 234.014 269.013 236.875Z" fill="#263238"/>
<path d="M271.011 236.703L273.435 236.497C275.157 236.356 276.828 235.847 278.335 235.003C279.069 234.571 279.83 234.188 280.613 233.854C283.614 232.652 286.954 232.865 290.181 232.705C295.476 232.441 300.665 231.118 305.44 228.814C305.718 228.686 305.95 228.475 306.104 228.21C306.609 227.3 305.679 226.497 304.882 226.006C300.799 223.489 296.642 220.939 292.007 219.691C287.372 218.443 282.12 218.648 278.169 221.371C273.521 224.565 271.835 231.125 271.051 236.703" fill="#28BAD2"/>
<path d="M306.104 227.911C305.959 227.864 305.821 227.8 305.692 227.719L304.543 227.121C303.547 226.596 302.113 225.793 300.301 224.95C298.187 223.917 295.987 223.071 293.727 222.42C290.961 221.637 288.068 221.411 285.214 221.756C282.354 222.073 279.652 223.228 277.446 225.076C275.728 226.674 274.354 228.606 273.409 230.753C272.746 232.196 272.158 233.672 271.649 235.175L271.217 236.397C271.178 236.543 271.12 236.684 271.045 236.815C271.07 236.667 271.108 236.52 271.158 236.377C271.251 236.065 271.377 235.653 271.529 235.136C271.997 233.611 272.556 232.117 273.203 230.66C274.132 228.463 275.511 226.486 277.253 224.857C279.49 222.948 282.246 221.753 285.168 221.424C288.065 221.081 291.001 221.327 293.8 222.148C296.074 222.813 298.282 223.689 300.393 224.764C302.2 225.66 303.614 226.464 304.597 227.021L305.719 227.685C305.853 227.75 305.982 227.826 306.104 227.911Z" fill="#263238"/>
<path d="M300.301 231.072C300.247 231.145 297.08 229.08 293.216 226.49C289.351 223.901 286.264 221.716 286.317 221.643C286.37 221.57 289.537 223.635 293.395 226.225C297.253 228.814 300.347 230.966 300.301 231.072Z" fill="#263238"/>
<path d="M296.914 221.444C296.173 221.702 295.395 221.843 294.61 221.862C293.827 221.97 293.032 221.959 292.253 221.829C293.022 221.687 293.802 221.607 294.584 221.59C295.356 221.485 296.135 221.436 296.914 221.444Z" fill="#263238"/>
<path d="M283.037 219.638C282.775 220.228 282.423 220.775 281.994 221.258C281.623 221.818 281.176 222.323 280.666 222.758C280.923 222.163 281.275 221.614 281.709 221.132C282.073 220.57 282.521 220.066 283.037 219.638Z" fill="#263238"/>
<path d="M285.878 232.911C285.343 232.686 284.831 232.408 284.351 232.081C283.435 231.523 282.2 230.713 280.872 229.75C279.544 228.787 278.389 227.878 277.552 227.214C277.073 226.882 276.629 226.504 276.224 226.085C276.737 226.356 277.223 226.674 277.678 227.034L281.058 229.491C282.386 230.447 283.588 231.284 284.471 231.888C284.966 232.191 285.437 232.533 285.878 232.911Z" fill="#263238"/>
<path d="M274.584 247.008C272.273 246.397 269.511 248.648 269.039 250.992C268.568 253.335 269.438 255.733 270.467 257.891C272.668 262.729 275.938 267.006 280.029 270.4C284.151 273.792 289.299 275.689 294.637 275.785C293.654 271.244 294.896 266.489 294.344 261.888C293.864 257.823 292.018 254.042 289.111 251.162C286.203 248.282 282.404 246.473 278.335 246.032C276.861 245.872 275.155 245.646 274.564 247.008" fill="#28BAD2"/>
<path d="M294.657 275.779C294.542 275.738 294.43 275.687 294.325 275.626C294.02 275.458 293.731 275.262 293.461 275.042C292.491 274.201 291.712 273.162 291.177 271.994C290.805 271.277 290.394 270.5 289.995 269.637L288.747 266.888C288.301 265.876 287.791 264.893 287.22 263.946C286.593 262.94 285.889 261.983 285.115 261.085C283.535 259.225 281.835 257.618 280.361 256.078C279.028 254.737 277.814 253.281 276.735 251.729C276.01 250.673 275.414 249.534 274.962 248.336C274.816 247.904 274.71 247.572 274.657 247.34C274.616 247.226 274.592 247.108 274.584 246.988C274.584 246.988 274.743 247.459 275.082 248.316C275.572 249.486 276.189 250.599 276.921 251.636C278.02 253.156 279.242 254.584 280.573 255.905C282.054 257.426 283.76 259.033 285.361 260.912C286.145 261.823 286.857 262.793 287.492 263.814C288.061 264.775 288.571 265.771 289.019 266.795C289.444 267.771 289.856 268.694 290.234 269.557C290.613 270.42 291.024 271.197 291.376 271.921C291.884 273.077 292.62 274.119 293.541 274.982C294.218 275.56 294.67 275.746 294.657 275.779Z" fill="#263238"/>
<path d="M282.698 272.007C282.704 271.481 282.775 270.956 282.91 270.447C283.09 269.498 283.388 268.189 283.787 266.762C284.185 265.334 284.617 264.073 284.962 263.163C285.116 262.66 285.327 262.176 285.593 261.722C285.498 262.238 285.358 262.745 285.175 263.236C284.889 264.159 284.511 265.434 284.099 266.855C283.687 268.276 283.369 269.564 283.129 270.5C283.027 271.014 282.883 271.518 282.698 272.007Z" fill="#263238"/>
<path d="M294.218 260.859C293.664 260.785 293.117 260.661 292.585 260.487C291.589 260.222 290.214 259.87 288.681 259.524C287.147 259.179 285.759 258.907 284.743 258.721C284.189 258.648 283.642 258.526 283.11 258.356C283.671 258.343 284.232 258.389 284.783 258.495C285.805 258.628 287.213 258.86 288.767 259.206C290.321 259.551 291.682 259.949 292.665 260.268C293.202 260.408 293.723 260.606 294.218 260.859Z" fill="#263238"/>
<path d="M274.112 264.099C274.139 263.49 274.223 262.886 274.365 262.293C274.571 261.191 274.889 259.677 275.321 258.017C275.752 256.357 276.217 254.876 276.576 253.814C276.744 253.23 276.966 252.663 277.24 252.121C277.142 252.719 276.993 253.307 276.795 253.88C276.489 254.956 276.065 256.443 275.633 258.097C275.201 259.75 274.849 261.251 274.584 262.34C274.476 262.938 274.318 263.527 274.112 264.099Z" fill="#263238"/>
<path d="M288.913 251.144C288.913 251.231 286.011 250.998 282.465 250.62C278.92 250.241 276.038 249.87 276.051 249.783C278.208 249.848 280.36 250.021 282.499 250.301C286.051 250.68 288.92 251.058 288.913 251.144Z" fill="#263238"/>
<path d="M286.795 286.184C286.795 286.27 276.649 286.343 264.132 286.343C251.616 286.343 241.464 286.27 241.464 286.184C241.464 286.098 251.609 286.018 264.132 286.018C276.656 286.018 286.795 286.065 286.795 286.184Z" fill="#455A64"/>
<path d="M279.737 299.211C279.737 299.304 272.897 299.377 264.465 299.377C256.032 299.377 249.193 299.304 249.193 299.211C249.193 299.118 256.032 299.052 264.465 299.052C272.897 299.052 279.737 299.125 279.737 299.211Z" fill="#455A64"/>
<path d="M279.471 301.084C279.471 301.17 272.751 301.243 264.464 301.243C256.178 301.243 249.458 301.17 249.458 301.084C249.458 300.998 256.178 300.918 264.464 300.918C272.751 300.918 279.471 300.991 279.471 301.084Z" fill="#455A64"/>
<path d="M280.002 297.678C280.002 297.764 272.93 297.837 264.206 297.837C255.481 297.837 248.409 297.764 248.409 297.678C248.409 297.591 255.481 297.512 264.206 297.512C272.93 297.512 280.002 297.585 280.002 297.678Z" fill="#455A64"/>
<path d="M189.24 31.3405C183.317 30.0125 175.714 34.1293 173.669 39.667C171.624 45.2048 173.842 52.0573 178.317 55.9284C174.838 60.4038 174.692 67.057 177.653 71.9043C180.615 76.7514 186.285 79.6598 191.962 79.6266C194.803 79.5494 197.596 78.8717 200.156 77.638C202.716 76.4043 204.986 74.6425 206.816 72.4686C209.232 73.6591 211.932 74.154 214.614 73.8982C217.295 73.6423 219.852 72.6457 222 71.0197C224.147 69.3938 225.8 67.2026 226.774 64.6911C227.748 62.1796 228.003 59.4468 227.513 56.7983C234.206 54.3481 237.898 45.7626 235.056 39.1757C232.214 32.5888 223.423 29.4348 217.042 32.6618C217.181 25.5106 210.946 18.8374 203.802 18.4921C196.657 18.1468 189.804 24.2091 189.24 31.3405Z" fill="#FAFAFA"/>
<path d="M189.24 31.3407H189.14C189.14 31.3075 189.14 31.3407 189.14 31.3407H189.18H189.273H189.379C189.379 31.3938 189.306 31.3407 189.267 31.3872C189.361 29.9538 189.695 28.5464 190.256 27.2239C190.782 26.0313 191.465 24.9146 192.288 23.9039C193.339 22.5958 194.603 21.4735 196.026 20.5839C197.734 19.495 199.661 18.7967 201.67 18.5388L202.487 18.4458H203.33C203.905 18.4489 204.48 18.491 205.05 18.572C206.238 18.7459 207.398 19.081 208.496 19.568C208.787 19.6836 209.069 19.8212 209.339 19.9796C209.611 20.1324 209.897 20.2784 210.169 20.4444C210.716 20.793 211.242 21.1744 211.743 21.5865C212.257 22.0028 212.749 22.4461 213.217 22.9145C213.675 23.4222 214.105 23.9541 214.505 24.5081C216.235 26.8721 217.165 29.7262 217.161 32.6554L216.962 32.5292C219.921 31.1353 223.29 30.8823 226.424 31.8188C229.835 32.7279 232.763 34.9187 234.598 37.9342C235.495 39.5692 236.027 41.3795 236.157 43.2402C236.286 45.1008 236.01 46.9673 235.348 48.7109C234.702 50.5344 233.7 52.2114 232.4 53.6444C231.071 55.1206 229.409 56.2587 227.553 56.9644L227.666 56.7719C228.155 59.5931 227.821 62.4956 226.703 65.1316C225.575 67.8563 223.643 70.1725 221.165 71.7716C219.02 73.1093 216.574 73.8864 214.05 74.0315C211.527 74.1765 209.007 73.6848 206.723 72.6016L206.929 72.5618C203.812 76.2153 199.525 78.6746 194.798 79.5205C190.326 80.2745 185.737 79.2575 182.002 76.6852C180.25 75.4849 178.76 73.9422 177.62 72.1501C176.55 70.4212 175.853 68.4873 175.575 66.4729C175.296 64.5583 175.391 62.6079 175.854 60.7293C176.3 58.9533 177.102 57.2863 178.211 55.829V56.0083C176.171 54.184 174.622 51.8754 173.709 49.2952C173.282 48.1171 173.003 46.8903 172.879 45.6432C172.742 44.4705 172.762 43.2848 172.939 42.1174C173.218 39.9996 174.112 38.0099 175.508 36.3937C176.676 35.043 178.072 33.908 179.632 33.0405C180.874 32.3417 182.202 31.8082 183.583 31.4536C184.595 31.1985 185.633 31.0603 186.677 31.0419C187.32 31.0317 187.963 31.0828 188.596 31.1946C189.021 31.2676 189.26 31.3208 189.26 31.3208L188.596 31.2344C187.963 31.1401 187.323 31.1023 186.684 31.1216C185.647 31.1535 184.618 31.3028 183.616 31.5664C182.251 31.9399 180.941 32.489 179.718 33.1999C178.183 34.0623 176.81 35.1858 175.661 36.5199C174.297 38.1153 173.429 40.0749 173.165 42.1572C172.994 43.3052 172.976 44.4707 173.111 45.6233C173.25 46.8576 173.537 48.0705 173.968 49.2355C174.873 51.7726 176.403 54.0404 178.417 55.829L178.51 55.9087L178.437 56.0083C177.354 57.4391 176.572 59.0744 176.139 60.8156C175.691 62.6604 175.6 64.5742 175.874 66.453C176.145 68.4236 176.824 70.3162 177.866 72.0107C178.986 73.7639 180.45 75.2726 182.168 76.4462C185.838 78.9635 190.343 79.9563 194.731 79.2151C199.389 78.3812 203.613 75.957 206.683 72.3559L206.77 72.2564L206.889 72.3161C209.121 73.3704 211.581 73.8481 214.045 73.7054C216.509 73.5628 218.898 72.8043 220.992 71.4994C223.415 69.9282 225.3 67.6559 226.397 64.9856C227.496 62.4143 227.824 59.5791 227.34 56.825V56.6856L227.48 56.6391C229.246 55.9241 230.838 54.8361 232.145 53.4495C233.453 52.0628 234.446 50.4103 235.056 48.6047C235.707 46.907 235.98 45.0881 235.858 43.2742C235.735 41.4602 235.219 39.6947 234.345 38.1002C232.556 35.1584 229.703 33.0184 226.377 32.1242C223.316 31.2029 220.021 31.4464 217.128 32.8081L216.922 32.9077V32.682C216.924 29.8189 216.017 27.0291 214.333 24.714C213.939 24.1667 213.515 23.6413 213.064 23.1403C212.61 22.6702 212.129 22.2268 211.623 21.8123C211.131 21.4046 210.615 21.0276 210.076 20.6835C209.804 20.5175 209.532 20.3714 209.26 20.2187C208.993 20.0617 208.716 19.9241 208.43 19.807C207.35 19.3128 206.209 18.9666 205.037 18.7778C204.478 18.7002 203.914 18.6581 203.35 18.6516H202.52L201.71 18.738C199.728 18.9814 197.826 19.6618 196.139 20.73C193.606 22.2704 191.59 24.5314 190.349 27.2239C189.764 28.5289 189.39 29.9184 189.24 31.3407C189.286 31.3407 189.346 31.2942 189.366 31.3407H189.253H189.167H189.12H189.24Z" fill="#263238"/>
<path d="M200.402 60.6367C201.783 61.4225 203.38 61.7438 204.957 61.553C205.902 61.4037 206.807 61.0665 207.619 60.5613C208.431 60.056 209.133 59.393 209.685 58.6115C210.222 57.8901 210.608 57.068 210.82 56.1941C211.032 55.3202 211.066 54.4125 210.92 53.5252C210.738 52.6425 210.378 51.8064 209.86 51.0686C209.343 50.3308 208.68 49.707 207.912 49.2358C206.673 48.44 205.219 48.0458 203.748 48.107L203.868 42.131C203.853 41.8636 203.738 41.6115 203.546 41.4252C203.354 41.2389 203.098 41.1321 202.83 41.1262C202.563 41.1204 202.303 41.2158 202.102 41.3935C201.902 41.5712 201.776 41.818 201.75 42.0845L201.597 49.3354C201.595 49.4996 201.63 49.6622 201.7 49.8107C201.77 49.9591 201.874 50.0896 202.002 50.192C202.13 50.2938 202.28 50.3643 202.441 50.3978C202.601 50.4312 202.767 50.4267 202.925 50.3845C203.578 50.2243 204.257 50.2005 204.92 50.3148C205.583 50.4291 206.214 50.6788 206.776 51.0485C207.297 51.3635 207.749 51.7816 208.103 52.2771C208.456 52.7726 208.706 53.3352 208.835 53.9303C208.929 54.5362 208.9 55.155 208.75 55.7495C208.599 56.3441 208.33 56.902 207.958 57.3897C207.574 57.9428 207.082 58.4122 206.511 58.7695C205.941 59.1267 205.303 59.3644 204.638 59.468C202.115 59.82 199.326 57.9475 198.582 55.3844C198.502 55.1141 198.318 54.8867 198.07 54.7522C197.822 54.6177 197.531 54.5872 197.261 54.6673C196.991 54.7474 196.763 54.9317 196.629 55.1795C196.494 55.4273 196.464 55.7184 196.544 55.9887C197.179 57.9791 198.562 59.6454 200.402 60.6367Z" fill="#28BAD2"/>
<path d="M204.273 37.7552C204.285 37.5189 204.226 37.2845 204.104 37.0817C203.982 36.8788 203.803 36.7167 203.589 36.6157C203.375 36.5148 203.136 36.4796 202.902 36.5146C202.668 36.5497 202.45 36.6533 202.275 36.8125C202.1 36.9717 201.976 37.1792 201.919 37.4088C201.862 37.6384 201.875 37.8797 201.955 38.1022C202.035 38.3248 202.18 38.5185 202.37 38.6588C202.56 38.7991 202.788 38.8798 203.025 38.8906C203.341 38.9051 203.649 38.7937 203.883 38.5808C204.117 38.368 204.257 38.0711 204.273 37.7552Z" fill="#28BAD2"/>
<path d="M164.831 64.5538C163.692 64.4276 162.54 64.6418 161.522 65.1694C160.504 65.697 159.665 66.5143 159.111 67.5183C158.557 68.5222 158.313 69.6678 158.41 70.8104C158.506 71.9529 158.939 73.0413 159.653 73.9381C160.368 74.8349 161.332 75.5 162.424 75.8493C163.516 76.1987 164.687 76.2167 165.79 75.9011C166.892 75.5855 167.876 74.9504 168.618 74.076C169.36 73.2016 169.826 72.1271 169.957 70.988C170.075 69.4661 169.611 67.9562 168.66 66.7624C167.709 65.5685 166.341 64.7794 164.831 64.5538Z" fill="#FAFAFA"/>
<path d="M164.865 64.5603C165.343 64.5768 165.815 64.678 166.259 64.8591C167.294 65.2794 168.198 65.9701 168.876 66.859C169.553 67.7478 169.979 68.8023 170.11 69.9122C170.205 70.9665 169.991 72.0258 169.493 72.9599C169.228 73.4631 168.892 73.926 168.497 74.3344C168.09 74.7672 167.623 75.1386 167.109 75.4366C166.041 76.1131 164.773 76.4036 163.517 76.2599C162.26 76.1161 161.091 75.5468 160.203 74.6465C159.767 74.2434 159.395 73.7753 159.101 73.2587C158.802 72.775 158.578 72.249 158.437 71.6983C158.158 70.6768 158.188 69.5953 158.523 68.5908C158.898 67.5379 159.55 66.6056 160.41 65.8917C161.27 65.1778 162.307 64.7087 163.41 64.5338C163.88 64.4477 164.362 64.4477 164.831 64.5338C164.831 64.5802 164.32 64.4939 163.43 64.6466C162.174 64.8886 161.024 65.5178 160.144 66.4461C159.541 67.0743 159.087 67.83 158.816 68.6572C158.511 69.6093 158.493 70.6296 158.762 71.5921C159.061 72.6589 159.647 73.6235 160.456 74.3809C161.293 75.2252 162.394 75.759 163.575 75.8941C164.757 76.0293 165.949 75.7579 166.956 75.1246C167.448 74.8454 167.896 74.494 168.284 74.0821C168.662 73.6988 168.982 73.2626 169.234 72.7873C169.718 71.9131 169.933 70.915 169.851 69.9188C169.763 69.0477 169.484 68.2068 169.034 67.4554C168.383 66.3558 167.406 65.4857 166.239 64.9654C165.79 64.8024 165.331 64.6671 164.865 64.5603Z" fill="#263238"/>
<path d="M153.53 77.1832C153.038 77.1287 152.542 77.2211 152.103 77.4487C151.663 77.6763 151.302 78.0288 151.063 78.4619C150.824 78.8949 150.718 79.389 150.76 79.8819C150.802 80.3747 150.988 80.8442 151.296 81.231C151.605 81.6179 152.021 81.9048 152.492 82.0555C152.963 82.2062 153.468 82.214 153.943 82.0779C154.419 81.9417 154.843 81.6678 155.163 81.2907C155.483 80.9135 155.684 80.45 155.741 79.9587C155.792 79.3022 155.592 78.6508 155.182 78.1357C154.772 77.6207 154.181 77.2803 153.53 77.1832Z" fill="#FAFAFA"/>
<path d="M153.543 77.1898C153.754 77.1599 153.969 77.1922 154.161 77.2828C154.622 77.4582 155.027 77.7562 155.331 78.1447C155.635 78.5332 155.828 78.9974 155.887 79.4873C155.933 79.9601 155.838 80.4358 155.615 80.8551C155.368 81.3337 154.981 81.7258 154.505 81.9793C154.03 82.2328 153.489 82.3358 152.954 82.2745C152.418 82.2133 151.914 81.9908 151.509 81.6365C151.103 81.2821 150.814 80.8128 150.681 80.2907C150.56 79.8315 150.576 79.3465 150.728 78.8963C150.871 78.5146 151.098 78.1698 151.392 77.887C151.805 77.4762 152.342 77.2126 152.919 77.1367C153.128 77.0974 153.343 77.1135 153.543 77.1832C153.543 77.2164 153.318 77.1832 152.946 77.2695C152.419 77.39 151.94 77.6651 151.571 78.0597C151.296 78.3354 151.099 78.6792 151 79.0559C150.901 79.4326 150.903 79.8289 151.007 80.2044C151.114 80.6719 151.363 81.0947 151.72 81.4146C152.078 81.7344 152.525 81.9355 153.002 81.9902C153.478 82.0448 153.96 81.9503 154.38 81.7196C154.801 81.489 155.139 81.1336 155.349 80.7024C155.535 80.3599 155.627 79.9742 155.616 79.5846C155.604 79.195 155.489 78.8154 155.283 78.4846C155.018 78.013 154.612 77.6366 154.121 77.409C153.762 77.243 153.537 77.2164 153.543 77.1898Z" fill="#263238"/>
</svg>
