<svg width="284" height="284" viewBox="0 0 284 284" fill="none" xmlns="http://www.w3.org/2000/svg">
<path d="M284 217.203H0V217.345H284V217.203Z" fill="#EBEBEB"/>
<path d="M48.6094 222.611H29.7972V222.753H48.6094V222.611Z" fill="#EBEBEB"/>
<path d="M102.143 221.071H87.1539V221.213H102.143V221.071Z" fill="#EBEBEB"/>
<path d="M77.1856 225.962H51.103V226.104H77.1856V225.962Z" fill="#EBEBEB"/>
<path d="M255.543 226.933H243.274V227.075H255.543V226.933Z" fill="#EBEBEB"/>
<path d="M240.514 226.933H222.355V227.075H240.514V226.933Z" fill="#EBEBEB"/>
<path d="M188.763 224.536H157.455V224.678H188.763V224.536Z" fill="#EBEBEB"/>
<path d="M134.616 191.87H24.9408C24.0817 191.869 23.2582 191.527 22.6512 190.918C22.0442 190.31 21.7032 189.486 21.7032 188.627V34.4549C21.7107 33.6006 22.0549 32.7838 22.6611 32.1819C23.2673 31.5799 24.0866 31.2415 24.9408 31.24H134.616C135.476 31.24 136.301 31.5817 136.909 32.1899C137.518 32.7982 137.859 33.6231 137.859 34.4833V188.627C137.859 189.487 137.518 190.312 136.909 190.92C136.301 191.529 135.476 191.87 134.616 191.87ZM24.9408 31.3536C24.1193 31.3551 23.332 31.6825 22.7516 32.2639C22.1712 32.8454 21.8452 33.6333 21.8452 34.4549V188.627C21.8452 189.449 22.1712 190.237 22.7516 190.818C23.332 191.399 24.1193 191.727 24.9408 191.728H134.616C135.438 191.727 136.226 191.4 136.807 190.818C137.389 190.237 137.716 189.449 137.717 188.627V34.4549C137.716 33.6328 137.389 32.8449 136.807 32.2636C136.226 31.6823 135.438 31.3551 134.616 31.3536H24.9408Z" fill="#EBEBEB"/>
<path d="M257.48 191.87H147.799C146.94 191.869 146.116 191.527 145.508 190.919C144.9 190.311 144.558 189.487 144.556 188.627V34.4549C144.565 33.6001 144.91 32.7833 145.518 32.1815C146.125 31.5797 146.944 31.2414 147.799 31.24H257.48C258.333 31.2429 259.151 31.5821 259.756 32.1839C260.361 32.7856 260.705 33.6016 260.712 34.4549V188.627C260.712 189.485 260.372 190.309 259.766 190.916C259.16 191.524 258.338 191.867 257.48 191.87ZM147.799 31.3536C146.977 31.3551 146.189 31.6823 145.608 32.2636C145.027 32.8449 144.7 33.6328 144.698 34.4549V188.627C144.7 189.449 145.027 190.237 145.608 190.818C146.189 191.4 146.977 191.727 147.799 191.728H257.48C258.302 191.727 259.09 191.4 259.671 190.818C260.253 190.237 260.58 189.449 260.581 188.627V34.4549C260.58 33.6328 260.253 32.8449 259.671 32.2636C259.09 31.6823 258.302 31.3551 257.48 31.3536H147.799Z" fill="#EBEBEB"/>
<path d="M164.334 48.5527H44.037V122.762H164.334V48.5527Z" fill="#E6E6E6"/>
<path d="M167.424 48.5527H45.4797V122.762H167.424V48.5527Z" fill="#F0F0F0"/>
<path d="M164.334 122.762H44.037V128.504H164.334V122.762Z" fill="#E6E6E6"/>
<path d="M172.57 122.762H50.6259V128.504H172.57V122.762Z" fill="#F0F0F0"/>
<path d="M163.095 118.439V52.8806L49.8079 52.8806V118.439H163.095Z" fill="#FAFAFA"/>
<path d="M58.1234 118.439L83.5187 52.8806H95.5035L70.1082 118.439H58.1234Z" fill="white"/>
<path d="M72.687 118.439L98.0823 52.8806H102.751L77.356 118.439H72.687Z" fill="white"/>
<path d="M117.116 118.439L142.511 52.8806H147.186L121.791 118.439H117.116Z" fill="white"/>
<path d="M163.095 118.434V52.875H162.544V118.434H163.095Z" fill="#E6E6E6"/>
<path d="M174.092 160.71H152.815V217.203H174.092V160.71Z" fill="#E6E6E6"/>
<path d="M170.048 217.203H174.092V204.264H165.811L170.048 217.203Z" fill="#F0F0F0"/>
<path d="M52.6933 160.71H31.416V217.203H52.6933V160.71Z" fill="#E6E6E6"/>
<path d="M174.092 160.71H49.166V215.158H174.092V160.71Z" fill="#F0F0F0"/>
<path d="M53.2045 217.203H49.166V204.264H57.4418L53.2045 217.203Z" fill="#F0F0F0"/>
<path d="M53.3239 168.264V207.064C53.3239 207.82 53.9367 208.433 54.6927 208.433H88.9886C89.7446 208.433 90.3575 207.82 90.3575 207.064V168.264C90.3575 167.508 89.7446 166.895 88.9886 166.895H54.6927C53.9367 166.895 53.3239 167.508 53.3239 168.264Z" fill="#FAFAFA"/>
<path d="M75.4986 171.15H68.16C64.9792 171.15 61.912 169.258 59.7479 165.907H83.8993C81.7239 169.264 78.6794 171.15 75.4986 171.15Z" fill="#F0F0F0"/>
<path d="M93.1123 168.264V207.064C93.1123 207.82 93.7252 208.433 94.4812 208.433H128.777C129.533 208.433 130.146 207.82 130.146 207.064V168.264C130.146 167.508 129.533 166.895 128.777 166.895H94.4812C93.7252 166.895 93.1123 167.508 93.1123 168.264Z" fill="#FAFAFA"/>
<path d="M115.668 171.15H108.34C105.154 171.15 102.092 169.258 99.9282 165.907H124.08C121.887 169.264 118.848 171.15 115.668 171.15Z" fill="#F0F0F0"/>
<path d="M132.906 168.264V207.064C132.906 207.82 133.519 208.433 134.275 208.433H168.571C169.327 208.433 169.94 207.82 169.94 207.064V168.264C169.94 167.508 169.327 166.895 168.571 166.895H134.275C133.519 166.895 132.906 167.508 132.906 168.264Z" fill="#FAFAFA"/>
<path d="M155.456 171.15H148.129C144.948 171.15 141.881 169.258 139.717 165.907H163.874C161.681 169.264 158.642 171.15 155.456 171.15Z" fill="#F0F0F0"/>
<path d="M262.115 155.166C262.087 155.037 262.015 154.922 261.912 154.84C261.808 154.758 261.679 154.715 261.547 154.718H246.745C246.613 154.715 246.484 154.758 246.38 154.84C246.276 154.922 246.205 155.037 246.177 155.166L238.56 217.203H239.696L247.216 155.859H261.098L268.624 217.203H269.76L262.115 155.166Z" fill="#F0F0F0"/>
<path d="M239.832 155.166C239.805 155.037 239.733 154.922 239.629 154.84C239.525 154.758 239.396 154.715 239.264 154.718H224.468C224.336 154.715 224.207 154.758 224.103 154.84C224 154.922 223.928 155.037 223.9 155.166L216.243 217.203H217.408L224.934 155.859H238.81L246.33 217.203H247.495L239.832 155.166Z" fill="#F0F0F0"/>
<path d="M250.488 155.28H224.985C220.111 155.28 217.419 151.974 216.039 146.521L215.363 143.403C215.131 142.459 215.118 141.474 215.324 140.525C215.531 139.575 215.951 138.685 216.554 137.922C217.157 137.159 217.925 136.545 218.802 136.124C219.678 135.704 220.639 135.489 221.611 135.496H237.6C240.911 135.496 241.786 136.286 244.07 141.273L250.488 155.28Z" fill="#F0F0F0"/>
<path d="M236.549 150.395H261.507C262.434 150.395 263.322 150.763 263.977 151.418C264.632 152.073 265 152.962 265 153.888V154.008C265 154.345 264.866 154.669 264.628 154.907C264.389 155.146 264.066 155.28 263.728 155.28H236.549V150.395Z" fill="#F0F0F0"/>
<path d="M228.904 155.166C228.876 155.037 228.804 154.922 228.701 154.84C228.597 154.758 228.468 154.715 228.336 154.718H213.517C213.385 154.715 213.256 154.758 213.152 154.84C213.049 154.922 212.977 155.037 212.949 155.166L205.298 217.203H206.462L213.983 155.859H227.865L235.385 217.203H236.521L228.904 155.166Z" fill="#F0F0F0"/>
<path d="M206.604 155.166C206.577 155.037 206.505 154.922 206.401 154.84C206.297 154.758 206.168 154.715 206.036 154.718H191.24C191.108 154.715 190.979 154.758 190.875 154.84C190.771 154.922 190.7 155.037 190.672 155.166L183.015 217.203H184.18L191.706 155.859H205.582L213.102 217.203H214.267L206.604 155.166Z" fill="#F0F0F0"/>
<path d="M217.232 155.28H191.728C186.855 155.28 184.157 151.974 182.782 146.521L182.106 143.403C181.875 142.459 181.861 141.474 182.068 140.525C182.274 139.575 182.695 138.685 183.297 137.922C183.9 137.159 184.669 136.545 185.545 136.124C186.422 135.704 187.382 135.489 188.354 135.496H204.338C207.655 135.496 208.524 136.286 210.813 141.273L217.232 155.28Z" fill="#F0F0F0"/>
<path d="M203.344 150.395H228.279C229.206 150.395 230.094 150.763 230.749 151.418C231.404 152.073 231.772 152.962 231.772 153.888V154.008C231.772 154.345 231.638 154.669 231.4 154.907C231.161 155.146 230.838 155.28 230.5 155.28H203.344V150.395Z" fill="#F0F0F0"/>
<path d="M243.786 45.5081H199.669V96.9575H243.786V45.5081Z" fill="#F0F0F0"/>
<path d="M247.495 45.5081H200.334V96.9575H247.495V45.5081Z" fill="#F5F5F5"/>
<path d="M243.439 92.8965V49.5581H204.389V92.8965H243.439Z" fill="white"/>
<path d="M220.776 87.5798H227.058V68.069H220.776V87.5798Z" fill="#E6E6E6"/>
<path d="M231.46 87.5742H237.742V78.4408H231.46V87.5742Z" fill="#E6E6E6"/>
<path d="M231.46 78.4463H237.742V72.8742H231.46V78.4463Z" fill="#F0F0F0"/>
<path d="M220.776 68.0635H227.058V56.1639H220.776V68.0635Z" fill="#F0F0F0"/>
<path d="M210.092 87.5742H216.374V71.6134H210.092V87.5742Z" fill="#E6E6E6"/>
<path d="M210.092 71.6133H216.374V64.2974H210.092V71.6133Z" fill="#F0F0F0"/>
<path d="M142 242.854C202.823 242.854 252.13 239.975 252.13 236.424C252.13 232.873 202.823 229.995 142 229.995C81.1771 229.995 31.8705 232.873 31.8705 236.424C31.8705 239.975 81.1771 242.854 142 242.854Z" fill="#F5F5F5"/>
<path d="M139.938 231.153L144.965 231.199L147.646 219.549L142.613 219.504L139.938 231.153Z" fill="#FF8B7B"/>
<path d="M145.09 230.608L139.592 230.563C139.489 230.562 139.389 230.595 139.307 230.657C139.225 230.718 139.166 230.805 139.137 230.903L137.808 235.362C137.772 235.466 137.762 235.577 137.779 235.685C137.795 235.794 137.837 235.897 137.902 235.985C137.967 236.074 138.052 236.146 138.15 236.195C138.249 236.243 138.357 236.268 138.467 236.265C140.455 236.265 143.329 236.157 145.851 236.18C148.765 236.208 149.367 236.384 152.786 236.419C154.848 236.419 155.581 234.351 154.729 234.147C150.855 233.249 149.549 233.13 146.305 231C145.948 230.752 145.525 230.616 145.09 230.608Z" fill="#263238"/>
<path opacity="0.2" d="M147.64 219.555L146.266 225.558L141.233 225.513L142.608 219.509L147.64 219.555Z" fill="black"/>
<path d="M147.169 231.511C146.628 231.5 146.089 231.435 145.561 231.318C145.536 231.313 145.514 231.301 145.496 231.283C145.479 231.264 145.468 231.241 145.465 231.216C145.462 231.191 145.468 231.167 145.48 231.145C145.492 231.124 145.511 231.107 145.533 231.096C145.771 230.977 147.884 229.96 148.464 230.324C148.517 230.358 148.561 230.405 148.591 230.46C148.621 230.516 148.636 230.579 148.634 230.642C148.635 230.751 148.612 230.858 148.566 230.957C148.52 231.055 148.452 231.142 148.367 231.21C148.01 231.435 147.59 231.541 147.169 231.511ZM145.976 231.176C147.067 231.369 147.896 231.329 148.248 231.057C148.308 231.011 148.355 230.951 148.387 230.883C148.419 230.815 148.433 230.74 148.43 230.665C148.432 230.642 148.428 230.62 148.418 230.6C148.408 230.58 148.392 230.563 148.373 230.551C148.026 230.335 146.834 230.761 145.976 231.176Z" fill="#2855CB"/>
<path d="M145.584 231.324C145.557 231.323 145.531 231.313 145.51 231.295C145.494 231.282 145.481 231.264 145.473 231.245C145.465 231.225 145.462 231.203 145.465 231.182C145.465 231.091 145.862 228.91 147.061 229.057C147.379 229.097 147.464 229.256 147.487 229.381C147.566 229.949 146.277 231.04 145.63 231.312L145.584 231.324ZM146.959 229.29C146.237 229.29 145.874 230.466 145.749 230.994C146.413 230.619 147.299 229.767 147.248 229.427C147.248 229.427 147.248 229.33 147.032 229.307L146.959 229.29Z" fill="#2855CB"/>
<path d="M170.4 93.5098C170.474 96.5713 170.582 99.7578 170.729 102.859C170.798 104.415 170.883 105.972 170.991 107.517C171.099 109.062 171.224 110.601 171.394 112.117C171.466 112.875 171.557 113.632 171.667 114.389L171.741 114.957C171.741 115.026 171.741 114.957 171.741 114.992C171.741 114.992 171.741 115.054 171.741 115.156C171.943 115.512 172.225 115.817 172.564 116.048C173.057 116.42 173.582 116.749 174.132 117.031C176.534 118.28 179.585 119.195 182.481 120.013L182.175 123.858C180.47 123.959 178.761 123.921 177.063 123.744C176.205 123.665 175.359 123.54 174.484 123.375C173.594 123.211 172.715 122.989 171.854 122.711C170.911 122.426 169.999 122.045 169.133 121.575C168.074 121.009 167.127 120.254 166.339 119.348C165.862 118.774 165.479 118.128 165.203 117.434C165.123 117.252 165.061 117.053 164.998 116.866L164.919 116.571L164.851 116.315L164.72 115.69C164.527 114.861 164.362 114.032 164.215 113.208C163.618 109.908 163.255 106.648 162.988 103.382C162.874 101.751 162.755 100.121 162.709 98.4911C162.664 96.861 162.601 95.2478 162.63 93.5609L170.4 93.5098Z" fill="#FF8B7B"/>
<path d="M160.806 93.8961C160.091 99.6045 161.409 108.034 161.409 108.034C161.409 108.034 165.385 108.602 168.48 107.784C171.576 106.966 172.229 106.358 172.229 106.358C172.973 102.433 173.003 98.4059 172.32 94.4698C171.076 88.023 165.896 85.5749 162.312 89.5112C161.511 90.4029 161.045 92.016 160.806 93.8961Z" fill="#2855CB"/>
<path opacity="0.2" d="M161.397 96.6509C161.09 97.616 160.832 98.5961 160.625 99.5875C160.738 102.413 160.999 105.23 161.409 108.028C163.599 108.314 165.82 108.272 167.997 107.903C168.088 106.812 168.145 105.631 168.139 104.455C168.128 98.991 164.93 95.7421 161.397 96.6509Z" fill="black"/>
<path d="M180.726 119.717L184.663 119.462L184.469 124.449C183.593 124.549 182.706 124.464 181.864 124.2C181.023 123.935 180.246 123.498 179.585 122.915L180.726 119.717Z" fill="#FF8B7B"/>
<path d="M188.673 121.768L187.94 123.824C187.843 124.101 187.655 124.338 187.406 124.494C187.157 124.65 186.863 124.716 186.571 124.682L184.469 124.443L184.662 119.456L187.701 120.052C187.884 120.09 188.057 120.166 188.208 120.276C188.36 120.385 188.486 120.526 188.578 120.689C188.67 120.852 188.726 121.032 188.742 121.218C188.758 121.404 188.735 121.592 188.673 121.768Z" fill="#FF8B7B"/>
<path d="M187.025 118.642L185.745 117.929C185.422 117.749 185.013 117.865 184.833 118.188L181.983 123.303C181.802 123.627 181.918 124.035 182.242 124.215L183.522 124.928C183.845 125.109 184.253 124.993 184.434 124.669L187.284 119.554C187.464 119.231 187.348 118.822 187.025 118.642Z" fill="#263238"/>
<path d="M184.601 124.223L182.269 122.924C182.094 122.826 181.872 122.889 181.775 123.064L180.636 125.108C180.538 125.284 180.601 125.505 180.776 125.603L183.108 126.902C183.283 127 183.505 126.937 183.603 126.762L184.742 124.718C184.839 124.542 184.777 124.321 184.601 124.223Z" fill="#263238"/>
<path d="M190.144 119.848C188.73 119.848 187.339 119.487 186.105 118.797C184.544 117.992 183.258 116.739 182.413 115.199C181.568 113.658 181.203 111.901 181.363 110.151C181.524 108.401 182.203 106.74 183.314 105.379C184.425 104.018 185.917 103.019 187.599 102.512C189.281 102.004 191.076 102.011 192.755 102.53C194.433 103.049 195.918 104.058 197.02 105.427C198.121 106.796 198.789 108.462 198.937 110.213C199.085 111.963 198.707 113.718 197.851 115.253C197.091 116.634 195.975 117.788 194.621 118.596C193.266 119.404 191.721 119.836 190.144 119.848ZM190.643 103.558C189.282 103.571 187.948 103.946 186.779 104.645C185.61 105.343 184.648 106.34 183.992 107.534C183.482 108.377 183.147 109.314 183.006 110.289C182.866 111.264 182.924 112.257 183.176 113.21C183.429 114.162 183.87 115.054 184.475 115.832C185.08 116.61 185.835 117.258 186.695 117.737C187.556 118.217 188.505 118.518 189.484 118.623C190.464 118.728 191.454 118.634 192.397 118.348C193.34 118.061 194.215 117.588 194.971 116.956C195.726 116.323 196.347 115.545 196.795 114.668C197.79 112.954 198.065 110.915 197.56 108.998C197.054 107.081 195.809 105.444 194.097 104.444C193.039 103.862 191.85 103.561 190.643 103.569V103.558Z" fill="#263238"/>
<path d="M159.852 130.805C159.852 130.805 162.431 159.205 161.681 174.739C160.903 190.848 149.475 222.656 149.475 222.656L140.387 222.463C140.387 222.463 146.635 187.457 146.464 171.428C146.294 153.945 144.687 127.766 144.687 127.766L159.852 130.805Z" fill="#263238"/>
<path opacity="0.2" d="M147.975 135.144C146.936 133.917 146.004 135.088 145.22 137.365C145.544 143.488 145.936 151.758 146.192 159.773C150.628 153.025 151.321 139.115 147.975 135.144Z" fill="black"/>
<path d="M139.268 222.843L149.958 223.059L151.099 219.509L139.938 219.481L139.268 222.843Z" fill="#2855CB"/>
<path opacity="0.4" d="M139.268 222.843L149.958 223.059L151.099 219.509L139.938 219.481L139.268 222.843Z" fill="white"/>
<path d="M102.28 211.364L106.085 214.658L114.679 206.672L110.868 203.378L102.28 211.364Z" fill="#FF8B7B"/>
<path d="M106.42 214.817L103.546 210.16C103.492 210.073 103.411 210.007 103.316 209.969C103.222 209.931 103.117 209.924 103.018 209.95L98.531 211.188C98.4243 211.212 98.325 211.262 98.2417 211.333C98.1583 211.404 98.0933 211.494 98.052 211.596C98.0108 211.697 97.9946 211.807 98.0048 211.916C98.015 212.025 98.0513 212.13 98.1106 212.222C99.1785 213.897 100.78 216.289 102.087 218.419C103.609 220.901 103.598 220.861 105.387 223.775C106.466 225.541 108.619 225.053 108.335 224.229C107.04 220.469 106.631 219.946 106.71 216.067C106.741 215.631 106.64 215.196 106.42 214.817Z" fill="#263238"/>
<path opacity="0.2" d="M114.674 206.672L110.249 210.79L106.438 207.496L110.868 203.378L114.674 206.672Z" fill="black"/>
<path d="M106.784 217.056C106.506 216.591 106.274 216.1 106.091 215.59C106.083 215.566 106.083 215.54 106.09 215.516C106.097 215.491 106.111 215.47 106.131 215.454C106.151 215.44 106.175 215.432 106.199 215.432C106.223 215.432 106.247 215.44 106.267 215.454C106.494 215.596 108.477 216.857 108.477 217.538C108.477 217.602 108.46 217.664 108.428 217.719C108.396 217.774 108.35 217.819 108.295 217.851C108.203 217.912 108.098 217.95 107.989 217.964C107.88 217.978 107.769 217.966 107.664 217.93C107.283 217.743 106.974 217.436 106.784 217.056ZM106.449 215.846C106.864 216.868 107.335 217.55 107.738 217.692C107.809 217.718 107.884 217.726 107.958 217.716C108.033 217.706 108.103 217.678 108.164 217.635C108.227 217.595 108.238 217.555 108.238 217.527C108.215 217.158 107.216 216.374 106.426 215.84L106.449 215.846Z" fill="#2855CB"/>
<path d="M106.08 215.607C106.074 215.583 106.074 215.557 106.08 215.533C106.082 215.512 106.09 215.492 106.103 215.475C106.116 215.458 106.134 215.445 106.154 215.437C106.239 215.403 108.278 214.579 108.8 215.664C108.937 215.953 108.846 216.113 108.749 216.198C108.312 216.567 106.704 216.044 106.131 215.63L106.08 215.607ZM108.528 215.704C108.147 215.09 106.96 215.408 106.455 215.573C107.125 215.936 108.318 216.232 108.579 216.016C108.579 216.016 108.653 215.948 108.579 215.766C108.566 215.742 108.548 215.721 108.528 215.704Z" fill="#2855CB"/>
<path d="M150.639 128.936C150.639 128.936 145.851 155.541 142.42 170.69C138.859 186.446 114.111 210.222 114.111 210.222L107.295 204.185C107.295 204.185 125.369 180.579 127.993 164.765C130.833 147.521 133.44 125.471 133.44 125.471L150.639 128.936Z" fill="#263238"/>
<path d="M105.943 204.219L113.708 211.177L116.349 208.956L108.153 201.078L105.943 204.219Z" fill="#2855CB"/>
<path opacity="0.4" d="M105.943 204.219L113.708 211.177L116.349 208.956L108.153 201.078L105.943 204.219Z" fill="white"/>
<path d="M168.162 88.0796C168.162 88.0796 171.002 104.16 159.852 130.805L133.48 125.482C134.116 121.393 140.648 102.138 140.591 82.252C143.632 82.2776 146.667 82.4996 149.679 82.9165C153.461 83.4559 157.209 84.2145 160.903 85.1885C163.394 85.9622 165.821 86.9289 168.162 88.0796Z" fill="#2855CB"/>
<path opacity="0.2" d="M163.328 104.171C162.971 109.374 159.489 113.43 155.609 113.168C154.325 113.062 153.112 112.533 152.161 111.663L153.263 109.516C153.957 110.155 154.845 110.543 155.785 110.618C158.625 110.811 161.17 107.846 161.426 104.041L163.328 104.171Z" fill="#263238"/>
<path opacity="0.5" d="M163.328 104.171L161.426 104.041C161.496 103.045 161.399 102.044 161.136 101.081C160.904 100.186 160.497 99.3463 159.937 98.6105L161.295 96.7361C162.061 97.7532 162.618 98.9113 162.936 100.144C163.285 101.456 163.417 102.816 163.328 104.171Z" fill="white"/>
<path opacity="0.4" d="M161.312 96.7362L159.955 98.6106C159.553 98.0786 159.049 97.6325 158.472 97.2985C157.94 96.9821 157.344 96.7881 156.728 96.7305L156.904 94.1802C157.744 94.2437 158.558 94.4982 159.284 94.9243C160.073 95.3889 160.762 96.0046 161.312 96.7362Z" fill="#263238"/>
<path opacity="0.2" d="M156.899 94.2029L156.723 96.7532C153.883 96.56 151.344 99.5307 151.088 103.336C150.918 105.807 151.747 108.17 153.263 109.516L152.162 111.663C150.088 109.817 148.952 106.591 149.185 103.206C149.537 98.0028 153.019 93.9416 156.899 94.2029Z" fill="white"/>
<path opacity="0.2" d="M139.762 95.2933C139.518 97.2927 139.234 99.2693 138.927 101.149C141.131 100.127 144.141 94.7139 143.818 91.7319L139.762 95.2933Z" fill="black"/>
<path d="M153.28 70.5059C153.28 74.2603 152.633 81.0195 149.623 82.9167C149.623 82.9167 150.639 87.0915 158.41 89.9315C162.221 88.2275 160.846 85.183 160.846 85.183C157.012 83.4051 157.717 80.4402 158.989 77.799L153.28 70.5059Z" fill="#FF8B7B"/>
<path opacity="0.2" d="M155.632 73.4707L159.006 77.7705C158.702 78.3898 158.451 79.034 158.256 79.696C156.768 79.1621 154.99 77.0491 155.155 75.4019C155.193 74.7342 155.355 74.0793 155.632 73.4707Z" fill="black"/>
<path d="M164.396 69.4152C165.101 67.7112 165.203 65.7572 163.828 64.4565C163.913 63.3205 164.754 62.0312 165.918 61.0144C167.594 60.0886 170.968 66.5354 164.396 69.4152Z" fill="#263238"/>
<path d="M166.367 63.9C166.217 63.9 166.072 63.8401 165.966 63.7336C165.859 63.6271 165.799 63.4826 165.799 63.332C165.799 63.1813 165.859 63.0369 165.966 62.9303C166.072 62.8238 166.217 62.764 166.367 62.764C166.481 62.764 169.071 62.6163 169.906 59.5832C169.926 59.5112 169.959 59.4438 170.005 59.3849C170.051 59.3259 170.108 59.2766 170.173 59.2397C170.238 59.2028 170.309 59.179 170.383 59.1697C170.457 59.1604 170.532 59.1658 170.604 59.1856C170.676 59.2053 170.744 59.2391 170.803 59.2849C170.862 59.3307 170.911 59.3877 170.948 59.4526C170.985 59.5174 171.009 59.5889 171.018 59.663C171.027 59.7371 171.022 59.8122 171.002 59.8842C170.758 60.953 170.182 61.9172 169.357 62.6386C168.531 63.3599 167.499 63.8015 166.407 63.9H166.367Z" fill="#263238"/>
<path d="M153.928 64.9848C153.241 69.9321 152.587 72.7948 154.553 75.8052C157.506 80.3492 163.993 79.3041 166.14 74.6692C168.077 70.4887 168.872 63.099 164.481 60.1852C163.516 59.539 162.402 59.1501 161.245 59.0554C160.087 58.9607 158.924 59.1634 157.867 59.6442C156.81 60.1251 155.893 60.868 155.204 61.8027C154.514 62.7374 154.075 63.8327 153.928 64.9848Z" fill="#FF8B7B"/>
<path d="M153.786 69.3698C154.359 69.3859 154.929 69.4544 155.49 69.5743C155.632 69.6078 155.779 69.6073 155.921 69.573C156.062 69.5388 156.194 69.4716 156.305 69.3769C156.415 69.2823 156.502 69.1629 156.558 69.0284C156.614 68.894 156.637 68.7482 156.626 68.603C156.535 67.3932 156.865 66.1606 157.972 65.6267C158.083 64.7182 157.857 63.8007 157.336 63.048C157.294 62.9507 157.279 62.8434 157.295 62.7384C157.31 62.6333 157.355 62.5347 157.423 62.4537C157.492 62.3727 157.582 62.3125 157.683 62.28C157.784 62.2475 157.892 62.244 157.995 62.2698C160.46 63.2241 164.18 64.7236 166.049 63.7523C168.475 62.4913 171.252 57.9928 167.588 57.6804C165.833 57.5384 166.032 56.5444 164.709 55.6356C163.385 54.7268 160.165 54.8461 157.705 56.0616C155.246 57.2771 151.457 55.0221 150.015 56.817C148.941 58.1291 149.611 59.9921 149.611 59.9921C149.611 59.9921 147.504 60.2761 147.146 64.2521C146.879 67.2285 151.65 72.863 153.139 73.4651C154.002 70.3865 153.786 69.3698 153.786 69.3698Z" fill="#263238"/>
<path d="M150.31 61.4009C150.192 61.4005 150.078 61.3636 149.982 61.2955C149.887 61.2273 149.815 61.1312 149.776 61.0204C149.706 60.8085 149.592 60.614 149.44 60.45C149.289 60.286 149.105 60.1564 148.899 60.0697C148.693 59.9831 148.472 59.9415 148.249 59.9477C148.026 59.9539 147.807 60.0079 147.606 60.1059C147.465 60.1486 147.314 60.135 147.183 60.0681C147.052 60.0012 146.952 59.8861 146.904 59.7471C146.856 59.608 146.864 59.4559 146.926 59.3226C146.988 59.1893 147.1 59.0853 147.237 59.0324C147.594 58.8888 147.976 58.8193 148.361 58.8281C148.746 58.8369 149.125 58.9238 149.475 59.0835C150.108 59.4224 150.596 59.9794 150.849 60.6512C150.898 60.7935 150.889 60.9495 150.823 61.0847C150.757 61.22 150.64 61.3235 150.497 61.3725C150.437 61.3924 150.373 61.402 150.31 61.4009Z" fill="#263238"/>
<path d="M161.091 67.8477C161.011 68.2453 161.153 68.6088 161.414 68.6599C161.676 68.711 161.954 68.4327 162.033 68.0351C162.113 67.6375 161.965 67.274 161.704 67.2228C161.443 67.1717 161.17 67.45 161.091 67.8477Z" fill="#263238"/>
<path d="M165.589 68.7564C165.51 69.154 165.657 69.5175 165.913 69.5686C166.168 69.6197 166.452 69.3414 166.532 68.9438C166.611 68.5462 166.464 68.1827 166.208 68.1259C165.953 68.0691 165.669 68.3531 165.589 68.7564Z" fill="#263238"/>
<path d="M164.118 68.6655C164.348 69.9779 164.757 71.2526 165.333 72.4541C164.498 72.9653 163.362 72.4541 163.362 72.4541L164.118 68.6655Z" fill="#FF5652"/>
<path d="M161.982 73.2719C161.445 73.1781 160.938 72.9569 160.504 72.6268C160.071 72.2967 159.722 71.8674 159.489 71.3747C159.477 71.3461 159.477 71.3141 159.489 71.2855C159.501 71.2568 159.523 71.2339 159.551 71.2214C159.581 71.21 159.615 71.2108 159.644 71.2235C159.674 71.2362 159.698 71.2599 159.71 71.2895C159.934 71.7424 160.26 72.1365 160.664 72.4403C161.067 72.7441 161.536 72.9492 162.033 73.039C162.064 73.0458 162.091 73.0645 162.108 73.0912C162.125 73.1178 162.131 73.1501 162.124 73.181C162.117 73.2118 162.099 73.2388 162.072 73.2558C162.045 73.2728 162.013 73.2786 161.982 73.2719Z" fill="#263238"/>
<path d="M162.124 65.5643C162.168 65.5957 162.198 65.6423 162.209 65.6949C162.225 65.7552 162.217 65.8192 162.186 65.8733C162.155 65.9274 162.105 65.9674 162.045 65.9846C161.682 66.094 161.298 66.115 160.926 66.0458C160.553 65.9767 160.203 65.8193 159.903 65.587C159.88 65.5661 159.861 65.5408 159.847 65.5125C159.833 65.4842 159.825 65.4535 159.823 65.4221C159.822 65.3908 159.826 65.3593 159.836 65.3296C159.847 65.2999 159.863 65.2725 159.883 65.249C159.904 65.2256 159.93 65.2064 159.958 65.1927C159.986 65.179 160.017 65.171 160.048 65.1691C160.08 65.1673 160.111 65.1716 160.141 65.1819C160.171 65.1922 160.198 65.2083 160.221 65.2292C160.461 65.412 160.741 65.5344 161.037 65.5858C161.334 65.6373 161.639 65.6162 161.925 65.5245C161.994 65.5111 162.066 65.5254 162.124 65.5643Z" fill="#263238"/>
<path d="M168.128 66.6662C168.082 66.6688 168.035 66.6572 167.996 66.6328C167.956 66.6085 167.925 66.5725 167.906 66.5298C167.785 66.2563 167.601 66.0152 167.369 65.8258C167.137 65.6364 166.864 65.504 166.572 65.4393C166.509 65.4308 166.453 65.398 166.414 65.348C166.376 65.2979 166.359 65.2348 166.367 65.1723C166.377 65.1094 166.411 65.0529 166.462 65.0147C166.513 64.9765 166.577 64.9597 166.64 64.9678C167.011 65.0421 167.36 65.204 167.656 65.4402C167.953 65.6763 168.188 65.9798 168.344 66.3254C168.357 66.3537 168.365 66.3844 168.367 66.4157C168.368 66.4471 168.364 66.4784 168.353 66.508C168.342 66.5375 168.326 66.5647 168.305 66.5879C168.284 66.6112 168.259 66.63 168.23 66.6434C168.199 66.6593 168.163 66.6671 168.128 66.6662Z" fill="#263238"/>
<path d="M144.55 91.0277C143.369 92.2603 142.091 93.5837 140.892 94.8958C139.694 96.2079 138.467 97.537 137.297 98.8718C134.956 101.502 132.757 104.255 130.708 107.119L129.993 108.159C129.845 108.365 129.717 108.586 129.612 108.817C129.371 109.359 129.21 109.933 129.135 110.521C128.984 112.003 129.076 113.5 129.407 114.952C130.173 118.3 131.342 121.542 132.889 124.608L129.726 126.812C129.044 126.022 128.47 125.284 127.897 124.483C127.323 123.682 126.761 122.875 126.283 122.029C125.239 120.309 124.368 118.49 123.682 116.599C122.919 114.528 122.535 112.337 122.546 110.13C122.56 108.871 122.767 107.622 123.159 106.426C123.375 105.793 123.646 105.181 123.972 104.597L124.727 103.291C125.221 102.433 125.75 101.632 126.272 100.809C126.795 99.9851 127.357 99.2069 127.925 98.4344C129.033 96.8611 130.197 95.3672 131.413 93.8904C132.628 92.4136 133.855 90.9879 135.133 89.5907C136.411 88.1934 137.683 86.8359 139.109 85.4727L144.55 91.0277Z" fill="#FF8B7B"/>
<path d="M140.563 82.252C135.752 82.4281 128.589 95.7023 128.589 95.7023C129.532 97.9743 133.65 101.564 135.837 102.149C135.837 102.149 141.557 98.5082 144.67 93.1236C147.93 87.472 145.715 82.0646 140.563 82.252Z" fill="#2855CB"/>
<path d="M131.634 123.529L136.95 124.523L132.708 129.316C132.708 129.316 129.072 127.709 129.067 125.744L131.634 123.529Z" fill="#FF8B7B"/>
<path d="M138.467 129.561L137.382 130.697C137.011 131.078 136.509 131.306 135.977 131.333C135.445 131.36 134.922 131.186 134.514 130.845L132.708 129.339L136.95 124.545L138.654 126.851C138.946 127.254 139.086 127.745 139.052 128.24C139.018 128.735 138.811 129.203 138.467 129.561Z" fill="#FF8B7B"/>
<path d="M151.088 68.4155C151.078 69.038 151.19 69.6565 151.419 70.2355C151.648 70.8145 151.989 71.3425 152.423 71.7894C153.587 72.9822 155.002 72.1359 155.365 70.6023C155.7 69.2221 155.49 66.9387 153.985 66.3253C152.48 65.7118 151.145 66.8762 151.088 68.4155Z" fill="#FF8B7B"/>
<path d="M52.2674 187.713H43.5884C42.252 187.713 41.1687 188.796 41.1687 190.132V205.406C41.1687 206.742 42.252 207.826 43.5884 207.826H52.2674C53.6038 207.826 54.6871 206.742 54.6871 205.406V190.132C54.6871 188.796 53.6038 187.713 52.2674 187.713Z" fill="#2855CB"/>
<path d="M67.9499 177.006H59.2709C57.9345 177.006 56.8512 178.089 56.8512 179.426V205.4C56.8512 206.737 57.9345 207.82 59.2709 207.82H67.9499C69.2863 207.82 70.3696 206.737 70.3696 205.4V179.426C70.3696 178.089 69.2863 177.006 67.9499 177.006Z" fill="#2855CB"/>
<path d="M83.6267 181.652H74.9476C73.6113 181.652 72.528 182.735 72.528 184.072V205.406C72.528 206.742 73.6113 207.826 74.9476 207.826H83.6267C84.963 207.826 86.0463 206.742 86.0463 205.406V184.072C86.0463 182.735 84.963 181.652 83.6267 181.652Z" fill="#2855CB"/>
<path d="M99.3036 175.024H90.6245C89.2882 175.024 88.2048 176.107 88.2048 177.443V205.406C88.2048 206.742 89.2882 207.826 90.6245 207.826H99.3036C100.64 207.826 101.723 206.742 101.723 205.406V177.443C101.723 176.107 100.64 175.024 99.3036 175.024Z" fill="#2855CB"/>
<path d="M114.98 168.02H106.301C104.965 168.02 103.882 169.103 103.882 170.44V205.406C103.882 206.742 104.965 207.825 106.301 207.825H114.98C116.317 207.825 117.4 206.742 117.4 205.406V170.44C117.4 169.103 116.317 168.02 114.98 168.02Z" fill="#2855CB"/>
<path d="M130.663 160.636H121.984C120.647 160.636 119.564 161.719 119.564 163.056V205.406C119.564 206.742 120.647 207.825 121.984 207.825H130.663C131.999 207.825 133.082 206.742 133.082 205.406V163.056C133.082 161.719 131.999 160.636 130.663 160.636Z" fill="#2855CB"/>
<path d="M146.34 171.809H137.661C136.324 171.809 135.241 172.892 135.241 174.228V205.406C135.241 206.742 136.324 207.825 137.661 207.825H146.34C147.676 207.825 148.759 206.742 148.759 205.406V174.228C148.759 172.892 147.676 171.809 146.34 171.809Z" fill="#2855CB"/>
<path d="M162.016 157.416H153.337C152.001 157.416 150.918 158.499 150.918 159.835V205.406C150.918 206.742 152.001 207.826 153.337 207.826H162.016C163.353 207.826 164.436 206.742 164.436 205.406V159.835C164.436 158.499 163.353 157.416 162.016 157.416Z" fill="#2855CB"/>
<path d="M177.693 153.065H169.014C167.678 153.065 166.594 154.148 166.594 155.484V205.406C166.594 206.742 167.678 207.826 169.014 207.826H177.693C179.03 207.826 180.113 206.742 180.113 205.406V155.484C180.113 154.148 179.03 153.065 177.693 153.065Z" fill="#2855CB"/>
<path d="M193.376 155.712H184.697C183.36 155.712 182.277 156.795 182.277 158.131V205.406C182.277 206.742 183.36 207.826 184.697 207.826H193.376C194.712 207.826 195.795 206.742 195.795 205.406V158.131C195.795 156.795 194.712 155.712 193.376 155.712Z" fill="#2855CB"/>
<path d="M209.052 140.217H200.373C199.037 140.217 197.954 141.3 197.954 142.636V205.406C197.954 206.742 199.037 207.826 200.373 207.826H209.052C210.389 207.826 211.472 206.742 211.472 205.406V142.636C211.472 141.3 210.389 140.217 209.052 140.217Z" fill="#2855CB"/>
<path d="M224.729 146.652H216.05C214.714 146.652 213.63 147.735 213.63 149.072V205.406C213.63 206.742 214.714 207.826 216.05 207.826H224.729C226.066 207.826 227.149 206.742 227.149 205.406V149.072C227.149 147.735 226.066 146.652 224.729 146.652Z" fill="#2855CB"/>
<path d="M240.406 130.969H231.727C230.391 130.969 229.307 132.053 229.307 133.389V205.406C229.307 206.742 230.391 207.826 231.727 207.826H240.406C241.742 207.826 242.826 206.742 242.826 205.406V133.389C242.826 132.053 241.742 130.969 240.406 130.969Z" fill="#2855CB"/>
<path d="M47.9335 196.67C47.8882 196.665 47.8445 196.65 47.8061 196.625C47.7677 196.6 47.7355 196.567 47.712 196.528C47.6689 196.466 47.6513 196.391 47.6629 196.316C47.6746 196.242 47.7146 196.176 47.7745 196.13L48.4618 195.63C48.5232 195.587 48.599 195.57 48.6732 195.581C48.7474 195.593 48.8141 195.633 48.8594 195.693C48.8822 195.723 48.8988 195.757 48.908 195.794C48.9172 195.83 48.919 195.868 48.9132 195.905C48.9073 195.942 48.894 195.978 48.874 196.01C48.854 196.042 48.8278 196.069 48.7969 196.091L48.1096 196.59C48.0613 196.636 47.9994 196.663 47.9335 196.67Z" fill="#263238"/>
<path d="M50.927 194.489C50.8813 194.49 50.8362 194.479 50.7956 194.458C50.755 194.438 50.7201 194.407 50.6941 194.37C50.6509 194.308 50.6333 194.232 50.645 194.158C50.6566 194.084 50.6966 194.017 50.7566 193.972L52.1425 192.967C52.1727 192.945 52.2069 192.929 52.2433 192.92C52.2796 192.911 52.3173 192.91 52.3542 192.916C52.3911 192.921 52.4266 192.934 52.4584 192.954C52.4903 192.973 52.5181 192.999 52.5401 193.029C52.5621 193.059 52.5779 193.094 52.5867 193.13C52.5955 193.166 52.597 193.204 52.5912 193.241C52.5854 193.278 52.5724 193.313 52.5529 193.345C52.5334 193.377 52.5078 193.405 52.4776 193.427L51.1201 194.432C51.0932 194.454 51.0624 194.47 51.0292 194.48C50.9961 194.49 50.9613 194.493 50.927 194.489ZM54.6133 191.802C54.5686 191.802 54.5247 191.791 54.4851 191.77C54.4456 191.75 54.4116 191.72 54.3861 191.683C54.3433 191.623 54.3258 191.548 54.3375 191.474C54.3492 191.401 54.389 191.335 54.4486 191.291L55.8345 190.28C55.895 190.237 55.9699 190.22 56.0432 190.232C56.1164 190.243 56.1822 190.283 56.2264 190.343C56.2492 190.372 56.2658 190.407 56.275 190.443C56.2843 190.48 56.286 190.518 56.2802 190.555C56.2743 190.592 56.261 190.627 56.241 190.659C56.2211 190.691 56.1948 190.719 56.1639 190.74L54.7837 191.746C54.7351 191.784 54.6749 191.804 54.6133 191.802ZM58.3053 189.116C58.2605 189.115 58.2163 189.105 58.176 189.085C58.1357 189.066 58.1003 189.037 58.0724 189.002C58.0293 188.941 58.0117 188.865 58.0233 188.791C58.035 188.717 58.075 188.65 58.1349 188.604L59.5208 187.593C59.5818 187.549 59.658 187.531 59.7325 187.542C59.8071 187.554 59.874 187.595 59.9184 187.656C59.9628 187.717 59.9812 187.793 59.9695 187.868C59.9578 187.942 59.9169 188.009 59.8559 188.054L58.47 189.065C58.4249 189.108 58.3672 189.136 58.3053 189.144V189.116ZM61.9916 186.429C61.9325 186.428 61.8752 186.408 61.8277 186.373C61.7803 186.338 61.745 186.289 61.7269 186.232C61.7088 186.176 61.7086 186.115 61.7266 186.059C61.7445 186.003 61.7796 185.953 61.8269 185.918L63.2128 184.912C63.2426 184.891 63.2764 184.875 63.3123 184.867C63.3481 184.858 63.3853 184.857 63.4217 184.863C63.4581 184.868 63.493 184.881 63.5244 184.901C63.5558 184.92 63.5831 184.945 63.6047 184.975C63.6264 185.005 63.6419 185.039 63.6505 185.074C63.659 185.11 63.6604 185.147 63.6546 185.184C63.6488 185.22 63.6359 185.255 63.6166 185.287C63.5974 185.318 63.5721 185.345 63.5422 185.367L62.162 186.378C62.1116 186.412 62.0523 186.43 61.9916 186.429ZM65.6836 183.748C65.6382 183.747 65.5936 183.736 65.5532 183.716C65.5128 183.695 65.4778 183.665 65.4507 183.629C65.4289 183.598 65.4134 183.564 65.405 183.527C65.3967 183.491 65.3956 183.453 65.4019 183.416C65.4083 183.379 65.4219 183.344 65.4419 183.312C65.462 183.28 65.4882 183.253 65.5189 183.231L66.8991 182.226C66.9293 182.204 66.9636 182.188 66.9999 182.179C67.0362 182.17 67.0739 182.169 67.1109 182.175C67.1478 182.181 67.1832 182.194 67.2151 182.213C67.247 182.233 67.2747 182.258 67.2967 182.288C67.3187 182.319 67.3346 182.353 67.3433 182.389C67.3521 182.425 67.3536 182.463 67.3478 182.5C67.342 182.537 67.329 182.572 67.3095 182.604C67.29 182.636 67.2645 182.664 67.2342 182.686L65.8483 183.691C65.8002 183.726 65.7429 183.746 65.6836 183.748ZM69.3756 181.061C69.33 181.062 69.2849 181.052 69.2443 181.031C69.2037 181.01 69.1688 180.98 69.1427 180.942C69.0996 180.881 69.082 180.805 69.0936 180.731C69.1053 180.657 69.1453 180.59 69.2052 180.545L70.5911 179.539C70.6517 179.496 70.7266 179.479 70.7998 179.491C70.873 179.502 70.9388 179.542 70.983 179.602C71.0059 179.632 71.0224 179.666 71.0317 179.702C71.0409 179.739 71.0427 179.777 71.0368 179.814C71.031 179.851 71.0177 179.887 70.9977 179.918C70.9777 179.95 70.9515 179.978 70.9206 179.999L69.5403 181.005C69.4935 181.042 69.4354 181.062 69.3756 181.061ZM73.0619 178.375C73.0172 178.375 72.973 178.364 72.9334 178.344C72.8938 178.323 72.8599 178.293 72.8347 178.256C72.8119 178.226 72.7953 178.191 72.7861 178.155C72.7769 178.118 72.7751 178.081 72.7809 178.043C72.7868 178.006 72.8001 177.971 72.8201 177.939C72.8401 177.907 72.8663 177.879 72.8972 177.858L74.2774 176.853C74.3385 176.808 74.4146 176.79 74.4892 176.801C74.5637 176.813 74.6306 176.854 74.675 176.915C74.7195 176.976 74.7379 177.052 74.7261 177.127C74.7144 177.201 74.6736 177.268 74.6126 177.313L73.2266 178.318C73.1771 178.348 73.1191 178.36 73.0619 178.352V178.375ZM76.7539 175.688C76.6943 175.688 76.6362 175.669 76.5879 175.635C76.5395 175.6 76.5033 175.551 76.4845 175.494C76.4656 175.437 76.4651 175.376 76.4828 175.32C76.5006 175.263 76.5358 175.213 76.5835 175.177L77.9694 174.166C78.0305 174.122 78.1066 174.103 78.1812 174.115C78.2557 174.127 78.3226 174.167 78.367 174.228C78.4115 174.289 78.4299 174.366 78.4181 174.44C78.4064 174.515 78.3656 174.582 78.3046 174.626L76.9186 175.631C76.8718 175.669 76.8137 175.689 76.7539 175.688ZM80.4402 173.002C80.3811 173 80.3238 172.981 80.2764 172.945C80.2289 172.91 80.1937 172.861 80.1755 172.805C80.1574 172.748 80.1573 172.688 80.1752 172.632C80.1931 172.575 80.2282 172.526 80.2755 172.49L81.6558 171.485C81.6856 171.462 81.7199 171.446 81.7563 171.436C81.7928 171.427 81.8308 171.425 81.8679 171.431C81.9051 171.437 81.9407 171.45 81.9725 171.47C82.0044 171.49 82.0319 171.517 82.0534 171.547C82.0962 171.608 82.1136 171.683 82.1019 171.756C82.0903 171.829 82.0504 171.895 81.9909 171.939L80.605 172.95C80.5567 172.984 80.4991 173.002 80.4402 173.002ZM84.1322 170.315C84.0726 170.315 84.0145 170.296 83.9662 170.261C83.9178 170.226 83.8817 170.177 83.8628 170.121C83.844 170.064 83.8434 170.003 83.8612 169.946C83.8789 169.889 83.9142 169.839 83.9618 169.804L85.3478 168.798C85.3776 168.776 85.4119 168.759 85.4483 168.75C85.4848 168.74 85.5228 168.739 85.5599 168.745C85.5971 168.75 85.6327 168.764 85.6645 168.784C85.6964 168.804 85.7239 168.83 85.7454 168.861C85.7885 168.922 85.8061 168.998 85.7944 169.072C85.7828 169.146 85.7428 169.213 85.6829 169.258L84.297 170.264C84.2484 170.297 84.191 170.315 84.1322 170.315ZM87.8186 167.634C87.774 167.633 87.7302 167.622 87.6907 167.601C87.6513 167.581 87.6172 167.551 87.5914 167.515C87.5685 167.485 87.552 167.451 87.5427 167.414C87.5335 167.378 87.5317 167.34 87.5376 167.303C87.5434 167.265 87.5567 167.23 87.5767 167.198C87.5967 167.166 87.6229 167.139 87.6538 167.117L89.0341 166.112C89.0643 166.09 89.0985 166.074 89.1349 166.065C89.1712 166.056 89.2089 166.055 89.2459 166.06C89.2828 166.066 89.3182 166.079 89.3501 166.099C89.382 166.118 89.4097 166.144 89.4317 166.174C89.4748 166.236 89.4924 166.311 89.4808 166.386C89.4691 166.46 89.4291 166.527 89.3692 166.572L87.989 167.56C87.9406 167.601 87.8814 167.627 87.8186 167.634ZM91.5106 164.947C91.4649 164.948 91.4198 164.938 91.3792 164.917C91.3386 164.896 91.3037 164.865 91.2777 164.828C91.2345 164.767 91.2169 164.691 91.2286 164.617C91.2403 164.542 91.2802 164.476 91.3402 164.43L92.7261 163.425C92.7563 163.403 92.7905 163.387 92.8269 163.378C92.8632 163.37 92.9009 163.368 92.9378 163.374C92.9747 163.38 93.0102 163.393 93.042 163.412C93.0739 163.432 93.1017 163.457 93.1237 163.488C93.1457 163.518 93.1615 163.552 93.1703 163.588C93.1791 163.625 93.1806 163.662 93.1748 163.699C93.169 163.736 93.156 163.772 93.1365 163.804C93.117 163.835 93.0914 163.863 93.0612 163.885L91.6753 164.89C91.6285 164.928 91.5704 164.948 91.5106 164.947ZM95.1969 162.261C95.1522 162.26 95.1083 162.25 95.0687 162.229C95.0292 162.208 94.9952 162.178 94.9697 162.141C94.947 162.112 94.9305 162.078 94.9214 162.042C94.9122 162.006 94.9105 161.969 94.9163 161.932C94.9222 161.895 94.9355 161.86 94.9554 161.829C94.9753 161.797 95.0014 161.77 95.0322 161.749L96.4124 160.738C96.4734 160.694 96.5496 160.676 96.6241 160.687C96.6987 160.699 96.7656 160.74 96.81 160.801C96.8544 160.862 96.8728 160.938 96.8611 161.013C96.8494 161.087 96.8085 161.154 96.7475 161.198L95.3673 162.204C95.3183 162.241 95.2584 162.261 95.1969 162.261ZM98.8889 159.574C98.8439 159.574 98.7995 159.564 98.759 159.545C98.7186 159.525 98.6833 159.496 98.656 159.46C98.6129 159.399 98.5953 159.323 98.6069 159.249C98.6186 159.175 98.6586 159.108 98.7185 159.063L100.104 158.052C100.165 158.007 100.242 157.989 100.316 158.001C100.391 158.012 100.458 158.053 100.502 158.114C100.546 158.175 100.565 158.251 100.553 158.326C100.541 158.401 100.501 158.467 100.44 158.512L99.0536 159.523C99.005 159.556 98.9477 159.574 98.8889 159.574ZM102.575 156.887C102.531 156.887 102.488 156.877 102.448 156.857C102.409 156.837 102.375 156.809 102.348 156.774C102.326 156.744 102.31 156.709 102.301 156.673C102.292 156.637 102.291 156.599 102.297 156.562C102.302 156.525 102.316 156.49 102.335 156.458C102.355 156.426 102.38 156.398 102.41 156.376L103.791 155.371C103.82 155.344 103.855 155.323 103.893 155.31C103.93 155.298 103.971 155.293 104.01 155.297C104.05 155.301 104.088 155.313 104.123 155.333C104.158 155.352 104.188 155.379 104.212 155.411C104.235 155.443 104.252 155.48 104.261 155.519C104.269 155.558 104.269 155.598 104.261 155.637C104.253 155.676 104.237 155.713 104.214 155.746C104.19 155.778 104.16 155.805 104.126 155.825L102.746 156.836C102.695 156.869 102.636 156.887 102.575 156.887ZM106.267 154.206C106.222 154.206 106.177 154.195 106.137 154.174C106.096 154.153 106.061 154.124 106.034 154.087C105.991 154.026 105.974 153.95 105.985 153.876C105.997 153.802 106.037 153.735 106.097 153.69L107.483 152.684C107.513 152.662 107.547 152.646 107.583 152.637C107.62 152.629 107.658 152.627 107.694 152.633C107.731 152.639 107.767 152.652 107.799 152.671C107.831 152.691 107.858 152.716 107.88 152.747C107.923 152.808 107.941 152.884 107.929 152.958C107.918 153.032 107.878 153.099 107.818 153.144L106.432 154.15C106.384 154.184 106.327 154.204 106.267 154.206Z" fill="#263238"/>
<path d="M109.954 151.52C109.909 151.518 109.866 151.507 109.826 151.486C109.787 151.465 109.753 151.436 109.726 151.4C109.704 151.37 109.688 151.336 109.68 151.3C109.671 151.263 109.669 151.226 109.675 151.189C109.681 151.152 109.694 151.116 109.713 151.084C109.733 151.053 109.759 151.025 109.789 151.003L110.476 150.503C110.51 150.478 110.549 150.461 110.59 150.453C110.631 150.445 110.674 150.447 110.715 150.458L111.538 150.668C111.614 150.687 111.678 150.735 111.718 150.801C111.758 150.868 111.77 150.947 111.751 151.023C111.732 151.098 111.684 151.163 111.618 151.203C111.551 151.243 111.472 151.255 111.396 151.236L110.703 151.06L110.135 151.48C110.08 151.512 110.017 151.526 109.954 151.52Z" fill="#263238"/>
<path d="M173.331 167.197H173.286L171.672 166.782C171.597 166.763 171.532 166.715 171.492 166.649C171.452 166.582 171.441 166.502 171.459 166.427C171.478 166.352 171.526 166.287 171.593 166.247C171.659 166.207 171.739 166.195 171.814 166.214L173.382 166.617C173.43 166.618 173.477 166.631 173.519 166.655C173.561 166.679 173.596 166.713 173.621 166.754C173.641 166.783 173.655 166.817 173.662 166.853C173.669 166.888 173.668 166.924 173.66 166.96C173.652 166.995 173.637 167.028 173.616 167.057C173.594 167.086 173.567 167.11 173.535 167.128C173.473 167.166 173.403 167.19 173.331 167.197ZM168.98 166.061H168.906L167.248 165.635C167.21 165.625 167.175 165.609 167.144 165.586C167.114 165.563 167.087 165.534 167.068 165.501C167.048 165.468 167.035 165.432 167.029 165.394C167.023 165.356 167.025 165.317 167.035 165.28C167.044 165.242 167.061 165.207 167.083 165.176C167.106 165.145 167.135 165.119 167.168 165.1C167.201 165.08 167.238 165.067 167.276 165.061C167.314 165.055 167.352 165.057 167.39 165.067L169.048 165.493C169.124 165.502 169.192 165.54 169.239 165.6C169.286 165.66 169.307 165.735 169.298 165.811C169.289 165.886 169.251 165.955 169.191 166.002C169.131 166.048 169.055 166.07 168.98 166.061ZM175.876 165.748C175.824 165.749 175.774 165.736 175.73 165.71C175.686 165.684 175.65 165.646 175.626 165.601C175.59 165.535 175.582 165.458 175.602 165.386C175.622 165.314 175.669 165.252 175.734 165.214L177.216 164.362C177.283 164.325 177.361 164.316 177.434 164.336C177.507 164.356 177.57 164.404 177.608 164.47C177.645 164.536 177.654 164.613 177.634 164.686C177.614 164.758 177.566 164.819 177.5 164.856L176.018 165.708C175.975 165.736 175.926 165.754 175.876 165.76V165.748ZM164.555 164.919H164.482L162.823 164.493C162.748 164.474 162.683 164.426 162.643 164.36C162.603 164.293 162.591 164.213 162.61 164.138C162.629 164.063 162.677 163.998 162.743 163.958C162.81 163.918 162.89 163.906 162.965 163.925L164.624 164.351C164.699 164.36 164.768 164.399 164.814 164.458C164.861 164.518 164.882 164.594 164.873 164.669C164.864 164.744 164.826 164.813 164.766 164.86C164.707 164.907 164.631 164.928 164.555 164.919ZM160.131 163.783H160.057L158.398 163.357C158.326 163.337 158.264 163.29 158.226 163.225C158.188 163.16 158.176 163.083 158.194 163.01C158.203 162.974 158.219 162.94 158.242 162.91C158.264 162.88 158.292 162.855 158.325 162.836C158.357 162.817 158.392 162.805 158.429 162.8C158.466 162.794 158.504 162.797 158.54 162.806L160.199 163.232C160.274 163.241 160.343 163.28 160.39 163.339C160.437 163.399 160.458 163.475 160.449 163.55C160.44 163.625 160.401 163.694 160.341 163.741C160.282 163.788 160.206 163.809 160.131 163.8V163.783ZM179.84 163.482C179.789 163.483 179.739 163.469 179.695 163.443C179.65 163.417 179.614 163.379 179.59 163.334C179.554 163.269 179.544 163.191 179.564 163.119C179.585 163.046 179.633 162.985 179.698 162.948L181.181 162.096C181.213 162.077 181.25 162.065 181.287 162.06C181.325 162.055 181.363 162.057 181.399 162.067C181.436 162.077 181.47 162.095 181.5 162.118C181.53 162.142 181.554 162.171 181.573 162.204C181.608 162.27 181.616 162.347 181.596 162.419C181.576 162.491 181.529 162.552 181.465 162.59L179.977 163.442C179.936 163.469 179.889 163.484 179.84 163.488V163.482ZM155.706 162.641H155.638L153.979 162.215C153.943 162.206 153.909 162.19 153.879 162.167C153.849 162.145 153.824 162.117 153.805 162.084C153.786 162.052 153.774 162.017 153.768 161.98C153.763 161.943 153.765 161.905 153.775 161.869C153.783 161.832 153.799 161.798 153.821 161.767C153.844 161.737 153.872 161.712 153.904 161.693C153.937 161.673 153.973 161.661 154.01 161.656C154.047 161.651 154.085 161.654 154.121 161.664L155.78 162.09C155.817 162.095 155.853 162.107 155.886 162.126C155.918 162.145 155.947 162.17 155.97 162.2C155.993 162.229 156.01 162.263 156.019 162.3C156.029 162.336 156.032 162.374 156.027 162.411C156.022 162.449 156.01 162.485 155.991 162.517C155.972 162.55 155.947 162.578 155.918 162.601C155.888 162.624 155.854 162.641 155.817 162.651C155.781 162.661 155.743 162.663 155.706 162.658V162.641ZM151.281 161.505H151.213L149.554 161.079C149.479 161.06 149.414 161.012 149.374 160.946C149.335 160.879 149.323 160.8 149.341 160.724C149.36 160.649 149.408 160.584 149.475 160.544C149.541 160.504 149.621 160.492 149.696 160.511L151.355 160.937C151.392 160.942 151.428 160.954 151.461 160.973C151.494 160.992 151.522 161.017 151.545 161.047C151.568 161.076 151.585 161.11 151.595 161.147C151.604 161.183 151.607 161.221 151.602 161.258C151.597 161.295 151.585 161.331 151.566 161.364C151.548 161.397 151.523 161.425 151.493 161.448C151.463 161.471 151.429 161.488 151.393 161.498C151.356 161.508 151.319 161.51 151.281 161.505ZM183.799 161.216C183.749 161.215 183.7 161.201 183.657 161.175C183.614 161.149 183.579 161.112 183.555 161.068C183.518 161.003 183.508 160.926 183.527 160.854C183.546 160.781 183.593 160.72 183.657 160.682L185.145 159.83C185.178 159.811 185.213 159.798 185.251 159.794C185.288 159.789 185.325 159.791 185.361 159.801C185.398 159.812 185.431 159.829 185.46 159.852C185.49 159.876 185.514 159.905 185.532 159.938C185.551 159.97 185.563 160.005 185.569 160.042C185.574 160.079 185.572 160.116 185.562 160.152C185.553 160.188 185.536 160.222 185.513 160.252C185.49 160.281 185.462 160.306 185.429 160.324L183.941 161.176C183.898 161.2 183.849 161.214 183.799 161.216ZM146.879 160.364H146.811L145.152 159.938C145.077 159.919 145.012 159.871 144.972 159.804C144.933 159.738 144.921 159.658 144.939 159.583C144.958 159.507 145.006 159.443 145.073 159.403C145.139 159.363 145.219 159.351 145.294 159.37L146.953 159.796C147.028 159.805 147.097 159.845 147.143 159.905C147.189 159.965 147.21 160.041 147.2 160.117C147.19 160.192 147.151 160.26 147.091 160.307C147.031 160.353 146.955 160.373 146.879 160.364ZM142.46 159.228H142.386L140.728 158.802C140.652 158.783 140.588 158.735 140.548 158.668C140.508 158.602 140.496 158.522 140.515 158.447C140.534 158.371 140.582 158.307 140.648 158.267C140.715 158.227 140.794 158.215 140.87 158.234L142.528 158.66C142.566 158.664 142.602 158.676 142.634 158.694C142.667 158.713 142.696 158.737 142.719 158.767C142.742 158.796 142.76 158.83 142.77 158.866C142.78 158.903 142.783 158.94 142.778 158.978C142.774 159.015 142.762 159.051 142.744 159.084C142.725 159.117 142.701 159.145 142.671 159.169C142.641 159.192 142.608 159.209 142.571 159.219C142.535 159.229 142.497 159.232 142.46 159.228ZM187.787 158.949C187.736 158.949 187.687 158.935 187.644 158.909C187.601 158.883 187.566 158.846 187.542 158.802C187.523 158.77 187.511 158.734 187.505 158.697C187.5 158.66 187.502 158.623 187.512 158.587C187.521 158.551 187.538 158.517 187.561 158.488C187.584 158.458 187.612 158.434 187.645 158.415L189.133 157.563C189.165 157.544 189.201 157.532 189.238 157.527C189.275 157.522 189.313 157.525 189.349 157.535C189.385 157.545 189.419 157.562 189.448 157.586C189.477 157.609 189.501 157.638 189.519 157.671C189.538 157.703 189.551 157.739 189.556 157.776C189.561 157.812 189.559 157.85 189.55 157.886C189.54 157.922 189.523 157.956 189.501 157.985C189.478 158.015 189.449 158.039 189.417 158.058L187.929 158.91C187.878 158.936 187.821 158.948 187.764 158.944L187.787 158.949ZM138.024 158.08H137.95L136.292 157.654C136.216 157.635 136.152 157.587 136.112 157.521C136.072 157.454 136.06 157.375 136.079 157.299C136.098 157.224 136.146 157.159 136.212 157.119C136.279 157.079 136.358 157.067 136.434 157.086L138.092 157.512C138.168 157.521 138.236 157.56 138.283 157.62C138.33 157.679 138.351 157.755 138.342 157.83C138.333 157.906 138.295 157.974 138.235 158.021C138.175 158.068 138.099 158.089 138.024 158.08ZM133.599 156.944H133.526L131.867 156.518C131.795 156.498 131.733 156.451 131.695 156.386C131.657 156.322 131.645 156.245 131.662 156.172C131.672 156.136 131.688 156.102 131.711 156.072C131.733 156.042 131.761 156.017 131.793 155.998C131.825 155.979 131.861 155.966 131.898 155.961C131.935 155.956 131.973 155.958 132.009 155.967L133.668 156.393C133.743 156.402 133.812 156.441 133.858 156.501C133.905 156.56 133.926 156.636 133.917 156.711C133.908 156.787 133.87 156.855 133.81 156.902C133.751 156.949 133.675 156.97 133.599 156.961V156.944ZM191.74 156.677C191.69 156.677 191.64 156.663 191.597 156.637C191.554 156.611 191.519 156.574 191.496 156.53C191.476 156.498 191.464 156.462 191.459 156.425C191.453 156.388 191.455 156.351 191.465 156.315C191.475 156.279 191.491 156.245 191.514 156.216C191.537 156.186 191.565 156.162 191.598 156.143L193.086 155.291C193.118 155.272 193.154 155.26 193.191 155.255C193.228 155.25 193.266 155.253 193.302 155.263C193.338 155.273 193.372 155.29 193.401 155.314C193.43 155.337 193.455 155.366 193.472 155.399C193.491 155.431 193.504 155.467 193.509 155.504C193.515 155.54 193.512 155.578 193.503 155.614C193.493 155.65 193.477 155.684 193.454 155.713C193.431 155.743 193.403 155.767 193.37 155.786L191.882 156.638C191.834 156.662 191.782 156.673 191.729 156.672L191.74 156.677ZM129.163 155.797H129.095L127.431 155.371C127.359 155.351 127.297 155.303 127.26 155.238C127.223 155.174 127.213 155.097 127.232 155.024C127.241 154.988 127.256 154.954 127.278 154.925C127.3 154.895 127.328 154.87 127.36 154.851C127.391 154.832 127.427 154.819 127.463 154.814C127.5 154.808 127.537 154.811 127.573 154.82L129.237 155.246C129.274 155.251 129.31 155.263 129.343 155.282C129.376 155.3 129.404 155.325 129.427 155.355C129.45 155.385 129.467 155.419 129.477 155.455C129.487 155.492 129.489 155.53 129.484 155.567C129.479 155.604 129.467 155.64 129.448 155.673C129.43 155.705 129.405 155.734 129.375 155.757C129.345 155.78 129.311 155.797 129.275 155.806C129.238 155.816 129.201 155.819 129.163 155.814V155.797ZM124.739 154.661H124.67L123.012 154.235C122.937 154.216 122.872 154.168 122.832 154.101C122.792 154.035 122.78 153.955 122.799 153.88C122.818 153.805 122.866 153.74 122.932 153.7C122.999 153.66 123.079 153.648 123.154 153.667L124.812 154.093C124.888 154.103 124.956 154.142 125.002 154.202C125.049 154.262 125.069 154.338 125.059 154.414C125.05 154.489 125.01 154.557 124.95 154.604C124.89 154.65 124.814 154.671 124.739 154.661ZM195.693 154.405C195.643 154.405 195.594 154.391 195.551 154.365C195.508 154.339 195.472 154.302 195.449 154.258C195.43 154.226 195.417 154.19 195.412 154.153C195.407 154.116 195.409 154.079 195.418 154.043C195.428 154.007 195.445 153.973 195.467 153.944C195.49 153.914 195.519 153.89 195.551 153.871L197.039 153.019C197.072 152.999 197.108 152.985 197.146 152.978C197.184 152.972 197.223 152.974 197.261 152.983C197.298 152.993 197.334 153.01 197.364 153.033C197.395 153.056 197.421 153.086 197.439 153.119C197.458 153.153 197.47 153.19 197.474 153.229C197.479 153.267 197.475 153.306 197.463 153.343C197.452 153.38 197.433 153.414 197.408 153.443C197.383 153.472 197.352 153.496 197.318 153.514L195.835 154.366C195.791 154.387 195.742 154.399 195.693 154.4V154.405ZM120.314 153.519H120.246L118.587 153.093C118.512 153.074 118.447 153.026 118.407 152.96C118.367 152.893 118.355 152.814 118.374 152.738C118.393 152.663 118.441 152.598 118.508 152.558C118.574 152.518 118.654 152.506 118.729 152.525L120.388 152.951C120.425 152.956 120.461 152.968 120.494 152.987C120.526 153.006 120.555 153.031 120.578 153.06C120.601 153.09 120.617 153.124 120.627 153.161C120.637 153.197 120.64 153.235 120.635 153.272C120.63 153.309 120.618 153.345 120.599 153.378C120.58 153.411 120.555 153.439 120.525 153.462C120.496 153.485 120.462 153.502 120.425 153.512C120.389 153.521 120.351 153.524 120.314 153.519ZM115.895 152.383H115.821L114.162 151.957C114.087 151.938 114.022 151.89 113.982 151.824C113.942 151.757 113.931 151.678 113.949 151.602C113.968 151.527 114.016 151.462 114.083 151.422C114.149 151.382 114.229 151.37 114.304 151.389L115.963 151.815C116.038 151.824 116.107 151.863 116.154 151.922C116.201 151.982 116.222 152.058 116.213 152.133C116.204 152.209 116.165 152.277 116.106 152.324C116.046 152.371 115.97 152.392 115.895 152.383ZM199.658 152.139C199.607 152.14 199.556 152.126 199.512 152.1C199.468 152.074 199.432 152.037 199.408 151.991C199.373 151.925 199.364 151.848 199.384 151.776C199.404 151.704 199.451 151.643 199.516 151.605L201.004 150.753C201.036 150.734 201.072 150.722 201.109 150.717C201.146 150.712 201.184 150.715 201.22 150.725C201.256 150.735 201.29 150.752 201.319 150.776C201.348 150.799 201.372 150.828 201.39 150.861C201.427 150.927 201.436 151.004 201.416 151.076C201.396 151.149 201.348 151.21 201.282 151.247L199.8 152.099C199.755 152.119 199.707 152.129 199.658 152.128V152.139ZM203.634 149.867C203.583 149.868 203.532 149.854 203.488 149.828C203.444 149.802 203.408 149.765 203.384 149.719C203.347 149.654 203.338 149.576 203.358 149.504C203.378 149.431 203.426 149.37 203.492 149.333L204.974 148.481C205.007 148.462 205.043 148.45 205.08 148.446C205.117 148.441 205.154 148.443 205.191 148.453C205.227 148.463 205.261 148.48 205.29 148.502C205.32 148.525 205.345 148.554 205.363 148.586C205.382 148.619 205.394 148.654 205.399 148.691C205.404 148.729 205.401 148.766 205.391 148.802C205.382 148.839 205.365 148.872 205.342 148.902C205.319 148.932 205.291 148.957 205.258 148.975L203.77 149.827C203.724 149.849 203.673 149.859 203.622 149.856L203.634 149.867ZM207.61 147.595C207.56 147.595 207.51 147.581 207.467 147.555C207.424 147.529 207.389 147.492 207.366 147.447C207.328 147.382 207.318 147.305 207.337 147.233C207.356 147.161 207.403 147.099 207.468 147.061L208.956 146.209C208.988 146.19 209.024 146.178 209.061 146.173C209.098 146.168 209.136 146.171 209.172 146.181C209.208 146.191 209.242 146.208 209.271 146.232C209.3 146.255 209.324 146.284 209.342 146.317C209.361 146.349 209.374 146.384 209.379 146.421C209.385 146.458 209.382 146.496 209.373 146.532C209.363 146.568 209.347 146.601 209.324 146.631C209.301 146.66 209.272 146.685 209.24 146.703L207.752 147.555C207.699 147.58 207.64 147.59 207.581 147.584L207.61 147.595ZM211.586 145.323C211.536 145.323 211.486 145.309 211.443 145.283C211.4 145.257 211.365 145.22 211.342 145.175C211.322 145.143 211.31 145.108 211.304 145.071C211.299 145.034 211.301 144.997 211.311 144.961C211.32 144.925 211.337 144.891 211.36 144.861C211.383 144.832 211.411 144.807 211.444 144.789L212.932 143.937C212.964 143.918 213 143.906 213.037 143.901C213.074 143.896 213.112 143.899 213.148 143.909C213.184 143.919 213.218 143.936 213.247 143.96C213.276 143.983 213.3 144.012 213.318 144.045C213.337 144.077 213.35 144.112 213.355 144.149C213.361 144.186 213.358 144.224 213.349 144.26C213.339 144.296 213.323 144.329 213.3 144.359C213.277 144.388 213.248 144.413 213.216 144.431L211.728 145.283C211.671 145.311 211.608 145.321 211.546 145.312L211.586 145.323ZM215.562 143.051C215.512 143.051 215.462 143.037 215.419 143.011C215.376 142.985 215.341 142.948 215.318 142.903C215.298 142.871 215.286 142.836 215.28 142.799C215.275 142.762 215.277 142.725 215.287 142.689C215.296 142.653 215.313 142.619 215.336 142.589C215.359 142.56 215.387 142.535 215.42 142.517L216.908 141.665C216.94 141.646 216.976 141.634 217.013 141.63C217.05 141.625 217.088 141.627 217.124 141.637C217.16 141.647 217.194 141.664 217.224 141.686C217.254 141.709 217.278 141.738 217.297 141.77C217.316 141.803 217.328 141.838 217.333 141.875C217.337 141.913 217.335 141.95 217.325 141.986C217.315 142.023 217.299 142.056 217.276 142.086C217.253 142.116 217.224 142.141 217.192 142.159L215.704 143.011C215.644 143.041 215.576 143.051 215.511 143.04L215.562 143.051ZM219.538 140.779C219.488 140.779 219.438 140.765 219.395 140.739C219.352 140.713 219.317 140.676 219.294 140.631C219.274 140.599 219.262 140.564 219.256 140.527C219.251 140.49 219.253 140.453 219.263 140.417C219.272 140.381 219.289 140.347 219.312 140.317C219.335 140.288 219.363 140.263 219.396 140.245L220.884 139.393C220.917 139.372 220.953 139.358 220.991 139.352C221.029 139.346 221.068 139.348 221.106 139.357C221.143 139.366 221.178 139.383 221.209 139.407C221.24 139.43 221.265 139.459 221.284 139.493C221.303 139.527 221.315 139.564 221.319 139.602C221.323 139.641 221.319 139.679 221.308 139.716C221.297 139.753 221.278 139.787 221.253 139.817C221.228 139.846 221.197 139.87 221.162 139.887L219.68 140.739C219.616 140.77 219.545 140.78 219.475 140.768L219.538 140.779ZM223.514 138.507C223.463 138.507 223.413 138.493 223.369 138.467C223.325 138.441 223.288 138.404 223.264 138.359C223.229 138.293 223.22 138.216 223.24 138.144C223.26 138.072 223.307 138.011 223.372 137.973L224.86 137.121C224.892 137.102 224.928 137.09 224.965 137.085C225.002 137.08 225.04 137.083 225.076 137.093C225.112 137.103 225.146 137.12 225.175 137.144C225.204 137.167 225.228 137.196 225.246 137.229C225.283 137.295 225.292 137.372 225.272 137.444C225.252 137.517 225.204 137.578 225.138 137.615L223.656 138.467C223.589 138.5 223.513 138.51 223.44 138.496L223.514 138.507ZM227.49 136.235C227.439 136.236 227.388 136.222 227.344 136.196C227.3 136.17 227.264 136.133 227.24 136.087C227.203 136.022 227.194 135.944 227.214 135.872C227.234 135.799 227.282 135.738 227.348 135.701L228.83 134.849C228.863 134.83 228.899 134.818 228.937 134.813C228.974 134.808 229.012 134.81 229.049 134.82C229.085 134.83 229.12 134.848 229.149 134.871C229.179 134.895 229.204 134.924 229.222 134.957C229.257 135.023 229.266 135.1 229.246 135.172C229.226 135.244 229.179 135.305 229.114 135.343L227.626 136.195C227.593 136.214 227.556 136.227 227.518 136.232C227.48 136.236 227.442 136.234 227.405 136.224L227.49 136.235ZM231.466 133.963C231.416 133.963 231.366 133.949 231.323 133.923C231.28 133.897 231.245 133.86 231.222 133.815C231.185 133.75 231.175 133.672 231.196 133.6C231.216 133.527 231.264 133.466 231.329 133.429L232.812 132.577C232.844 132.558 232.88 132.546 232.917 132.541C232.954 132.536 232.992 132.539 233.028 132.549C233.064 132.559 233.098 132.576 233.127 132.6C233.156 132.623 233.18 132.652 233.198 132.685C233.217 132.717 233.23 132.752 233.235 132.789C233.241 132.826 233.238 132.864 233.229 132.9C233.219 132.936 233.203 132.969 233.18 132.999C233.157 133.028 233.128 133.053 233.096 133.071L231.608 133.923C231.571 133.944 231.531 133.958 231.489 133.962C231.447 133.967 231.404 133.964 231.364 133.952L231.466 133.963Z" fill="#263238"/>
<path d="M235.328 131.68C235.278 131.679 235.229 131.665 235.186 131.639C235.143 131.613 235.107 131.576 235.084 131.532C235.065 131.5 235.052 131.465 235.047 131.428C235.041 131.391 235.044 131.353 235.053 131.317C235.063 131.281 235.079 131.247 235.102 131.218C235.125 131.188 235.154 131.164 235.186 131.146L235.93 130.725C235.962 130.707 235.998 130.695 236.034 130.691C236.071 130.686 236.108 130.689 236.144 130.698C236.179 130.708 236.213 130.725 236.242 130.748C236.271 130.77 236.295 130.798 236.314 130.83C236.332 130.862 236.344 130.898 236.348 130.934C236.353 130.971 236.35 131.008 236.34 131.044C236.331 131.079 236.314 131.113 236.291 131.142C236.269 131.171 236.241 131.196 236.208 131.214L235.47 131.64C235.427 131.664 235.378 131.678 235.328 131.68Z" fill="#263238"/>
<path d="M50.2623 196.386C50.2623 196.848 50.1253 197.3 49.8685 197.684C49.6118 198.068 49.2468 198.367 48.8199 198.544C48.393 198.72 47.9233 198.766 47.4703 198.675C47.0173 198.585 46.6014 198.362 46.2751 198.035C45.9489 197.708 45.727 197.291 45.6376 196.838C45.5481 196.385 45.5952 195.915 45.7727 195.489C45.9503 195.062 46.2504 194.698 46.635 194.442C47.0197 194.187 47.4716 194.051 47.9335 194.052C48.5517 194.053 49.144 194.3 49.5806 194.738C50.0172 195.175 50.2624 195.768 50.2623 196.386Z" fill="white"/>
<path d="M47.9336 198.999C47.4152 199 46.9082 198.847 46.4767 198.56C46.0452 198.273 45.7087 197.864 45.5099 197.385C45.311 196.906 45.2586 196.379 45.3595 195.871C45.4603 195.363 45.7098 194.895 46.0764 194.529C46.4429 194.162 46.91 193.913 47.4185 193.812C47.9269 193.711 48.4539 193.763 48.9326 193.962C49.4113 194.161 49.8202 194.498 50.1075 194.929C50.3948 195.361 50.5475 195.868 50.5464 196.386C50.5434 197.078 50.2672 197.741 49.7778 198.23C49.2885 198.72 48.6256 198.996 47.9336 198.999ZM47.9336 194.336C47.5278 194.335 47.1308 194.454 46.7929 194.678C46.4549 194.903 46.1912 195.223 46.0352 195.597C45.8791 195.972 45.8377 196.385 45.9162 196.783C45.9946 197.181 46.1895 197.547 46.476 197.834C46.7625 198.121 47.1279 198.317 47.5258 198.397C47.9237 198.476 48.3363 198.436 48.7113 198.281C49.0863 198.126 49.4069 197.863 49.6324 197.526C49.858 197.189 49.9784 196.792 49.9784 196.386C49.9784 195.843 49.7631 195.323 49.3798 194.938C48.9965 194.554 48.4764 194.337 47.9336 194.336Z" fill="#263238"/>
<path d="M110.646 153.059C111.933 153.059 112.975 152.016 112.975 150.73C112.975 149.444 111.933 148.401 110.646 148.401C109.36 148.401 108.318 149.444 108.318 150.73C108.318 152.016 109.36 153.059 110.646 153.059Z" fill="white"/>
<path d="M110.647 153.36C110.128 153.361 109.622 153.208 109.19 152.921C108.759 152.634 108.422 152.226 108.223 151.747C108.024 151.269 107.972 150.742 108.072 150.234C108.172 149.726 108.421 149.259 108.787 148.892C109.153 148.525 109.62 148.275 110.128 148.174C110.636 148.072 111.163 148.124 111.642 148.322C112.12 148.52 112.53 148.855 112.818 149.286C113.106 149.717 113.259 150.223 113.259 150.742C113.258 151.435 112.982 152.099 112.493 152.589C112.003 153.08 111.34 153.357 110.647 153.36ZM110.647 148.697C110.24 148.696 109.843 148.815 109.505 149.04C109.167 149.265 108.903 149.585 108.748 149.96C108.592 150.335 108.551 150.748 108.629 151.146C108.708 151.544 108.904 151.91 109.191 152.197C109.478 152.484 109.844 152.68 110.242 152.759C110.64 152.837 111.053 152.796 111.428 152.64C111.803 152.485 112.123 152.221 112.348 151.883C112.573 151.545 112.692 151.148 112.691 150.742C112.692 150.472 112.64 150.205 112.537 149.956C112.435 149.707 112.285 149.481 112.095 149.29C111.905 149.099 111.679 148.947 111.431 148.844C111.182 148.74 110.916 148.686 110.647 148.685V148.697Z" fill="#263238"/>
<path d="M173.354 169.247C174.64 169.247 175.682 168.204 175.682 166.918C175.682 165.632 174.64 164.589 173.354 164.589C172.068 164.589 171.025 165.632 171.025 166.918C171.025 168.204 172.068 169.247 173.354 169.247Z" fill="white"/>
<path d="M173.359 169.531C172.841 169.532 172.334 169.379 171.902 169.092C171.471 168.805 171.134 168.396 170.936 167.917C170.737 167.438 170.684 166.911 170.785 166.403C170.886 165.895 171.135 165.427 171.502 165.061C171.869 164.694 172.336 164.445 172.844 164.344C173.353 164.243 173.88 164.295 174.358 164.494C174.837 164.693 175.246 165.03 175.533 165.461C175.82 165.893 175.973 166.4 175.972 166.918C175.969 167.61 175.693 168.273 175.203 168.762C174.714 169.252 174.051 169.528 173.359 169.531ZM173.359 164.868C172.953 164.867 172.556 164.986 172.219 165.21C171.881 165.435 171.617 165.755 171.461 166.129C171.305 166.504 171.263 166.916 171.342 167.315C171.42 167.713 171.615 168.079 171.902 168.366C172.188 168.653 172.554 168.849 172.951 168.929C173.349 169.008 173.762 168.968 174.137 168.813C174.512 168.658 174.833 168.395 175.058 168.058C175.284 167.721 175.404 167.324 175.404 166.918C175.404 166.375 175.189 165.855 174.805 165.47C174.422 165.086 173.902 164.869 173.359 164.868Z" fill="#263238"/>
<path d="M236.067 133.298C237.353 133.298 238.395 132.256 238.395 130.969C238.395 129.683 237.353 128.641 236.067 128.641C234.78 128.641 233.738 129.683 233.738 130.969C233.738 132.256 234.78 133.298 236.067 133.298Z" fill="white"/>
<path d="M236.066 133.582C235.55 133.581 235.045 133.427 234.616 133.139C234.187 132.851 233.853 132.443 233.657 131.965C233.46 131.488 233.409 130.963 233.51 130.456C233.612 129.95 233.861 129.485 234.227 129.12C234.592 128.755 235.058 128.507 235.565 128.406C236.071 128.306 236.596 128.358 237.073 128.556C237.55 128.754 237.958 129.089 238.245 129.518C238.532 129.948 238.685 130.453 238.685 130.969C238.683 131.663 238.407 132.328 237.916 132.817C237.425 133.307 236.76 133.582 236.066 133.582ZM236.066 128.925C235.662 128.926 235.268 129.047 234.932 129.272C234.596 129.497 234.335 129.817 234.181 130.191C234.027 130.565 233.988 130.976 234.067 131.372C234.147 131.768 234.342 132.132 234.628 132.417C234.914 132.703 235.279 132.897 235.675 132.975C236.072 133.054 236.483 133.013 236.856 132.858C237.229 132.703 237.548 132.441 237.773 132.105C237.997 131.769 238.117 131.374 238.117 130.969C238.114 130.428 237.896 129.91 237.512 129.529C237.128 129.148 236.608 128.935 236.066 128.936V128.925Z" fill="#263238"/>
</svg>
