<svg width="284" height="284" viewBox="0 0 284 284" fill="none" xmlns="http://www.w3.org/2000/svg">
<path d="M284 217.203H0V217.345H284V217.203Z" fill="#EBEBEB"/>
<path d="M255.543 222.611H240.775V222.753H255.543V222.611Z" fill="#EBEBEB"/>
<path d="M202.225 221.071H171.496V221.213H202.225V221.071Z" fill="#EBEBEB"/>
<path d="M245.376 227.887H225.263V228.029H245.376V227.887Z" fill="#EBEBEB"/>
<path d="M43.2532 226.933H29.7972V227.075H43.2532V226.933Z" fill="#EBEBEB"/>
<path d="M62.9855 226.933H48.3083V227.075H62.9855V226.933Z" fill="#EBEBEB"/>
<path d="M150.6 224.536H119.609V224.678H150.6V224.536Z" fill="#EBEBEB"/>
<path d="M134.616 191.87H24.9408C24.0817 191.869 23.2582 191.527 22.6512 190.918C22.0442 190.31 21.7032 189.486 21.7032 188.627V34.4549C21.7107 33.6006 22.0549 32.7838 22.6611 32.1819C23.2673 31.5799 24.0866 31.2415 24.9408 31.24H134.616C135.476 31.24 136.301 31.5817 136.909 32.1899C137.518 32.7982 137.859 33.6231 137.859 34.4833V188.627C137.859 189.487 137.518 190.312 136.909 190.92C136.301 191.529 135.476 191.87 134.616 191.87ZM24.9408 31.3536C24.1193 31.3551 23.332 31.6825 22.7516 32.2639C22.1712 32.8454 21.8452 33.6333 21.8452 34.4549V188.627C21.8452 189.449 22.1712 190.237 22.7516 190.818C23.332 191.399 24.1193 191.727 24.9408 191.728H134.616C135.438 191.727 136.226 191.4 136.807 190.818C137.389 190.237 137.716 189.449 137.717 188.627V34.4549C137.716 33.6328 137.389 32.8449 136.807 32.2636C136.226 31.6823 135.438 31.3551 134.616 31.3536H24.9408Z" fill="#EBEBEB"/>
<path d="M257.48 191.87H147.799C146.94 191.869 146.116 191.527 145.508 190.919C144.9 190.311 144.558 189.487 144.556 188.627V34.4549C144.565 33.6001 144.91 32.7833 145.518 32.1815C146.125 31.5797 146.944 31.2414 147.799 31.24H257.48C258.333 31.2429 259.151 31.5821 259.756 32.1839C260.361 32.7856 260.705 33.6016 260.712 34.4549V188.627C260.712 189.485 260.372 190.309 259.766 190.916C259.16 191.524 258.338 191.867 257.48 191.87ZM147.799 31.3536C146.977 31.3551 146.189 31.6823 145.608 32.2636C145.027 32.8449 144.7 33.6328 144.698 34.4549V188.627C144.7 189.449 145.027 190.237 145.608 190.818C146.189 191.4 146.977 191.727 147.799 191.728H257.48C258.302 191.727 259.09 191.4 259.671 190.818C260.253 190.237 260.58 189.449 260.581 188.627V34.4549C260.58 33.6328 260.253 32.8449 259.671 32.2636C259.09 31.6823 258.302 31.3551 257.48 31.3536H147.799Z" fill="#EBEBEB"/>
<path d="M70.4093 214.312H77.3616L77.3616 130.765H70.4093L70.4093 214.312Z" fill="#F0F0F0"/>
<path d="M37.0108 217.192H75.5212V214.312H37.0108V217.192Z" fill="#F0F0F0"/>
<path d="M70.4092 130.765H35.1819V214.312H70.4092V130.765Z" fill="#F5F5F5"/>
<path d="M66.6548 174.268H38.9364V189.184H66.6548V174.268Z" fill="#F0F0F0"/>
<path d="M66.6548 193.796H38.9364V208.712H66.6548V193.796Z" fill="#F0F0F0"/>
<path d="M48.8991 182.754H56.6864C57.1413 182.754 57.51 182.385 57.51 181.93V181.533C57.51 181.078 57.1413 180.709 56.6864 180.709H48.8991C48.4443 180.709 48.0755 181.078 48.0755 181.533V181.93C48.0755 182.385 48.4443 182.754 48.8991 182.754Z" fill="#F5F5F5"/>
<path d="M48.8991 202.276H56.6864C57.1413 202.276 57.51 201.907 57.51 201.453V201.055C57.51 200.6 57.1413 200.231 56.6864 200.231H48.8991C48.4443 200.231 48.0755 200.6 48.0755 201.055V201.453C48.0755 201.907 48.4443 202.276 48.8991 202.276Z" fill="#F5F5F5"/>
<path d="M66.6548 135.371H38.9364V150.287H66.6548V135.371Z" fill="#F0F0F0"/>
<path d="M66.6548 154.746H38.9364V169.662H66.6548V154.746Z" fill="#F0F0F0"/>
<path d="M48.8991 143.857H56.6864C57.1413 143.857 57.51 143.489 57.51 143.034V142.636C57.51 142.181 57.1413 141.813 56.6864 141.813H48.8991C48.4443 141.813 48.0755 142.181 48.0755 142.636V143.034C48.0755 143.489 48.4443 143.857 48.8991 143.857Z" fill="#F5F5F5"/>
<path d="M48.8991 163.226H56.6864C57.1413 163.226 57.51 162.857 57.51 162.402V162.005C57.51 161.55 57.1413 161.181 56.6864 161.181H48.8991C48.4443 161.181 48.0755 161.55 48.0755 162.005V162.402C48.0755 162.857 48.4443 163.226 48.8991 163.226Z" fill="#F5F5F5"/>
<path d="M108.959 214.312H129.828V130.765H108.959L108.959 214.312Z" fill="#F0F0F0"/>
<path d="M75.561 217.192H127.686V214.312H75.561V217.192Z" fill="#F0F0F0"/>
<path d="M108.959 130.765H73.7321V214.312H108.959V130.765Z" fill="#F5F5F5"/>
<path d="M105.205 174.268H77.4866V189.184H105.205V174.268Z" fill="#F0F0F0"/>
<path d="M105.205 193.796H77.4866V208.712H105.205V193.796Z" fill="#F0F0F0"/>
<path d="M87.4493 182.754H95.2366C95.6914 182.754 96.0602 182.385 96.0602 181.93V181.533C96.0602 181.078 95.6914 180.709 95.2366 180.709H87.4493C86.9944 180.709 86.6257 181.078 86.6257 181.533V181.93C86.6257 182.385 86.9944 182.754 87.4493 182.754Z" fill="#F5F5F5"/>
<path d="M87.4493 202.276H95.2366C95.6914 202.276 96.0602 201.907 96.0602 201.453V201.055C96.0602 200.6 95.6914 200.231 95.2366 200.231H87.4493C86.9944 200.231 86.6257 200.6 86.6257 201.055V201.453C86.6257 201.907 86.9944 202.276 87.4493 202.276Z" fill="#F5F5F5"/>
<path d="M105.205 135.371H77.4866V150.287H105.205V135.371Z" fill="#F0F0F0"/>
<path d="M105.205 154.746H77.4866V169.662H105.205V154.746Z" fill="#F0F0F0"/>
<path d="M87.4493 143.857H95.2366C95.6914 143.857 96.0602 143.489 96.0602 143.034V142.636C96.0602 142.181 95.6914 141.813 95.2366 141.813H87.4493C86.9944 141.813 86.6257 142.181 86.6257 142.636V143.034C86.6257 143.489 86.9944 143.857 87.4493 143.857Z" fill="#F5F5F5"/>
<path d="M87.4493 163.226H95.2366C95.6914 163.226 96.0602 162.857 96.0602 162.402V162.005C96.0602 161.55 95.6914 161.181 95.2366 161.181H87.4493C86.9944 161.181 86.6257 161.55 86.6257 162.005V162.402C86.6257 162.857 86.9944 163.226 87.4493 163.226Z" fill="#F5F5F5"/>
<path d="M156.013 211.006H243.751L243.751 44.9856H156.013V211.006Z" fill="#E6E6E6"/>
<path d="M154.263 211.006H242.002L242.002 44.9856H154.263V211.006Z" fill="#F5F5F5"/>
<path d="M238.878 207.485V48.5015L157.404 48.5015V207.485H238.878Z" fill="white"/>
<path d="M158.722 207.491V48.5073H157.404V207.491H158.722Z" fill="#E6E6E6"/>
<path d="M155.558 100.065L240.707 100.065V95.3389L155.558 95.3389V100.065Z" fill="#F5F5F5"/>
<path d="M58.5267 111.362H105.745L105.745 41.3504H58.5267L58.5267 111.362Z" fill="#E0E0E0"/>
<path d="M55.6582 111.362H104.836L104.836 41.3504H55.6582L55.6582 111.362Z" fill="#F5F5F5"/>
<path d="M59.7764 46.8712L59.7764 105.847H100.712V46.8712H59.7764Z" fill="white"/>
<path d="M82.769 83.5812C81.4115 84.7172 79.0713 88.1252 73.7605 82.8088C68.4497 77.4923 71.835 75.1578 72.9937 73.806C74.1525 72.4541 68.1317 64.15 65.1269 68.5917C62.1222 73.0335 64.4397 78.3613 71.3295 85.2455C78.2193 92.1297 83.5472 94.4528 87.9776 91.4481C92.408 88.4433 84.1265 82.4282 82.769 83.5812Z" fill="#F5F5F5"/>
<path d="M86.4382 81.826C86.2876 81.826 86.1431 81.7662 86.0366 81.6597C85.9301 81.5532 85.8702 81.4087 85.8702 81.258C85.8672 78.46 84.7544 75.7775 82.7759 73.799C80.7974 71.8205 78.1148 70.7076 75.3168 70.7046C75.1661 70.7046 75.0217 70.6448 74.9151 70.5382C74.8086 70.4317 74.7488 70.2872 74.7488 70.1366C74.7488 69.986 74.8086 69.8415 74.9151 69.735C75.0217 69.6284 75.1661 69.5686 75.3168 69.5686C78.4161 69.5716 81.3876 70.8041 83.5791 72.9957C85.7707 75.1872 87.0032 78.1587 87.0062 81.258C87.0062 81.4087 86.9464 81.5532 86.8398 81.6597C86.7333 81.7662 86.5889 81.826 86.4382 81.826Z" fill="#F5F5F5"/>
<path d="M91.2151 81.1729C91.0645 81.1729 90.92 81.1131 90.8135 81.0066C90.7069 80.9001 90.6471 80.7556 90.6471 80.6049C90.6426 76.7132 89.095 72.982 86.3436 70.2296C83.5923 67.4772 79.8617 65.9281 75.97 65.9221C75.8193 65.9221 75.6749 65.8623 75.5683 65.7558C75.4618 65.6492 75.402 65.5048 75.402 65.3541C75.402 65.2035 75.4618 65.059 75.5683 64.9525C75.6749 64.846 75.8193 64.7861 75.97 64.7861C80.1635 64.7906 84.1838 66.4589 87.1486 69.4247C90.1133 72.3905 91.7801 76.4114 91.7831 80.6049C91.7831 80.7556 91.7233 80.9001 91.6167 81.0066C91.5102 81.1131 91.3657 81.1729 91.2151 81.1729Z" fill="#F5F5F5"/>
<path d="M96.5998 81.2241C96.4491 81.2241 96.3047 81.1642 96.1981 81.0577C96.0916 80.9512 96.0318 80.8067 96.0318 80.6561C96.0243 75.3292 93.9044 70.2227 90.1372 66.4565C86.3699 62.6903 81.2628 60.5719 75.9359 60.5659C75.7853 60.5659 75.6408 60.5061 75.5343 60.3996C75.4278 60.293 75.3679 60.1486 75.3679 59.9979C75.3679 59.8473 75.4278 59.7028 75.5343 59.5963C75.6408 59.4898 75.7853 59.4299 75.9359 59.4299C81.5641 59.4359 86.9602 61.674 90.9405 65.6532C94.9207 69.6324 97.1603 75.0279 97.1678 80.6561C97.1678 80.8067 97.1079 80.9512 97.0014 81.0577C96.8949 81.1642 96.7504 81.2241 96.5998 81.2241Z" fill="#F5F5F5"/>
<path d="M36.3974 97.9572C37.6641 98.4514 41.1118 97.9231 39.9645 99.7294C39.2817 100.702 38.4909 101.593 37.6073 102.388C36.3236 103.614 36.5678 104.944 38.0844 105.426C38.3954 105.508 38.6819 105.664 38.9194 105.881C39.618 106.653 37.9708 107.698 37.1586 108.471C36.3463 109.243 36.0226 110.016 36.6246 110.595C37.2267 111.175 38.6581 110.998 39.7486 111.163C42.3785 111.623 39.6748 114.435 39.9531 115.883C40.1462 116.872 41.18 117.144 42.583 117.286C43.719 117.4 45.2582 117.479 45.3207 118.388C45.3775 119.178 44.0541 120.092 43.7076 120.899C43.5419 121.251 43.478 121.642 43.5231 122.029C43.5683 122.415 43.7208 122.781 43.9632 123.086C44.4886 123.684 45.2171 124.066 46.008 124.159C47.3087 124.375 49.274 124.159 49.3706 125.295C49.4103 125.806 48.9559 126.255 49.274 126.726C49.6748 127.143 50.2192 127.39 50.7962 127.419C52.0445 127.569 53.307 127.552 54.5507 127.368C56.0786 127.152 58.3336 126.107 57.5043 125.096C57.183 124.79 56.7657 124.603 56.3229 124.568C55.9537 124.511 54.8858 124.602 54.7495 124.409C54.6132 124.216 54.9824 123.477 54.9994 123.205C55.0341 122.455 54.8798 121.709 54.5507 121.035C54.0961 120.081 53.4204 119.25 52.5798 118.61C52.2219 118.326 51.6426 118.116 51.5687 117.701C51.4949 117.286 51.83 116.832 52.1992 116.423C52.7672 115.787 53.693 115.179 54.0168 114.497C54.5337 113.424 53.2841 113.083 52.131 112.839C51.0859 112.617 49.7114 112.333 50.0635 111.351C50.3248 110.641 51.4778 110.056 51.8243 109.363C52.2844 108.437 51.1541 108.397 50.3418 108.068C50.1222 108.008 49.919 107.899 49.7474 107.75C49.5758 107.6 49.4404 107.414 49.3513 107.204C49.2622 106.995 49.2217 106.768 49.2329 106.541C49.2441 106.314 49.3067 106.092 49.416 105.892C50.0408 104.285 53.8407 102.013 51.8982 100.973C51.404 100.706 50.9439 100.615 50.6486 100.218C50.3532 99.8202 50.285 99.2579 49.8704 98.8717C49.2172 98.2582 47.8654 98.156 47.1554 97.588C45.707 96.4179 48.8594 94.3447 45.9796 93.8506C45.3897 93.7973 44.8192 93.613 44.3097 93.311C44.0484 93.1235 43.8382 92.209 43.5429 92.1409C42.2308 91.8569 39.8622 93.8449 39.1182 94.447C38.2264 95.1854 34.8809 97.3665 36.3974 97.9572Z" fill="#E0E0E0"/>
<path d="M58.9016 125.21C58.1234 124.074 54.7211 122.972 56.9818 121.671C58.2293 121.018 59.5382 120.489 60.8896 120.092C62.8662 119.45 63.5706 117.974 62.5936 116.747C62.3716 116.506 62.2237 116.206 62.1676 115.883C62.0881 114.747 64.2635 114.48 65.5131 114.071C66.7627 113.662 67.575 113.043 67.45 112.157C67.308 111.186 65.9278 110.766 65.0985 110.044C63.0991 108.301 67.4216 106.722 68.177 105.108C68.6882 104.006 67.9669 103.223 66.8252 102.405C65.8937 101.734 64.5986 100.917 65.1723 99.9566C65.6665 99.1217 67.4443 98.8206 68.3304 98.1617C68.7124 97.8956 69.0268 97.5438 69.2487 97.1346C69.4706 96.7253 69.5938 96.2699 69.6084 95.8045C69.5894 95.4004 69.4813 95.0055 69.2918 94.648C69.1023 94.2906 68.836 93.9795 68.5122 93.737C67.5125 92.8907 65.621 92.1693 66.3254 90.9595C66.6378 90.3915 67.3535 90.1757 67.3932 89.5452C67.3716 89.2525 67.2823 88.9689 67.1325 88.7166C66.9827 88.4643 66.7764 88.2502 66.5299 88.0911C65.5146 87.3341 64.3853 86.7435 63.1843 86.3417C61.6848 85.8248 58.9755 85.8077 59.0152 87.2391C59.0444 87.4607 59.1196 87.6737 59.236 87.8644C59.3524 88.0552 59.5074 88.2194 59.6911 88.3467C59.9751 88.5853 60.9805 89.0056 60.9691 89.2669C60.9578 89.5281 60.1228 90.1132 59.9183 90.4029C59.3818 91.1295 59.0062 91.9621 58.8164 92.8453C58.5625 93.9697 58.5839 95.1389 58.8789 96.2533C59.0039 96.719 59.373 97.2075 59.1515 97.6676C58.7983 98.1563 58.2896 98.5108 57.7088 98.6729C56.7546 99.0421 55.5334 99.2409 54.7722 99.7749C53.5794 100.621 54.4485 101.575 55.2948 102.382C56.1411 103.189 57.084 104.086 56.09 104.898C55.3743 105.5 53.9543 105.54 53.1762 106.085C52.1254 106.812 53.0967 107.397 53.5795 108.124C54.2156 109.073 53.9203 109.988 52.9092 110.805C51.245 112.146 46.3261 112.64 47.3201 114.645C47.5757 115.156 47.8881 115.469 47.8881 116.02C47.8881 116.571 47.5473 117.156 47.6438 117.769C47.7972 118.718 48.9218 119.473 49.149 120.399C49.6262 122.296 45.4286 122.91 47.6098 124.79C48.108 125.127 48.5016 125.597 48.7458 126.147C48.8423 126.465 48.3993 127.505 48.6151 127.715C49.575 128.635 53.0285 127.755 54.102 127.488C55.3743 127.164 59.8331 126.545 58.9016 125.21Z" fill="#E6E6E6"/>
<path d="M63.1389 119.047C63.1389 119.047 62.8378 130.765 51.4097 130.765C39.9815 130.765 39.6862 119.047 39.6862 119.047H63.1389Z" fill="#F0F0F0"/>
<path d="M142 242.854C202.823 242.854 252.13 239.975 252.13 236.424C252.13 232.873 202.823 229.995 142 229.995C81.1771 229.995 31.8705 232.873 31.8705 236.424C31.8705 239.975 81.1771 242.854 142 242.854Z" fill="#F5F5F5"/>
<path d="M111.43 44.4858H110.862C110.858 42.7856 111.206 41.103 111.885 39.5442C112.849 37.3124 114.446 35.4117 116.477 34.0764C118.509 32.7411 120.887 32.0296 123.318 32.0295V32.5975C121 32.601 118.732 33.2803 116.793 34.5524C114.854 35.8245 113.328 37.6342 112.402 39.76C111.755 41.2513 111.424 42.8604 111.43 44.4858Z" fill="#7500B0"/>
<path d="M111.43 48.03H110.862V55.6526H111.43V48.03Z" fill="#7500B0"/>
<path d="M160.221 34.0176H123.324C117.54 34.0176 112.85 38.7069 112.85 44.4915V55.647C112.85 61.4316 117.54 66.1209 123.324 66.1209H160.221C166.006 66.1209 170.695 61.4316 170.695 55.647V44.4915C170.695 38.7069 166.006 34.0176 160.221 34.0176Z" fill="#7500B0"/>
<path d="M148.418 63.7296C152.002 72.1871 161.755 75.4588 167.412 76.1915C161.863 68.4724 162.107 61.6848 162.107 61.6848L148.418 63.7296Z" fill="#7500B0"/>
<path d="M130.788 43.026L125.727 41.7935L122.131 45.5593L123.591 50.5577L128.658 51.7903L132.253 48.0244L130.788 43.026Z" fill="#E0E0E0"/>
<path d="M129.016 42.5944L123.949 41.3618L120.354 45.1277L121.819 50.1261L126.88 51.3586L130.475 47.5928L129.016 42.5944Z" fill="white"/>
<path d="M158.716 51.3416L140.773 46.9793C140.541 45.6508 139.963 44.407 139.097 43.3733C138.231 42.3396 137.107 41.5527 135.84 41.0918C134.572 40.6309 133.206 40.5125 131.878 40.7483C130.55 40.9842 129.308 41.5661 128.277 42.4353L134.281 43.8951L135.741 48.8935L132.145 52.665L126.124 51.1769C126.638 52.4292 127.475 53.5232 128.548 54.3477C129.622 55.1721 130.895 55.6975 132.238 55.8706C133.58 56.0437 134.945 55.8583 136.193 55.3332C137.44 54.808 138.527 53.9619 139.342 52.8809L157.285 57.2431C158.065 57.4299 158.887 57.3007 159.573 56.8836C160.258 56.4665 160.75 55.7954 160.943 55.0165C161.039 54.629 161.057 54.2264 160.997 53.8317C160.937 53.4371 160.799 53.0582 160.592 52.7168C160.386 52.3754 160.113 52.0782 159.791 51.8422C159.469 51.6062 159.104 51.4361 158.716 51.3416Z" fill="white"/>
<path d="M157.915 56.2604C159.007 56.2604 159.892 55.3754 159.892 54.2838C159.892 53.1921 159.007 52.3071 157.915 52.3071C156.824 52.3071 155.939 53.1921 155.939 54.2838C155.939 55.3754 156.824 56.2604 157.915 56.2604Z" fill="#7500B0"/>
<path d="M176.25 207.803H170.854V221.441H176.25V207.803Z" fill="#E0E0E0"/>
<path d="M177.318 216.749H169.787L169.264 229.881C169.25 230.216 169.304 230.549 169.423 230.862C169.541 231.176 169.722 231.461 169.954 231.703C170.186 231.944 170.464 232.136 170.772 232.267C171.08 232.398 171.411 232.466 171.746 232.466H175.387C175.721 232.465 176.052 232.397 176.359 232.266C176.667 232.134 176.944 231.942 177.176 231.701C177.407 231.459 177.587 231.174 177.705 230.861C177.824 230.548 177.877 230.215 177.864 229.881L177.318 216.749Z" fill="#263238"/>
<path d="M192.302 232.108C192.144 232.107 191.987 232.067 191.848 231.992C191.708 231.917 191.589 231.808 191.501 231.676C190.754 230.536 189.734 229.6 188.534 228.954C187.334 228.307 185.992 227.97 184.629 227.973H162.477C161.113 227.97 159.771 228.307 158.571 228.954C157.371 229.6 156.351 230.536 155.604 231.676C155.46 231.879 155.242 232.019 154.998 232.065C154.753 232.111 154.5 232.06 154.292 231.923C154.084 231.786 153.937 231.573 153.883 231.33C153.829 231.087 153.872 230.832 154.002 230.62C154.927 229.219 156.186 228.07 157.665 227.277C159.145 226.484 160.798 226.071 162.477 226.076H184.629C186.309 226.067 187.965 226.477 189.448 227.268C190.93 228.059 192.192 229.207 193.12 230.608C193.215 230.753 193.27 230.921 193.278 231.094C193.285 231.267 193.246 231.439 193.164 231.591C193.082 231.744 192.96 231.871 192.811 231.96C192.663 232.049 192.493 232.096 192.319 232.096L192.302 232.108Z" fill="#263238"/>
<path d="M182.646 208.757H164.47C163.487 208.758 162.535 208.419 161.773 207.798C161.011 207.177 160.487 206.312 160.29 205.349L159.722 202.566H187.417L186.849 205.349C186.651 206.316 186.124 207.183 185.357 207.805C184.591 208.426 183.633 208.763 182.646 208.757Z" fill="#263238"/>
<path d="M133.781 201.413H155.57C163.828 201.387 171.8 198.387 178.028 192.963C184.255 187.539 188.32 180.054 189.479 171.877L195.455 129.8H233.954L227.978 171.877C226.819 180.054 222.754 187.539 216.527 192.963C210.299 198.387 202.327 201.387 194.069 201.413H133.781Z" fill="#263238"/>
<path d="M133.781 204.605C133.35 204.623 132.92 204.554 132.517 204.402C132.113 204.249 131.745 204.017 131.433 203.718C131.122 203.42 130.874 203.061 130.705 202.665C130.536 202.268 130.448 201.841 130.448 201.41C130.448 200.979 130.536 200.552 130.705 200.155C130.874 199.758 131.122 199.4 131.433 199.102C131.745 198.803 132.113 198.571 132.517 198.418C132.92 198.266 133.35 198.197 133.781 198.215H155.632C163.105 198.155 170.31 195.417 175.937 190.499C181.565 185.582 185.243 178.809 186.304 171.411L192.279 129.334C192.389 128.572 192.768 127.875 193.349 127.37C193.93 126.865 194.674 126.586 195.443 126.584H233.942C234.4 126.585 234.852 126.683 235.268 126.874C235.685 127.064 236.055 127.341 236.355 127.687C236.655 128.032 236.877 128.438 237.007 128.877C237.136 129.316 237.17 129.778 237.106 130.231L231.131 172.308C228.518 190.717 212.58 204.605 194.057 204.605H133.781ZM198.232 132.98L192.643 172.308C191.895 177.528 190.06 182.533 187.255 186.998C184.451 191.464 180.741 195.291 176.364 198.232H194.069C201.554 198.19 208.775 195.461 214.418 190.543C220.061 185.624 223.75 178.843 224.814 171.434L230.273 132.997L198.232 132.98Z" fill="#263238"/>
<path opacity="0.2" d="M172.274 204.605C171.844 204.623 171.413 204.554 171.01 204.402C170.606 204.249 170.238 204.017 169.927 203.719C169.615 203.42 169.368 203.062 169.198 202.665C169.029 202.268 168.942 201.841 168.942 201.41C168.942 200.979 169.029 200.552 169.198 200.155C169.368 199.759 169.615 199.4 169.927 199.102C170.238 198.803 170.606 198.571 171.01 198.419C171.413 198.266 171.844 198.197 172.274 198.215H194.069C201.554 198.173 208.775 195.444 214.418 190.526C220.061 185.607 223.75 178.826 224.814 171.417L230.79 129.339C230.834 128.911 230.963 128.496 231.171 128.12C231.38 127.743 231.661 127.412 232 127.147C232.339 126.881 232.728 126.687 233.144 126.576C233.56 126.465 233.994 126.439 234.42 126.499C234.846 126.559 235.256 126.705 235.624 126.928C235.993 127.15 236.312 127.445 236.564 127.794C236.816 128.143 236.995 128.539 237.09 128.959C237.185 129.379 237.194 129.813 237.117 130.237L231.142 172.314C228.529 190.723 212.591 204.611 194.069 204.611L172.274 204.605Z" fill="white"/>
<path d="M157.603 232.022C157.603 231.479 157.442 230.947 157.14 230.495C156.838 230.043 156.408 229.691 155.906 229.482C155.404 229.274 154.851 229.22 154.318 229.326C153.784 229.432 153.294 229.694 152.91 230.078C152.525 230.463 152.264 230.953 152.158 231.486C152.051 232.019 152.106 232.572 152.314 233.074C152.522 233.577 152.874 234.006 153.327 234.308C153.779 234.61 154.31 234.771 154.854 234.771C155.583 234.771 156.282 234.482 156.798 233.966C157.313 233.451 157.603 232.751 157.603 232.022Z" fill="#263238"/>
<path d="M195 232.022C195 231.479 194.839 230.947 194.537 230.495C194.235 230.043 193.805 229.691 193.303 229.482C192.801 229.274 192.248 229.22 191.715 229.326C191.181 229.432 190.692 229.694 190.307 230.078C189.923 230.463 189.661 230.953 189.555 231.486C189.449 232.019 189.503 232.572 189.711 233.074C189.919 233.577 190.272 234.006 190.724 234.308C191.176 234.61 191.707 234.771 192.251 234.771C192.98 234.771 193.679 234.482 194.195 233.966C194.71 233.451 195 232.751 195 232.022Z" fill="#263238"/>
<path d="M192.302 232.108C192.144 232.107 191.987 232.067 191.848 231.992C191.708 231.917 191.589 231.808 191.501 231.676C190.754 230.536 189.734 229.6 188.534 228.954C187.334 228.307 185.992 227.97 184.629 227.973H162.477C161.113 227.97 159.771 228.307 158.571 228.954C157.371 229.6 156.351 230.536 155.604 231.676C155.46 231.879 155.242 232.019 154.998 232.065C154.753 232.111 154.5 232.06 154.292 231.923C154.084 231.786 153.937 231.573 153.883 231.33C153.829 231.087 153.872 230.832 154.002 230.62C154.927 229.219 156.186 228.07 157.665 227.277C159.145 226.484 160.798 226.071 162.477 226.076H184.629C186.309 226.067 187.965 226.477 189.448 227.268C190.93 228.059 192.192 229.207 193.12 230.608C193.215 230.753 193.27 230.921 193.278 231.094C193.285 231.267 193.246 231.439 193.164 231.591C193.082 231.744 192.96 231.871 192.811 231.96C192.663 232.049 192.493 232.096 192.319 232.096L192.302 232.108Z" fill="#263238"/>
<path d="M182.93 233.726C182.727 233.725 182.53 233.66 182.366 233.541C182.202 233.422 182.08 233.254 182.016 233.062C181.323 230.955 180.175 229.586 179.09 229.586H168.014C166.93 229.586 165.782 230.955 165.089 233.062C165.003 233.294 164.83 233.484 164.607 233.592C164.383 233.7 164.127 233.717 163.891 233.64C163.655 233.563 163.459 233.398 163.342 233.179C163.225 232.96 163.198 232.704 163.266 232.466C164.254 229.461 166.026 227.672 168.014 227.672H179.09C181.078 227.672 182.851 229.461 183.839 232.466C183.918 232.707 183.898 232.971 183.783 233.197C183.668 233.424 183.467 233.596 183.226 233.675C183.131 233.709 183.031 233.726 182.93 233.726Z" fill="#263238"/>
<path d="M166.924 233.641C166.924 233.097 166.763 232.566 166.461 232.114C166.159 231.662 165.729 231.309 165.227 231.101C164.724 230.893 164.172 230.839 163.638 230.945C163.105 231.051 162.615 231.313 162.231 231.697C161.846 232.082 161.585 232.572 161.478 233.105C161.372 233.638 161.427 234.191 161.635 234.693C161.843 235.196 162.195 235.625 162.647 235.927C163.1 236.229 163.631 236.39 164.175 236.39C164.904 236.39 165.603 236.101 166.119 235.585C166.634 235.07 166.924 234.37 166.924 233.641Z" fill="#263238"/>
<path d="M185.679 233.641C185.679 233.097 185.518 232.566 185.216 232.114C184.914 231.662 184.485 231.309 183.982 231.101C183.48 230.893 182.927 230.839 182.394 230.945C181.861 231.051 181.371 231.313 180.986 231.697C180.602 232.082 180.34 232.572 180.234 233.105C180.128 233.638 180.182 234.191 180.39 234.693C180.598 235.196 180.951 235.625 181.403 235.927C181.855 236.229 182.386 236.39 182.93 236.39C183.659 236.39 184.359 236.101 184.874 235.585C185.39 235.07 185.679 234.37 185.679 233.641Z" fill="#263238"/>
<path d="M114.384 195.915L124.057 200.112L118.513 206.582L110.425 203.077L114.384 195.915Z" fill="#FFB573"/>
<path opacity="0.2" d="M114.39 195.915L124.063 200.118L120.956 203.742L112.169 199.93L114.39 195.915Z" fill="black"/>
<path d="M119.888 209.95L118.797 209.7C118.477 209.627 118.179 209.477 117.931 209.262C117.682 209.047 117.49 208.774 117.372 208.467L116.673 208.791C116.269 208.982 115.813 209.032 115.378 208.933L100.457 205.525C100.496 204.185 101.678 202.685 101.678 202.685C101.678 202.685 108.318 203.821 110.237 202.237C110.313 202.183 110.402 202.152 110.495 202.147C110.587 202.142 110.679 202.163 110.76 202.208C111.964 202.776 116.713 204.827 119.757 204.537C119.851 204.53 119.946 204.544 120.034 204.58C120.121 204.616 120.199 204.671 120.262 204.742C120.324 204.814 120.369 204.898 120.393 204.99C120.417 205.081 120.419 205.177 120.399 205.27C120.116 206.815 119.945 208.38 119.888 209.95Z" fill="#263238"/>
<path d="M110.499 202.668C110.477 202.668 110.456 202.663 110.437 202.655C110.417 202.646 110.399 202.633 110.385 202.617C110.323 202.549 108.806 200.913 108.852 199.987C108.854 199.895 108.875 199.803 108.914 199.719C108.953 199.635 109.009 199.56 109.079 199.499C109.157 199.42 109.258 199.369 109.367 199.351C109.476 199.334 109.588 199.352 109.687 199.402C110.34 199.732 110.749 201.555 110.664 202.526C110.659 202.556 110.647 202.585 110.628 202.609C110.609 202.633 110.584 202.651 110.556 202.662L110.499 202.668ZM109.454 199.663C109.422 199.665 109.392 199.673 109.363 199.687C109.335 199.7 109.31 199.719 109.289 199.743C109.251 199.775 109.222 199.815 109.202 199.86C109.182 199.906 109.173 199.955 109.175 200.004C109.147 200.572 109.868 201.532 110.351 202.1C110.317 201.163 109.959 199.896 109.545 199.686C109.516 199.673 109.485 199.665 109.454 199.663Z" fill="#263238"/>
<path d="M109.323 202.736C108.689 202.789 108.054 202.657 107.494 202.356C107.42 202.301 107.359 202.231 107.314 202.151C107.269 202.07 107.241 201.982 107.233 201.89C107.211 201.778 107.226 201.662 107.276 201.559C107.326 201.456 107.409 201.373 107.511 201.322C108.159 200.992 109.874 201.737 110.607 202.378C110.63 202.399 110.647 202.425 110.656 202.455C110.664 202.484 110.664 202.516 110.655 202.545C110.646 202.575 110.628 202.601 110.605 202.621C110.581 202.641 110.552 202.653 110.521 202.657C110.124 202.705 109.724 202.732 109.323 202.736ZM107.92 201.566C107.823 201.563 107.726 201.58 107.636 201.617C107.579 201.651 107.517 201.702 107.534 201.862C107.54 201.91 107.555 201.956 107.58 201.998C107.604 202.04 107.637 202.077 107.676 202.106C108.107 202.452 109.323 202.447 110.067 202.39C109.429 201.945 108.692 201.662 107.92 201.566Z" fill="#263238"/>
<path d="M201.259 165.481L197.096 174.155C190.984 186.957 175.927 193.393 163.902 188.355C156.882 185.412 149.219 179.193 144.022 176.347C139.563 186.122 131.214 196.903 124.824 204.406L111.896 197.903C116.724 186.821 124.239 169.503 129.01 158.279C129.859 156.289 131.253 154.578 133.03 153.344C134.807 152.109 136.896 151.4 139.058 151.298C160.551 150.719 201.259 165.481 201.259 165.481Z" fill="#7500B0"/>
<path d="M187.912 75.7031C185.486 74.9022 182.72 76.4415 182.686 81.8602C182.652 87.2789 187.576 90.1814 189.655 83.178C190.905 78.952 189.712 76.2881 187.912 75.7031Z" fill="#E0E0E0"/>
<path d="M138.433 224.286L148.964 223.792L146.845 232.039L138.041 232.46L138.433 224.286Z" fill="#FFB573"/>
<path opacity="0.2" d="M138.439 224.286L148.969 223.792L147.782 228.416L138.217 228.87L138.439 224.286Z" fill="black"/>
<path d="M148.458 236.39H147.322C146.994 236.39 146.67 236.308 146.381 236.153C146.092 235.997 145.845 235.772 145.664 235.499L145.056 235.976C144.703 236.248 144.269 236.396 143.823 236.396H128.533C128.271 235.084 129.101 233.369 129.101 233.369C129.101 233.369 135.826 233.011 137.342 231.04C137.397 230.965 137.472 230.906 137.558 230.871C137.645 230.836 137.739 230.825 137.831 230.841C139.132 231.114 144.221 232.079 147.123 231.119C147.213 231.091 147.308 231.084 147.401 231.099C147.494 231.114 147.582 231.151 147.658 231.206C147.735 231.261 147.797 231.333 147.84 231.417C147.883 231.501 147.906 231.593 147.907 231.687C147.977 233.266 148.161 234.838 148.458 236.39Z" fill="#263238"/>
<path d="M137.655 231.375C137.622 231.377 137.59 231.367 137.564 231.346C137.485 231.295 135.65 230.057 135.485 229.12C135.467 229.03 135.468 228.937 135.487 228.847C135.507 228.757 135.545 228.672 135.599 228.597C135.657 228.504 135.743 228.431 135.845 228.389C135.947 228.347 136.06 228.338 136.167 228.364C136.871 228.546 137.678 230.227 137.808 231.204C137.812 231.236 137.806 231.267 137.792 231.296C137.778 231.324 137.756 231.347 137.729 231.363C137.706 231.374 137.68 231.378 137.655 231.375ZM136.036 228.665C135.999 228.67 135.962 228.682 135.931 228.703C135.899 228.724 135.873 228.752 135.854 228.785C135.826 228.826 135.807 228.872 135.798 228.921C135.789 228.97 135.791 229.021 135.803 229.069C135.9 229.637 136.814 230.404 137.416 230.852C137.178 229.943 136.542 228.79 136.093 228.677L136.036 228.665Z" fill="#263238"/>
<path d="M135.377 231.858C135.14 231.868 134.903 231.825 134.684 231.733C134.6 231.695 134.525 231.64 134.463 231.572C134.402 231.503 134.355 231.423 134.326 231.335C134.285 231.232 134.277 231.118 134.304 231.011C134.33 230.903 134.39 230.806 134.474 230.733C135.042 230.267 136.871 230.614 137.729 231.074C137.755 231.09 137.777 231.112 137.792 231.139C137.807 231.166 137.814 231.196 137.814 231.227C137.812 231.258 137.8 231.288 137.781 231.312C137.762 231.337 137.736 231.354 137.706 231.364C136.958 231.641 136.173 231.807 135.377 231.858ZM135.377 230.824C135.136 230.804 134.894 230.858 134.684 230.977C134.633 231.023 134.588 231.085 134.633 231.239C134.65 231.285 134.677 231.327 134.711 231.362C134.745 231.397 134.786 231.425 134.832 231.443C135.332 231.687 136.507 231.415 137.223 231.193C136.632 230.965 136.005 230.84 135.371 230.824H135.377Z" fill="#263238"/>
<path d="M207.28 162.045L207.212 171.207C207.104 184.719 195.648 196.767 181.97 197.801C173.984 198.369 163.192 198.573 156.978 198.448C156.075 207.911 153.116 219.061 150.162 227.138L136.712 226.201C136.36 214.733 135.843 198.471 135.411 187.684C135.241 183.481 137.848 179.346 141.858 177.37C161.994 167.441 207.28 162.045 207.28 162.045Z" fill="#7500B0"/>
<path opacity="0.1" d="M147.265 227.257C147.235 227.262 147.205 227.262 147.175 227.257C147.094 227.232 147.027 227.176 146.987 227.102C146.948 227.027 146.94 226.94 146.964 226.859C148.998 220.174 152.644 199.306 152.821 189.723C152.826 189.632 152.867 189.547 152.934 189.485C152.969 189.456 153.008 189.435 153.051 189.422C153.094 189.409 153.14 189.406 153.184 189.411C172.831 192.024 186.128 191.115 191.666 186.844C201.373 179.301 201.231 167.089 198.772 160.716C198.741 160.637 198.743 160.548 198.777 160.471C198.811 160.393 198.874 160.332 198.953 160.301C199.033 160.27 199.121 160.272 199.198 160.306C199.276 160.34 199.337 160.404 199.368 160.483C201.896 167.026 202.038 179.579 192.058 187.338C186.344 191.774 173.359 192.7 153.434 190.081C153.19 199.856 149.572 220.401 147.555 227.03C147.537 227.093 147.499 227.15 147.447 227.19C147.395 227.231 147.332 227.255 147.265 227.257Z" fill="black"/>
<path opacity="0.2" d="M143.5 177.472C141.192 182.097 138.518 186.53 135.502 190.729C135.57 192.62 135.644 194.625 135.718 196.71C140.478 189.195 143.505 177.46 143.505 177.46L143.5 177.472Z" fill="black"/>
<path d="M171.235 121.552L170.729 121.876L170.32 122.126L169.525 122.586C168.997 122.887 168.469 123.154 167.946 123.415C166.895 123.949 165.816 124.409 164.72 124.846C162.494 125.728 160.192 126.401 157.842 126.857C156.643 127.09 155.411 127.255 154.161 127.374C152.883 127.472 151.601 127.493 150.321 127.437C148.996 127.383 147.676 127.23 146.374 126.976C145.035 126.705 143.72 126.325 142.443 125.84L141.921 125.647C141.13 125.357 140.417 124.889 139.836 124.278C138.599 122.978 137.654 121.429 137.064 119.734C136.598 118.393 136.317 116.994 136.229 115.577C136.089 113.289 136.281 110.994 136.797 108.761C137.247 106.785 137.859 104.849 138.626 102.973C139.001 102.058 139.41 101.167 139.842 100.292L140.518 98.9854C140.767 98.5481 140.995 98.1562 141.284 97.662C141.699 96.9634 142.333 96.4214 143.087 96.1202C143.842 95.819 144.675 95.7754 145.456 95.9963C146.238 96.2171 146.925 96.6901 147.41 97.3416C147.896 97.993 148.152 98.7866 148.14 99.5989V100.167C148.14 100.513 148.083 100.973 148.061 101.382L147.964 102.649C147.896 103.49 147.856 104.353 147.816 105.16C147.777 105.966 147.76 106.807 147.754 107.602C147.748 108.397 147.754 109.187 147.805 109.936C147.842 111.259 148.047 112.572 148.413 113.844C148.517 114.215 148.69 114.562 148.924 114.867C149.083 115.031 149.157 114.952 149.072 114.764L146.465 113.202C147.746 113.434 149.051 113.501 150.35 113.401C151.061 113.349 151.768 113.255 152.468 113.117C153.19 112.992 153.928 112.839 154.672 112.634C155.416 112.43 156.16 112.191 156.916 111.942C157.671 111.692 158.421 111.374 159.188 111.078C159.955 110.783 160.682 110.425 161.426 110.084C161.789 109.914 162.153 109.732 162.499 109.556L163.01 109.295L163.249 109.175C163.3 109.147 163.419 109.079 163.38 109.113C165.029 108.071 167.025 107.727 168.928 108.157C170.831 108.587 172.485 109.755 173.527 111.405C174.569 113.054 174.912 115.05 174.483 116.953C174.053 118.856 172.885 120.51 171.235 121.552Z" fill="#FFB573"/>
<path d="M142.346 101.57L146.584 101.769C150.827 100.388 148.106 95.2423 148.106 95.2423L147.794 92.2433C147.701 91.7197 147.427 91.2453 147.02 90.9028C146.613 90.5603 146.099 90.3713 145.567 90.3689L142.608 90.2042C141.256 90.1303 140.086 91.0335 140.018 92.2035L139.853 94.8277C139.807 95.5926 139.949 96.3572 140.268 97.0543L142.346 101.57Z" fill="#FFB573"/>
<path d="M178.352 102.888C176.563 100.491 170.764 101.053 167.412 104.842C166.026 104.785 160.596 109.698 156.439 110.749C152.281 111.8 149.282 116.826 150.441 119.661C152.582 124.892 154.036 127.397 157.904 127.817C161.772 128.237 166.861 125.733 170.968 122.66C175.075 119.587 181.51 107.142 178.352 102.888Z" fill="#E0E0E0"/>
<path d="M154.655 110.647C151.423 108.568 148.248 112.055 148.248 116.44C148.248 120.825 149.276 124.563 150.849 127.136C152.423 129.709 155.2 129.493 157.79 129.373C160.028 129.266 161.13 128.459 160.062 126.426C158.995 124.392 155.058 121.45 154.473 115.736C154.15 112.845 156.149 111.606 154.655 110.647Z" fill="#FAFAFA"/>
<path d="M153.826 151.287C153.133 152.003 152.633 154.774 154.042 158.926C155.013 161.806 158.836 160.369 158.836 160.369C158.836 160.369 159.506 165.589 164.266 166.708C172.11 168.548 201.697 168.054 206.724 164.152C190.956 163.987 153.826 151.287 153.826 151.287Z" fill="#FAFAFA"/>
<path d="M180.363 100.979C188.104 101.023 195.824 101.772 203.429 103.217C204.684 103.479 205.871 103.995 206.92 104.732C207.968 105.469 208.855 106.412 209.527 107.503C210.198 108.595 210.64 109.812 210.825 111.08C211.01 112.348 210.935 113.64 210.603 114.878C204.923 136.513 208.127 160.273 207.678 164.607C207.678 164.607 162.278 171.144 155.32 157.649C145.976 142.381 161.88 132.407 167.316 110.959C168.753 105.29 174.518 100.945 180.363 100.979Z" fill="#263238"/>
<path opacity="0.1" d="M180.363 100.979C188.104 101.023 195.824 101.772 203.429 103.217C204.684 103.479 205.871 103.995 206.92 104.732C207.968 105.469 208.855 106.412 209.527 107.503C210.198 108.595 210.64 109.812 210.825 111.08C211.01 112.348 210.935 113.64 210.603 114.878C204.923 136.513 208.127 160.273 207.678 164.607C207.678 164.607 162.278 171.144 155.32 157.649C145.976 142.381 161.88 132.407 167.316 110.959C168.753 105.29 174.518 100.945 180.363 100.979Z" fill="white"/>
<path opacity="0.4" d="M195.545 101.985L195.466 101.95L195.216 101.865L195.148 101.916C191.337 101.462 187.366 101.167 183.578 101.047C182.652 101.013 181.737 100.996 180.84 100.985C179.654 101.653 178.741 102.716 178.261 103.99C177.125 106.864 177.932 110.067 180.493 112.555L180.704 112.76L181.005 112.731C186.571 112.192 196.977 107.733 197.414 104.296C197.488 103.717 197.34 102.638 195.545 101.985Z" fill="#FAFAFA"/>
<path d="M211.682 117.86L212.097 118.655L212.466 119.382C212.71 119.865 212.926 120.348 213.153 120.831C213.602 121.791 214 122.762 214.403 123.739C215.175 125.693 215.897 127.675 216.499 129.709C216.811 130.72 217.067 131.742 217.374 132.776C217.68 133.81 217.868 134.855 218.084 135.917C218.533 138.059 218.859 140.224 219.061 142.403L219.117 142.971C219.196 143.81 219.096 144.657 218.822 145.454C218.387 146.701 217.725 147.856 216.868 148.862C216.141 149.715 215.289 150.455 214.341 151.054C212.916 151.943 211.35 152.585 209.711 152.951C207.253 153.494 204.731 153.685 202.219 153.519C199.993 153.389 197.78 153.097 195.597 152.645C194.529 152.434 193.478 152.173 192.433 151.895C191.388 151.616 190.388 151.327 189.286 150.918C188.489 150.635 187.813 150.088 187.37 149.367C186.927 148.646 186.744 147.796 186.852 146.957C186.959 146.118 187.351 145.341 187.961 144.756C188.571 144.17 189.364 143.811 190.206 143.738H190.422L193.262 143.5C194.233 143.432 195.193 143.335 196.142 143.238C197.09 143.142 198.033 143.034 198.953 142.915C199.874 142.795 200.771 142.653 201.64 142.483C203.174 142.236 204.673 141.805 206.105 141.199C206.627 140.944 206.996 140.631 206.962 140.569C206.928 140.506 206.826 140.569 206.65 140.717C206.433 140.929 206.259 141.182 206.139 141.461L205.9 144.494C205.474 142.835 205.025 141.177 204.48 139.501C204.213 138.666 203.912 137.797 203.611 136.99C203.31 136.184 203.043 135.286 202.691 134.474C202.032 132.804 201.379 131.123 200.669 129.459L199.601 126.977L198.567 124.642L198.437 124.335C197.677 122.594 197.621 120.627 198.281 118.846C198.94 117.064 200.263 115.607 201.973 114.78C203.683 113.953 205.647 113.82 207.453 114.409C209.258 114.998 210.766 116.263 211.66 117.94L211.682 117.86Z" fill="#FFB573"/>
<path d="M177.267 138.774H168.793C168.36 138.774 168.009 139.125 168.009 139.558V150.497C168.009 150.93 168.36 151.281 168.793 151.281H177.267C177.7 151.281 178.051 150.93 178.051 150.497V139.558C178.051 139.125 177.7 138.774 177.267 138.774Z" fill="#7500B0"/>
<path d="M177.267 141.199C177.783 141.179 178.297 141.264 178.779 141.447C179.261 141.631 179.701 141.91 180.073 142.268C180.445 142.625 180.741 143.054 180.943 143.529C181.145 144.004 181.249 144.514 181.249 145.03C181.249 145.546 181.145 146.057 180.943 146.532C180.741 147.006 180.445 147.435 180.073 147.793C179.701 148.151 179.261 148.43 178.779 148.613C178.297 148.797 177.783 148.881 177.267 148.861H177.216C176.701 148.881 176.186 148.797 175.704 148.613C175.222 148.43 174.782 148.151 174.41 147.793C174.038 147.435 173.743 147.006 173.541 146.532C173.339 146.057 173.235 145.546 173.235 145.03C173.235 144.514 173.339 144.004 173.541 143.529C173.743 143.054 174.038 142.625 174.41 142.268C174.782 141.91 175.222 141.631 175.704 141.447C176.186 141.264 176.701 141.179 177.216 141.199H177.284H177.267ZM177.284 140.063H177.216C176.547 140.041 175.881 140.153 175.257 140.393C174.632 140.633 174.062 140.997 173.581 141.462C173.1 141.927 172.718 142.484 172.457 143.1C172.195 143.716 172.061 144.378 172.061 145.047C172.061 145.716 172.195 146.379 172.457 146.995C172.718 147.611 173.1 148.168 173.581 148.633C174.062 149.098 174.632 149.461 175.257 149.702C175.881 149.942 176.547 150.054 177.216 150.032H177.284C177.953 150.054 178.619 149.942 179.244 149.702C179.868 149.461 180.438 149.098 180.919 148.633C181.4 148.168 181.782 147.611 182.044 146.995C182.305 146.379 182.44 145.716 182.44 145.047C182.44 144.378 182.305 143.716 182.044 143.1C181.782 142.484 181.4 141.927 180.919 141.462C180.438 140.997 179.868 140.633 179.244 140.393C178.619 140.153 177.953 140.041 177.284 140.063Z" fill="#7500B0"/>
<path d="M190.57 145.715L190.536 148.396C188.905 152.548 183.93 149.532 183.93 149.532L180.953 149.043C180.436 148.919 179.979 148.618 179.662 148.191C179.344 147.764 179.186 147.24 179.215 146.709V143.744C179.182 143.134 179.388 142.535 179.788 142.074C180.189 141.613 180.754 141.325 181.362 141.273H184.032C184.799 141.278 185.552 141.473 186.225 141.841L189.229 143.443C189.637 143.665 189.978 143.994 190.214 144.394C190.45 144.794 190.573 145.25 190.57 145.715Z" fill="#FFB573"/>
<path d="M205.196 105.461C208.138 104.893 212.012 109.249 211.932 114.31C212.989 115.202 214.818 122.637 217.158 126.238C219.498 129.839 218.294 135.553 215.545 136.854C210.433 139.257 207.661 140.12 204.525 137.814C201.39 135.508 197.789 130.14 197.266 125.045C196.528 117.576 199.976 106.443 205.196 105.461Z" fill="#E0E0E0"/>
<path d="M201.146 134.883C199.283 138.246 202.969 141.193 207.32 140.938C211.671 140.682 215.352 139.382 217.822 137.643C220.293 135.905 219.896 133.156 219.6 130.572C219.35 128.345 218.464 127.3 216.516 128.499C214.568 129.697 211.875 133.815 206.212 134.747C203.372 135.247 202.004 133.332 201.146 134.883Z" fill="#FAFAFA"/>
<path d="M179.59 103.734C180.276 102.588 181.329 101.707 182.578 101.235C183.102 100.085 183.215 98.7889 182.896 97.5656L196.937 94.0212C195.545 98.5084 194.455 102.053 196.011 104.365C193.205 105.853 188.059 108.517 182.663 108.034C177.267 107.551 178.596 105.591 179.59 103.734Z" fill="#FFB573"/>
<path opacity="0.2" d="M182.981 97.9971L193.353 98.0255C189.911 101.28 184.93 102.28 182.782 100.741C183.079 99.8574 183.147 98.9137 182.981 97.9971Z" fill="black"/>
<path d="M200.05 87.1654C198.05 93.4758 196.556 97.7131 192.16 99.491C183.43 103.013 179.869 98.4118 179.942 91.6185C180.011 85.5011 183.271 76.2143 190.166 75.2941C191.696 75.0892 193.253 75.2758 194.691 75.8363C196.128 76.3968 197.401 77.3129 198.388 78.4989C199.376 79.685 200.046 81.1022 200.336 82.6179C200.627 84.1336 200.528 85.6982 200.05 87.1654Z" fill="#FFB573"/>
<path d="M195.875 92.1298C193.279 90.9938 194.063 90.2043 194.063 90.2043C194.063 90.2043 196.165 87.8641 196.5 86.5009C196.835 85.1377 194.796 82.2239 195.517 80.696C196.238 79.168 203.861 78.424 207.093 82.3261C206.335 82.4928 205.562 82.5766 204.787 82.576C205.438 83.2943 205.858 84.1926 205.991 85.1534C206.124 86.1141 205.963 87.0926 205.531 87.9607C204.043 91.1017 198.641 93.3737 195.875 92.1298Z" fill="#E0E0E0"/>
<path d="M181.76 92.7886L188.468 92.8908C188.468 92.8908 187.52 94.5096 184.702 94.7595C181.885 95.0095 181.76 92.7886 181.76 92.7886Z" fill="#263238"/>
<path d="M181.896 92.7886C182.107 93.2203 182.743 93.8678 184.668 93.6974C185.718 93.6312 186.744 93.3529 187.684 92.8795C186.497 92.8681 184.117 92.8283 181.896 92.7886Z" fill="white"/>
<path opacity="0.2" d="M191.325 86.3021C192.113 86.1469 192.93 86.3103 193.597 86.7565C192.818 86.7527 192.046 86.5984 191.325 86.3021Z" fill="black"/>
<path opacity="0.2" d="M191.251 86.853C191.616 86.8585 191.975 86.9432 192.303 87.1011C192.632 87.259 192.922 87.4864 193.154 87.7675C192.462 87.6015 191.813 87.2897 191.251 86.853Z" fill="black"/>
<path opacity="0.2" d="M182.481 84.1776C182.481 84.1776 182.044 83.4676 181.595 83.7516C181.708 83.8774 181.844 83.9797 181.996 84.0528C182.148 84.1259 182.313 84.1683 182.481 84.1776Z" fill="black"/>
<path opacity="0.2" d="M182.328 84.6719C182.328 84.6719 181.982 84.0357 181.618 84.5356C181.707 84.6306 181.823 84.695 181.951 84.7194C182.078 84.7439 182.211 84.7273 182.328 84.6719Z" fill="black"/>
<path opacity="0.2" d="M185.969 78.7249C187.928 78.7422 189.871 79.0681 191.728 79.6905C189.792 79.4771 187.869 79.1548 185.969 78.7249Z" fill="black"/>
<path opacity="0.2" d="M185.066 79.6108C185.066 79.6108 189.508 80.1107 191.558 81.4455C189.342 81.0357 187.169 80.4215 185.066 79.6108Z" fill="black"/>
<path d="M200.885 93.7995C200.367 94.4361 199.728 94.9644 199.006 95.3542C198.284 95.7441 197.492 95.9878 196.676 96.0715C194.478 96.2817 193.751 94.2199 194.671 92.3511C195.494 90.6471 197.636 88.5285 199.686 89.1874C201.737 89.8463 202.146 92.2035 200.885 93.7995Z" fill="#FFB573"/>
<path d="M189.542 86.2112C189.411 86.7338 189.03 87.0859 188.69 87.0007C188.349 86.9155 188.178 86.4327 188.309 85.8931C188.44 85.3535 188.82 85.0184 189.161 85.1093C189.502 85.2002 189.672 85.6943 189.542 86.2112Z" fill="#263238"/>
<path d="M183.992 84.899C183.862 85.4216 183.481 85.7738 183.14 85.6829C182.8 85.592 182.629 85.1149 182.76 84.581C182.89 84.047 183.271 83.7062 183.612 83.7971C183.953 83.888 184.123 84.3765 183.992 84.899Z" fill="#263238"/>
<path d="M185.685 85.7681L184.6 90.1587C184.6 90.1587 182.828 90.1587 182.027 89.142C183.174 87.0233 185.685 85.7681 185.685 85.7681Z" fill="#ED893E"/>
<path d="M191.694 84.9331C191.745 84.9468 191.797 84.9468 191.848 84.9331C191.886 84.9175 191.922 84.8944 191.951 84.8649C191.981 84.8355 192.005 84.8004 192.021 84.7618C192.036 84.7231 192.044 84.6816 192.044 84.6398C192.044 84.598 192.035 84.5568 192.018 84.5184C191.833 84.0496 191.54 83.6315 191.161 83.2987C190.783 82.9659 190.331 82.7278 189.843 82.6043C189.801 82.594 189.757 82.5924 189.714 82.5997C189.671 82.607 189.63 82.6229 189.594 82.6465C189.558 82.6701 189.527 82.7009 189.503 82.737C189.479 82.7731 189.462 82.8137 189.454 82.8564C189.447 82.8991 189.448 82.9429 189.457 82.9851C189.467 83.0273 189.486 83.0671 189.511 83.102C189.537 83.1369 189.57 83.1662 189.607 83.188C189.644 83.2099 189.686 83.2238 189.729 83.2291C190.113 83.334 190.467 83.5273 190.763 83.7936C191.059 84.0599 191.288 84.3918 191.433 84.7627C191.458 84.8115 191.495 84.8529 191.541 84.8828C191.587 84.9127 191.64 84.93 191.694 84.9331Z" fill="#E0E0E0"/>
<path d="M181.385 82.5645C181.436 82.5769 181.489 82.5766 181.539 82.5637C181.59 82.5508 181.636 82.5258 181.675 82.4906C181.956 82.2116 182.299 82.0029 182.676 81.8815C183.053 81.7601 183.453 81.7295 183.845 81.792C183.885 81.8021 183.926 81.804 183.967 81.7977C184.007 81.7913 184.046 81.7769 184.081 81.7552C184.116 81.7334 184.147 81.7049 184.17 81.6712C184.194 81.6375 184.211 81.5994 184.219 81.5591C184.238 81.4778 184.224 81.3924 184.181 81.3212C184.137 81.25 184.068 81.1988 183.987 81.1786C183.495 81.0895 182.989 81.1199 182.512 81.2672C182.034 81.4145 181.599 81.6744 181.243 82.0249C181.184 82.0845 181.151 82.1652 181.151 82.2492C181.151 82.3333 181.184 82.414 181.243 82.4736C181.282 82.5159 181.331 82.5473 181.385 82.5645Z" fill="#E0E0E0"/>
<path d="M147.646 102.098C150.742 100.178 150.424 96.918 150.969 94.3222C151.065 93.8792 150.054 93.2317 149.458 93.7883C149.063 94.1003 148.735 94.4883 148.493 94.9292C148.251 95.3702 148.1 95.8553 148.049 96.3557C146.913 96.5261 144.022 98.0938 144.477 101.28C145.398 101.931 146.525 102.222 147.646 102.098Z" fill="#FFB573"/>
<path d="M183.987 90.8347C183.987 90.8347 183.68 91.9707 184.583 92.2149C185.486 92.4591 187.826 91.1527 189.752 92.4023C189.076 91.4481 186.957 90.0849 183.987 90.8347Z" fill="#E0E0E0"/>
<path d="M183.015 90.6473C183.015 90.6473 182.862 91.6981 182.073 91.7833C181.283 91.8685 179.914 90.4542 177.983 91.3573C178.663 90.7642 179.5 90.3814 180.394 90.2554C181.287 90.1294 182.198 90.2655 183.015 90.6473Z" fill="#E0E0E0"/>
<path d="M180.942 112.095C188.326 111.374 201.112 104.711 195.33 102.587C191.689 105.478 185.571 106.631 182.692 106.637C181.624 105.608 181.289 102.74 182.578 101.235C179.562 100.979 175.773 107.068 180.942 112.095Z" fill="#FAFAFA"/>
<path d="M182.692 106.636C185.372 104.79 193.864 100.309 196.244 100.349C196.523 101.27 196.568 102.246 196.375 103.189C196.375 103.189 193.239 106.619 182.692 106.636Z" fill="#E0E0E0"/>
<path d="M182.692 106.636C182.692 106.636 183.106 100.848 182.584 99.6272C182.144 99.7984 181.756 100.08 181.458 100.446C181.159 100.811 180.96 101.247 180.88 101.712C180.88 101.712 181.436 105.75 182.692 106.636Z" fill="#E0E0E0"/>
<path d="M202.833 80.5255C198.988 80.9855 187.593 79.912 183.867 75.6179C180.141 71.3238 182.856 68.41 186.844 70.8922C186.844 70.8922 184.197 67.291 188.451 68.1942C192.467 69.0462 197.221 76.0212 203.259 75.7259C208.399 75.4703 206.633 80.0881 202.833 80.5255Z" fill="#E0E0E0"/>
<path d="M201.038 95.9581C199.249 97.4065 196.892 97.4576 195.773 96.0774C194.654 94.6971 195.205 92.4024 196.982 90.9654C198.76 89.5283 201.129 89.4658 202.248 90.8461C203.367 92.2263 202.821 94.5097 201.038 95.9581Z" fill="#263238"/>
<path d="M186.225 98.1731C186.02 98.0955 185.842 97.9622 185.709 97.7884C185.577 97.6145 185.496 97.407 185.475 97.1894C185.454 96.9718 185.495 96.7528 185.593 96.5571C185.69 96.3615 185.841 96.1972 186.027 96.0826C186.213 95.9681 186.428 95.908 186.646 95.9092C186.865 95.9104 187.079 95.9727 187.264 96.0892C187.449 96.2057 187.597 96.3717 187.693 96.5684C187.788 96.765 187.826 96.9845 187.804 97.2018C187.719 97.5375 187.506 97.8268 187.211 98.0082C186.916 98.1896 186.562 98.2488 186.225 98.1731Z" fill="#263238"/>
<path d="M200.919 92.1525C200.82 92.1518 200.722 92.1284 200.633 92.0841C200.545 92.0398 200.468 91.9757 200.408 91.8969C200.357 91.8305 200.32 91.7548 200.298 91.674C200.277 91.5933 200.271 91.5091 200.282 91.4263C200.294 91.3435 200.321 91.2637 200.363 91.1914C200.405 91.1191 200.46 91.0558 200.527 91.0051C201.964 89.9089 202.839 87.1825 202.714 84.1891C202.634 82.292 201.97 77.5719 197.602 74.783C197.531 74.7383 197.469 74.68 197.421 74.6115C197.373 74.5431 197.338 74.4658 197.32 74.384C197.301 74.3023 197.299 74.2177 197.313 74.1351C197.328 74.0525 197.358 73.9735 197.403 73.9026C197.448 73.8318 197.506 73.7704 197.574 73.7221C197.643 73.6737 197.72 73.6394 197.802 73.6209C197.884 73.6024 197.968 73.6003 198.051 73.6145C198.133 73.6287 198.212 73.6591 198.283 73.7038C201.725 75.8963 203.81 79.7019 203.997 84.138C204.139 87.546 203.089 90.6359 201.311 91.9934C201.202 92.09 201.064 92.1462 200.919 92.1525Z" fill="#263238"/>
<path d="M189.388 98.173C188.455 98.1717 187.524 98.1091 186.599 97.9856C186.557 97.9807 186.517 97.9675 186.48 97.9468C186.443 97.9261 186.411 97.8983 186.385 97.865C186.359 97.8317 186.34 97.7935 186.329 97.7528C186.318 97.7121 186.315 97.6696 186.321 97.6278C186.334 97.5448 186.378 97.47 186.445 97.4191C186.512 97.3683 186.596 97.3453 186.679 97.3551C193.495 98.2469 197.567 95.4467 197.607 95.4183C197.676 95.3693 197.762 95.3499 197.846 95.3642C197.93 95.3786 198.004 95.4256 198.053 95.4949C198.102 95.5642 198.121 95.6501 198.107 95.7337C198.093 95.8174 198.046 95.8919 197.976 95.9408C197.829 96.0487 194.75 98.173 189.388 98.173Z" fill="#263238"/>
<path d="M170.968 144.584V143.585H170.508L170.747 142.295H169.832L169.599 143.585H168.866L169.105 142.295H168.168L168.009 143.176V147.765H168.128L168.361 146.499H169.088L168.855 147.765H169.781L170.014 146.499H170.968V145.499H170.161L170.332 144.584H170.968ZM169.264 145.499H168.543L168.713 144.584H169.429L169.264 145.499Z" fill="white"/>
<path d="M174.49 142.29V147.68H173.138V144.147C172.944 144.318 172.733 144.469 172.507 144.596C172.259 144.725 172.001 144.834 171.735 144.92V143.704C172.122 143.585 172.483 143.392 172.797 143.136C173.045 142.9 173.239 142.613 173.365 142.295L174.49 142.29Z" fill="white"/>
<path d="M223.133 151.287H60.4919V155.712H223.133V151.287Z" fill="#7500B0"/>
<path opacity="0.5" d="M223.133 151.287H60.4919V155.712H223.133V151.287Z" fill="white"/>
<path opacity="0.5" d="M223.133 151.287H186.099V155.712H223.133V151.287Z" fill="white"/>
<path d="M185.446 155.706H186.094V151.281H185.446V155.706Z" fill="white"/>
<path d="M220.367 155.712L225.274 238.089H223.326L217.436 158.654H191.791L185.906 238.089H183.958L188.86 155.712H220.367Z" fill="#7500B0"/>
<path opacity="0.5" d="M220.367 155.712L225.274 238.089H223.326L217.436 158.654H191.791L185.906 238.089H183.958L188.86 155.712H220.367Z" fill="white"/>
<path d="M94.8957 155.712L99.8033 238.089H97.855L91.9705 158.654H66.3197L60.4352 238.089H58.4869L63.3945 155.712H94.8957Z" fill="#7500B0"/>
<path opacity="0.2" d="M94.8957 155.712L99.8033 238.089H97.855L91.9705 158.654H66.3197L60.4352 238.089H58.4869L63.3945 155.712H94.8957Z" fill="white"/>
<path d="M134.025 139.825H74.124L68.6882 103.49H128.595L134.025 139.825Z" fill="#7500B0"/>
<path opacity="0.3" d="M100.678 139.825H108.92L106.949 123.08L104.404 130.135L100.678 139.825Z" fill="black"/>
<path opacity="0.3" d="M134.025 139.825H133.338L127.908 103.49H128.595L134.025 139.825Z" fill="black"/>
<path d="M112.299 149.748H95.9977V151.287H113.708L112.299 149.748Z" fill="#7500B0"/>
<path opacity="0.3" d="M112.299 149.748H95.9977V151.287H113.708L112.299 149.748Z" fill="black"/>
<path d="M98.1106 129.089L97.8834 130.765H97.2018C96.864 130.766 96.5373 130.886 96.2796 131.104C96.0218 131.322 95.8495 131.625 95.7932 131.958L94.3902 140.518C94.3565 140.721 94.3674 140.93 94.4224 141.129C94.4773 141.329 94.5748 141.513 94.7083 141.671C94.8417 141.829 95.0079 141.956 95.1952 142.043C95.3825 142.13 95.5866 142.176 95.7932 142.176H96.3612V142.863H92.584V129.089H98.1106Z" fill="#7500B0"/>
<path opacity="0.3" d="M98.1106 129.089L97.8834 130.765H97.2018C96.864 130.766 96.5373 130.886 96.2796 131.104C96.0218 131.322 95.8495 131.625 95.7932 131.958L94.3902 140.518C94.3565 140.721 94.3674 140.93 94.4224 141.129C94.4773 141.329 94.5748 141.513 94.7083 141.671C94.8417 141.829 95.0079 141.956 95.1952 142.043C95.3825 142.13 95.5866 142.176 95.7932 142.176H96.3612V142.863H92.584V129.089H98.1106Z" fill="black"/>
<path d="M92.5839 121.66L87.7162 151.287H102.751L107.619 121.66H92.5839ZM100.917 132.424L99.5079 140.978C99.454 141.311 99.2834 141.615 99.0264 141.835C98.7695 142.054 98.4429 142.175 98.1049 142.176H95.2024C94.9956 142.176 94.7914 142.13 94.6039 142.043C94.4163 141.956 94.2499 141.829 94.116 141.672C93.9821 141.514 93.884 141.329 93.8284 141.13C93.7728 140.931 93.761 140.722 93.7938 140.518L95.2024 131.958C95.2577 131.624 95.4296 131.321 95.6877 131.103C95.9457 130.884 96.273 130.765 96.6111 130.765H99.5079C99.7164 130.762 99.923 130.805 100.113 130.891C100.303 130.977 100.472 131.103 100.608 131.261C100.744 131.42 100.844 131.606 100.9 131.806C100.956 132.007 100.968 132.218 100.934 132.424H100.917Z" fill="#7500B0"/>
<path opacity="0.3" d="M102.768 151.287L102.041 151.19L106.892 121.66H107.636L102.768 151.287Z" fill="black"/>
<path opacity="0.3" d="M100.706 114.39H99.8374L98.707 106.835H99.5761L100.706 114.39Z" fill="black"/>
<path opacity="0.3" d="M102.325 114.39H101.45L100.326 106.835H101.195L102.325 114.39Z" fill="black"/>
<path opacity="0.3" d="M103.944 114.39H103.069L101.939 106.835H102.814L103.944 114.39Z" fill="black"/>
<path opacity="0.3" d="M105.563 114.39H104.688L103.558 106.835H104.432L105.563 114.39Z" fill="black"/>
<path opacity="0.3" d="M107.176 114.39H106.307L105.177 106.835H106.051L107.176 114.39Z" fill="black"/>
<path opacity="0.3" d="M99.0876 114.39H98.2186L97.0883 106.835H97.9573L99.0876 114.39Z" fill="black"/>
<path opacity="0.3" d="M97.4688 114.39H96.5998L95.4695 106.835H96.3442L97.4688 114.39Z" fill="black"/>
<path opacity="0.3" d="M95.85 114.39H94.9809L93.8506 106.835H94.7253L95.85 114.39Z" fill="black"/>
<path opacity="0.3" d="M94.2369 114.39H93.3621L92.2318 106.835H93.1065L94.2369 114.39Z" fill="black"/>
</svg>
