<svg width="284" height="284" viewBox="0 0 284 284" fill="none" xmlns="http://www.w3.org/2000/svg">
<path d="M72.829 229.398C113.015 250.846 178.17 250.846 218.356 229.398C258.542 207.951 258.548 173.166 218.356 151.719C178.165 130.271 113.015 130.265 72.829 151.719C32.643 173.172 32.643 207.945 72.829 229.398Z" fill="#EBEBEB"/>
<path d="M230.176 176.182L224.314 172.774C224.314 172.774 222.877 160.216 223.832 150.492C225.178 136.82 234.005 120.388 244.53 124.239C255.055 128.09 239.696 142.045 236.288 153.633C232.88 165.22 230.176 176.182 230.176 176.182Z" fill="#28BAD2"/>
<path opacity="0.1" d="M230.176 176.182L224.314 172.774C224.314 172.774 222.877 160.216 223.832 150.492C225.178 136.82 234.005 120.388 244.53 124.239C255.055 128.09 239.696 142.045 236.288 153.633C232.88 165.22 230.176 176.182 230.176 176.182Z" fill="black"/>
<path d="M227.126 174.643C227.071 174.643 227.018 174.624 226.976 174.589C226.935 174.553 226.907 174.504 226.899 174.45C224.905 159.114 230.364 135.934 241.383 127.141C241.406 127.123 241.432 127.109 241.46 127.101C241.488 127.093 241.517 127.09 241.546 127.093C241.575 127.096 241.603 127.105 241.629 127.119C241.655 127.133 241.677 127.152 241.695 127.175C241.733 127.222 241.75 127.282 241.744 127.341C241.737 127.401 241.708 127.455 241.661 127.493C230.761 136.195 225.371 159.193 227.348 174.387C227.356 174.447 227.34 174.507 227.304 174.555C227.268 174.603 227.214 174.634 227.155 174.643H227.126Z" fill="white"/>
<path d="M233.306 178.608L229.137 176.194C229.137 176.194 228.427 167.577 232.653 157.109C236.328 148.021 245.455 140.432 250.045 142.023C254.634 143.613 254.521 146.868 252.283 150.281C250.045 153.695 236.43 161.835 233.306 178.608Z" fill="#28BAD2"/>
<path d="M230.722 178.829C230.692 178.828 230.663 178.82 230.636 178.808C230.61 178.795 230.586 178.777 230.566 178.754C230.546 178.732 230.532 178.706 230.522 178.678C230.513 178.65 230.509 178.62 230.511 178.591C231.886 157.143 242.735 146.595 249.255 144.988C249.314 144.974 249.376 144.983 249.428 145.014C249.48 145.045 249.518 145.094 249.534 145.152C249.548 145.21 249.538 145.271 249.507 145.322C249.476 145.373 249.427 145.41 249.369 145.425C242.502 147.129 232.255 158.546 230.972 178.619C230.969 178.649 230.961 178.679 230.947 178.706C230.934 178.733 230.914 178.757 230.891 178.777C230.868 178.797 230.841 178.811 230.812 178.82C230.783 178.829 230.752 178.832 230.722 178.829Z" fill="white"/>
<path d="M61.3439 177.852C61.3439 177.852 62.1221 165.26 54.8062 156.626C47.4904 147.992 37.965 148.026 34.8126 149.634C31.6602 151.241 29.5416 155.836 34.966 159.125C40.3904 162.414 51.9265 168.997 53.8463 174.87L61.3439 177.852Z" fill="#28BAD2"/>
<path opacity="0.1" d="M61.3439 177.852C61.3439 177.852 62.1221 165.26 54.8062 156.626C47.4904 147.992 37.965 148.026 34.8126 149.634C31.6602 151.241 29.5416 155.836 34.966 159.125C40.3904 162.414 51.9265 168.997 53.8463 174.87L61.3439 177.852Z" fill="black"/>
<path d="M57.9019 174.7C57.8316 174.699 57.764 174.672 57.7117 174.625C57.6595 174.578 57.6261 174.514 57.6179 174.444C56.1127 160.511 42.1853 152.792 36.6359 151.917C36.5986 151.912 36.5628 151.899 36.5305 151.879C36.4982 151.86 36.47 151.834 36.4476 151.804C36.4252 151.774 36.409 151.739 36.3999 151.702C36.3907 151.666 36.3889 151.628 36.3945 151.591C36.4001 151.553 36.413 151.517 36.4325 151.485C36.4519 151.453 36.4775 151.425 36.5078 151.402C36.5382 151.38 36.5726 151.364 36.6092 151.354C36.6458 151.345 36.6838 151.344 36.7211 151.349C42.4011 152.241 56.6409 160.136 58.1859 174.382C58.1898 174.419 58.1863 174.457 58.1755 174.493C58.1648 174.529 58.147 174.562 58.1232 174.591C58.0994 174.62 58.0702 174.644 58.037 174.662C58.0039 174.679 57.9676 174.69 57.9303 174.694L57.9019 174.7Z" fill="white"/>
<path d="M55.1925 171.502C53.3579 167.321 51.2847 165.447 45.3207 166.447C39.3567 167.446 40.2087 167.293 32.9099 165.424C29.8313 164.64 26.3722 164.515 23.4186 165.845C20.9251 166.981 19.062 169.253 21.476 171.672C24.1911 174.376 28.2409 175.302 31.24 177.682C31.9203 178.163 32.4612 178.815 32.8076 179.573C33.5972 181.584 32.0181 183.85 32.4782 185.957C32.9383 188.065 35.1535 189.189 37.2324 189.326C39.3112 189.462 41.3617 188.837 43.4349 188.599C45.5081 188.36 47.8369 188.599 49.2683 190.138C50.8019 191.768 50.8416 194.375 52.2673 196.108C54.403 198.703 59.6513 199.425 62.4913 197.812L69.9264 193.523C74.8396 186.9 67.0864 181.652 63.0252 176.512C61.0543 174.007 56.2944 174.018 55.1925 171.502Z" fill="#28BAD2"/>
<path d="M65.32 189.524C65.2716 189.525 65.2238 189.513 65.1818 189.489C65.1398 189.465 65.1051 189.43 65.0814 189.388C56.6012 175.648 33.512 168.696 25.3441 168.128C25.2698 168.122 25.2007 168.087 25.1518 168.031C25.1029 167.975 25.0781 167.901 25.0828 167.827C25.0887 167.752 25.1233 167.682 25.1794 167.633C25.2356 167.583 25.3089 167.557 25.3839 167.56C33.6596 168.128 56.9704 175.182 65.5642 189.104C65.6023 189.169 65.6135 189.246 65.5954 189.32C65.5774 189.393 65.5316 189.456 65.4676 189.496C65.4212 189.517 65.3707 189.526 65.32 189.524Z" fill="white"/>
<path d="M38.4593 183.049C38.415 183.05 38.3712 183.041 38.3317 183.021C38.2921 183.001 38.2579 182.972 38.2321 182.936C38.1869 182.876 38.1675 182.8 38.1781 182.725C38.1888 182.651 38.2286 182.583 38.2889 182.538C38.5843 182.317 45.6275 177.148 52.4889 177.046C52.5259 177.045 52.5627 177.052 52.5972 177.065C52.6316 177.079 52.6629 177.099 52.6894 177.125C52.7158 177.151 52.7368 177.182 52.7512 177.216C52.7655 177.25 52.7729 177.287 52.7729 177.324C52.7737 177.361 52.7671 177.398 52.7535 177.433C52.7399 177.468 52.7196 177.5 52.6938 177.527C52.6679 177.553 52.637 177.575 52.6028 177.59C52.5687 177.605 52.5319 177.613 52.4946 177.614C45.8319 177.71 38.7149 182.942 38.6411 182.993C38.5898 183.034 38.5249 183.054 38.4593 183.049Z" fill="white"/>
<path d="M64.7917 194.352C64.8524 195.178 65.1067 195.978 65.534 196.688C65.9612 197.397 66.5495 197.996 67.2512 198.436L136.167 238.225C136.929 238.611 137.771 238.813 138.626 238.813C139.481 238.813 140.323 238.611 141.086 238.225L235.374 183.782C236.117 183.39 236.739 182.802 237.173 182.082C237.607 181.363 237.836 180.538 237.836 179.698C237.836 178.858 237.607 178.033 237.173 177.314C236.739 176.594 236.117 176.006 235.374 175.614L166.464 135.854C165.702 135.467 164.859 135.266 164.004 135.266C163.15 135.266 162.307 135.467 161.545 135.854L67.2512 190.28C66.551 190.719 65.9636 191.316 65.5364 192.023C65.1093 192.731 64.8542 193.528 64.7917 194.352Z" fill="#37474F"/>
<path d="M93.2258 175.273L67.2512 190.28C66.508 190.672 65.8859 191.26 65.452 191.98C65.0181 192.699 64.7888 193.524 64.7888 194.364C64.7888 195.204 65.0181 196.029 65.452 196.748C65.8859 197.468 66.508 198.056 67.2512 198.448L136.167 238.236C136.925 238.632 137.771 238.828 138.626 238.804V175.273H93.2258Z" fill="#263238"/>
<path d="M62.48 190.359C61.7955 189.893 61.2302 189.272 60.8296 188.547C60.429 187.822 60.2045 187.013 60.174 186.185V103.944C60.2197 103.09 60.4663 102.26 60.8936 101.519C61.321 100.779 61.9171 100.15 62.6334 99.684L156.921 45.2412C157.633 44.7947 158.453 44.5507 159.293 44.5352C160.133 44.5197 160.961 44.7334 161.689 45.1533C162.417 45.5732 163.016 46.1835 163.423 46.9185C163.83 47.6535 164.029 48.4855 163.999 49.3251V131.571C163.952 132.425 163.705 133.255 163.278 133.995C162.851 134.735 162.255 135.364 161.539 135.831L67.2512 190.28C66.518 190.667 65.704 190.875 64.8751 190.889C64.0463 190.903 63.2258 190.722 62.48 190.359Z" fill="#455A64"/>
<path d="M71.7157 107.767L60.8953 101.519C60.4644 102.256 60.2279 103.09 60.208 103.944V186.185C60.2385 187.013 60.4631 187.822 60.8637 188.547C61.2642 189.272 61.8296 189.893 62.5141 190.359C63.26 190.719 64.0799 190.898 64.9077 190.882C65.7355 190.866 66.548 190.656 67.2796 190.269L78.0375 184.06L71.7157 107.767Z" fill="#263238"/>
<path d="M64.7917 106.614V188.849C64.7917 190.416 65.8937 191.052 67.2512 190.269L161.539 135.832C162.255 135.364 162.85 134.735 163.278 133.995C163.705 133.255 163.952 132.425 163.999 131.572V49.3308C163.999 47.7631 162.897 47.1269 161.539 47.9108L67.2512 102.354C66.5349 102.82 65.9388 103.449 65.5114 104.189C65.0841 104.929 64.8375 105.76 64.7917 106.614Z" fill="#37474F"/>
<path d="M67.2512 193.12L136.167 232.88C136.929 233.267 137.771 233.468 138.626 233.468C139.481 233.468 140.323 233.267 141.085 232.88L235.373 178.437C236.737 177.653 236.737 176.381 235.373 175.597L166.464 135.837C165.702 135.451 164.859 135.249 164.004 135.249C163.15 135.249 162.307 135.451 161.545 135.837L67.2512 190.28C65.888 191.053 65.888 192.325 67.2512 193.12Z" fill="#455A64"/>
<path d="M68.5747 106.915L160.222 54.0055C161.034 53.534 161.698 53.9146 161.698 54.8575V126.045C161.67 126.557 161.521 127.055 161.265 127.499C161.008 127.943 160.651 128.32 160.222 128.601L68.5747 181.51C67.7568 181.982 67.0979 181.601 67.0979 180.658V109.471C67.1252 108.958 67.2732 108.46 67.5299 108.016C67.7865 107.571 68.1445 107.194 68.5747 106.915Z" fill="white"/>
<path d="M75.2487 190.979L162.772 140.427C163.153 140.233 163.574 140.133 164.002 140.133C164.429 140.133 164.85 140.233 165.231 140.427L169.713 143.011C169.861 143.061 169.99 143.157 170.081 143.284C170.173 143.412 170.222 143.564 170.222 143.721C170.222 143.878 170.173 144.03 170.081 144.158C169.99 144.285 169.861 144.381 169.713 144.431L82.1726 194.977C81.7915 195.17 81.3702 195.271 80.9429 195.271C80.5156 195.271 80.0943 195.17 79.7132 194.977L75.2487 192.399C75.1003 192.348 74.9715 192.253 74.8802 192.125C74.7889 191.998 74.7399 191.845 74.7399 191.689C74.7399 191.532 74.7889 191.379 74.8802 191.252C74.9715 191.124 75.1003 191.029 75.2487 190.979Z" fill="#263238"/>
<path d="M86.7905 197.664L174.308 147.112C174.69 146.919 175.112 146.818 175.54 146.818C175.969 146.818 176.391 146.919 176.773 147.112L204.304 163.016C204.452 163.066 204.581 163.162 204.672 163.289C204.764 163.417 204.813 163.569 204.813 163.726C204.813 163.883 204.764 164.035 204.672 164.163C204.581 164.29 204.452 164.386 204.304 164.436L116.883 214.886C116.501 215.079 116.079 215.18 115.651 215.18C115.222 215.18 114.8 215.079 114.418 214.886L86.7905 199.056C86.6492 199.002 86.5276 198.907 86.4418 198.783C86.356 198.658 86.3101 198.511 86.3101 198.36C86.3101 198.209 86.356 198.061 86.4418 197.937C86.5276 197.813 86.6492 197.717 86.7905 197.664Z" fill="#263238"/>
<path d="M165.243 169.832L167.986 168.247C168.1 168.179 168.094 168.071 167.986 167.997L164.817 166.168C164.749 166.134 164.674 166.115 164.598 166.115C164.522 166.115 164.447 166.134 164.379 166.168L161.641 167.753C161.522 167.821 161.528 167.929 161.641 168.003L164.811 169.832C164.878 169.866 164.952 169.884 165.027 169.884C165.102 169.884 165.176 169.866 165.243 169.832ZM159.835 163.584L157.097 165.169C156.978 165.231 156.984 165.345 157.097 165.419L160.267 167.248C160.335 167.283 160.41 167.301 160.486 167.301C160.562 167.301 160.637 167.283 160.704 167.248L163.448 165.663C163.561 165.595 163.556 165.481 163.448 165.413L160.273 163.584C160.205 163.549 160.13 163.531 160.054 163.531C159.978 163.531 159.903 163.549 159.835 163.584ZM150.986 168.696L146.345 171.371C146.232 171.44 146.237 171.553 146.345 171.627L149.515 173.456C149.582 173.491 149.657 173.509 149.733 173.509C149.809 173.509 149.884 173.491 149.952 173.456L154.587 170.781C154.706 170.712 154.695 170.599 154.587 170.531L151.417 168.696C151.351 168.661 151.277 168.643 151.202 168.643C151.126 168.643 151.052 168.661 150.986 168.696ZM155.831 165.896L153.093 167.481C152.974 167.549 152.979 167.662 153.093 167.73L156.263 169.559C156.33 169.594 156.405 169.613 156.481 169.613C156.557 169.613 156.632 169.594 156.7 169.559L159.443 167.975C159.557 167.907 159.551 167.799 159.443 167.725L156.268 165.856C156.201 165.821 156.126 165.803 156.05 165.803C155.973 165.803 155.898 165.821 155.831 165.856V165.896ZM145.079 172.104L142.341 173.683C142.222 173.751 142.233 173.865 142.341 173.939L145.51 175.768C145.577 175.801 145.651 175.819 145.726 175.819C145.801 175.819 145.875 175.801 145.942 175.768L148.685 174.183C148.799 174.115 148.793 174.001 148.685 173.933L145.516 172.104C145.448 172.069 145.373 172.051 145.297 172.051C145.221 172.051 145.146 172.069 145.079 172.104ZM141.103 174.416L138.365 176.001C138.246 176.063 138.257 176.177 138.365 176.25L141.534 178.079C141.602 178.114 141.677 178.133 141.753 178.133C141.829 178.133 141.904 178.114 141.972 178.079L144.715 176.495C144.829 176.427 144.823 176.313 144.715 176.245L141.512 174.376C141.444 174.341 141.369 174.323 141.293 174.323C141.217 174.323 141.142 174.341 141.074 174.376L141.103 174.416ZM153.57 181.857L156.308 180.272C156.427 180.204 156.416 180.096 156.308 180.022L153.139 178.193C153.072 178.158 152.998 178.14 152.923 178.14C152.848 178.14 152.773 178.158 152.707 178.193L149.963 179.778C149.85 179.846 149.855 179.954 149.963 180.028L153.133 181.857C153.199 181.883 153.27 181.894 153.341 181.889C153.411 181.884 153.48 181.863 153.542 181.828L153.57 181.857ZM149.56 184.168L152.304 182.584C152.417 182.521 152.412 182.408 152.304 182.334L149.134 180.505C149.067 180.47 148.992 180.452 148.915 180.452C148.839 180.452 148.764 180.47 148.697 180.505L145.959 182.09C145.84 182.158 145.851 182.271 145.959 182.339L149.128 184.168C149.193 184.194 149.264 184.205 149.333 184.2C149.403 184.195 149.471 184.175 149.532 184.14L149.56 184.168ZM145.556 186.48L148.299 184.901C148.413 184.833 148.407 184.719 148.299 184.646L145.13 182.817C145.062 182.783 144.987 182.766 144.911 182.766C144.835 182.766 144.76 182.783 144.692 182.817L141.955 184.401C141.835 184.469 141.847 184.583 141.955 184.651L145.118 186.48C145.184 186.506 145.255 186.517 145.326 186.512C145.397 186.507 145.466 186.487 145.527 186.452L145.556 186.48ZM141.58 188.792L144.323 187.213C144.437 187.145 144.431 187.031 144.323 186.957L141.154 185.128C141.086 185.093 141.011 185.075 140.935 185.075C140.859 185.075 140.784 185.093 140.716 185.128L137.979 186.707C137.859 186.776 137.865 186.889 137.979 186.963L141.148 188.792C141.272 188.832 141.407 188.822 141.523 188.764L141.58 188.792ZM161.295 172.184L164.038 170.599C164.152 170.536 164.146 170.423 164.038 170.349L160.869 168.52C160.801 168.486 160.726 168.469 160.65 168.469C160.574 168.469 160.5 168.486 160.432 168.52L157.694 170.105C157.575 170.173 157.58 170.286 157.694 170.355L160.863 172.184C160.924 172.205 160.989 172.213 161.054 172.208C161.118 172.203 161.181 172.185 161.238 172.155L161.295 172.184ZM157.603 179.568L163.715 176.035C163.828 175.972 163.823 175.859 163.715 175.785L156.018 171.343C155.951 171.308 155.876 171.29 155.8 171.29C155.724 171.29 155.649 171.308 155.581 171.343L152.423 173.172C152.304 173.234 152.315 173.348 152.423 173.422L156.501 175.773C156.626 175.847 156.632 175.961 156.501 176.029L153.928 177.426C153.814 177.489 153.82 177.602 153.928 177.676L157.109 179.488C157.174 179.527 157.248 179.551 157.324 179.555C157.4 179.56 157.476 179.547 157.546 179.516L157.603 179.568ZM137.127 176.728L134.389 178.312C134.27 178.38 134.275 178.488 134.389 178.562L137.558 180.391C137.626 180.426 137.701 180.444 137.777 180.444C137.853 180.444 137.928 180.426 137.996 180.391L140.739 178.806C140.853 178.738 140.847 178.63 140.739 178.557L137.57 176.728C137.497 176.677 137.412 176.648 137.324 176.643C137.236 176.638 137.148 176.657 137.07 176.699L137.127 176.728ZM133.151 179.039L130.322 180.624C130.208 180.692 130.214 180.806 130.322 180.874L133.491 182.703C133.559 182.738 133.634 182.756 133.71 182.756C133.786 182.756 133.861 182.738 133.929 182.703L136.672 181.118C136.786 181.056 136.78 180.942 136.672 180.868L133.48 179.022C133.416 178.989 133.346 178.971 133.274 178.969C133.202 178.967 133.131 178.982 133.065 179.011L133.151 179.039ZM113.032 204.94C113.1 204.975 113.175 204.993 113.251 204.993C113.327 204.993 113.402 204.975 113.469 204.94L116.213 203.355C116.326 203.293 116.321 203.179 116.213 203.106L113.032 201.288C112.964 201.253 112.889 201.235 112.813 201.235C112.737 201.235 112.662 201.253 112.595 201.288L109.857 202.873C109.738 202.941 109.743 203.054 109.857 203.123L113.032 204.94ZM101.007 197.511L98.2641 199.095C98.1505 199.164 98.1561 199.272 98.2641 199.345L101.433 201.174C101.501 201.209 101.576 201.227 101.652 201.227C101.728 201.227 101.803 201.209 101.871 201.174L104.614 199.59C104.728 199.521 104.722 199.414 104.614 199.34L101.445 197.511C101.379 197.479 101.308 197.462 101.235 197.462C101.162 197.462 101.09 197.479 101.025 197.511H101.007ZM107.454 202.935C107.522 202.97 107.597 202.988 107.673 202.988C107.749 202.988 107.824 202.97 107.892 202.935L110.629 201.35C110.749 201.288 110.737 201.174 110.629 201.1L107.466 199.272C107.398 199.237 107.323 199.218 107.247 199.218C107.171 199.218 107.096 199.237 107.028 199.272L104.285 200.856C104.171 200.924 104.177 201.038 104.285 201.106L107.454 202.935ZM120.104 206.343L122.847 204.758C122.961 204.69 122.955 204.582 122.847 204.508L119.678 202.68C119.61 202.645 119.535 202.626 119.459 202.626C119.383 202.626 119.308 202.645 119.24 202.68L116.503 204.264C116.383 204.327 116.395 204.44 116.503 204.514L119.666 206.343C119.736 206.382 119.813 206.403 119.893 206.404C119.972 206.405 120.05 206.386 120.121 206.349L120.104 206.343ZM115.662 208.615C115.73 208.65 115.804 208.668 115.881 208.668C115.957 208.668 116.032 208.65 116.099 208.615L118.843 207.03C118.956 206.968 118.951 206.854 118.843 206.78L115.673 204.952C115.606 204.917 115.531 204.898 115.455 204.898C115.378 204.898 115.304 204.917 115.236 204.952L112.498 206.536C112.379 206.604 112.385 206.718 112.498 206.786L115.662 208.615ZM105.012 195.165L102.274 196.75C102.155 196.812 102.161 196.926 102.274 197L105.444 198.828C105.511 198.863 105.586 198.882 105.662 198.882C105.738 198.882 105.813 198.863 105.881 198.828L108.624 197.244C108.738 197.176 108.732 197.062 108.624 196.994L105.455 195.165C105.386 195.137 105.312 195.126 105.238 195.132C105.164 195.137 105.092 195.161 105.029 195.199L105.012 195.165ZM125.04 183.606L122.296 185.185C122.183 185.253 122.188 185.367 122.296 185.435L125.466 187.27C125.534 187.303 125.608 187.321 125.684 187.321C125.76 187.321 125.835 187.303 125.903 187.27L128.641 185.691C128.76 185.622 128.754 185.509 128.641 185.435L125.471 183.606C125.404 183.58 125.332 183.57 125.26 183.576C125.188 183.581 125.119 183.604 125.057 183.64L125.04 183.606ZM109.056 192.887L106.318 194.466C106.199 194.534 106.205 194.648 106.318 194.722L109.488 196.551C109.556 196.584 109.631 196.602 109.706 196.602C109.782 196.602 109.857 196.584 109.925 196.551L112.669 194.966C112.782 194.898 112.776 194.784 112.669 194.716L109.499 192.882C109.43 192.848 109.354 192.831 109.277 192.832C109.2 192.833 109.124 192.852 109.056 192.887ZM129.084 181.323L126.318 182.896C126.204 182.964 126.21 183.078 126.318 183.146L129.487 184.975C129.555 185.01 129.63 185.028 129.706 185.028C129.782 185.028 129.857 185.01 129.924 184.975L132.662 183.396C132.781 183.328 132.776 183.214 132.662 183.14L129.504 181.334C129.436 181.298 129.361 181.278 129.284 181.276C129.207 181.274 129.131 181.29 129.061 181.323H129.084ZM121.075 185.952L118.332 187.531C118.218 187.599 118.224 187.713 118.332 187.787L121.501 189.616C121.569 189.649 121.644 189.667 121.72 189.667C121.795 189.667 121.87 189.649 121.938 189.616L124.676 188.036C124.795 187.968 124.784 187.855 124.676 187.781L121.512 185.952C121.441 185.915 121.362 185.895 121.282 185.895C121.202 185.895 121.123 185.915 121.052 185.952H121.075ZM117.065 188.264L114.327 189.843C114.208 189.911 114.219 190.024 114.327 190.098L117.497 191.927C117.565 191.961 117.639 191.978 117.715 191.978C117.791 191.978 117.866 191.961 117.934 191.927L120.672 190.348C120.785 190.28 120.78 190.166 120.672 190.093L117.502 188.264C117.431 188.226 117.352 188.207 117.272 188.207C117.192 188.207 117.113 188.226 117.042 188.264H117.065ZM113.032 190.575L110.294 192.154C110.175 192.223 110.186 192.336 110.294 192.41L113.458 194.239C113.526 194.274 113.601 194.292 113.677 194.292C113.753 194.292 113.828 194.274 113.895 194.239L116.639 192.66C116.752 192.592 116.747 192.478 116.639 192.404L113.469 190.575C113.401 190.542 113.327 190.524 113.251 190.524C113.175 190.524 113.1 190.542 113.032 190.575ZM133.508 193.415L136.246 191.836C136.365 191.768 136.36 191.655 136.246 191.581L133.071 189.712C133.003 189.679 132.928 189.661 132.852 189.661C132.777 189.661 132.702 189.679 132.634 189.712L129.89 191.291C129.777 191.359 129.782 191.473 129.89 191.547L133.06 193.376C133.129 193.415 133.206 193.437 133.286 193.439C133.365 193.441 133.443 193.423 133.514 193.387L133.508 193.415ZM168.696 158.472L165.953 160.057C165.839 160.125 165.845 160.233 165.953 160.307L169.122 162.136C169.19 162.171 169.265 162.189 169.341 162.189C169.417 162.189 169.492 162.171 169.559 162.136L172.297 160.551C172.416 160.483 172.411 160.375 172.297 160.301L169.128 158.472C169.061 158.438 168.987 158.42 168.912 158.42C168.837 158.42 168.763 158.438 168.696 158.472ZM163.845 161.272L161.108 162.857C160.988 162.92 161 163.033 161.108 163.107L164.271 164.936C164.339 164.969 164.414 164.987 164.49 164.987C164.566 164.987 164.641 164.969 164.709 164.936L167.452 163.351C167.566 163.283 167.56 163.169 167.452 163.101L164.283 161.272C164.217 161.232 164.142 161.208 164.065 161.203C163.988 161.198 163.91 161.212 163.84 161.244L163.845 161.272ZM172.7 156.16L169.963 157.745C169.843 157.808 169.849 157.921 169.963 157.995L173.132 159.824C173.2 159.859 173.275 159.877 173.351 159.877C173.427 159.877 173.502 159.859 173.569 159.824L176.313 158.239C176.427 158.171 176.421 158.057 176.313 157.989L173.143 156.16C173.074 156.115 172.994 156.089 172.912 156.084C172.829 156.079 172.746 156.095 172.672 156.132L172.7 156.16ZM151.968 177.54L154.712 175.955C154.826 175.887 154.82 175.773 154.712 175.705L151.542 173.876C151.475 173.841 151.4 173.823 151.324 173.823C151.248 173.823 151.173 173.841 151.105 173.876L148.367 175.461C148.248 175.523 148.254 175.637 148.367 175.711L151.537 177.54C151.605 177.569 151.679 177.581 151.753 177.576C151.827 177.571 151.899 177.549 151.963 177.511L151.968 177.54ZM177.142 153.86C177.075 153.825 177 153.807 176.924 153.807C176.847 153.807 176.772 153.825 176.705 153.86L173.967 155.445C173.848 155.507 173.854 155.621 173.967 155.695L177.137 157.524C177.205 157.557 177.279 157.575 177.355 157.575C177.431 157.575 177.506 157.557 177.574 157.524L180.317 155.939C180.431 155.871 180.425 155.757 180.317 155.689L177.142 153.86ZM137.519 191.075L140.262 189.496C140.376 189.428 140.37 189.314 140.262 189.241L137.076 187.44C137.008 187.405 136.933 187.387 136.857 187.387C136.781 187.387 136.706 187.405 136.638 187.44L133.9 189.019C133.781 189.087 133.787 189.201 133.9 189.275L137.07 191.104C137.142 191.135 137.22 191.148 137.298 191.143C137.376 191.139 137.451 191.115 137.519 191.075ZM186.633 162.721L189.377 161.136C189.491 161.074 189.485 160.96 189.377 160.886L186.19 159.04C186.123 159.005 186.048 158.987 185.972 158.987C185.896 158.987 185.821 159.005 185.753 159.04L183.015 160.625C182.896 160.693 182.902 160.807 183.015 160.875L186.185 162.704C186.252 162.743 186.329 162.765 186.407 162.768C186.485 162.771 186.563 162.755 186.633 162.721ZM178.113 162.42L180.857 160.835C180.971 160.767 180.965 160.659 180.857 160.585L177.688 158.756C177.62 158.721 177.545 158.703 177.469 158.703C177.393 158.703 177.318 158.721 177.25 158.756L174.512 160.341C174.393 160.409 174.399 160.517 174.512 160.591L177.682 162.42C177.745 162.456 177.816 162.478 177.889 162.483C177.962 162.488 178.035 162.476 178.102 162.448L178.113 162.42ZM181.675 156.444C181.607 156.409 181.532 156.391 181.456 156.391C181.38 156.391 181.305 156.409 181.237 156.444L178.5 158.029C178.38 158.092 178.386 158.205 178.5 158.279L181.669 160.108C181.737 160.143 181.812 160.161 181.888 160.161C181.964 160.161 182.039 160.143 182.107 160.108L184.85 158.523C184.964 158.455 184.958 158.341 184.85 158.273L181.675 156.444ZM182.521 155.956L190.212 160.398C190.28 160.432 190.355 160.451 190.431 160.451C190.507 160.451 190.582 160.432 190.649 160.398L193.393 158.813C193.506 158.745 193.501 158.637 193.393 158.563L185.696 154.121C185.629 154.086 185.554 154.068 185.478 154.068C185.402 154.068 185.327 154.086 185.259 154.121L182.521 155.706C182.374 155.768 182.385 155.882 182.51 155.956H182.521ZM173.229 161.068L170.485 162.653C170.372 162.721 170.377 162.834 170.485 162.902L173.655 164.731C173.722 164.766 173.797 164.785 173.873 164.785C173.949 164.785 174.024 164.766 174.092 164.731L176.83 163.147C176.949 163.084 176.943 162.971 176.83 162.897L173.66 161.068C173.596 161.034 173.524 161.015 173.452 161.013C173.379 161.011 173.306 161.026 173.24 161.056L173.229 161.068ZM143.085 178.471L140.33 180.056C140.217 180.124 140.222 180.238 140.33 180.306L143.5 182.135C143.567 182.17 143.642 182.188 143.718 182.188C143.794 182.188 143.869 182.17 143.937 182.135L146.675 180.55C146.794 180.488 146.788 180.374 146.675 180.3L143.505 178.471C143.439 178.436 143.366 178.416 143.291 178.414C143.216 178.412 143.141 178.428 143.074 178.46L143.085 178.471ZM182.203 165.032C182.271 165.067 182.346 165.086 182.422 165.086C182.498 165.086 182.573 165.067 182.64 165.032L185.384 163.448C185.498 163.385 185.492 163.272 185.384 163.198L182.214 161.369C182.146 161.335 182.072 161.318 181.996 161.318C181.92 161.318 181.845 161.335 181.777 161.369L179.039 162.954C178.92 163.022 178.926 163.135 179.039 163.204L182.203 165.032ZM147.089 176.16L144.352 177.744C144.232 177.812 144.238 177.92 144.352 177.994L147.521 179.823C147.589 179.858 147.664 179.876 147.74 179.876C147.816 179.876 147.891 179.858 147.958 179.823L150.702 178.238C150.815 178.17 150.81 178.062 150.702 177.989L147.532 176.16C147.464 176.12 147.386 176.098 147.307 176.096C147.227 176.094 147.149 176.112 147.078 176.148L147.089 176.16ZM117.065 202.64C117.132 202.675 117.207 202.693 117.284 202.693C117.36 202.693 117.435 202.675 117.502 202.64L120.246 201.055C120.359 200.987 120.354 200.879 120.246 200.805L117.076 198.976C117.009 198.941 116.934 198.923 116.858 198.923C116.781 198.923 116.706 198.941 116.639 198.976L113.901 200.561C113.782 200.629 113.793 200.737 113.901 200.811L117.065 202.64ZM111.044 196.96L108.301 198.544C108.187 198.613 108.193 198.721 108.301 198.794L111.47 200.623C111.538 200.658 111.613 200.676 111.689 200.676C111.765 200.676 111.84 200.658 111.907 200.623L114.645 199.039C114.764 198.97 114.759 198.863 114.645 198.789L111.476 196.96C111.407 196.924 111.331 196.905 111.254 196.905C111.177 196.905 111.101 196.924 111.033 196.96H111.044ZM121.512 200.328L124.25 198.743C124.364 198.675 124.358 198.562 124.25 198.493L121.081 196.664C121.013 196.63 120.938 196.611 120.862 196.611C120.786 196.611 120.711 196.63 120.643 196.664L117.877 198.232C117.763 198.295 117.769 198.408 117.877 198.482L121.047 200.311C121.115 200.351 121.192 200.374 121.272 200.377C121.351 200.38 121.43 200.363 121.501 200.328H121.512ZM125.517 198.016L128.254 196.432C128.374 196.363 128.362 196.25 128.254 196.182L125.091 194.353C125.023 194.318 124.948 194.3 124.872 194.3C124.796 194.3 124.721 194.318 124.653 194.353L121.91 195.932C121.796 196 121.802 196.113 121.91 196.187L125.079 198.016C125.149 198.052 125.226 198.07 125.304 198.07C125.382 198.07 125.459 198.052 125.528 198.016H125.517ZM129.493 195.699L132.23 194.12C132.35 194.052 132.344 193.938 132.23 193.87L129.061 192.035C128.993 192.002 128.918 191.984 128.842 191.984C128.766 191.984 128.692 192.002 128.624 192.035L125.88 193.614C125.767 193.682 125.772 193.796 125.88 193.87L129.05 195.699C129.119 195.737 129.198 195.756 129.277 195.756C129.356 195.756 129.434 195.737 129.504 195.699H129.493ZM115.02 194.648L112.277 196.233C112.163 196.295 112.169 196.409 112.277 196.483L115.446 198.312C115.514 198.346 115.589 198.365 115.665 198.365C115.741 198.365 115.816 198.346 115.883 198.312L118.627 196.727C118.74 196.659 118.735 196.545 118.627 196.477L115.457 194.648C115.392 194.616 115.32 194.599 115.247 194.599C115.174 194.599 115.103 194.616 115.037 194.648H115.02ZM119.024 192.336L116.287 193.915C116.167 193.983 116.173 194.097 116.287 194.171L119.456 196C119.524 196.033 119.599 196.051 119.675 196.051C119.751 196.051 119.825 196.033 119.894 196L122.688 194.426C122.802 194.358 122.796 194.245 122.688 194.177L119.519 192.348C119.447 192.304 119.365 192.28 119.282 192.278C119.198 192.276 119.115 192.296 119.042 192.336H119.024ZM135.048 183.089L132.344 184.668C132.23 184.736 132.236 184.85 132.344 184.924L135.514 186.753C135.582 186.786 135.656 186.804 135.732 186.804C135.808 186.804 135.883 186.786 135.951 186.753L138.689 185.174C138.808 185.106 138.797 184.992 138.689 184.918L135.525 183.089C135.454 183.05 135.375 183.03 135.295 183.03C135.214 183.03 135.135 183.05 135.065 183.089H135.048ZM131.038 185.401L128.3 186.98C128.186 187.048 128.192 187.162 128.3 187.236L131.469 189.065C131.537 189.098 131.612 189.116 131.688 189.116C131.764 189.116 131.839 189.098 131.907 189.065L134.644 187.486C134.764 187.417 134.752 187.304 134.644 187.23L131.475 185.401C131.409 185.37 131.338 185.354 131.265 185.354C131.192 185.354 131.12 185.37 131.055 185.401H131.038ZM139.052 180.772L136.32 182.356C136.206 182.425 136.212 182.538 136.32 182.606L139.49 184.441C139.558 184.475 139.632 184.492 139.708 184.492C139.784 184.492 139.859 184.475 139.927 184.441L142.665 182.856C142.784 182.794 142.778 182.68 142.665 182.606L139.495 180.777C139.429 180.745 139.357 180.727 139.283 180.726C139.209 180.725 139.136 180.741 139.069 180.772H139.052ZM123.029 190.024L120.291 191.604C120.172 191.672 120.177 191.785 120.291 191.859L123.461 193.688C123.529 193.722 123.603 193.739 123.679 193.739C123.755 193.739 123.83 193.722 123.898 193.688L126.641 192.103C126.755 192.035 126.749 191.922 126.641 191.853L123.472 190.019C123.405 189.988 123.332 189.972 123.258 189.973C123.185 189.974 123.112 189.992 123.046 190.024H123.029ZM127.033 187.713L124.296 189.292C124.176 189.36 124.188 189.474 124.296 189.547L127.465 191.376C127.532 191.411 127.606 191.429 127.681 191.429C127.756 191.429 127.83 191.411 127.897 191.376L130.64 189.797C130.754 189.729 130.748 189.616 130.64 189.542L127.471 187.713C127.405 187.682 127.333 187.666 127.26 187.666C127.188 187.666 127.116 187.682 127.05 187.713H127.033ZM124.114 204.037L126.851 202.452C126.965 202.384 126.959 202.271 126.851 202.202L123.682 200.373C123.614 200.339 123.539 200.32 123.463 200.32C123.387 200.32 123.312 200.339 123.245 200.373L120.507 201.958C120.388 202.021 120.399 202.134 120.507 202.208L123.676 204.037C123.746 204.075 123.824 204.095 123.904 204.095C123.983 204.095 124.061 204.075 124.131 204.037H124.114ZM100.627 201.64L97.4575 199.811C97.3899 199.776 97.3149 199.758 97.2388 199.758C97.1627 199.758 97.0878 199.776 97.0201 199.811L94.2881 201.407C94.1745 201.475 94.1801 201.583 94.2881 201.657L97.4575 203.486C97.5251 203.521 97.6001 203.539 97.6762 203.539C97.7523 203.539 97.8272 203.521 97.8949 203.486L100.633 201.901C100.758 201.85 100.752 201.737 100.627 201.64ZM106.625 203.401L103.456 201.572C103.389 201.538 103.315 201.521 103.24 201.521C103.165 201.521 103.091 201.538 103.024 201.572L98.8321 204.02C98.7185 204.088 98.7241 204.202 98.8321 204.27L102.001 206.099C102.069 206.134 102.144 206.152 102.22 206.152C102.296 206.152 102.371 206.134 102.439 206.099L106.653 203.668C106.784 203.611 106.75 203.497 106.625 203.424V203.401ZM95.7649 198.101L92.5841 196.295C92.5164 196.26 92.4415 196.242 92.3654 196.242C92.2893 196.242 92.2143 196.26 92.1467 196.295L88.7841 198.232C88.6705 198.3 88.6762 198.414 88.7841 198.488L91.9536 200.317C92.0212 200.352 92.0962 200.37 92.1723 200.37C92.2483 200.37 92.3233 200.352 92.3909 200.317L95.7592 198.374C95.8955 198.312 95.8898 198.198 95.7649 198.124V198.101ZM98.3493 196.608C98.4169 196.642 98.4919 196.661 98.5679 196.661C98.644 196.661 98.719 196.642 98.7866 196.608L101.524 195.023C101.644 194.96 101.638 194.847 101.524 194.773L98.3549 192.944C98.2873 192.909 98.2123 192.891 98.1363 192.891C98.0602 192.891 97.9852 192.909 97.9176 192.944L95.1741 194.529C95.0605 194.597 95.0662 194.71 95.1741 194.779L98.3493 196.608ZM112.208 205.406L109.056 203.6C108.988 203.566 108.913 203.549 108.837 203.549C108.762 203.549 108.687 203.566 108.619 203.6L103.348 206.644C103.234 206.712 103.24 206.826 103.348 206.894L106.517 208.729C106.585 208.762 106.66 208.78 106.736 208.78C106.812 208.78 106.886 208.762 106.954 208.729L112.226 205.684C112.339 205.616 112.333 205.502 112.208 205.429V205.406ZM114.838 209.115L111.669 207.32C111.601 207.285 111.526 207.267 111.45 207.267C111.374 207.267 111.299 207.285 111.231 207.32L107.858 209.268C107.744 209.336 107.75 209.45 107.858 209.524L111.027 211.353C111.095 211.386 111.17 211.404 111.246 211.404C111.322 211.404 111.396 211.386 111.464 211.353L114.838 209.405C114.969 209.325 114.963 209.212 114.838 209.138V209.115ZM128.13 179.414C128.197 179.449 128.272 179.467 128.348 179.467C128.424 179.467 128.499 179.449 128.567 179.414L131.305 177.835C131.424 177.767 131.413 177.653 131.305 177.58L128.135 175.751C128.067 175.717 127.992 175.7 127.917 175.7C127.841 175.7 127.766 175.717 127.698 175.751L124.96 177.358C124.846 177.426 124.852 177.54 124.96 177.608L128.13 179.414ZM120.115 184.043C120.183 184.077 120.258 184.094 120.334 184.094C120.41 184.094 120.484 184.077 120.552 184.043L123.296 182.464C123.409 182.396 123.404 182.283 123.296 182.209L120.126 180.38C120.058 180.346 119.984 180.329 119.908 180.329C119.832 180.329 119.757 180.346 119.689 180.38L116.951 181.959C116.832 182.027 116.843 182.141 116.951 182.214L120.115 184.043ZM102.354 194.319C102.421 194.353 102.496 194.372 102.572 194.372C102.648 194.372 102.723 194.353 102.791 194.319L105.529 192.734C105.648 192.666 105.642 192.558 105.529 192.484L102.359 190.655C102.292 190.62 102.217 190.602 102.141 190.602C102.065 190.602 101.99 190.62 101.922 190.655L99.1785 192.24C99.0649 192.308 99.0706 192.416 99.1785 192.49L102.354 194.319ZM124.125 181.76C124.192 181.794 124.266 181.811 124.341 181.811C124.416 181.811 124.49 181.794 124.557 181.76L127.3 180.181C127.414 180.113 127.408 179.999 127.3 179.925L124.131 178.096C124.063 178.062 123.988 178.043 123.912 178.043C123.836 178.043 123.761 178.062 123.693 178.096L120.956 179.676C120.836 179.744 120.848 179.857 120.956 179.931L124.125 181.76ZM116.111 186.384C116.178 186.418 116.253 186.437 116.329 186.437C116.405 186.437 116.48 186.418 116.548 186.384L119.291 184.805C119.405 184.736 119.399 184.623 119.291 184.549L116.122 182.72C116.054 182.686 115.979 182.669 115.903 182.669C115.827 182.669 115.753 182.686 115.685 182.72L112.947 184.299C112.828 184.367 112.833 184.481 112.947 184.555L116.111 186.384ZM117.036 209.439C116.968 209.405 116.894 209.388 116.818 209.388C116.742 209.388 116.667 209.405 116.599 209.439L112.385 211.864C112.271 211.932 112.277 212.046 112.385 212.12L115.554 213.949C115.622 213.984 115.697 214.002 115.773 214.002C115.849 214.002 115.924 213.984 115.991 213.949L120.206 211.518C120.325 211.449 120.314 211.336 120.206 211.262L117.036 209.439ZM110.362 189.712C110.43 189.746 110.505 189.763 110.581 189.763C110.657 189.763 110.732 189.746 110.8 189.712L113.543 188.127C113.657 188.059 113.651 187.946 113.543 187.877L110.374 186.048C110.306 186.014 110.231 185.995 110.155 185.995C110.079 185.995 110.004 186.014 109.936 186.048L107.199 187.633C107.079 187.696 107.085 187.809 107.199 187.883L110.362 189.712ZM106.358 191.984C106.426 192.019 106.501 192.037 106.577 192.037C106.653 192.037 106.728 192.019 106.795 191.984L109.539 190.399C109.652 190.331 109.647 190.218 109.539 190.149L106.369 188.32C106.302 188.286 106.227 188.267 106.151 188.267C106.075 188.267 106 188.286 105.932 188.32L103.194 189.905C103.075 189.968 103.081 190.081 103.194 190.155L106.358 191.984ZM191.24 166.594C191.172 166.56 191.097 166.541 191.021 166.541C190.945 166.541 190.87 166.56 190.803 166.594L184.032 170.48C183.918 170.548 183.924 170.661 184.032 170.735L187.201 172.564C187.27 172.598 187.344 172.615 187.42 172.615C187.496 172.615 187.571 172.598 187.639 172.564L194.421 168.696C194.54 168.628 194.534 168.514 194.421 168.44L191.24 166.594ZM182.385 171.706C182.317 171.672 182.242 171.653 182.166 171.653C182.09 171.653 182.015 171.672 181.947 171.706L179.21 173.286C179.09 173.354 179.096 173.467 179.21 173.541L182.379 175.37C182.447 175.404 182.522 175.421 182.598 175.421C182.674 175.421 182.749 175.404 182.817 175.37L185.56 173.791C185.674 173.723 185.668 173.609 185.56 173.535L182.385 171.706ZM128.135 201.725L130.873 200.141C130.992 200.072 130.981 199.959 130.873 199.891L127.709 198.056C127.641 198.022 127.566 198.005 127.49 198.005C127.415 198.005 127.34 198.022 127.272 198.056L124.528 199.635C124.415 199.703 124.42 199.817 124.528 199.891L127.698 201.72C127.765 201.754 127.84 201.772 127.916 201.773C127.992 201.774 128.067 201.758 128.135 201.725ZM174.376 176.33C174.308 176.296 174.233 176.279 174.157 176.279C174.082 176.279 174.007 176.296 173.939 176.33L171.195 177.909C171.082 177.977 171.087 178.091 171.195 178.165L174.365 179.994C174.432 180.028 174.507 180.047 174.583 180.047C174.659 180.047 174.734 180.028 174.802 179.994L177.54 178.415C177.659 178.346 177.653 178.233 177.54 178.159L174.376 176.33ZM195.244 164.283C195.176 164.249 195.102 164.232 195.026 164.232C194.95 164.232 194.875 164.249 194.807 164.283L192.069 165.856C191.95 165.924 191.956 166.038 192.069 166.106L195.239 167.941C195.307 167.974 195.382 167.992 195.457 167.992C195.533 167.992 195.608 167.974 195.676 167.941L198.42 166.362C198.533 166.293 198.527 166.18 198.42 166.106L195.244 164.283ZM202.418 163.8L194.722 159.358C194.654 159.323 194.579 159.305 194.503 159.305C194.427 159.305 194.352 159.323 194.284 159.358L191.547 160.943C191.427 161.011 191.433 161.125 191.547 161.193L199.243 165.635C199.311 165.669 199.386 165.688 199.462 165.688C199.538 165.688 199.613 165.669 199.68 165.635L202.424 164.05C202.549 163.987 202.543 163.874 202.418 163.8ZM159.409 184.975C159.342 184.94 159.267 184.922 159.191 184.922C159.115 184.922 159.04 184.94 158.972 184.975L155.598 186.923C155.484 186.991 155.49 187.105 155.598 187.173L158.767 189.002C158.835 189.037 158.91 189.055 158.986 189.055C159.062 189.055 159.137 189.037 159.205 189.002L162.579 187.054C162.692 186.986 162.687 186.872 162.579 186.804L159.409 184.975ZM169.525 179.13C169.458 179.095 169.383 179.077 169.307 179.077C169.231 179.077 169.156 179.095 169.088 179.13L164.873 181.561C164.76 181.629 164.765 181.743 164.873 181.811L168.043 183.646C168.111 183.679 168.186 183.697 168.262 183.697C168.337 183.697 168.412 183.679 168.48 183.646L172.695 181.215C172.808 181.147 172.803 181.033 172.695 180.959L169.525 179.13ZM150.134 190.326C150.066 190.292 149.991 190.274 149.915 190.274C149.839 190.274 149.764 190.292 149.696 190.326L127.141 203.344C127.028 203.412 127.033 203.526 127.141 203.6L130.311 205.429C130.379 205.462 130.453 205.48 130.529 205.48C130.605 205.48 130.68 205.462 130.748 205.429L153.303 192.404C153.417 192.336 153.411 192.223 153.303 192.149L150.134 190.326ZM126.312 204.082C126.244 204.048 126.169 204.029 126.093 204.029C126.017 204.029 125.942 204.048 125.875 204.082L122.506 206.031C122.387 206.099 122.393 206.212 122.506 206.281L125.676 208.11C125.743 208.144 125.818 208.163 125.894 208.163C125.971 208.163 126.045 208.144 126.113 208.11L129.504 206.184C129.618 206.116 129.612 206.002 129.504 205.934L126.312 204.082ZM154.769 187.65C154.701 187.617 154.626 187.599 154.55 187.599C154.474 187.599 154.399 187.617 154.331 187.65L150.963 189.598C150.844 189.667 150.85 189.78 150.963 189.854L154.133 191.683C154.201 191.717 154.275 191.734 154.351 191.734C154.427 191.734 154.502 191.717 154.57 191.683L157.944 189.735C158.063 189.672 158.052 189.559 157.944 189.485L154.769 187.65ZM121.677 206.752C121.609 206.719 121.534 206.701 121.458 206.701C121.382 206.701 121.308 206.719 121.24 206.752L117.866 208.7C117.752 208.768 117.758 208.882 117.866 208.956L121.035 210.785C121.103 210.818 121.178 210.836 121.254 210.836C121.33 210.836 121.405 210.818 121.473 210.785L124.841 208.842C124.96 208.774 124.954 208.661 124.841 208.587L121.677 206.752ZM164.044 182.288C163.976 182.255 163.901 182.237 163.825 182.237C163.75 182.237 163.675 182.255 163.607 182.288L160.239 184.231C160.119 184.299 160.125 184.413 160.239 184.486L163.408 186.315C163.476 186.349 163.551 186.366 163.627 186.366C163.703 186.366 163.777 186.349 163.845 186.315L167.219 184.367C167.339 184.299 167.327 184.185 167.219 184.112L164.044 182.288ZM178.38 174.013C178.313 173.978 178.238 173.959 178.162 173.959C178.086 173.959 178.011 173.978 177.943 174.013L175.205 175.592C175.086 175.66 175.092 175.773 175.205 175.847L178.375 177.676C178.443 177.71 178.518 177.727 178.593 177.727C178.669 177.727 178.744 177.71 178.812 177.676L181.556 176.097C181.669 176.029 181.664 175.915 181.556 175.842L178.38 174.013ZM187.156 167.64L189.894 166.061C190.013 165.992 190.007 165.879 189.894 165.805L186.724 163.976C186.656 163.942 186.582 163.925 186.506 163.925C186.43 163.925 186.355 163.942 186.287 163.976L183.544 165.561C183.43 165.629 183.436 165.742 183.544 165.811L186.713 167.645C186.782 167.68 186.858 167.698 186.935 167.698C187.011 167.698 187.087 167.68 187.156 167.645V167.64ZM169.264 167.56L172.007 165.975C172.121 165.907 172.115 165.794 172.007 165.725L168.838 163.896C168.77 163.862 168.695 163.843 168.619 163.843C168.543 163.843 168.468 163.862 168.401 163.896L165.663 165.481C165.544 165.549 165.555 165.657 165.663 165.731L168.827 167.56C168.894 167.595 168.969 167.613 169.045 167.613C169.121 167.613 169.196 167.595 169.264 167.56ZM160.176 183.254L168.185 178.63C168.298 178.562 168.293 178.449 168.185 178.375L165.015 176.546C164.947 176.512 164.873 176.495 164.797 176.495C164.721 176.495 164.646 176.512 164.578 176.546L156.569 181.175C156.456 181.238 156.461 181.351 156.569 181.425L159.739 183.254C159.809 183.284 159.885 183.298 159.961 183.293C160.037 183.288 160.111 183.265 160.176 183.226V183.254ZM182.714 169.98C182.782 170.013 182.857 170.031 182.933 170.031C183.009 170.031 183.084 170.013 183.152 169.98L185.889 168.401C186.009 168.333 186.003 168.219 185.889 168.145L182.72 166.316C182.652 166.281 182.577 166.263 182.501 166.263C182.425 166.263 182.35 166.281 182.283 166.316L179.539 167.895C179.426 167.963 179.431 168.077 179.539 168.151L182.714 169.98ZM178.625 167.373L181.362 165.794C181.482 165.725 181.476 165.612 181.362 165.538L178.193 163.709C178.125 163.675 178.05 163.658 177.974 163.658C177.898 163.658 177.824 163.675 177.756 163.709L175.012 165.294C174.899 165.362 174.904 165.476 175.012 165.544L178.182 167.378C178.253 167.408 178.33 167.42 178.407 167.414C178.484 167.408 178.559 167.384 178.625 167.344V167.373ZM156.172 185.549L158.909 183.964C159.029 183.896 159.017 183.788 158.909 183.714L155.74 181.885C155.672 181.85 155.597 181.832 155.521 181.832C155.445 181.832 155.37 181.85 155.303 181.885L152.548 183.464C152.429 183.532 152.44 183.64 152.548 183.714L155.717 185.543C155.791 185.585 155.875 185.607 155.959 185.606C156.044 185.605 156.127 185.581 156.2 185.537L156.172 185.549ZM173.859 175.075C173.927 175.108 174.002 175.126 174.078 175.126C174.154 175.126 174.229 175.108 174.297 175.075L177.04 173.496C177.154 173.428 177.148 173.314 177.04 173.24L173.871 171.411C173.803 171.378 173.728 171.36 173.652 171.36C173.576 171.36 173.501 171.378 173.433 171.411L170.695 172.996C170.576 173.064 170.582 173.178 170.695 173.246L173.859 175.075ZM136.144 197.096L138.882 195.517C139.001 195.449 138.995 195.335 138.882 195.261L135.712 193.432C135.644 193.399 135.569 193.381 135.494 193.381C135.418 193.381 135.343 193.399 135.275 193.432L132.532 195.012C132.418 195.08 132.424 195.193 132.532 195.267L135.701 197.096C135.77 197.131 135.846 197.149 135.922 197.149C135.999 197.149 136.075 197.131 136.144 197.096ZM140.148 194.784L142.892 193.205C143.005 193.137 143 193.024 142.892 192.95L139.728 191.121C139.66 191.086 139.585 191.068 139.509 191.068C139.433 191.068 139.358 191.086 139.291 191.121L136.547 192.7C136.434 192.768 136.439 192.882 136.547 192.955L139.717 194.784C139.784 194.817 139.858 194.834 139.933 194.834C140.007 194.834 140.081 194.817 140.148 194.784ZM132.14 199.408L134.877 197.829C134.997 197.761 134.991 197.647 134.877 197.573L131.714 195.744C131.646 195.711 131.571 195.693 131.495 195.693C131.419 195.693 131.344 195.711 131.276 195.744L128.533 197.323C128.419 197.391 128.425 197.505 128.533 197.579L131.702 199.408C131.77 199.443 131.845 199.461 131.921 199.461C131.997 199.461 132.072 199.443 132.14 199.408ZM148.157 190.161L150.901 188.582C151.014 188.514 151.009 188.4 150.901 188.326L147.731 186.497C147.663 186.464 147.588 186.446 147.512 186.446C147.437 186.446 147.362 186.464 147.294 186.497L144.556 188.082C144.437 188.15 144.442 188.264 144.556 188.332L147.725 190.161C147.792 190.195 147.866 190.212 147.941 190.212C148.016 190.212 148.09 190.195 148.157 190.161ZM144.181 192.473L146.925 190.894C147.038 190.825 147.033 190.712 146.925 190.638L143.704 188.809C143.636 188.774 143.561 188.756 143.485 188.756C143.409 188.756 143.334 188.774 143.267 188.809L140.529 190.388C140.41 190.456 140.415 190.57 140.529 190.638L143.698 192.473C143.769 192.509 143.847 192.528 143.926 192.528C144.005 192.528 144.083 192.509 144.153 192.473H144.181ZM152.19 187.849L154.933 186.264C155.047 186.202 155.041 186.088 154.933 186.014L151.764 184.185C151.696 184.151 151.621 184.132 151.545 184.132C151.469 184.132 151.394 184.151 151.327 184.185L148.543 185.736C148.424 185.804 148.435 185.918 148.543 185.986L151.707 187.815C151.774 187.858 151.851 187.884 151.93 187.89C152.009 187.896 152.089 187.882 152.162 187.849H152.19ZM170.514 153.638C170.581 153.673 170.656 153.691 170.732 153.691C170.808 153.691 170.883 153.673 170.951 153.638L173.694 152.054C173.808 151.991 173.802 151.878 173.694 151.804L172.854 151.315C172.786 151.282 172.711 151.264 172.635 151.264C172.559 151.264 172.484 151.282 172.416 151.315L169.673 152.894C169.559 152.962 169.565 153.076 169.673 153.15L170.514 153.638ZM150.81 166.362C150.877 166.396 150.952 166.415 151.028 166.415C151.104 166.415 151.179 166.396 151.247 166.362L153.985 164.783C154.104 164.714 154.098 164.601 153.985 164.527L150.815 162.698C150.747 162.664 150.673 162.647 150.597 162.647C150.521 162.647 150.446 162.664 150.378 162.698L147.635 164.277C147.521 164.345 147.527 164.459 147.635 164.533L150.81 166.362ZM158.819 161.738C158.887 161.772 158.961 161.789 159.037 161.789C159.113 161.789 159.188 161.772 159.256 161.738L161.999 160.159C162.113 160.091 162.107 159.977 161.999 159.903L158.83 158.074C158.762 158.04 158.687 158.021 158.611 158.021C158.535 158.021 158.46 158.04 158.393 158.074L155.632 159.654C155.513 159.722 155.518 159.835 155.632 159.909L158.819 161.738ZM145.919 169.185C145.987 169.218 146.062 169.236 146.138 169.236C146.214 169.236 146.289 169.218 146.357 169.185L149.094 167.6C149.214 167.532 149.208 167.418 149.094 167.35L145.925 165.515C145.857 165.482 145.782 165.464 145.706 165.464C145.63 165.464 145.556 165.482 145.488 165.515L142.744 167.094C142.631 167.162 142.636 167.276 142.744 167.35L145.919 169.185ZM154.814 164.073C154.882 164.106 154.957 164.124 155.033 164.124C155.109 164.124 155.183 164.106 155.251 164.073L157.995 162.494C158.109 162.425 158.103 162.312 157.995 162.238L154.825 160.409C154.757 160.375 154.683 160.358 154.607 160.358C154.531 160.358 154.456 160.375 154.388 160.409L151.65 161.988C151.531 162.056 151.537 162.17 151.65 162.244L154.814 164.073ZM137.882 173.808C137.95 173.843 138.025 173.861 138.101 173.861C138.177 173.861 138.252 173.843 138.319 173.808L141.057 172.223C141.176 172.155 141.165 172.042 141.057 171.973L137.893 170.144C137.826 170.11 137.751 170.091 137.675 170.091C137.599 170.091 137.524 170.11 137.456 170.144L134.713 171.729C134.599 171.792 134.605 171.905 134.713 171.979L137.882 173.808ZM141.886 171.496C141.954 171.53 142.029 171.547 142.105 171.547C142.181 171.547 142.256 171.53 142.324 171.496L145.062 169.912C145.181 169.843 145.175 169.73 145.062 169.662L141.898 167.833C141.83 167.798 141.755 167.78 141.679 167.78C141.603 167.78 141.528 167.798 141.46 167.833L138.717 169.417C138.603 169.48 138.609 169.594 138.717 169.667L141.886 171.496ZM162.476 158.268C162.544 158.301 162.619 158.319 162.695 158.319C162.771 158.319 162.846 158.301 162.914 158.268L165.657 156.689C165.771 156.62 165.765 156.507 165.657 156.433L164.811 155.944C164.743 155.911 164.668 155.893 164.592 155.893C164.516 155.893 164.442 155.911 164.374 155.944L161.636 157.524C161.517 157.592 161.528 157.705 161.636 157.779L162.476 158.268ZM174.495 151.327C174.562 151.361 174.636 151.38 174.711 151.38C174.786 151.38 174.86 151.361 174.927 151.327L177.67 149.742C177.784 149.674 177.778 149.566 177.67 149.492L176.83 149.003C176.762 148.969 176.687 148.95 176.611 148.95C176.535 148.95 176.46 148.969 176.392 149.003L173.649 150.583C173.535 150.651 173.541 150.764 173.649 150.838L174.495 151.327ZM181.147 155.172C181.215 155.206 181.289 155.223 181.365 155.223C181.441 155.223 181.516 155.206 181.584 155.172L184.327 153.587C184.441 153.519 184.435 153.406 184.327 153.337L181.158 151.503C181.09 151.469 181.015 151.452 180.939 151.452C180.863 151.452 180.789 151.469 180.721 151.503L177.983 153.082C177.864 153.15 177.875 153.264 177.983 153.337L181.147 155.172ZM191.16 165.334L193.904 163.749C194.018 163.686 194.012 163.573 193.904 163.499L190.734 161.67C190.666 161.636 190.592 161.619 190.516 161.619C190.44 161.619 190.365 161.636 190.297 161.67L187.559 163.255C187.44 163.323 187.446 163.436 187.559 163.505L190.729 165.334C190.796 165.367 190.87 165.385 190.945 165.385C191.02 165.385 191.094 165.367 191.16 165.334ZM166.481 155.956C166.549 155.989 166.624 156.007 166.7 156.007C166.775 156.007 166.85 155.989 166.918 155.956L169.662 154.377C169.775 154.309 169.77 154.195 169.662 154.121L168.815 153.633C168.747 153.599 168.673 153.582 168.597 153.582C168.521 153.582 168.446 153.599 168.378 153.633L165.64 155.212C165.527 155.28 165.532 155.394 165.64 155.467L166.481 155.956ZM133.878 176.12C133.945 176.155 134.02 176.173 134.096 176.173C134.172 176.173 134.247 176.155 134.315 176.12L137.053 174.535C137.166 174.467 137.161 174.359 137.053 174.285L133.883 172.456C133.816 172.421 133.741 172.403 133.665 172.403C133.589 172.403 133.514 172.421 133.446 172.456L130.708 174.041C130.595 174.109 130.6 174.217 130.708 174.291L133.878 176.12Z" fill="#455A64"/>
<path d="M150.162 201.015L180.153 183.697L198.613 194.352L168.617 211.671L150.162 201.015Z" fill="#263238"/>
<path d="M83.496 113.748L172.876 62.1448C174.62 61.1338 176.052 61.9631 176.052 63.9795V133.202C176.023 133.714 175.874 134.212 175.618 134.656C175.361 135.1 175.004 135.477 174.575 135.758L82.928 188.673C82.1157 189.138 81.4512 188.758 81.4512 187.821V117.286C81.492 116.578 81.6982 115.889 82.0533 115.274C82.4084 114.66 82.9025 114.137 83.496 113.748Z" fill="#F5F5F5"/>
<path d="M176.08 65.6387V63.9802C176.08 61.9638 174.649 61.1402 172.905 62.1455L83.496 113.748C82.9025 114.138 82.4084 114.66 82.0533 115.275C81.6982 115.889 81.492 116.578 81.4512 117.287V120.258L176.08 65.6387Z" fill="#28BAD2"/>
<path d="M162.743 69.4152C162.424 69.6229 162.159 69.9029 161.968 70.2326C161.778 70.5622 161.668 70.9322 161.647 71.3123C161.647 72.011 162.136 72.295 162.743 71.9428C163.061 71.7357 163.326 71.4565 163.515 71.1278C163.705 70.7991 163.814 70.4303 163.834 70.0514C163.834 69.3527 163.345 69.0687 162.743 69.4152Z" fill="white"/>
<path d="M167.083 66.9103C166.765 67.1186 166.5 67.3989 166.311 67.7285C166.121 68.0582 166.012 68.4278 165.992 68.8074C165.992 69.5061 166.481 69.7844 167.083 69.4379C167.402 69.2302 167.668 68.9502 167.858 68.6205C168.049 68.2909 168.159 67.921 168.179 67.5408C168.179 66.8422 167.691 66.5582 167.083 66.9103Z" fill="white"/>
<path d="M171.428 64.3998C171.11 64.6085 170.845 64.8888 170.655 65.2182C170.464 65.5477 170.354 65.9171 170.332 66.297C170.332 66.9956 170.826 67.2796 171.428 66.9274C171.747 66.7207 172.012 66.4416 172.203 66.1129C172.393 65.7843 172.503 65.4153 172.524 65.036C172.524 64.3374 172.03 64.0533 171.428 64.3998Z" fill="white"/>
<path d="M103.522 154.148L100.044 152.14L91.5273 166.892L95.005 168.9L103.522 154.148Z" fill="#37474F"/>
<path d="M103.529 154.143L101.793 153.141L93.2754 167.893L95.0118 168.895L103.529 154.143Z" fill="#263238"/>
<path d="M82.1896 195.699C80.6049 198.453 73.1016 194.08 74.6806 191.365L94.2482 160.846C94.3009 160.763 94.3835 160.704 94.4788 160.681C94.574 160.658 94.6745 160.672 94.7594 160.721L98.69 162.993C98.7746 163.041 98.8374 163.12 98.8649 163.213C98.8925 163.306 98.8827 163.407 98.8377 163.493L82.1896 195.699Z" fill="#28BAD2"/>
<path opacity="0.1" d="M82.1895 195.699L98.8319 163.493C98.8769 163.407 98.8867 163.307 98.8591 163.213C98.8316 163.12 98.7689 163.041 98.6842 162.993L96.895 161.959L77.8159 195.875C79.554 196.732 81.4738 196.943 82.1895 195.699Z" fill="black"/>
<path d="M139.728 123.852C139.728 123.619 139.728 123.392 139.694 123.165C139.66 122.938 139.694 122.716 139.643 122.495C139.592 122.273 139.643 122.199 139.597 122.052C139.558 121.666 139.501 121.285 139.438 120.916C139.41 120.751 139.381 120.581 139.347 120.416C139.313 120.251 139.285 120.104 139.251 119.95C139.154 119.53 139.052 119.121 138.933 118.729C138.87 118.542 138.813 118.354 138.751 118.161C138.739 118.133 138.729 118.105 138.723 118.076C138.654 117.894 138.592 117.718 138.524 117.548C138.456 117.377 138.365 117.15 138.274 116.98C138.183 116.809 138.149 116.701 138.075 116.565C138.034 116.463 137.984 116.364 137.927 116.27C137.871 116.15 137.808 116.031 137.74 115.917C137.672 115.804 137.712 115.861 137.694 115.838C137.677 115.815 137.575 115.633 137.513 115.531C137.45 115.429 137.428 115.401 137.388 115.338C137.097 114.88 136.77 114.445 136.411 114.037L136.229 113.833L136.076 113.674C136.013 113.606 135.945 113.543 135.877 113.475C135.698 113.287 135.509 113.111 135.309 112.947C135.212 112.862 135.11 112.782 135.008 112.708L134.695 112.481C134.533 112.362 134.364 112.252 134.19 112.152L134.054 112.066H134.025L125.977 107.42L125.931 107.392C124.387 106.531 122.644 106.09 120.876 106.114C118.24 106.114 115.264 106.977 112.112 108.795C101.286 115.043 92.5044 130.254 92.5044 142.761C92.5044 149.009 94.6855 153.383 98.2128 155.439H98.2469L106.301 160.079H106.335L106.432 160.131C106.583 160.22 106.738 160.301 106.898 160.375C107.091 160.471 107.289 160.556 107.466 160.636C107.642 160.716 107.823 160.778 108.005 160.835L108.295 160.92C108.396 160.959 108.501 160.989 108.607 161.011C108.712 161.043 108.818 161.069 108.925 161.09C109.002 161.113 109.079 161.13 109.158 161.142C109.294 161.17 109.442 161.198 109.584 161.215C109.616 161.221 109.649 161.221 109.681 161.215C109.851 161.246 110.022 161.268 110.192 161.284C113.111 161.59 116.508 160.767 120.143 158.671C130.975 152.423 139.756 137.206 139.756 124.704C139.728 124.443 139.728 124.148 139.728 123.852ZM126.59 115.009C127.015 116.563 127.224 118.168 127.209 119.78C127.209 130.81 119.138 144.772 109.601 150.304C108.207 151.133 106.702 151.758 105.131 152.161C104.708 150.605 104.5 148.998 104.512 147.385C104.512 136.354 112.583 122.393 122.12 116.86C123.509 116.035 125.008 115.411 126.573 115.009H126.59Z" fill="#28BAD2"/>
<path opacity="0.1" d="M105.972 159.92L98.1503 155.41C94.623 153.349 92.4419 148.964 92.4419 142.738C92.4419 137.161 94.1913 131.049 97.0825 125.437L105.137 130.072C102.24 135.684 100.496 141.795 100.496 147.373C100.496 153.485 102.575 157.807 105.972 159.92Z" fill="black"/>
<path opacity="0.4" d="M139.728 123.852C139.728 123.619 139.728 123.392 139.694 123.165C139.66 122.938 139.694 122.716 139.643 122.495C139.592 122.273 139.643 122.199 139.597 122.052C139.558 121.665 139.501 121.285 139.438 120.916C139.41 120.751 139.381 120.581 139.347 120.416C139.313 120.251 139.285 120.103 139.251 119.95C139.154 119.53 139.052 119.121 138.933 118.729C138.87 118.541 138.813 118.354 138.751 118.161C138.739 118.133 138.729 118.105 138.723 118.076C138.654 117.894 138.592 117.718 138.524 117.547C138.456 117.377 138.365 117.15 138.274 116.979C138.183 116.809 138.149 116.701 138.075 116.565C138.034 116.463 137.985 116.364 137.927 116.269C137.871 116.15 137.808 116.031 137.74 115.917C137.672 115.804 137.712 115.86 137.695 115.838C137.677 115.815 137.575 115.633 137.513 115.531C137.45 115.429 137.428 115.4 137.388 115.338C137.097 114.879 136.77 114.445 136.411 114.037L136.229 113.833L136.076 113.674C136.013 113.606 135.945 113.543 135.877 113.475C135.699 113.287 135.509 113.111 135.309 112.947C135.212 112.861 135.11 112.782 135.008 112.708L134.695 112.481C134.533 112.362 134.364 112.252 134.19 112.151C130.629 109.987 125.67 110.243 120.155 113.418C109.323 119.666 100.542 134.877 100.542 147.384C100.542 153.718 102.814 158.142 106.42 160.153C106.571 160.242 106.727 160.324 106.886 160.397C107.079 160.494 107.278 160.579 107.454 160.659C107.63 160.738 107.812 160.801 107.994 160.857L108.283 160.943C108.385 160.982 108.489 161.012 108.596 161.034C108.7 161.065 108.807 161.092 108.914 161.113C108.99 161.136 109.068 161.153 109.147 161.164C109.283 161.193 109.431 161.221 109.573 161.238C109.605 161.243 109.637 161.243 109.669 161.238C109.84 161.268 110.01 161.291 110.181 161.306C113.1 161.613 116.497 160.789 120.132 158.693C130.964 152.445 139.745 137.229 139.745 124.727C139.728 124.443 139.728 124.148 139.728 123.852ZM118.144 155.268C115.713 156.671 113.373 157.41 111.373 157.41C107.619 157.41 105.892 154.848 105.125 152.161C104.702 150.605 104.494 148.998 104.506 147.384C104.506 136.354 112.578 122.392 122.114 116.86C123.508 116.033 125.014 115.41 126.584 115.008C127.328 114.824 128.09 114.727 128.856 114.719C135.065 114.719 135.729 121.728 135.729 124.744C135.752 135.752 127.681 149.753 118.144 155.268Z" fill="white"/>
<path opacity="0.1" d="M135.752 124.744C135.752 135.775 127.686 149.736 118.144 155.269C115.713 156.671 113.373 157.41 111.373 157.41C107.619 157.41 105.892 154.848 105.125 152.162C106.696 151.758 108.201 151.133 109.596 150.304C119.149 144.789 127.204 130.81 127.204 119.78C127.218 118.169 127.01 116.563 126.584 115.009C127.328 114.824 128.09 114.727 128.856 114.719C135.082 114.736 135.752 121.728 135.752 124.744Z" fill="black"/>
<path opacity="0.7" d="M132.344 122.818C132.344 133.849 124.278 147.81 114.736 153.343C112.305 154.746 109.965 155.484 107.965 155.484C107.568 155.485 107.171 155.453 106.778 155.388C106.011 154.439 105.451 153.34 105.137 152.161C104.714 150.605 104.506 148.998 104.518 147.384C104.518 136.354 112.589 122.392 122.126 116.86C123.52 116.033 125.025 115.409 126.596 115.008C127.339 114.824 128.102 114.727 128.868 114.719C129.267 114.718 129.666 114.75 130.061 114.815C132.026 117.127 132.344 120.836 132.344 122.818Z" fill="white"/>
<path d="M146.073 111.328V123.904C146.073 124.847 146.737 125.227 147.549 124.756L229.966 77.1743C230.395 76.8937 230.753 76.5163 231.009 76.0723C231.266 75.6283 231.414 75.1302 231.443 74.6183V62.0257C231.443 61.0828 230.778 60.7023 229.966 61.1737L147.549 108.755C147.118 109.038 146.76 109.418 146.503 109.865C146.246 110.312 146.099 110.813 146.073 111.328Z" fill="#E6E6E6"/>
<path d="M147.549 108.755L162.226 100.286V116.27L147.549 124.739C146.737 125.21 146.073 124.829 146.073 123.887V111.328C146.099 110.813 146.246 110.312 146.503 109.865C146.76 109.418 147.118 109.038 147.549 108.755Z" fill="#28BAD2"/>
<path d="M157.37 107.261C156.444 106.727 155.274 106.813 154.076 107.506C152.937 108.235 151.989 109.227 151.312 110.398C150.635 111.569 150.249 112.885 150.185 114.236C150.145 115.112 150.421 115.973 150.963 116.662L149.384 119.365C149.281 119.559 149.256 119.784 149.314 119.996C149.372 120.207 149.509 120.388 149.696 120.501C149.826 120.575 149.973 120.614 150.122 120.615C150.272 120.615 150.419 120.576 150.549 120.501C150.678 120.426 150.786 120.319 150.861 120.189L152.423 117.485C152.591 117.517 152.762 117.534 152.934 117.536C153.631 117.524 154.313 117.328 154.911 116.968C156.047 116.237 156.993 115.245 157.669 114.074C158.345 112.903 158.731 111.588 158.796 110.238C158.813 108.857 158.301 107.801 157.37 107.261ZM154.076 115.497C153.876 115.712 153.61 115.853 153.32 115.896C153.03 115.94 152.734 115.884 152.48 115.737C152.226 115.591 152.03 115.363 151.922 115.09C151.815 114.818 151.803 114.517 151.889 114.236C151.955 113.185 152.264 112.164 152.791 111.252C153.318 110.341 154.05 109.564 154.928 108.982C155.268 108.765 155.66 108.642 156.064 108.624C156.23 108.618 156.395 108.657 156.541 108.738C156.754 108.921 156.919 109.155 157.018 109.418C157.117 109.681 157.148 109.965 157.109 110.243C157.043 111.294 156.735 112.315 156.209 113.226C155.683 114.138 154.952 114.915 154.076 115.497Z" fill="white"/>
</svg>
