<svg width="186" height="186" viewBox="0 0 186 186" fill="none" xmlns="http://www.w3.org/2000/svg">
<g clip-path="url(#clip0)">
<path d="M185.641 101.592C183.971 84.7941 176.467 68.958 164.51 57.0004C154.291 46.7822 141.784 40.2158 128.624 37.2961V28.0657C133.999 26.7284 137.994 21.8629 137.994 16.0798C137.994 9.26888 132.453 3.72803 125.642 3.72803H99.4858C92.6749 3.72803 87.134 9.26888 87.134 16.0798C87.134 21.8626 91.1294 26.7281 96.5043 28.0657V37.3219C83.3842 40.254 70.9183 46.8113 60.7289 57.0008C58.499 59.2306 56.4428 61.5698 54.5606 64.001C54.4694 63.9941 54.3782 63.9872 54.2852 63.9872H28.397C26.391 63.9872 24.7642 65.6136 24.7642 67.62C24.7642 69.6265 26.391 71.2529 28.397 71.2529H49.6174C46.9537 75.7122 44.806 80.3954 43.1712 85.2162H3.63287C1.6268 85.2162 0 86.8426 0 88.8491C0 90.8555 1.6268 92.4819 3.63287 92.4819H41.1183C40.0713 97.0779 39.4704 101.755 39.3153 106.446H23.2504C21.2443 106.446 19.6175 108.072 19.6175 110.078C19.6175 112.085 21.2443 113.711 23.2504 113.711H39.4312C39.7378 118.414 40.4938 123.091 41.6995 127.675H18.1643C16.1583 127.675 14.5315 129.301 14.5315 131.308C14.5315 133.314 16.1583 134.941 18.1643 134.941H44.018C47.5819 144.368 53.1514 153.205 60.7289 160.782C72.6977 172.751 88.5501 180.257 105.365 181.918C107.765 182.155 110.167 182.273 112.565 182.273C126.741 182.273 140.737 178.17 152.613 170.436C154.294 169.341 154.77 167.091 153.675 165.41C152.58 163.728 150.33 163.253 148.648 164.348C122.653 181.276 87.8377 177.616 65.8665 155.644C40.0869 129.865 40.0869 87.9187 65.8665 62.1388C91.6457 36.3596 133.592 36.3596 159.372 62.1388C181.314 84.0813 184.994 118.866 168.122 144.849C167.029 146.532 167.508 148.782 169.19 149.875C170.873 150.967 173.123 150.489 174.215 148.806C183.23 134.923 187.288 118.156 185.641 101.592ZM94.3997 16.0801C94.3997 13.2756 96.6812 10.9941 99.4858 10.9941H125.642C128.447 10.9941 130.728 13.2756 130.728 16.0801C130.728 18.8847 128.447 21.1662 125.642 21.1662H124.991H100.137H99.4858C96.6812 21.1662 94.3997 18.8844 94.3997 16.0801ZM103.77 36.0729V28.4319H121.358V36.0598C115.518 35.3652 109.609 35.3696 103.77 36.0729Z" fill="black"/>
<path d="M161.942 154.579C160.983 154.579 160.05 154.967 159.374 155.643C158.695 156.319 158.31 157.256 158.31 158.211C158.31 159.167 158.695 160.104 159.374 160.78C160.05 161.459 160.984 161.844 161.942 161.844C162.898 161.844 163.831 161.459 164.511 160.78C165.186 160.104 165.575 159.167 165.575 158.211C165.575 157.256 165.187 156.319 164.511 155.643C163.831 154.967 162.897 154.579 161.942 154.579Z" fill="black"/>
<path d="M112.619 52.5347C81.5445 52.5347 56.263 77.8158 56.263 108.891C56.263 139.966 81.5445 165.247 112.619 165.247C143.694 165.247 168.976 139.966 168.976 108.891C168.976 77.8158 143.694 52.5347 112.619 52.5347ZM112.619 157.982C85.5505 157.982 63.5287 135.96 63.5287 108.891C63.5287 81.8225 85.5505 59.8004 112.619 59.8004C139.688 59.8004 161.71 81.8225 161.71 108.891C161.71 135.96 139.688 157.982 112.619 157.982Z" fill="black"/>
<path d="M135.599 80.773L117.606 98.7662C116.101 98.0222 114.409 97.6019 112.619 97.6019C110.83 97.6019 109.138 98.0222 107.633 98.7662L99.5799 90.7132C98.1609 89.2946 95.8613 89.2946 94.4419 90.7132C93.0233 92.1319 93.0233 94.4322 94.4419 95.8508L102.495 103.904C101.751 105.409 101.331 107.101 101.331 108.89C101.331 115.115 106.394 120.179 112.619 120.179C118.844 120.179 123.908 115.115 123.908 108.89C123.908 107.101 123.488 105.409 122.744 103.904L140.209 86.4384L140.737 85.9106C142.156 84.4919 142.156 82.1916 140.737 80.773C139.318 79.3543 137.019 79.3543 135.599 80.773ZM112.619 112.914C110.401 112.914 108.596 111.109 108.596 108.891C108.596 106.672 110.401 104.868 112.619 104.868C114.838 104.868 116.642 106.672 116.642 108.891C116.642 111.109 114.838 112.914 112.619 112.914Z" fill="black"/>
<path d="M151.461 105.302H148.096C146.09 105.302 144.463 106.929 144.463 108.935C144.463 110.941 146.09 112.568 148.096 112.568H151.461C153.467 112.568 155.094 110.941 155.094 108.935C155.094 106.929 153.467 105.302 151.461 105.302Z" fill="black"/>
<path d="M77.1425 105.214H73.777C71.771 105.214 70.1442 106.84 70.1442 108.847C70.1442 110.853 71.771 112.479 73.777 112.479H77.1425C79.1485 112.479 80.7753 110.853 80.7753 108.847C80.7753 106.84 79.1485 105.214 77.1425 105.214Z" fill="black"/>
<path d="M112.664 77.0466C114.67 77.0466 116.296 75.4202 116.296 73.4138V70.0483C116.296 68.0419 114.67 66.4155 112.664 66.4155C110.658 66.4155 109.031 68.0419 109.031 70.0483V73.4138C109.031 75.4202 110.658 77.0466 112.664 77.0466Z" fill="black"/>
<path d="M112.575 140.735C110.569 140.735 108.942 142.361 108.942 144.368V147.733C108.942 149.74 110.569 151.366 112.575 151.366C114.581 151.366 116.208 149.74 116.208 147.733V144.368C116.208 142.361 114.581 140.735 112.575 140.735Z" fill="black"/>
<path d="M3.63281 127.673C2.67738 127.673 1.74012 128.062 1.06441 128.738C0.388711 129.413 0 130.351 0 131.306C0 132.265 0.388348 133.199 1.06441 133.875C1.74048 134.55 2.67738 134.939 3.63281 134.939C4.58824 134.939 5.52551 134.55 6.20085 133.875C6.87655 133.199 7.26562 132.262 7.26562 131.306C7.26562 130.351 6.87691 129.413 6.20085 128.738C5.52551 128.062 4.58824 127.673 3.63281 127.673Z" fill="black"/>
</g>
<defs>
<clipPath id="clip0">
<rect width="186" height="186" fill="white"/>
</clipPath>
</defs>
</svg>
