<svg width="186" height="186" viewBox="0 0 186 186" fill="none" xmlns="http://www.w3.org/2000/svg">
<g clip-path="url(#clip0)">
<path d="M172.81 74.5667H159.587C158.186 74.5667 156.945 73.6462 156.499 72.2759C155.425 68.9835 154.081 65.7477 152.504 62.6587C151.878 61.4338 152.13 59.9385 153.131 58.9377L162.469 49.5999C167.611 44.4573 167.611 36.0898 162.469 30.9468L155.053 23.5308C149.911 18.3882 141.543 18.3875 136.4 23.5308L127.063 32.869C126.062 33.8694 124.566 34.1216 123.341 33.496C120.252 31.9186 117.017 30.5748 113.724 29.5013C112.354 29.0549 111.433 27.8135 111.433 26.4135V13.1897C111.433 5.91676 105.516 0 98.2443 0H87.756C80.4835 0 74.5667 5.91676 74.5667 13.1897V26.4135C74.5667 27.8135 73.6462 29.0549 72.2759 29.5013C68.9835 30.5748 65.7477 31.9186 62.6587 33.4963C61.4338 34.1223 59.9381 33.8702 58.9377 32.869L49.5999 23.5308C44.4573 18.3882 36.0898 18.3882 30.9468 23.5308L23.5308 30.9472C18.3886 36.0898 18.3886 44.4573 23.5308 49.6002L32.869 58.9377C33.8698 59.9389 34.1216 61.4341 33.496 62.6595C31.9186 65.7481 30.5748 68.9835 29.5013 72.2763C29.0549 73.6462 27.8135 74.5671 26.4135 74.5671H13.1897C5.91676 74.5667 0 80.4835 0 87.7557V98.244C0 105.516 5.91676 111.433 13.1897 111.433H26.4135C27.8135 111.433 29.0549 112.354 29.5013 113.724C30.5748 117.017 31.9186 120.252 33.4963 123.341C34.1219 124.566 33.8698 126.062 32.869 127.062L23.5308 136.4C18.3886 141.543 18.3886 149.91 23.5308 155.053L30.9468 162.469C36.0887 167.611 44.4565 167.612 49.5999 162.469L58.9373 153.131C59.9385 152.131 61.4345 151.879 62.6591 152.504C65.7456 154.08 68.9809 155.424 72.2759 156.499C73.6458 156.945 74.5667 158.186 74.5667 159.587V172.81C74.5667 180.083 80.4835 186 87.756 186H98.2443C105.517 186 111.434 180.083 111.434 172.81V159.587C111.434 158.186 112.354 156.945 113.725 156.498C117.019 155.424 120.255 154.08 123.342 152.504C124.567 151.878 126.062 152.13 127.063 153.131L136.4 162.469C141.543 167.612 149.911 167.612 155.054 162.469L162.47 155.053C167.612 149.911 167.612 141.543 162.47 136.4L153.131 127.063C152.131 126.062 151.879 124.566 152.504 123.341C154.082 120.252 155.426 117.017 156.499 113.724C156.945 112.354 158.187 111.433 159.587 111.433H172.811C180.084 111.433 186 105.516 186 98.244V87.7557C186 80.4835 180.083 74.5667 172.81 74.5667ZM178.734 98.2443C178.734 101.511 176.077 104.168 172.81 104.168H159.587C155.032 104.168 151.015 107.103 149.59 111.472C148.635 114.404 147.438 117.286 146.033 120.036C143.97 124.075 144.757 128.964 147.993 132.2L157.331 141.538C159.641 143.847 159.641 147.606 157.331 149.915L149.915 157.331C147.606 159.641 143.847 159.641 141.538 157.331L132.199 147.993C128.964 144.758 124.075 143.97 120.036 146.033C117.288 147.437 114.406 148.634 111.472 149.59C107.103 151.015 104.168 155.032 104.168 159.587V172.81C104.168 176.077 101.511 178.734 98.2443 178.734H87.756C84.4898 178.734 81.8324 176.077 81.8324 172.81V159.587C81.8324 155.032 78.8971 151.015 74.5286 149.591C71.5944 148.634 68.7128 147.437 65.9642 146.033C61.8984 143.956 57.0141 144.78 53.8005 147.993L44.4627 157.331C42.1533 159.641 38.3948 159.641 36.0851 157.331L28.6687 149.915C26.359 147.606 26.359 143.847 28.6687 141.538L38.0068 132.199C41.2422 128.964 42.0298 124.075 39.9671 120.036C38.5623 117.286 37.3653 114.404 36.4095 111.472C34.9847 107.103 30.9679 104.168 26.4135 104.168H13.1897C9.92339 104.168 7.26562 101.511 7.26562 98.2443V87.756C7.26562 84.4898 9.92303 81.8324 13.1897 81.8324H26.4135C30.9675 81.8324 34.9847 78.8971 36.4095 74.5282C37.3653 71.5962 38.5623 68.7146 39.9668 65.9642C42.0302 61.9249 41.2426 57.0366 38.0068 53.8005L28.6687 44.4627C26.359 42.1533 26.359 38.3948 28.6687 36.0851L36.0847 28.6687C38.3941 26.3586 42.1526 26.3593 44.4624 28.6687L53.8005 38.0068C57.0362 41.2422 61.9249 42.0298 65.9635 39.9671C68.7143 38.5623 71.5958 37.3653 74.5279 36.4095C78.8967 34.9847 81.832 30.9679 81.832 26.4135V13.1897C81.832 9.92339 84.489 7.26562 87.7557 7.26562H98.244C101.51 7.26562 104.168 9.92303 104.168 13.1897V26.4135C104.168 30.9675 107.103 34.9847 111.472 36.4095C114.404 37.3653 117.285 38.5623 120.036 39.9668C124.075 42.0306 128.963 41.243 132.199 38.0068L141.537 28.6687C143.847 26.3593 147.605 26.3593 149.915 28.6687L157.331 36.0847C159.641 38.3941 159.641 42.1526 157.331 44.4624L147.993 53.8005C144.757 57.0362 143.97 61.9246 146.033 65.9635C147.437 68.7143 148.634 71.5958 149.59 74.5279C151.015 78.8967 155.032 81.832 159.586 81.832H172.81C176.076 81.832 178.734 84.489 178.734 87.7557V98.2443H178.734Z" fill="black"/>
<path d="M131.493 71.4487C129.668 72.2824 128.865 74.4378 129.698 76.2625C141.878 102.922 122.255 133.324 93 133.324C70.765 133.324 52.6758 115.235 52.6758 93C52.6758 70.765 70.765 52.6758 93 52.6758C100.787 52.6758 108.344 54.8983 114.852 59.1037C116.538 60.1924 118.786 59.7089 119.875 58.0236C120.964 56.3384 120.48 54.0897 118.795 53.0009C111.109 48.0352 102.189 45.4102 93 45.4102C66.7591 45.4102 45.4102 66.7591 45.4102 93C45.4102 119.241 66.7591 140.59 93 140.59C127.552 140.59 150.668 104.677 136.307 73.2433C135.473 71.4182 133.317 70.6153 131.493 71.4487Z" fill="black"/>
<path d="M93 63.9375C76.9749 63.9375 63.9375 76.9749 63.9375 93C63.9375 109.025 76.9749 122.062 93 122.062C109.025 122.062 122.062 109.025 122.062 93C122.062 76.9749 109.025 63.9375 93 63.9375ZM93 114.797C80.9812 114.797 71.2031 105.019 71.2031 93C71.2031 80.9812 80.9812 71.2031 93 71.2031C105.019 71.2031 114.797 80.9812 114.797 93C114.797 105.019 105.019 114.797 93 114.797Z" fill="black"/>
<path d="M126.259 67.8906H126.268C128.274 67.8906 129.896 66.2638 129.896 64.2578C129.896 62.2518 128.265 60.625 126.258 60.625C124.252 60.625 122.626 62.2518 122.626 64.2578C122.626 66.2638 124.252 67.8906 126.259 67.8906Z" fill="black"/>
</g>
<defs>
<clipPath id="clip0">
<rect width="186" height="186" fill="white"/>
</clipPath>
</defs>
</svg>
