<svg width="186" height="186" viewBox="0 0 186 186" fill="none" xmlns="http://www.w3.org/2000/svg">
<g clip-path="url(#clip0)">
<path d="M169.432 32.1181C143.841 25.106 118.099 14.1876 94.9899 0.543559C93.7623 -0.181186 92.2391 -0.181186 91.0119 0.543559C67.2359 14.5796 42.8852 24.9073 16.5674 32.1181C14.8672 32.5835 13.6888 34.1288 13.6888 35.8918V75.8694C13.6888 117.037 32.6807 144.288 48.6135 159.898C65.7661 176.706 85.7465 186 93.0009 186C100.255 186 120.235 176.706 137.388 159.898C153.32 144.288 172.311 117.038 172.311 75.8694V35.8915C172.311 34.1288 171.132 32.5835 169.432 32.1181ZM164.486 75.869C164.486 114.32 146.772 139.748 131.911 154.309C115.043 170.836 97.009 178.174 93.0009 178.174C88.9928 178.174 70.9574 170.836 54.0895 154.309C39.2288 139.747 21.5142 114.32 21.5142 75.869V38.8617C46.6815 31.7159 70.1197 21.7435 93.0016 8.44636C115.312 21.3908 139.92 31.8591 164.486 38.8602V75.869Z" fill="black"/>
<path d="M58.3203 38.424C57.5284 36.4133 55.2568 35.4255 53.2456 36.2178C46.2561 38.9719 39.0821 41.5068 31.9229 43.7526C30.2914 44.2649 29.1812 45.7761 29.1812 47.4857V62.5949C29.1812 64.7557 30.9333 66.5074 33.0937 66.5074C35.2542 66.5074 37.0063 64.7557 37.0063 62.5949V50.3451C43.4287 48.2671 49.8442 45.9686 56.1141 43.498C58.1249 42.7064 59.1126 40.4348 58.3203 38.424Z" fill="black"/>
<path d="M65.7527 39.1663C66.2776 39.1663 66.8105 39.0606 67.3217 38.8376L67.3936 38.8063C69.3731 37.9388 70.2646 35.6345 69.3971 33.6557C68.5289 31.6762 66.2115 30.7807 64.2342 31.6475L64.171 31.6748C62.1904 32.5397 61.296 34.8422 62.1609 36.8221C62.8028 38.2919 64.2432 39.1663 65.7527 39.1663Z" fill="black"/>
<path d="M139.617 126.161C137.809 124.98 135.384 125.488 134.201 127.297C130.977 132.231 127.194 136.957 122.957 141.341C119.472 144.945 115.696 148.305 111.734 151.326C110.016 152.636 109.686 155.091 110.995 156.809C111.766 157.819 112.931 158.35 114.109 158.35C114.937 158.35 115.771 158.089 116.479 157.548C120.753 154.289 124.825 150.666 128.582 146.78C133.164 142.041 137.258 136.926 140.752 131.577C141.934 129.768 141.425 127.343 139.617 126.161Z" fill="black"/>
<path d="M102.648 157.461L102.423 157.594C100.554 158.677 99.9145 161.07 100.997 162.94C101.723 164.193 103.036 164.893 104.387 164.893C105.052 164.893 105.727 164.723 106.343 164.365L106.602 164.213C108.467 163.121 109.093 160.724 108.001 158.86C106.908 156.996 104.511 156.37 102.648 157.461Z" fill="black"/>
<path d="M66.331 85.0148C63.9286 82.6121 60.7336 81.2898 57.3355 81.2898C53.9373 81.2898 50.7419 82.6125 48.3385 85.0148C43.3786 89.9758 43.3786 98.0479 48.3385 103.008L71.4417 126.111C73.8444 128.513 77.0394 129.836 80.4379 129.836C83.8364 129.836 87.0315 128.513 89.4346 126.11L137.664 77.8804C142.624 72.9183 142.624 64.8473 137.663 59.8882C135.261 57.4854 132.066 56.1631 128.667 56.1631C125.268 56.1631 122.073 57.4858 119.67 59.8882L80.4376 99.1207L66.331 85.0148ZM125.204 65.4217C126.128 64.4971 127.359 63.9882 128.667 63.9882C129.976 63.9882 131.206 64.4971 132.131 65.4217C134.04 67.3307 134.04 70.4382 132.13 72.348L83.9015 120.577C82.9769 121.502 81.7465 122.011 80.4379 122.011C79.1294 122.011 77.899 121.502 76.9741 120.577L53.8716 97.4754C51.9618 95.5656 51.9618 92.4581 53.8709 90.549C54.7958 89.6245 56.0262 89.1148 57.3351 89.1148C58.644 89.1148 59.8737 89.6238 60.7983 90.5483L77.6708 107.421C78.405 108.155 79.3997 108.567 80.4376 108.567C81.4755 108.567 82.4701 108.155 83.2036 107.421L125.204 65.4217Z" fill="black"/>
</g>
<defs>
<clipPath id="clip0">
<rect width="186" height="186" fill="white"/>
</clipPath>
</defs>
</svg>
