<svg width="186" height="186" viewBox="0 0 186 186" fill="none" xmlns="http://www.w3.org/2000/svg">
<mask id="mask0" mask-type="alpha" maskUnits="userSpaceOnUse" x="0" y="0" width="186" height="186">
<path d="M129.649 45.2388C119.842 35.501 106.856 30.1514 93.045 30.1514C92.9193 30.1514 92.7929 30.1521 92.6669 30.1528C77.7284 30.2582 63.523 36.8539 53.6937 48.2482C52.3833 49.7675 52.5523 52.0612 54.0715 53.3719C55.5911 54.6827 57.8849 54.5126 59.1952 52.9941C67.656 43.1863 79.875 37.5089 92.7181 37.4184C92.8274 37.4177 92.935 37.417 93.0436 37.417C104.923 37.417 116.095 42.019 124.53 50.3949C133.044 58.8484 137.733 70.1116 137.733 82.1093C137.733 93.5668 133.402 104.462 125.538 112.788C117.281 121.529 112.435 132.593 111.708 144.223H104.625V105.716H106.926C112.201 105.716 116.492 101.425 116.492 96.1505V95.6659C116.492 90.3907 112.201 86.0999 106.926 86.0999C101.65 86.0999 97.3597 90.3914 97.3597 95.6659V98.4511H88.6413V95.6659C88.6413 90.3907 84.3499 86.0999 79.0754 86.0999H78.46C73.1848 86.0999 68.8941 90.3914 68.8941 95.6659V96.1505C68.8941 101.426 73.1855 105.716 78.46 105.716H81.3761V144.223H74.3796C73.6749 132.464 68.925 121.502 60.8263 113.083C52.4633 104.388 48.0381 92.9438 48.3665 80.8603C48.421 78.8547 46.8397 77.1847 44.8336 77.1302C42.8192 77.0619 41.1583 78.657 41.1034 80.6631C40.7216 94.7079 45.8661 108.01 55.5896 118.12C63.0801 125.907 67.2052 136.267 67.2052 147.291V147.856V157.803C67.2052 165.574 73.098 171.991 80.6488 172.827V173.648C80.6484 180.459 86.1892 186 92.9996 186C99.8101 186 105.351 180.459 105.351 173.649V172.838C112.942 172.039 118.877 165.602 118.877 157.804V147.856V147.292C118.877 136.413 123.118 125.93 130.819 117.777C139.962 108.097 144.998 95.4297 144.998 82.1089C144.998 68.1608 139.547 55.067 129.649 45.2388ZM104.625 95.6659C104.625 94.3973 105.657 93.3652 106.926 93.3652C108.194 93.3652 109.227 94.3973 109.227 95.6659V96.1505C109.227 97.4191 108.194 98.4511 106.926 98.4511H104.625V95.6659ZM88.641 105.716H97.3594V144.223H88.641V105.716ZM78.4593 98.4511C77.1907 98.4511 76.1586 97.4191 76.1586 96.1505V95.6659C76.1586 94.3973 77.1907 93.3652 78.4593 93.3652H79.0747C80.3433 93.3652 81.3754 94.3973 81.3754 95.6659V98.4511H78.4593ZM98.0859 173.649C98.0859 176.453 95.8045 178.734 93 178.734C90.1955 178.734 87.9141 176.453 87.9141 173.649V172.922H98.0859V173.649ZM111.612 157.804C111.612 162.134 108.089 165.657 103.759 165.657H101.719H84.2816H82.3235C77.9932 165.657 74.4705 162.134 74.4705 157.804V151.489H111.612V157.804Z" fill="black"/>
<path d="M93 0C90.994 0 89.3672 1.62677 89.3672 3.63281V17.1992C89.3672 19.2052 90.9936 20.832 93 20.832C95.006 20.832 96.6328 19.2052 96.6328 17.1992V3.63281C96.6328 1.62677 95.006 0 93 0Z" fill="black"/>
<path d="M171.476 78.4766H157.91C155.904 78.4766 154.277 80.1033 154.277 82.1094C154.277 84.1154 155.904 85.7422 157.91 85.7422H171.476C173.482 85.7422 175.109 84.1154 175.109 82.1094C175.109 80.1033 173.482 78.4766 171.476 78.4766Z" fill="black"/>
<path d="M28.0904 78.4766H14.524C12.518 78.4766 10.8912 80.1033 10.8912 82.1094C10.8912 84.1154 12.518 85.7422 14.524 85.7422H28.0904C30.0965 85.7422 31.7232 84.1154 31.7232 82.1094C31.7232 80.1033 30.0968 78.4766 28.0904 78.4766Z" fill="black"/>
<path d="M49.6704 33.6418L40.0779 24.049C38.6593 22.6312 36.3598 22.6304 34.9401 24.049C33.5214 25.4677 33.5214 27.768 34.9401 29.1869L44.5325 38.7797C45.2424 39.4889 46.172 39.8438 47.1016 39.8438C48.0313 39.8438 48.9609 39.4889 49.6704 38.7797C51.089 37.3611 51.089 35.0608 49.6704 33.6418Z" fill="black"/>
<path d="M151.06 24.049C149.641 22.6308 147.341 22.6308 145.923 24.049L136.33 33.6418C134.911 35.0605 134.911 37.3608 136.33 38.7797C137.04 39.4889 137.969 39.8438 138.899 39.8438C139.828 39.8438 140.758 39.4889 141.468 38.7797L151.06 29.1869C152.479 27.7683 152.479 25.468 151.06 24.049Z" fill="black"/>
<path d="M127.007 68.3918C124.285 61.6352 119.656 55.8852 113.621 51.7626C107.506 47.5867 100.359 45.3838 92.9324 45.3838C92.8444 45.3838 92.7551 45.3842 92.6672 45.3845C90.6608 45.3987 89.0456 47.0367 89.0598 49.0428C89.074 51.0404 90.6978 52.6501 92.6922 52.6501C92.7006 52.6501 92.7097 52.6501 92.718 52.6501C92.7903 52.6494 92.8612 52.6494 92.9331 52.6494C105.029 52.6494 115.744 59.8758 120.269 71.1066C120.839 72.5227 122.2 73.3833 123.639 73.3833C124.091 73.3833 124.551 73.2983 124.995 73.1189C126.856 72.369 127.757 70.2522 127.007 68.3918Z" fill="black"/>
<path d="M128.593 79.5409C127.918 78.8651 126.981 78.4761 126.025 78.4761C125.066 78.4761 124.128 78.8651 123.453 79.5409C122.777 80.2162 122.392 81.1535 122.392 82.1089C122.392 83.0643 122.777 84.0016 123.453 84.6773C124.128 85.353 125.066 85.7417 126.025 85.7417C126.981 85.7417 127.918 85.3533 128.593 84.6773C129.269 84.0016 129.654 83.0643 129.654 82.1089C129.654 81.1535 129.269 80.2162 128.593 79.5409Z" fill="black"/>
<path d="M51.0672 60.8249C50.3918 60.1492 49.4546 59.7642 48.4992 59.7642C47.5437 59.7642 46.6065 60.1489 45.9307 60.8249C45.255 61.5043 44.8663 62.4379 44.8663 63.397C44.8663 64.3524 45.2547 65.286 45.9307 65.9654C46.6065 66.6407 47.5437 67.0298 48.4992 67.0298C49.4546 67.0298 50.3918 66.6411 51.0672 65.9654C51.7429 65.286 52.132 64.3524 52.132 63.397C52.132 62.4379 51.7433 61.5043 51.0672 60.8249Z" fill="black"/>
</mask>
<g mask="url(#mask0)">
<rect x="-86.0001" y="-160.001" width="237" height="311" rx="10" fill="#9EA4B0" fill-opacity="0.4"/>
</g>
</svg>
